<svg xmlns="http://www.w3.org/2000/svg" width="960" height="540" viewBox="0 0 960 540">
<style>text{font-family:Menlo,Monaco,monospace;font-size:12px;fill:#222} .axis{stroke:#333;stroke-width:1} .grid{stroke:#ddd;stroke-width:1} .label{font-size:11px;fill:#444}</style>
<text x="480.0" y="26" text-anchor="middle">S=16 Build Success: empirical vs theory</text>
<line class="axis" x1="90" y1="465" x2="920" y2="465" />
<line class="axis" x1="90" y1="55" x2="90" y2="465" />
<line class="grid" x1="90" y1="465.00" x2="920" y2="465.00" />
<text class="label" x="82" y="469.00" text-anchor="end">0.00</text>
<line class="grid" x1="90" y1="362.50" x2="920" y2="362.50" />
<text class="label" x="82" y="366.50" text-anchor="end">0.25</text>
<line class="grid" x1="90" y1="260.00" x2="920" y2="260.00" />
<text class="label" x="82" y="264.00" text-anchor="end">0.50</text>
<line class="grid" x1="90" y1="157.50" x2="920" y2="157.50" />
<text class="label" x="82" y="161.50" text-anchor="end">0.75</text>
<line class="grid" x1="90" y1="55.00" x2="920" y2="55.00" />
<text class="label" x="82" y="59.00" text-anchor="end">1.00</text>
<line class="grid" x1="90.00" y1="55" x2="90.00" y2="465" />
<text class="label" x="90.00" y="485" text-anchor="middle">4096</text>
<line class="grid" x1="422.00" y1="55" x2="422.00" y2="465" />
<text class="label" x="422.00" y="485" text-anchor="middle">16384</text>
<line class="grid" x1="754.00" y1="55" x2="754.00" y2="465" />
<text class="label" x="754.00" y="485" text-anchor="middle">65536</text>
<line class="grid" x1="920.00" y1="55" x2="920.00" y2="465" />
<text class="label" x="920.00" y="485" text-anchor="middle">131072</text>
<polyline fill="none" stroke="#2a7fff" stroke-width="2.5" points="90.00,55.00 422.00,55.00 754.00,55.00 920.00,349.69" />
<circle cx="90.00" cy="55.00" r="3.5" fill="#2a7fff" />
<circle cx="422.00" cy="55.00" r="3.5" fill="#2a7fff" />
<circle cx="754.00" cy="55.00" r="3.5" fill="#2a7fff" />
<circle cx="920.00" cy="349.69" r="3.5" fill="#2a7fff" />
<polyline fill="none" stroke="#2a7fff" stroke-width="2.5" stroke-dasharray="8,6" points="90.00,55.00 422.00,55.00 754.00,429.25 920.00,464.97" />
<rect x="87.50" y="52.50" width="5" height="5" fill="#2a7fff" />
<rect x="419.50" y="52.50" width="5" height="5" fill="#2a7fff" />
<rect x="751.50" y="426.75" width="5" height="5" fill="#2a7fff" />
<rect x="917.50" y="462.47" width="5" height="5" fill="#2a7fff" />
<line x1="100" y1="67" x2="116" y2="67" stroke="#2a7fff" stroke-width="2.5" />
<line x1="120" y1="67" x2="136" y2="67" stroke="#2a7fff" stroke-width="2.5" stroke-dasharray="8,6" />
<text class="label" x="142" y="71">w=128 (solid=emp, dashed=theory)</text>
<polyline fill="none" stroke="#e4572e" stroke-width="2.5" points="90.00,55.00 422.00,55.00 754.00,99.84 920.00,461.80" />
<circle cx="90.00" cy="55.00" r="3.5" fill="#e4572e" />
<circle cx="422.00" cy="55.00" r="3.5" fill="#e4572e" />
<circle cx="754.00" cy="99.84" r="3.5" fill="#e4572e" />
<circle cx="920.00" cy="461.80" r="3.5" fill="#e4572e" />
<polyline fill="none" stroke="#e4572e" stroke-width="2.5" stroke-dasharray="8,6" points="90.00,55.00 422.00,55.55 754.00,464.32 920.00,465.00" />
<rect x="87.50" y="52.50" width="5" height="5" fill="#e4572e" />
<rect x="419.50" y="53.05" width="5" height="5" fill="#e4572e" />
<rect x="751.50" y="461.82" width="5" height="5" fill="#e4572e" />
<rect x="917.50" y="462.50" width="5" height="5" fill="#e4572e" />
<line x1="100" y1="85" x2="116" y2="85" stroke="#e4572e" stroke-width="2.5" />
<line x1="120" y1="85" x2="136" y2="85" stroke="#e4572e" stroke-width="2.5" stroke-dasharray="8,6" />
<text class="label" x="142" y="89">w=2048 (solid=emp, dashed=theory)</text>
<polyline fill="none" stroke="#22a06b" stroke-width="2.5" points="90.00,55.00 422.00,55.00 754.00,55.00 920.00,420.16" />
<circle cx="90.00" cy="55.00" r="3.5" fill="#22a06b" />
<circle cx="422.00" cy="55.00" r="3.5" fill="#22a06b" />
<circle cx="754.00" cy="55.00" r="3.5" fill="#22a06b" />
<circle cx="920.00" cy="420.16" r="3.5" fill="#22a06b" />
<polyline fill="none" stroke="#22a06b" stroke-width="2.5" stroke-dasharray="8,6" points="90.00,55.00 422.00,55.00 754.00,451.47 920.00,465.00" />
<rect x="87.50" y="52.50" width="5" height="5" fill="#22a06b" />
<rect x="419.50" y="52.50" width="5" height="5" fill="#22a06b" />
<rect x="751.50" y="448.97" width="5" height="5" fill="#22a06b" />
<rect x="917.50" y="462.50" width="5" height="5" fill="#22a06b" />
<line x1="100" y1="103" x2="116" y2="103" stroke="#22a06b" stroke-width="2.5" />
<line x1="120" y1="103" x2="136" y2="103" stroke="#22a06b" stroke-width="2.5" stroke-dasharray="8,6" />
<text class="label" x="142" y="107">w=256 (solid=emp, dashed=theory)</text>
<polyline fill="none" stroke="#7c3aed" stroke-width="2.5" points="90.00,55.00 422.00,55.00 754.00,58.20 920.00,461.80" />
<circle cx="90.00" cy="55.00" r="3.5" fill="#7c3aed" />
<circle cx="422.00" cy="55.00" r="3.5" fill="#7c3aed" />
<circle cx="754.00" cy="58.20" r="3.5" fill="#7c3aed" />
<circle cx="920.00" cy="461.80" r="3.5" fill="#7c3aed" />
<polyline fill="none" stroke="#7c3aed" stroke-width="2.5" stroke-dasharray="8,6" points="90.00,55.00 422.00,55.01 754.00,459.97 920.00,465.00" />
<rect x="87.50" y="52.50" width="5" height="5" fill="#7c3aed" />
<rect x="419.50" y="52.51" width="5" height="5" fill="#7c3aed" />
<rect x="751.50" y="457.47" width="5" height="5" fill="#7c3aed" />
<rect x="917.50" y="462.50" width="5" height="5" fill="#7c3aed" />
<line x1="100" y1="121" x2="116" y2="121" stroke="#7c3aed" stroke-width="2.5" />
<line x1="120" y1="121" x2="136" y2="121" stroke="#7c3aed" stroke-width="2.5" stroke-dasharray="8,6" />
<text class="label" x="142" y="125">w=512 (solid=emp, dashed=theory)</text>
<polyline fill="none" stroke="#a16207" stroke-width="2.5" points="90.00,55.00 422.00,55.00 754.00,55.00 920.00,272.81" />
<circle cx="90.00" cy="55.00" r="3.5" fill="#a16207" />
<circle cx="422.00" cy="55.00" r="3.5" fill="#a16207" />
<circle cx="754.00" cy="55.00" r="3.5" fill="#a16207" />
<circle cx="920.00" cy="272.81" r="3.5" fill="#a16207" />
<polyline fill="none" stroke="#a16207" stroke-width="2.5" stroke-dasharray="8,6" points="90.00,55.00 422.00,55.00 754.00,374.89 920.00,464.75" />
<rect x="87.50" y="52.50" width="5" height="5" fill="#a16207" />
<rect x="419.50" y="52.50" width="5" height="5" fill="#a16207" />
<rect x="751.50" y="372.39" width="5" height="5" fill="#a16207" />
<rect x="917.50" y="462.25" width="5" height="5" fill="#a16207" />
<line x1="100" y1="139" x2="116" y2="139" stroke="#a16207" stroke-width="2.5" />
<line x1="120" y1="139" x2="136" y2="139" stroke="#a16207" stroke-width="2.5" stroke-dasharray="8,6" />
<text class="label" x="142" y="143">w=64 (solid=emp, dashed=theory)</text>
<text class="label" x="480.0" y="522" text-anchor="middle">n (log2 scale)</text>
<text class="label" transform="translate(20,270.0) rotate(-90)" text-anchor="middle">Success probability</text>
</svg>