<svg xmlns="http://www.w3.org/2000/svg" width="960.0" height="540.0" viewBox="0 0 960.0 540.0">
<style>text{font-family:Menlo,Monaco,monospace;font-size:12px;fill:#222} .axis{stroke:#333;stroke-width:1} .grid{stroke:#ddd;stroke-width:1} .label{font-size:11px;fill:#444}</style>
<text x="480.0" y="26" text-anchor="middle">Build (KeySize=128): Time (ns/op)</text>
<line class="axis" x1="90.0" y1="465.0" x2="920.0" y2="465.0" />
<line class="axis" x1="90.0" y1="55.0" x2="90.0" y2="465.0" />
<line class="grid" x1="90.0" y1="465.00" x2="920.0" y2="465.00" />
<text class="label" x="82.0" y="469.00" text-anchor="end">10^5</text>
<line class="grid" x1="90.0" y1="362.50" x2="920.0" y2="362.50" />
<text class="label" x="82.0" y="366.50" text-anchor="end">10^6</text>
<line class="grid" x1="90.0" y1="260.00" x2="920.0" y2="260.00" />
<text class="label" x="82.0" y="264.00" text-anchor="end">10^7</text>
<line class="grid" x1="90.0" y1="157.50" x2="920.0" y2="157.50" />
<text class="label" x="82.0" y="161.50" text-anchor="end">10^8</text>
<line class="grid" x1="90.0" y1="55.00" x2="920.0" y2="55.00" />
<text class="label" x="82.0" y="59.00" text-anchor="end">10^9</text>
<line class="grid" x1="90.00" y1="55.0" x2="90.00" y2="465.0" />
<text class="label" x="90.00" y="485.0" text-anchor="middle">1024.0</text>
<line class="grid" x1="588.00" y1="55.0" x2="588.00" y2="465.0" />
<text class="label" x="588.00" y="485.0" text-anchor="middle">8192.0</text>
<line class="grid" x1="920.00" y1="55.0" x2="920.00" y2="465.0" />
<text class="label" x="920.00" y="485.0" text-anchor="middle">32768.0</text>
<polyline fill="none" stroke="#2a7fff" stroke-width="2.5" points="90.00,369.03 588.00,273.66 920.00,208.42" />
<circle cx="90.00" cy="369.03" r="3.5" fill="#2a7fff" />
<circle cx="588.00" cy="273.66" r="3.5" fill="#2a7fff" />
<circle cx="920.00" cy="208.42" r="3.5" fill="#2a7fff" />
<line x1="100.0" y1="67.0" x2="116.0" y2="67.0" stroke="#2a7fff" stroke-width="2.5" />
<text class="label" x="122.0" y="71.0">ZFT</text>
<polyline fill="none" stroke="#e4572e" stroke-width="2.5" points="90.00,329.29 588.00,232.68 920.00,165.79" />
<circle cx="90.00" cy="329.29" r="3.5" fill="#e4572e" />
<circle cx="588.00" cy="232.68" r="3.5" fill="#e4572e" />
<circle cx="920.00" cy="165.79" r="3.5" fill="#e4572e" />
<line x1="100.0" y1="85.0" x2="116.0" y2="85.0" stroke="#e4572e" stroke-width="2.5" />
<text class="label" x="122.0" y="89.0">AZFT</text>
<polyline fill="none" stroke="#22a06b" stroke-width="2.5" points="90.00,298.38 588.00,197.70 920.00,123.99" />
<circle cx="90.00" cy="298.38" r="3.5" fill="#22a06b" />
<circle cx="588.00" cy="197.70" r="3.5" fill="#22a06b" />
<circle cx="920.00" cy="123.99" r="3.5" fill="#22a06b" />
<line x1="100.0" y1="103.0" x2="116.0" y2="103.0" stroke="#22a06b" stroke-width="2.5" />
<text class="label" x="122.0" y="107.0">RangeLocator</text>
<polyline fill="none" stroke="#7c3aed" stroke-width="2.5" points="90.00,283.50 588.00,185.76 920.00,115.63" />
<circle cx="90.00" cy="283.50" r="3.5" fill="#7c3aed" />
<circle cx="588.00" cy="185.76" r="3.5" fill="#7c3aed" />
<circle cx="920.00" cy="115.63" r="3.5" fill="#7c3aed" />
<line x1="100.0" y1="121.0" x2="116.0" y2="121.0" stroke="#7c3aed" stroke-width="2.5" />
<text class="label" x="122.0" y="125.0">LocalExactRangeLocator</text>
<polyline fill="none" stroke="#a16207" stroke-width="2.5" points="90.00,322.80 588.00,230.63 920.00,164.17" />
<circle cx="90.00" cy="322.80" r="3.5" fill="#a16207" />
<circle cx="588.00" cy="230.63" r="3.5" fill="#a16207" />
<circle cx="920.00" cy="164.17" r="3.5" fill="#a16207" />
<line x1="100.0" y1="139.0" x2="116.0" y2="139.0" stroke="#a16207" stroke-width="2.5" />
<text class="label" x="122.0" y="143.0">HZFT Old (Heavy)</text>
<polyline fill="none" stroke="#d946ef" stroke-width="2.5" points="90.00,342.54 588.00,253.22 920.00,186.33" />
<circle cx="90.00" cy="342.54" r="3.5" fill="#d946ef" />
<circle cx="588.00" cy="253.22" r="3.5" fill="#d946ef" />
<circle cx="920.00" cy="186.33" r="3.5" fill="#d946ef" />
<line x1="100.0" y1="157.0" x2="116.0" y2="157.0" stroke="#d946ef" stroke-width="2.5" />
<text class="label" x="122.0" y="161.0">HZFT New (Streaming)</text>
<text class="label" x="480.0" y="522.0" text-anchor="middle">Number of Keys</text>
<text class="label" transform="translate(20,270.0) rotate(-90)" text-anchor="middle">ns</text>
</svg>