<svg xmlns="http://www.w3.org/2000/svg" width="960.0" height="540.0" viewBox="0 0 960.0 540.0">
<style>text{font-family:Menlo,Monaco,monospace;font-size:12px;fill:#222} .axis{stroke:#333;stroke-width:1} .grid{stroke:#ddd;stroke-width:1} .label{font-size:11px;fill:#444}</style>
<text x="480.0" y="26" text-anchor="middle">ARE: Query Latency (1M keys)</text>
<line class="axis" x1="90.0" y1="465.0" x2="920.0" y2="465.0" />
<line class="axis" x1="90.0" y1="55.0" x2="90.0" y2="465.0" />
<line class="grid" x1="90.0" y1="465.00" x2="920.0" y2="465.00" />
<text class="label" x="82.0" y="469.00" text-anchor="end">0.00</text>
<line class="grid" x1="90.0" y1="383.00" x2="920.0" y2="383.00" />
<text class="label" x="82.0" y="387.00" text-anchor="end">32.52</text>
<line class="grid" x1="90.0" y1="301.00" x2="920.0" y2="301.00" />
<text class="label" x="82.0" y="305.00" text-anchor="end">65.03</text>
<line class="grid" x1="90.0" y1="219.00" x2="920.0" y2="219.00" />
<text class="label" x="82.0" y="223.00" text-anchor="end">97.55</text>
<line class="grid" x1="90.0" y1="137.00" x2="920.0" y2="137.00" />
<text class="label" x="82.0" y="141.00" text-anchor="end">130.06</text>
<line class="grid" x1="90.0" y1="55.00" x2="920.0" y2="55.00" />
<text class="label" x="82.0" y="59.00" text-anchor="end">162.58</text>
<line class="grid" x1="90.00" y1="55.0" x2="90.00" y2="465.0" />
<text class="label" x="90.00" y="485.0" text-anchor="middle">64</text>
<line class="grid" x1="208.57" y1="55.0" x2="208.57" y2="465.0" />
<text class="label" x="208.57" y="485.0" text-anchor="middle">128</text>
<line class="grid" x1="445.71" y1="55.0" x2="445.71" y2="465.0" />
<text class="label" x="445.71" y="485.0" text-anchor="middle">256</text>
<line class="grid" x1="920.00" y1="55.0" x2="920.00" y2="465.0" />
<text class="label" x="920.00" y="485.0" text-anchor="middle">512</text>
<polyline fill="none" stroke="#2a7fff" stroke-width="2.5" points="90.00,99.33 208.57,94.29 445.71,107.40 920.00,115.22" />
<circle cx="90.00" cy="99.33" r="3.5" fill="#2a7fff" />
<circle cx="208.57" cy="94.29" r="3.5" fill="#2a7fff" />
<circle cx="445.71" cy="107.40" r="3.5" fill="#2a7fff" />
<circle cx="920.00" cy="115.22" r="3.5" fill="#2a7fff" />
<line x1="100.0" y1="67.0" x2="116.0" y2="67.0" stroke="#2a7fff" stroke-width="2.5" />
<text class="label" x="122.0" y="71.0">Eps=0.01</text>
<polyline fill="none" stroke="#e4572e" stroke-width="2.5" points="90.00,99.84 208.57,92.27 445.71,108.16 920.00,111.19" />
<circle cx="90.00" cy="99.84" r="3.5" fill="#e4572e" />
<circle cx="208.57" cy="92.27" r="3.5" fill="#e4572e" />
<circle cx="445.71" cy="108.16" r="3.5" fill="#e4572e" />
<circle cx="920.00" cy="111.19" r="3.5" fill="#e4572e" />
<line x1="100.0" y1="85.0" x2="116.0" y2="85.0" stroke="#e4572e" stroke-width="2.5" />
<text class="label" x="122.0" y="89.0">Eps=0.001</text>
<text class="label" x="480.0" y="522.0" text-anchor="middle">Original Bit Length (L)</text>
<text class="label" transform="translate(20,270.0) rotate(-90)" text-anchor="middle">Time (ns/op)</text>
</svg>