<svg xmlns="http://www.w3.org/2000/svg" width="1020" height="600" viewBox="0 0 1020 600">
<style>text{font-family:Menlo,Monaco,monospace;font-size:12px;fill:#222} .axis{stroke:#333;stroke-width:1} .grid{stroke:#eee;stroke-width:0.5} .label{font-size:11px;fill:#444}</style>
<text x="510" y="28" text-anchor="middle" style="font-size:14px;font-weight:bold">FPR vs BPK — Cluster (n=65536, L=1024)</text>
<line class="axis" x1="90.0" y1="550.0" x2="870.0" y2="550.0"/>
<line class="axis" x1="90.0" y1="40.0" x2="90.0" y2="550.0"/>
<line class="grid" x1="90.0" y1="507.5" x2="870.0" y2="507.5"/>
<text class="label" x="82.0" y="511.5" text-anchor="end">10^-5</text>
<line class="grid" x1="90.0" y1="422.5" x2="870.0" y2="422.5"/>
<text class="label" x="82.0" y="426.5" text-anchor="end">10^-4</text>
<line class="grid" x1="90.0" y1="337.5" x2="870.0" y2="337.5"/>
<text class="label" x="82.0" y="341.5" text-anchor="end">10^-3</text>
<line class="grid" x1="90.0" y1="252.5" x2="870.0" y2="252.5"/>
<text class="label" x="82.0" y="256.5" text-anchor="end">10^-2</text>
<line class="grid" x1="90.0" y1="167.5" x2="870.0" y2="167.5"/>
<text class="label" x="82.0" y="171.5" text-anchor="end">10^-1</text>
<line class="grid" x1="90.0" y1="82.5" x2="870.0" y2="82.5"/>
<text class="label" x="82.0" y="86.5" text-anchor="end">1</text>
<line class="grid" x1="138.8" y1="40.0" x2="138.8" y2="550.0"/>
<text class="label" x="138.8" y="566.0" text-anchor="middle">2</text>
<line class="grid" x1="205.0" y1="40.0" x2="205.0" y2="550.0"/>
<text class="label" x="205.0" y="566.0" text-anchor="middle">4</text>
<line class="grid" x1="271.3" y1="40.0" x2="271.3" y2="550.0"/>
<text class="label" x="271.3" y="566.0" text-anchor="middle">6</text>
<line class="grid" x1="337.6" y1="40.0" x2="337.6" y2="550.0"/>
<text class="label" x="337.6" y="566.0" text-anchor="middle">8</text>
<line class="grid" x1="403.8" y1="40.0" x2="403.8" y2="550.0"/>
<text class="label" x="403.8" y="566.0" text-anchor="middle">10</text>
<line class="grid" x1="470.1" y1="40.0" x2="470.1" y2="550.0"/>
<text class="label" x="470.1" y="566.0" text-anchor="middle">12</text>
<line class="grid" x1="536.4" y1="40.0" x2="536.4" y2="550.0"/>
<text class="label" x="536.4" y="566.0" text-anchor="middle">14</text>
<line class="grid" x1="602.6" y1="40.0" x2="602.6" y2="550.0"/>
<text class="label" x="602.6" y="566.0" text-anchor="middle">16</text>
<line class="grid" x1="668.9" y1="40.0" x2="668.9" y2="550.0"/>
<text class="label" x="668.9" y="566.0" text-anchor="middle">18</text>
<line class="grid" x1="735.2" y1="40.0" x2="735.2" y2="550.0"/>
<text class="label" x="735.2" y="566.0" text-anchor="middle">20</text>
<line class="grid" x1="801.4" y1="40.0" x2="801.4" y2="550.0"/>
<text class="label" x="801.4" y="566.0" text-anchor="middle">22</text>
<line class="grid" x1="867.7" y1="40.0" x2="867.7" y2="550.0"/>
<text class="label" x="867.7" y="566.0" text-anchor="middle">24</text>
<polyline fill="none" stroke="#ef4444" stroke-width="2" stroke-dasharray="8,5" points="513.9,167.5 547.0,193.1 590.8,226.9 624.0,252.5 657.1,278.1 700.9,311.9 734.0,337.5"/>
<circle cx="513.9" cy="167.5" r="3" fill="#ef4444"/>
<circle cx="547.0" cy="193.1" r="3" fill="#ef4444"/>
<circle cx="590.8" cy="226.9" r="3" fill="#ef4444"/>
<circle cx="624.0" cy="252.5" r="3" fill="#ef4444"/>
<circle cx="657.1" cy="278.1" r="3" fill="#ef4444"/>
<circle cx="700.9" cy="311.9" r="3" fill="#ef4444"/>
<circle cx="734.0" cy="337.5" r="3" fill="#ef4444"/>
<polyline fill="none" stroke="#2a7fff" stroke-width="2" points="635.7,204.1 668.9,233.6 702.0,254.1 735.2,295.2 768.3,334.9 801.4,362.6 834.5,392.6"/>
<rect x="632.7" y="201.1" width="6" height="6" fill="#2a7fff"/>
<rect x="665.9" y="230.6" width="6" height="6" fill="#2a7fff"/>
<rect x="699.0" y="251.1" width="6" height="6" fill="#2a7fff"/>
<rect x="732.2" y="292.2" width="6" height="6" fill="#2a7fff"/>
<rect x="765.3" y="331.9" width="6" height="6" fill="#2a7fff"/>
<rect x="798.4" y="359.6" width="6" height="6" fill="#2a7fff"/>
<rect x="831.5" y="389.6" width="6" height="6" fill="#2a7fff"/>
<polyline fill="none" stroke="#6495ED" stroke-width="2" stroke-dasharray="8,5" points="602.6,174.6 635.7,204.1 668.9,233.6 702.0,254.1 735.2,295.2 768.3,334.9 801.4,362.6"/>
<rect x="599.6" y="171.6" width="6" height="6" fill="#6495ED"/>
<rect x="632.7" y="201.1" width="6" height="6" fill="#6495ED"/>
<rect x="665.9" y="230.6" width="6" height="6" fill="#6495ED"/>
<rect x="699.0" y="251.1" width="6" height="6" fill="#6495ED"/>
<rect x="732.2" y="292.2" width="6" height="6" fill="#6495ED"/>
<rect x="765.3" y="331.9" width="6" height="6" fill="#6495ED"/>
<rect x="798.4" y="359.6" width="6" height="6" fill="#6495ED"/>
<polyline fill="none" stroke="#4169E1" stroke-width="2" stroke-dasharray="8,5" points="569.4,144.6 602.6,174.6 635.7,204.1 668.9,233.6 702.0,254.1 735.2,295.2 768.3,334.9"/>
<rect x="566.4" y="141.6" width="6" height="6" fill="#4169E1"/>
<rect x="599.6" y="171.6" width="6" height="6" fill="#4169E1"/>
<rect x="632.7" y="201.1" width="6" height="6" fill="#4169E1"/>
<rect x="665.9" y="230.6" width="6" height="6" fill="#4169E1"/>
<rect x="699.0" y="251.1" width="6" height="6" fill="#4169E1"/>
<rect x="732.2" y="292.2" width="6" height="6" fill="#4169E1"/>
<rect x="765.3" y="331.9" width="6" height="6" fill="#4169E1"/>
<polyline fill="none" stroke="#1E3A8A" stroke-width="2" stroke-dasharray="8,5" points="536.3,122.5 569.4,144.6 602.6,174.6 635.7,204.1 668.9,233.6 702.0,254.1 735.2,295.2"/>
<rect x="533.3" y="119.5" width="6" height="6" fill="#1E3A8A"/>
<rect x="566.4" y="141.6" width="6" height="6" fill="#1E3A8A"/>
<rect x="599.6" y="171.6" width="6" height="6" fill="#1E3A8A"/>
<rect x="632.7" y="201.1" width="6" height="6" fill="#1E3A8A"/>
<rect x="665.9" y="230.6" width="6" height="6" fill="#1E3A8A"/>
<rect x="699.0" y="251.1" width="6" height="6" fill="#1E3A8A"/>
<rect x="732.2" y="292.2" width="6" height="6" fill="#1E3A8A"/>
<polyline fill="none" stroke="#0F1D45" stroke-width="2" stroke-dasharray="8,5" points="503.1,102.3 536.3,122.5 569.4,144.6 602.6,174.6 635.7,204.1 668.9,233.6 702.0,254.1"/>
<rect x="500.1" y="99.3" width="6" height="6" fill="#0F1D45"/>
<rect x="533.3" y="119.5" width="6" height="6" fill="#0F1D45"/>
<rect x="566.4" y="141.6" width="6" height="6" fill="#0F1D45"/>
<rect x="599.6" y="171.6" width="6" height="6" fill="#0F1D45"/>
<rect x="632.7" y="201.1" width="6" height="6" fill="#0F1D45"/>
<rect x="665.9" y="230.6" width="6" height="6" fill="#0F1D45"/>
<rect x="699.0" y="251.1" width="6" height="6" fill="#0F1D45"/>
<polyline fill="none" stroke="#22a06b" stroke-width="2" points="635.7,204.1 668.9,233.6 702.0,254.1 735.2,295.2 768.3,334.9 801.4,362.6 834.5,392.6"/>
<polygon points="635.7,200.1 639.7,204.1 635.7,208.1 631.7,204.1" fill="#22a06b"/>
<polygon points="668.9,229.6 672.9,233.6 668.9,237.6 664.9,233.6" fill="#22a06b"/>
<polygon points="702.0,250.1 706.0,254.1 702.0,258.1 698.0,254.1" fill="#22a06b"/>
<polygon points="735.2,291.2 739.2,295.2 735.2,299.2 731.2,295.2" fill="#22a06b"/>
<polygon points="768.3,330.9 772.3,334.9 768.3,338.9 764.3,334.9" fill="#22a06b"/>
<polygon points="801.4,358.6 805.4,362.6 801.4,366.6 797.4,362.6" fill="#22a06b"/>
<polygon points="834.5,388.6 838.5,392.6 834.5,396.6 830.5,392.6" fill="#22a06b"/>
<polyline fill="none" stroke="#e6a800" stroke-width="2" points="125.5,89.5 130.5,89.5 135.5,89.5 140.5,89.5 145.4,89.5 150.4,89.5 155.4,89.5"/>
<polygon points="125.5,85.5 129.5,92.5 121.5,92.5" fill="#e6a800"/>
<polygon points="130.5,85.5 134.5,92.5 126.5,92.5" fill="#e6a800"/>
<polygon points="135.5,85.5 139.5,92.5 131.5,92.5" fill="#e6a800"/>
<polygon points="140.5,85.5 144.5,92.5 136.5,92.5" fill="#e6a800"/>
<polygon points="145.4,85.5 149.4,92.5 141.4,92.5" fill="#e6a800"/>
<polygon points="150.4,85.5 154.4,92.5 146.4,92.5" fill="#e6a800"/>
<polygon points="155.4,85.5 159.4,92.5 151.4,92.5" fill="#e6a800"/>
<polyline fill="none" stroke="#9b59b6" stroke-width="2" points="563.0,215.0 585.1,253.9 612.7,318.0 623.4,344.9 628.4,369.5 638.4,430.4 643.4,461.7"/>
<polygon points="563.0,210.0 561.8,213.4 558.2,213.5 561.1,215.6 560.0,219.1 563.0,217.0 565.9,219.1 564.9,215.6 567.7,213.5 564.1,213.4" fill="#9b59b6"/>
<polygon points="585.1,248.9 583.9,252.3 580.3,252.4 583.2,254.5 582.1,258.0 585.1,255.9 588.0,258.0 587.0,254.5 589.8,252.4 586.3,252.3" fill="#9b59b6"/>
<polygon points="612.7,313.0 611.5,316.4 608.0,316.5 610.8,318.6 609.8,322.1 612.7,320.0 615.7,322.1 614.6,318.6 617.5,316.5 613.9,316.4" fill="#9b59b6"/>
<polygon points="623.4,339.9 622.2,343.3 618.6,343.3 621.5,345.5 620.5,348.9 623.4,346.9 626.3,348.9 625.3,345.5 628.1,343.3 624.6,343.3" fill="#9b59b6"/>
<polygon points="628.4,364.5 627.2,367.8 623.7,367.9 626.5,370.1 625.5,373.5 628.4,371.5 631.4,373.5 630.3,370.1 633.2,367.9 629.6,367.8" fill="#9b59b6"/>
<polygon points="638.4,425.4 637.2,428.8 633.6,428.9 636.5,431.0 635.5,434.5 638.4,432.4 641.3,434.5 640.3,431.0 643.2,428.9 639.6,428.8" fill="#9b59b6"/>
<polygon points="643.4,456.7 642.2,460.1 638.6,460.1 641.5,462.3 640.4,465.7 643.4,463.7 646.3,465.7 645.3,462.3 648.1,460.1 644.5,460.1" fill="#9b59b6"/>
<polyline fill="none" stroke="#e05d10" stroke-width="2" points="361.4,169.5 397.7,192.1 432.8,213.6 467.0,230.9 500.7,245.9 534.0,256.1 567.2,262.0"/>
<circle cx="361.4" cy="169.5" r="3" fill="#e05d10"/>
<circle cx="397.7" cy="192.1" r="3" fill="#e05d10"/>
<circle cx="432.8" cy="213.6" r="3" fill="#e05d10"/>
<circle cx="467.0" cy="230.9" r="3" fill="#e05d10"/>
<circle cx="500.7" cy="245.9" r="3" fill="#e05d10"/>
<circle cx="534.0" cy="256.1" r="3" fill="#e05d10"/>
<circle cx="567.2" cy="262.0" r="3" fill="#e05d10"/>
<line x1="886" y1="60" x2="902" y2="60" stroke="#ef4444" stroke-width="2" stroke-dasharray="8,5"/>
<circle cx="894.0" cy="60.0" r="3" fill="#ef4444"/>
<text class="label" x="908" y="64">Theoretical</text>
<line x1="886" y1="78" x2="902" y2="78" stroke="#2a7fff" stroke-width="2"/>
<rect x="891.0" y="75.0" width="6" height="6" fill="#2a7fff"/>
<text class="label" x="908" y="82">Adaptive (t=0)</text>
<line x1="886" y1="96" x2="902" y2="96" stroke="#6495ED" stroke-width="2" stroke-dasharray="8,5"/>
<rect x="891.0" y="93.0" width="6" height="6" fill="#6495ED"/>
<text class="label" x="908" y="100">Adaptive (t=1)</text>
<line x1="886" y1="114" x2="902" y2="114" stroke="#4169E1" stroke-width="2" stroke-dasharray="8,5"/>
<rect x="891.0" y="111.0" width="6" height="6" fill="#4169E1"/>
<text class="label" x="908" y="118">Adaptive (t=2)</text>
<line x1="886" y1="132" x2="902" y2="132" stroke="#1E3A8A" stroke-width="2" stroke-dasharray="8,5"/>
<rect x="891.0" y="129.0" width="6" height="6" fill="#1E3A8A"/>
<text class="label" x="908" y="136">Adaptive (t=3)</text>
<line x1="886" y1="150" x2="902" y2="150" stroke="#0F1D45" stroke-width="2" stroke-dasharray="8,5"/>
<rect x="891.0" y="147.0" width="6" height="6" fill="#0F1D45"/>
<text class="label" x="908" y="154">Adaptive (t=4)</text>
<line x1="886" y1="168" x2="902" y2="168" stroke="#22a06b" stroke-width="2"/>
<polygon points="894.0,164.0 898.0,168.0 894.0,172.0 890.0,168.0" fill="#22a06b"/>
<text class="label" x="908" y="172">SODA</text>
<line x1="886" y1="186" x2="902" y2="186" stroke="#e6a800" stroke-width="2"/>
<polygon points="894.0,182.0 898.0,189.0 890.0,189.0" fill="#e6a800"/>
<text class="label" x="908" y="190">Truncation</text>
<line x1="886" y1="204" x2="902" y2="204" stroke="#9b59b6" stroke-width="2"/>
<polygon points="894.0,199.0 892.8,202.4 889.2,202.5 892.1,204.6 891.1,208.0 894.0,206.0 896.9,208.0 895.9,204.6 898.8,202.5 895.2,202.4" fill="#9b59b6"/>
<text class="label" x="908" y="208">Hybrid</text>
<line x1="886" y1="222" x2="902" y2="222" stroke="#e05d10" stroke-width="2"/>
<circle cx="894.0" cy="222.0" r="3" fill="#e05d10"/>
<text class="label" x="908" y="226">CDF-ARE</text>
<text x="480" y="590" text-anchor="middle">Bits per Key (BPK)</text>
<text transform="translate(16,295) rotate(-90)" text-anchor="middle">False Positive Rate (FPR)</text>
</svg>
