<svg xmlns="http://www.w3.org/2000/svg" width="1020" height="600" viewBox="0 0 1020 600">
<style>text{font-family:Menlo,Monaco,monospace;font-size:12px;fill:#222} .axis{stroke:#333;stroke-width:1} .grid{stroke:#eee;stroke-width:0.5} .label{font-size:11px;fill:#444}</style>
<text x="510" y="28" text-anchor="middle" style="font-size:14px;font-weight:bold">Range Emptiness: FPR vs Bits per Key</text>
<line class="axis" x1="90.0" y1="550.0" x2="870.0" y2="550.0"/>
<line class="axis" x1="90.0" y1="40.0" x2="90.0" y2="550.0"/>
<line class="grid" x1="90.0" y1="521.7" x2="870.0" y2="521.7"/>
<text class="label" x="82.0" y="525.7" text-anchor="end">10^-8</text>
<line class="grid" x1="90.0" y1="465.0" x2="870.0" y2="465.0"/>
<text class="label" x="82.0" y="469.0" text-anchor="end">10^-7</text>
<line class="grid" x1="90.0" y1="408.3" x2="870.0" y2="408.3"/>
<text class="label" x="82.0" y="412.3" text-anchor="end">10^-6</text>
<line class="grid" x1="90.0" y1="351.7" x2="870.0" y2="351.7"/>
<text class="label" x="82.0" y="355.7" text-anchor="end">10^-5</text>
<line class="grid" x1="90.0" y1="295.0" x2="870.0" y2="295.0"/>
<text class="label" x="82.0" y="299.0" text-anchor="end">10^-4</text>
<line class="grid" x1="90.0" y1="238.3" x2="870.0" y2="238.3"/>
<text class="label" x="82.0" y="242.3" text-anchor="end">10^-3</text>
<line class="grid" x1="90.0" y1="181.7" x2="870.0" y2="181.7"/>
<text class="label" x="82.0" y="185.7" text-anchor="end">10^-2</text>
<line class="grid" x1="90.0" y1="125.0" x2="870.0" y2="125.0"/>
<text class="label" x="82.0" y="129.0" text-anchor="end">10^-1</text>
<line class="grid" x1="90.0" y1="68.3" x2="870.0" y2="68.3"/>
<text class="label" x="82.0" y="72.3" text-anchor="end">1</text>
<line class="grid" x1="145.8" y1="40.0" x2="145.8" y2="550.0"/>
<text class="label" x="145.8" y="566.0" text-anchor="middle">8</text>
<line class="grid" x1="232.1" y1="40.0" x2="232.1" y2="550.0"/>
<text class="label" x="232.1" y="566.0" text-anchor="middle">10</text>
<line class="grid" x1="318.4" y1="40.0" x2="318.4" y2="550.0"/>
<text class="label" x="318.4" y="566.0" text-anchor="middle">12</text>
<line class="grid" x1="404.7" y1="40.0" x2="404.7" y2="550.0"/>
<text class="label" x="404.7" y="566.0" text-anchor="middle">14</text>
<line class="grid" x1="491.0" y1="40.0" x2="491.0" y2="550.0"/>
<text class="label" x="491.0" y="566.0" text-anchor="middle">16</text>
<line class="grid" x1="577.3" y1="40.0" x2="577.3" y2="550.0"/>
<text class="label" x="577.3" y="566.0" text-anchor="middle">18</text>
<line class="grid" x1="663.6" y1="40.0" x2="663.6" y2="550.0"/>
<text class="label" x="663.6" y="566.0" text-anchor="middle">20</text>
<line class="grid" x1="749.9" y1="40.0" x2="749.9" y2="550.0"/>
<text class="label" x="749.9" y="566.0" text-anchor="middle">22</text>
<line class="grid" x1="836.2" y1="40.0" x2="836.2" y2="550.0"/>
<text class="label" x="836.2" y="566.0" text-anchor="middle">24</text>
<polyline fill="none" stroke="#ef4444" stroke-width="2" stroke-dasharray="8,5" points="230.7,125.0 273.8,142.1 330.8,164.6 374.0,181.7 417.1,198.7 474.2,221.3 517.3,238.3"/>
<circle cx="230.7" cy="125.0" r="3" fill="#ef4444"/>
<circle cx="273.8" cy="142.1" r="3" fill="#ef4444"/>
<circle cx="330.8" cy="164.6" r="3" fill="#ef4444"/>
<circle cx="374.0" cy="181.7" r="3" fill="#ef4444"/>
<circle cx="417.1" cy="198.7" r="3" fill="#ef4444"/>
<circle cx="474.2" cy="221.3" r="3" fill="#ef4444"/>
<circle cx="517.3" cy="238.3" r="3" fill="#ef4444"/>
<polyline fill="none" stroke="#2a7fff" stroke-width="2" points="389.0,138.5 432.2,154.9 475.4,171.7 518.6,188.6 561.7,205.2 604.9,220.9 648.0,239.3"/>
<rect x="386.0" y="135.5" width="6" height="6" fill="#2a7fff"/>
<rect x="429.2" y="151.9" width="6" height="6" fill="#2a7fff"/>
<rect x="472.4" y="168.7" width="6" height="6" fill="#2a7fff"/>
<rect x="515.6" y="185.6" width="6" height="6" fill="#2a7fff"/>
<rect x="558.7" y="202.2" width="6" height="6" fill="#2a7fff"/>
<rect x="601.9" y="217.9" width="6" height="6" fill="#2a7fff"/>
<rect x="645.0" y="236.3" width="6" height="6" fill="#2a7fff"/>
<polyline fill="none" stroke="#2a7fff" stroke-width="2" stroke-dasharray="8,5" points="389.1,137.8 389.1,137.8 389.1,137.8 389.1,137.8 389.1,137.8 389.1,137.8 389.1,137.8"/>
<rect x="386.1" y="134.8" width="6" height="6" fill="#2a7fff"/>
<rect x="386.1" y="134.8" width="6" height="6" fill="#2a7fff"/>
<rect x="386.1" y="134.8" width="6" height="6" fill="#2a7fff"/>
<rect x="386.1" y="134.8" width="6" height="6" fill="#2a7fff"/>
<rect x="386.1" y="134.8" width="6" height="6" fill="#2a7fff"/>
<rect x="386.1" y="134.8" width="6" height="6" fill="#2a7fff"/>
<rect x="386.1" y="134.8" width="6" height="6" fill="#2a7fff"/>
<polyline fill="none" stroke="#22a06b" stroke-width="2" points="389.0,138.5 432.2,154.9 475.4,171.7 518.6,188.6 561.7,205.2 604.9,220.9 648.0,239.3"/>
<polygon points="389.0,134.5 393.0,138.5 389.0,142.5 385.0,138.5" fill="#22a06b"/>
<polygon points="432.2,150.9 436.2,154.9 432.2,158.9 428.2,154.9" fill="#22a06b"/>
<polygon points="475.4,167.7 479.4,171.7 475.4,175.7 471.4,171.7" fill="#22a06b"/>
<polygon points="518.6,184.6 522.6,188.6 518.6,192.6 514.6,188.6" fill="#22a06b"/>
<polygon points="561.7,201.2 565.7,205.2 561.7,209.2 557.7,205.2" fill="#22a06b"/>
<polygon points="604.9,216.9 608.9,220.9 604.9,224.9 600.9,220.9" fill="#22a06b"/>
<polygon points="648.0,235.3 652.0,239.3 648.0,243.3 644.0,239.3" fill="#22a06b"/>
<polyline fill="none" stroke="#22a06b" stroke-width="2" stroke-dasharray="8,5" points="389.1,137.8 432.3,154.6 475.4,172.1 518.6,189.5 561.7,208.1 604.9,225.6 648.0,241.8"/>
<polygon points="389.1,133.8 393.1,137.8 389.1,141.8 385.1,137.8" fill="#22a06b"/>
<polygon points="432.3,150.6 436.3,154.6 432.3,158.6 428.3,154.6" fill="#22a06b"/>
<polygon points="475.4,168.1 479.4,172.1 475.4,176.1 471.4,172.1" fill="#22a06b"/>
<polygon points="518.6,185.5 522.6,189.5 518.6,193.5 514.6,189.5" fill="#22a06b"/>
<polygon points="561.7,204.1 565.7,208.1 561.7,212.1 557.7,208.1" fill="#22a06b"/>
<polygon points="604.9,221.6 608.9,225.6 604.9,229.6 600.9,225.6" fill="#22a06b"/>
<polygon points="648.0,237.8 652.0,241.8 648.0,245.8 644.0,241.8" fill="#22a06b"/>
<polyline fill="none" stroke="#e6a800" stroke-width="2" points="125.5,149.7 170.9,166.2 215.2,183.6 258.9,201.7 302.5,218.6 389.0,250.5 432.2,265.6"/>
<polygon points="125.5,145.7 129.5,152.7 121.5,152.7" fill="#e6a800"/>
<polygon points="170.9,162.2 174.9,169.2 166.9,169.2" fill="#e6a800"/>
<polygon points="215.2,179.6 219.2,186.6 211.2,186.6" fill="#e6a800"/>
<polygon points="258.9,197.7 262.9,204.7 254.9,204.7" fill="#e6a800"/>
<polygon points="302.5,214.6 306.5,221.6 298.5,221.6" fill="#e6a800"/>
<polygon points="389.0,246.5 393.0,253.5 385.0,253.5" fill="#e6a800"/>
<polygon points="432.2,261.6 436.2,268.6 428.2,268.6" fill="#e6a800"/>
<polyline fill="none" stroke="#e6a800" stroke-width="2" stroke-dasharray="8,5" points="130.2,81.1 173.4,81.1 216.5,81.1 259.7,81.1 302.8,81.1 389.1,81.1 432.3,81.1"/>
<polygon points="130.2,77.1 134.2,84.1 126.2,84.1" fill="#e6a800"/>
<polygon points="173.4,77.1 177.4,84.1 169.4,84.1" fill="#e6a800"/>
<polygon points="216.5,77.1 220.5,84.1 212.5,84.1" fill="#e6a800"/>
<polygon points="259.7,77.1 263.7,84.1 255.7,84.1" fill="#e6a800"/>
<polygon points="302.8,77.1 306.8,84.1 298.8,84.1" fill="#e6a800"/>
<polygon points="389.1,77.1 393.1,84.1 385.1,84.1" fill="#e6a800"/>
<polygon points="432.3,77.1 436.3,84.1 428.3,84.1" fill="#e6a800"/>
<polyline fill="none" stroke="#9b59b6" stroke-width="2" points="402.5,251.3 445.7,266.4 488.9,281.9 532.1,303.8 575.2,312.1 618.4,317.5 661.5,351.7"/>
<polygon points="402.5,246.3 401.3,249.7 397.8,249.8 400.6,251.9 399.6,255.4 402.5,253.3 405.5,255.4 404.4,251.9 407.3,249.8 403.7,249.7" fill="#9b59b6"/>
<polygon points="445.7,261.4 444.5,264.8 441.0,264.8 443.8,267.0 442.8,270.4 445.7,268.4 448.6,270.4 447.6,267.0 450.5,264.8 446.9,264.8" fill="#9b59b6"/>
<polygon points="488.9,276.9 487.7,280.3 484.2,280.4 487.0,282.6 486.0,286.0 488.9,283.9 491.9,286.0 490.8,282.6 493.7,280.4 490.1,280.3" fill="#9b59b6"/>
<polygon points="532.1,298.8 530.9,302.2 527.3,302.2 530.2,304.4 529.1,307.8 532.1,305.8 535.0,307.8 534.0,304.4 536.8,302.2 533.2,302.2" fill="#9b59b6"/>
<polygon points="575.2,307.1 574.0,310.4 570.5,310.5 573.3,312.7 572.3,316.1 575.2,314.1 578.1,316.1 577.1,312.7 580.0,310.5 576.4,310.4" fill="#9b59b6"/>
<polygon points="618.4,312.5 617.2,315.9 613.6,316.0 616.5,318.2 615.4,321.6 618.4,319.5 621.3,321.6 620.3,318.2 623.1,316.0 619.5,315.9" fill="#9b59b6"/>
<polygon points="661.5,346.7 660.3,350.0 656.7,350.1 659.6,352.3 658.6,355.7 661.5,353.7 664.4,355.7 663.4,352.3 666.3,350.1 662.7,350.0" fill="#9b59b6"/>
<polyline fill="none" stroke="#9b59b6" stroke-width="2" stroke-dasharray="8,5" points="389.1,81.1 432.3,81.1 475.4,81.1 518.6,81.1 561.7,81.1 604.9,81.1 648.0,81.1"/>
<polygon points="389.1,76.1 388.0,79.4 384.4,79.5 387.2,81.7 386.2,85.1 389.1,83.1 392.1,85.1 391.0,81.7 393.9,79.5 390.3,79.4" fill="#9b59b6"/>
<polygon points="432.3,76.1 431.1,79.4 427.5,79.5 430.4,81.7 429.3,85.1 432.3,83.1 435.2,85.1 434.2,81.7 437.0,79.5 433.4,79.4" fill="#9b59b6"/>
<polygon points="475.4,76.1 474.2,79.4 470.7,79.5 473.5,81.7 472.5,85.1 475.4,83.1 478.4,85.1 477.3,81.7 480.2,79.5 476.6,79.4" fill="#9b59b6"/>
<polygon points="518.6,76.1 517.4,79.4 513.8,79.5 516.7,81.7 515.6,85.1 518.6,83.1 521.5,85.1 520.5,81.7 523.3,79.5 519.7,79.4" fill="#9b59b6"/>
<polygon points="561.7,76.1 560.5,79.4 557.0,79.5 559.8,81.7 558.8,85.1 561.7,83.1 564.7,85.1 563.6,81.7 566.5,79.5 562.9,79.4" fill="#9b59b6"/>
<polygon points="604.9,76.1 603.7,79.4 600.1,79.5 603.0,81.7 601.9,85.1 604.9,83.1 607.8,85.1 606.8,81.7 609.6,79.5 606.0,79.4" fill="#9b59b6"/>
<polygon points="648.0,76.1 646.8,79.4 643.3,79.5 646.1,81.7 645.1,85.1 648.0,83.1 650.9,85.1 649.9,81.7 652.8,79.5 649.2,79.4" fill="#9b59b6"/>
<polyline fill="none" stroke="#e05d10" stroke-width="2" points="166.3,132.8 212.8,149.5 258.2,166.4 302.4,182.4 346.2,200.9 433.1,232.8 476.3,249.7"/>
<circle cx="166.3" cy="132.8" r="3" fill="#e05d10"/>
<circle cx="212.8" cy="149.5" r="3" fill="#e05d10"/>
<circle cx="258.2" cy="166.4" r="3" fill="#e05d10"/>
<circle cx="302.4" cy="182.4" r="3" fill="#e05d10"/>
<circle cx="346.2" cy="200.9" r="3" fill="#e05d10"/>
<circle cx="433.1" cy="232.8" r="3" fill="#e05d10"/>
<circle cx="476.3" cy="249.7" r="3" fill="#e05d10"/>
<polyline fill="none" stroke="#e05d10" stroke-width="2" stroke-dasharray="8,5" points="174.4,521.7 217.5,521.7 260.7,521.7 303.8,521.7 346.9,521.7 433.2,521.7 476.4,521.7"/>
<circle cx="174.4" cy="521.7" r="3" fill="#e05d10"/>
<circle cx="217.5" cy="521.7" r="3" fill="#e05d10"/>
<circle cx="260.7" cy="521.7" r="3" fill="#e05d10"/>
<circle cx="303.8" cy="521.7" r="3" fill="#e05d10"/>
<circle cx="346.9" cy="521.7" r="3" fill="#e05d10"/>
<circle cx="433.2" cy="521.7" r="3" fill="#e05d10"/>
<circle cx="476.4" cy="521.7" r="3" fill="#e05d10"/>
<polyline fill="none" stroke="#888888" stroke-width="2" points="416.4,124.9 481.0,141.8 564.7,163.7 627.4,181.7 689.8,199.5 772.2,221.2 834.5,238.6"/>
<circle cx="416.4" cy="124.9" r="3" fill="#888888"/>
<circle cx="481.0" cy="141.8" r="3" fill="#888888"/>
<circle cx="564.7" cy="163.7" r="3" fill="#888888"/>
<circle cx="627.4" cy="181.7" r="3" fill="#888888"/>
<circle cx="689.8" cy="199.5" r="3" fill="#888888"/>
<circle cx="772.2" cy="221.2" r="3" fill="#888888"/>
<circle cx="834.5" cy="238.6" r="3" fill="#888888"/>
<polyline fill="none" stroke="#888888" stroke-width="2" stroke-dasharray="8,5" points="416.4,125.6 481.0,142.1 564.7,163.7 627.4,182.8 689.8,198.6 772.2,221.5 834.5,237.6"/>
<circle cx="416.4" cy="125.6" r="3" fill="#888888"/>
<circle cx="481.0" cy="142.1" r="3" fill="#888888"/>
<circle cx="564.7" cy="163.7" r="3" fill="#888888"/>
<circle cx="627.4" cy="182.8" r="3" fill="#888888"/>
<circle cx="689.8" cy="198.6" r="3" fill="#888888"/>
<circle cx="772.2" cy="221.5" r="3" fill="#888888"/>
<circle cx="834.5" cy="237.6" r="3" fill="#888888"/>
<line x1="886" y1="60" x2="902" y2="60" stroke="#ef4444" stroke-width="2" stroke-dasharray="8,5"/>
<circle cx="894.0" cy="60.0" r="3" fill="#ef4444"/>
<text class="label" x="908" y="64">Theoretical</text>
<line x1="886" y1="78" x2="902" y2="78" stroke="#2a7fff" stroke-width="2"/>
<rect x="891.0" y="75.0" width="6" height="6" fill="#2a7fff"/>
<text class="label" x="908" y="82">Adaptive (Unif)</text>
<line x1="886" y1="96" x2="902" y2="96" stroke="#2a7fff" stroke-width="2" stroke-dasharray="8,5"/>
<rect x="891.0" y="93.0" width="6" height="6" fill="#2a7fff"/>
<text class="label" x="908" y="100">Adaptive (Seq)</text>
<line x1="886" y1="114" x2="902" y2="114" stroke="#22a06b" stroke-width="2"/>
<polygon points="894.0,110.0 898.0,114.0 894.0,118.0 890.0,114.0" fill="#22a06b"/>
<text class="label" x="908" y="118">SODA (Unif)</text>
<line x1="886" y1="132" x2="902" y2="132" stroke="#22a06b" stroke-width="2" stroke-dasharray="8,5"/>
<polygon points="894.0,128.0 898.0,132.0 894.0,136.0 890.0,132.0" fill="#22a06b"/>
<text class="label" x="908" y="136">SODA (Seq)</text>
<line x1="886" y1="150" x2="902" y2="150" stroke="#e6a800" stroke-width="2"/>
<polygon points="894.0,146.0 898.0,153.0 890.0,153.0" fill="#e6a800"/>
<text class="label" x="908" y="154">Truncation (Unif)</text>
<line x1="886" y1="168" x2="902" y2="168" stroke="#e6a800" stroke-width="2" stroke-dasharray="8,5"/>
<polygon points="894.0,164.0 898.0,171.0 890.0,171.0" fill="#e6a800"/>
<text class="label" x="908" y="172">Truncation (Seq)</text>
<line x1="886" y1="186" x2="902" y2="186" stroke="#9b59b6" stroke-width="2"/>
<polygon points="894.0,181.0 892.8,184.4 889.2,184.5 892.1,186.6 891.1,190.0 894.0,188.0 896.9,190.0 895.9,186.6 898.8,184.5 895.2,184.4" fill="#9b59b6"/>
<text class="label" x="908" y="190">Hybrid (Unif)</text>
<line x1="886" y1="204" x2="902" y2="204" stroke="#9b59b6" stroke-width="2" stroke-dasharray="8,5"/>
<polygon points="894.0,199.0 892.8,202.4 889.2,202.5 892.1,204.6 891.1,208.0 894.0,206.0 896.9,208.0 895.9,204.6 898.8,202.5 895.2,202.4" fill="#9b59b6"/>
<text class="label" x="908" y="208">Hybrid (Seq)</text>
<line x1="886" y1="222" x2="902" y2="222" stroke="#e05d10" stroke-width="2"/>
<circle cx="894.0" cy="222.0" r="3" fill="#e05d10"/>
<text class="label" x="908" y="226">CDF-ARE (Unif)</text>
<line x1="886" y1="240" x2="902" y2="240" stroke="#e05d10" stroke-width="2" stroke-dasharray="8,5"/>
<circle cx="894.0" cy="240.0" r="3" fill="#e05d10"/>
<text class="label" x="908" y="244">CDF-ARE (Seq)</text>
<line x1="886" y1="258" x2="902" y2="258" stroke="#888888" stroke-width="2"/>
<circle cx="894.0" cy="258.0" r="3" fill="#888888"/>
<text class="label" x="908" y="262">Bloom V3 (Unif)</text>
<line x1="886" y1="276" x2="902" y2="276" stroke="#888888" stroke-width="2" stroke-dasharray="8,5"/>
<circle cx="894.0" cy="276.0" r="3" fill="#888888"/>
<text class="label" x="908" y="280">Bloom V3 (Seq)</text>
<text x="480" y="590" text-anchor="middle">Bits per Key (BPK)</text>
<text transform="translate(16,295) rotate(-90)" text-anchor="middle">False Positive Rate (FPR)</text>
</svg>
