<svg xmlns="http://www.w3.org/2000/svg" width="960.0" height="540.0" viewBox="0 0 960.0 540.0">
<style>text{font-family:Menlo,Monaco,monospace;font-size:12px;fill:#222} .axis{stroke:#333;stroke-width:1} .grid{stroke:#ddd;stroke-width:1} .label{font-size:11px;fill:#444}</style>
<text x="480.0" y="26" text-anchor="middle">ARE Query Latency vs Key Size (L)</text>
<line class="axis" x1="90.0" y1="465.0" x2="920.0" y2="465.0" />
<line class="axis" x1="90.0" y1="55.0" x2="90.0" y2="465.0" />
<line class="grid" x1="90.0" y1="465.00" x2="920.0" y2="465.00" />
<text class="label" x="82.0" y="469.00" text-anchor="end">0.00</text>
<line class="grid" x1="90.0" y1="383.00" x2="920.0" y2="383.00" />
<text class="label" x="82.0" y="387.00" text-anchor="end">37.53</text>
<line class="grid" x1="90.0" y1="301.00" x2="920.0" y2="301.00" />
<text class="label" x="82.0" y="305.00" text-anchor="end">75.06</text>
<line class="grid" x1="90.0" y1="219.00" x2="920.0" y2="219.00" />
<text class="label" x="82.0" y="223.00" text-anchor="end">112.60</text>
<line class="grid" x1="90.0" y1="137.00" x2="920.0" y2="137.00" />
<text class="label" x="82.0" y="141.00" text-anchor="end">150.13</text>
<line class="grid" x1="90.0" y1="55.00" x2="920.0" y2="55.00" />
<text class="label" x="82.0" y="59.00" text-anchor="end">187.66</text>
<line class="grid" x1="90.00" y1="55.0" x2="90.00" y2="465.0" />
<text class="label" x="90.00" y="485.0" text-anchor="middle">64</text>
<line class="grid" x1="145.33" y1="55.0" x2="145.33" y2="465.0" />
<text class="label" x="145.33" y="485.0" text-anchor="middle">128</text>
<line class="grid" x1="256.00" y1="55.0" x2="256.00" y2="465.0" />
<text class="label" x="256.00" y="485.0" text-anchor="middle">256</text>
<line class="grid" x1="477.33" y1="55.0" x2="477.33" y2="465.0" />
<text class="label" x="477.33" y="485.0" text-anchor="middle">512</text>
<line class="grid" x1="920.00" y1="55.0" x2="920.00" y2="465.0" />
<text class="label" x="920.00" y="485.0" text-anchor="middle">1,024</text>
<polyline fill="none" stroke="#2a7fff" stroke-width="2.5" points="90.00,153.45 145.33,160.22 256.00,150.17 477.33,160.22 920.00,149.30" />
<circle cx="90.00" cy="153.45" r="3.5" fill="#2a7fff" />
<circle cx="145.33" cy="160.22" r="3.5" fill="#2a7fff" />
<circle cx="256.00" cy="150.17" r="3.5" fill="#2a7fff" />
<circle cx="477.33" cy="160.22" r="3.5" fill="#2a7fff" />
<circle cx="920.00" cy="149.30" r="3.5" fill="#2a7fff" />
<line x1="100.0" y1="67.0" x2="116.0" y2="67.0" stroke="#2a7fff" stroke-width="2.5" />
<text class="label" x="122.0" y="71.0">N=262K</text>
<polyline fill="none" stroke="#e4572e" stroke-width="2.5" points="90.00,140.99 145.33,142.30 256.00,152.79 477.33,141.21 920.00,142.96" />
<circle cx="90.00" cy="140.99" r="3.5" fill="#e4572e" />
<circle cx="145.33" cy="142.30" r="3.5" fill="#e4572e" />
<circle cx="256.00" cy="152.79" r="3.5" fill="#e4572e" />
<circle cx="477.33" cy="141.21" r="3.5" fill="#e4572e" />
<circle cx="920.00" cy="142.96" r="3.5" fill="#e4572e" />
<line x1="100.0" y1="85.0" x2="116.0" y2="85.0" stroke="#e4572e" stroke-width="2.5" />
<text class="label" x="122.0" y="89.0">N=1M</text>
<polyline fill="none" stroke="#22a06b" stroke-width="2.5" points="90.00,124.61 145.33,104.51 256.00,119.58 477.33,122.64 920.00,122.42" />
<circle cx="90.00" cy="124.61" r="3.5" fill="#22a06b" />
<circle cx="145.33" cy="104.51" r="3.5" fill="#22a06b" />
<circle cx="256.00" cy="119.58" r="3.5" fill="#22a06b" />
<circle cx="477.33" cy="122.64" r="3.5" fill="#22a06b" />
<circle cx="920.00" cy="122.42" r="3.5" fill="#22a06b" />
<line x1="100.0" y1="103.0" x2="116.0" y2="103.0" stroke="#22a06b" stroke-width="2.5" />
<text class="label" x="122.0" y="107.0">N=4M</text>
<polyline fill="none" stroke="#7c3aed" stroke-width="2.5" points="90.00,105.82 145.33,92.27 256.00,105.38 477.33,103.85 920.00,94.24" />
<circle cx="90.00" cy="105.82" r="3.5" fill="#7c3aed" />
<circle cx="145.33" cy="92.27" r="3.5" fill="#7c3aed" />
<circle cx="256.00" cy="105.38" r="3.5" fill="#7c3aed" />
<circle cx="477.33" cy="103.85" r="3.5" fill="#7c3aed" />
<circle cx="920.00" cy="94.24" r="3.5" fill="#7c3aed" />
<line x1="100.0" y1="121.0" x2="116.0" y2="121.0" stroke="#7c3aed" stroke-width="2.5" />
<text class="label" x="122.0" y="125.0">N=16M</text>
<text class="label" x="480.0" y="522.0" text-anchor="middle">Key Size (bits)</text>
<text class="label" transform="translate(20,270.0) rotate(-90)" text-anchor="middle">Time (ns/op)</text>
</svg>