<svg xmlns="http://www.w3.org/2000/svg" width="960" height="600" viewBox="0 0 960 600">
<style>text{font-family:Menlo,Monaco,monospace;font-size:12px;fill:#222} .axis{stroke:#333;stroke-width:1} .grid{stroke:#eee;stroke-width:0.5} .label{font-size:11px;fill:#444}</style>
<text x="480" y="28" text-anchor="middle" style="font-size:14px;font-weight:bold">Range Emptiness: FPR vs BPK (Cluster Distribution)</text>
<line class="axis" x1="90.0" y1="550.0" x2="920.0" y2="550.0"/>
<line class="axis" x1="90.0" y1="40.0" x2="90.0" y2="550.0"/>
<line class="grid" x1="90.0" y1="499.0" x2="920.0" y2="499.0"/>
<text class="label" x="82.0" y="503.0" text-anchor="end">10^-4</text>
<line class="grid" x1="90.0" y1="397.0" x2="920.0" y2="397.0"/>
<text class="label" x="82.0" y="401.0" text-anchor="end">10^-3</text>
<line class="grid" x1="90.0" y1="295.0" x2="920.0" y2="295.0"/>
<text class="label" x="82.0" y="299.0" text-anchor="end">0.01</text>
<line class="grid" x1="90.0" y1="193.0" x2="920.0" y2="193.0"/>
<text class="label" x="82.0" y="197.0" text-anchor="end">0.1</text>
<line class="grid" x1="90.0" y1="91.0" x2="920.0" y2="91.0"/>
<text class="label" x="82.0" y="95.0" text-anchor="end">1</text>
<line class="grid" x1="90.0" y1="40.0" x2="90.0" y2="550.0"/>
<text class="label" x="90.0" y="566.0" text-anchor="middle">0</text>
<line class="grid" x1="173.0" y1="40.0" x2="173.0" y2="550.0"/>
<text class="label" x="173.0" y="566.0" text-anchor="middle">2</text>
<line class="grid" x1="256.0" y1="40.0" x2="256.0" y2="550.0"/>
<text class="label" x="256.0" y="566.0" text-anchor="middle">4</text>
<line class="grid" x1="339.0" y1="40.0" x2="339.0" y2="550.0"/>
<text class="label" x="339.0" y="566.0" text-anchor="middle">6</text>
<line class="grid" x1="422.0" y1="40.0" x2="422.0" y2="550.0"/>
<text class="label" x="422.0" y="566.0" text-anchor="middle">8</text>
<line class="grid" x1="505.0" y1="40.0" x2="505.0" y2="550.0"/>
<text class="label" x="505.0" y="566.0" text-anchor="middle">10</text>
<line class="grid" x1="588.0" y1="40.0" x2="588.0" y2="550.0"/>
<text class="label" x="588.0" y="566.0" text-anchor="middle">12</text>
<line class="grid" x1="671.0" y1="40.0" x2="671.0" y2="550.0"/>
<text class="label" x="671.0" y="566.0" text-anchor="middle">14</text>
<line class="grid" x1="754.0" y1="40.0" x2="754.0" y2="550.0"/>
<text class="label" x="754.0" y="566.0" text-anchor="middle">16</text>
<line class="grid" x1="837.0" y1="40.0" x2="837.0" y2="550.0"/>
<text class="label" x="837.0" y="566.0" text-anchor="middle">18</text>
<line class="grid" x1="920.0" y1="40.0" x2="920.0" y2="550.0"/>
<text class="label" x="920.0" y="566.0" text-anchor="middle">20</text>
<polyline fill="none" stroke="#ef4444" stroke-width="2" stroke-dasharray="8,5" points="503.6,193.0 545.1,223.7 599.9,264.3 641.4,295.0 682.9,325.7 737.8,366.3 779.3,397.0"/>
<circle cx="503.6" cy="193.0" r="3" fill="#ef4444"/>
<circle cx="545.1" cy="223.7" r="3" fill="#ef4444"/>
<circle cx="599.9" cy="264.3" r="3" fill="#ef4444"/>
<circle cx="641.4" cy="295.0" r="3" fill="#ef4444"/>
<circle cx="682.9" cy="325.7" r="3" fill="#ef4444"/>
<circle cx="737.8" cy="366.3" r="3" fill="#ef4444"/>
<circle cx="779.3" cy="397.0" r="3" fill="#ef4444"/>
<polyline fill="none" stroke="#2a7fff" stroke-width="2" points="655.9,216.1 697.4,245.8 739.0,276.7 780.5,306.7 822.0,340.6 863.5,369.0 905.0,398.3"/>
<rect x="652.9" y="213.1" width="6" height="6" fill="#2a7fff"/>
<rect x="694.4" y="242.8" width="6" height="6" fill="#2a7fff"/>
<rect x="736.0" y="273.7" width="6" height="6" fill="#2a7fff"/>
<rect x="777.5" y="303.7" width="6" height="6" fill="#2a7fff"/>
<rect x="819.0" y="337.6" width="6" height="6" fill="#2a7fff"/>
<rect x="860.5" y="366.0" width="6" height="6" fill="#2a7fff"/>
<rect x="902.0" y="395.3" width="6" height="6" fill="#2a7fff"/>
<polyline fill="none" stroke="#22a06b" stroke-width="2" points="655.9,216.1 697.4,245.7 739.0,276.6 780.5,306.6 822.0,340.6 863.5,369.0 905.0,398.3"/>
<polygon points="655.9,212.1 659.9,216.1 655.9,220.1 651.9,216.1" fill="#22a06b"/>
<polygon points="697.4,241.7 701.4,245.7 697.4,249.7 693.4,245.7" fill="#22a06b"/>
<polygon points="739.0,272.6 743.0,276.6 739.0,280.6 735.0,276.6" fill="#22a06b"/>
<polygon points="780.5,302.6 784.5,306.6 780.5,310.6 776.5,306.6" fill="#22a06b"/>
<polygon points="822.0,336.6 826.0,340.6 822.0,344.6 818.0,340.6" fill="#22a06b"/>
<polygon points="863.5,365.0 867.5,369.0 863.5,373.0 859.5,369.0" fill="#22a06b"/>
<polygon points="905.0,394.3 909.0,398.3 905.0,402.3 901.0,398.3" fill="#22a06b"/>
<polyline fill="none" stroke="#e6a800" stroke-width="2" points="268.0,265.8 289.4,294.2 310.6,326.4 331.6,357.3 352.5,391.6 394.0,455.0 414.8,490.9"/>
<polygon points="268.0,261.8 272.0,268.8 264.0,268.8" fill="#e6a800"/>
<polygon points="289.4,290.2 293.4,297.2 285.4,297.2" fill="#e6a800"/>
<polygon points="310.6,322.4 314.6,329.4 306.6,329.4" fill="#e6a800"/>
<polygon points="331.6,353.3 335.6,360.3 327.6,360.3" fill="#e6a800"/>
<polygon points="352.5,387.6 356.5,394.6 348.5,394.6" fill="#e6a800"/>
<polygon points="394.0,451.0 398.0,458.0 390.0,458.0" fill="#e6a800"/>
<polygon points="414.8,486.9 418.8,493.9 410.8,493.9" fill="#e6a800"/>
<line x1="700" y1="60" x2="716" y2="60" stroke="#ef4444" stroke-width="2" stroke-dasharray="8,5"/>
<circle cx="708.0" cy="60.0" r="3" fill="#ef4444"/>
<text class="label" x="722" y="64">Theoretical</text>
<line x1="700" y1="78" x2="716" y2="78" stroke="#2a7fff" stroke-width="2"/>
<rect x="705.0" y="75.0" width="6" height="6" fill="#2a7fff"/>
<text class="label" x="722" y="82">Adaptive</text>
<line x1="700" y1="96" x2="716" y2="96" stroke="#22a06b" stroke-width="2"/>
<polygon points="708.0,92.0 712.0,96.0 708.0,100.0 704.0,96.0" fill="#22a06b"/>
<text class="label" x="722" y="100">SODA</text>
<line x1="700" y1="114" x2="716" y2="114" stroke="#e6a800" stroke-width="2"/>
<polygon points="708.0,110.0 712.0,117.0 704.0,117.0" fill="#e6a800"/>
<text class="label" x="722" y="118">Truncation</text>
<text x="505" y="590" text-anchor="middle">Bits per Key (BPK)</text>
<text transform="translate(16,295) rotate(-90)" text-anchor="middle">False Positive Rate (FPR)</text>
</svg>
