<svg xmlns="http://www.w3.org/2000/svg" width="960" height="600" viewBox="0 0 960 600">
<style>text{font-family:Menlo,Monaco,monospace;font-size:12px;fill:#222} .axis{stroke:#333;stroke-width:1} .grid{stroke:#eee;stroke-width:0.5} .label{font-size:11px;fill:#444}</style>
<text x="480" y="28" text-anchor="middle" style="font-size:14px;font-weight:bold">Range Emptiness: FPR vs BPK (Cluster Distribution)</text>
<line class="axis" x1="90.0" y1="550.0" x2="920.0" y2="550.0"/>
<line class="axis" x1="90.0" y1="40.0" x2="90.0" y2="550.0"/>
<line class="grid" x1="90.0" y1="499.0" x2="920.0" y2="499.0"/>
<text class="label" x="82.0" y="503.0" text-anchor="end">10^-4</text>
<line class="grid" x1="90.0" y1="397.0" x2="920.0" y2="397.0"/>
<text class="label" x="82.0" y="401.0" text-anchor="end">10^-3</text>
<line class="grid" x1="90.0" y1="295.0" x2="920.0" y2="295.0"/>
<text class="label" x="82.0" y="299.0" text-anchor="end">0.01</text>
<line class="grid" x1="90.0" y1="193.0" x2="920.0" y2="193.0"/>
<text class="label" x="82.0" y="197.0" text-anchor="end">0.1</text>
<line class="grid" x1="90.0" y1="91.0" x2="920.0" y2="91.0"/>
<text class="label" x="82.0" y="95.0" text-anchor="end">1</text>
<line class="grid" x1="90.0" y1="40.0" x2="90.0" y2="550.0"/>
<text class="label" x="90.0" y="566.0" text-anchor="middle">0</text>
<line class="grid" x1="173.0" y1="40.0" x2="173.0" y2="550.0"/>
<text class="label" x="173.0" y="566.0" text-anchor="middle">2</text>
<line class="grid" x1="256.0" y1="40.0" x2="256.0" y2="550.0"/>
<text class="label" x="256.0" y="566.0" text-anchor="middle">4</text>
<line class="grid" x1="339.0" y1="40.0" x2="339.0" y2="550.0"/>
<text class="label" x="339.0" y="566.0" text-anchor="middle">6</text>
<line class="grid" x1="422.0" y1="40.0" x2="422.0" y2="550.0"/>
<text class="label" x="422.0" y="566.0" text-anchor="middle">8</text>
<line class="grid" x1="505.0" y1="40.0" x2="505.0" y2="550.0"/>
<text class="label" x="505.0" y="566.0" text-anchor="middle">10</text>
<line class="grid" x1="588.0" y1="40.0" x2="588.0" y2="550.0"/>
<text class="label" x="588.0" y="566.0" text-anchor="middle">12</text>
<line class="grid" x1="671.0" y1="40.0" x2="671.0" y2="550.0"/>
<text class="label" x="671.0" y="566.0" text-anchor="middle">14</text>
<line class="grid" x1="754.0" y1="40.0" x2="754.0" y2="550.0"/>
<text class="label" x="754.0" y="566.0" text-anchor="middle">16</text>
<line class="grid" x1="837.0" y1="40.0" x2="837.0" y2="550.0"/>
<text class="label" x="837.0" y="566.0" text-anchor="middle">18</text>
<line class="grid" x1="920.0" y1="40.0" x2="920.0" y2="550.0"/>
<text class="label" x="920.0" y="566.0" text-anchor="middle">20</text>
<polyline fill="none" stroke="#ef4444" stroke-width="2" stroke-dasharray="8,5" points="503.6,193.0 545.1,223.7 599.9,264.3 641.4,295.0 682.9,325.7 737.8,366.3 779.3,397.0"/>
<circle cx="503.6" cy="193.0" r="3" fill="#ef4444"/>
<circle cx="545.1" cy="223.7" r="3" fill="#ef4444"/>
<circle cx="599.9" cy="264.3" r="3" fill="#ef4444"/>
<circle cx="641.4" cy="295.0" r="3" fill="#ef4444"/>
<circle cx="682.9" cy="325.7" r="3" fill="#ef4444"/>
<circle cx="737.8" cy="366.3" r="3" fill="#ef4444"/>
<circle cx="779.3" cy="397.0" r="3" fill="#ef4444"/>
<polyline fill="none" stroke="#2a7fff" stroke-width="2" points="655.6,219.7 697.2,248.8 738.9,284.2 780.4,309.1 822.0,353.3 863.5,380.4 905.0,423.1"/>
<rect x="652.6" y="216.7" width="6" height="6" fill="#2a7fff"/>
<rect x="694.2" y="245.8" width="6" height="6" fill="#2a7fff"/>
<rect x="735.9" y="281.2" width="6" height="6" fill="#2a7fff"/>
<rect x="777.4" y="306.1" width="6" height="6" fill="#2a7fff"/>
<rect x="819.0" y="350.3" width="6" height="6" fill="#2a7fff"/>
<rect x="860.5" y="377.4" width="6" height="6" fill="#2a7fff"/>
<rect x="902.0" y="420.1" width="6" height="6" fill="#2a7fff"/>
<polyline fill="none" stroke="#22a06b" stroke-width="2" points="655.6,219.7 697.2,248.8 738.9,284.2 780.4,309.1 822.0,353.3 863.5,380.4 905.0,423.1"/>
<polygon points="655.6,215.7 659.6,219.7 655.6,223.7 651.6,219.7" fill="#22a06b"/>
<polygon points="697.2,244.8 701.2,248.8 697.2,252.8 693.2,248.8" fill="#22a06b"/>
<polygon points="738.9,280.2 742.9,284.2 738.9,288.2 734.9,284.2" fill="#22a06b"/>
<polygon points="780.4,305.1 784.4,309.1 780.4,313.1 776.4,309.1" fill="#22a06b"/>
<polygon points="822.0,349.3 826.0,353.3 822.0,357.3 818.0,353.3" fill="#22a06b"/>
<polygon points="863.5,376.4 867.5,380.4 863.5,384.4 859.5,380.4" fill="#22a06b"/>
<polygon points="905.0,419.1 909.0,423.1 905.0,427.1 901.0,423.1" fill="#22a06b"/>
<polyline fill="none" stroke="#e6a800" stroke-width="2" points="154.5,98.2 160.9,98.2 167.2,98.3 173.4,98.3 179.7,98.3 192.2,98.3 198.4,98.3"/>
<polygon points="154.5,94.2 158.5,101.2 150.5,101.2" fill="#e6a800"/>
<polygon points="160.9,94.2 164.9,101.2 156.9,101.2" fill="#e6a800"/>
<polygon points="167.2,94.3 171.2,101.3 163.2,101.3" fill="#e6a800"/>
<polygon points="173.4,94.3 177.4,101.3 169.4,101.3" fill="#e6a800"/>
<polygon points="179.7,94.3 183.7,101.3 175.7,101.3" fill="#e6a800"/>
<polygon points="192.2,94.3 196.2,101.3 188.2,101.3" fill="#e6a800"/>
<polygon points="198.4,94.3 202.4,101.3 194.4,101.3" fill="#e6a800"/>
<line x1="700" y1="60" x2="716" y2="60" stroke="#ef4444" stroke-width="2" stroke-dasharray="8,5"/>
<circle cx="708.0" cy="60.0" r="3" fill="#ef4444"/>
<text class="label" x="722" y="64">Theoretical</text>
<line x1="700" y1="78" x2="716" y2="78" stroke="#2a7fff" stroke-width="2"/>
<rect x="705.0" y="75.0" width="6" height="6" fill="#2a7fff"/>
<text class="label" x="722" y="82">Adaptive</text>
<line x1="700" y1="96" x2="716" y2="96" stroke="#22a06b" stroke-width="2"/>
<polygon points="708.0,92.0 712.0,96.0 708.0,100.0 704.0,96.0" fill="#22a06b"/>
<text class="label" x="722" y="100">SODA</text>
<line x1="700" y1="114" x2="716" y2="114" stroke="#e6a800" stroke-width="2"/>
<polygon points="708.0,110.0 712.0,117.0 704.0,117.0" fill="#e6a800"/>
<text class="label" x="722" y="118">Truncation</text>
<text x="505" y="590" text-anchor="middle">Bits per Key (BPK)</text>
<text transform="translate(16,295) rotate(-90)" text-anchor="middle">False Positive Rate (FPR)</text>
</svg>
