<svg xmlns="http://www.w3.org/2000/svg" width="1020" height="600" viewBox="0 0 1020 600">
<style>text{font-family:Menlo,Monaco,monospace;font-size:12px;fill:#222} .axis{stroke:#333;stroke-width:1} .grid{stroke:#eee;stroke-width:0.5} .label{font-size:11px;fill:#444}</style>
<text x="510" y="28" text-anchor="middle" style="font-size:14px;font-weight:bold">FPR vs BPK — Cluster shrink mode (n=65536, L=1024)</text>
<line class="axis" x1="90.0" y1="550.0" x2="870.0" y2="550.0"/>
<line class="axis" x1="90.0" y1="40.0" x2="90.0" y2="550.0"/>
<line class="grid" x1="90.0" y1="507.5" x2="870.0" y2="507.5"/>
<text class="label" x="82.0" y="511.5" text-anchor="end">10^-5</text>
<line class="grid" x1="90.0" y1="422.5" x2="870.0" y2="422.5"/>
<text class="label" x="82.0" y="426.5" text-anchor="end">10^-4</text>
<line class="grid" x1="90.0" y1="337.5" x2="870.0" y2="337.5"/>
<text class="label" x="82.0" y="341.5" text-anchor="end">10^-3</text>
<line class="grid" x1="90.0" y1="252.5" x2="870.0" y2="252.5"/>
<text class="label" x="82.0" y="256.5" text-anchor="end">10^-2</text>
<line class="grid" x1="90.0" y1="167.5" x2="870.0" y2="167.5"/>
<text class="label" x="82.0" y="171.5" text-anchor="end">10^-1</text>
<line class="grid" x1="90.0" y1="82.5" x2="870.0" y2="82.5"/>
<text class="label" x="82.0" y="86.5" text-anchor="end">1</text>
<line class="grid" x1="214.1" y1="40.0" x2="214.1" y2="550.0"/>
<text class="label" x="214.1" y="566.0" text-anchor="middle">5</text>
<line class="grid" x1="344.5" y1="40.0" x2="344.5" y2="550.0"/>
<text class="label" x="344.5" y="566.0" text-anchor="middle">10</text>
<line class="grid" x1="474.8" y1="40.0" x2="474.8" y2="550.0"/>
<text class="label" x="474.8" y="566.0" text-anchor="middle">15</text>
<line class="grid" x1="605.1" y1="40.0" x2="605.1" y2="550.0"/>
<text class="label" x="605.1" y="566.0" text-anchor="middle">20</text>
<line class="grid" x1="735.4" y1="40.0" x2="735.4" y2="550.0"/>
<text class="label" x="735.4" y="566.0" text-anchor="middle">25</text>
<line class="grid" x1="865.7" y1="40.0" x2="865.7" y2="550.0"/>
<text class="label" x="865.7" y="566.0" text-anchor="middle">30</text>
<polyline fill="none" stroke="#ef4444" stroke-width="2" stroke-dasharray="8,5" points="431.0,167.5 457.1,193.1 491.6,226.9 517.6,252.5 543.7,278.1 578.1,311.9 604.2,337.5"/>
<circle cx="431.0" cy="167.5" r="3" fill="#ef4444"/>
<circle cx="457.1" cy="193.1" r="3" fill="#ef4444"/>
<circle cx="491.6" cy="226.9" r="3" fill="#ef4444"/>
<circle cx="517.6" cy="252.5" r="3" fill="#ef4444"/>
<circle cx="543.7" cy="278.1" r="3" fill="#ef4444"/>
<circle cx="578.1" cy="311.9" r="3" fill="#ef4444"/>
<circle cx="604.2" cy="337.5" r="3" fill="#ef4444"/>
<polyline fill="none" stroke="#2a7fff" stroke-width="2" points="526.9,208.1 553.0,237.0 579.0,257.7 605.1,297.7 631.2,339.8 657.2,367.4 683.3,397.8"/>
<rect x="523.9" y="205.1" width="6" height="6" fill="#2a7fff"/>
<rect x="550.0" y="234.0" width="6" height="6" fill="#2a7fff"/>
<rect x="576.0" y="254.7" width="6" height="6" fill="#2a7fff"/>
<rect x="602.1" y="294.7" width="6" height="6" fill="#2a7fff"/>
<rect x="628.2" y="336.8" width="6" height="6" fill="#2a7fff"/>
<rect x="654.2" y="364.4" width="6" height="6" fill="#2a7fff"/>
<rect x="680.3" y="394.8" width="6" height="6" fill="#2a7fff"/>
<polyline fill="none" stroke="#6495ED" stroke-width="2" stroke-dasharray="8,5" points="500.8,177.8 526.9,208.1 553.0,237.0 579.0,257.7 605.1,297.7 631.2,339.8 657.2,367.4"/>
<rect x="497.8" y="174.8" width="6" height="6" fill="#6495ED"/>
<rect x="523.9" y="205.1" width="6" height="6" fill="#6495ED"/>
<rect x="550.0" y="234.0" width="6" height="6" fill="#6495ED"/>
<rect x="576.0" y="254.7" width="6" height="6" fill="#6495ED"/>
<rect x="602.1" y="294.7" width="6" height="6" fill="#6495ED"/>
<rect x="628.2" y="336.8" width="6" height="6" fill="#6495ED"/>
<rect x="654.2" y="364.4" width="6" height="6" fill="#6495ED"/>
<polyline fill="none" stroke="#4169E1" stroke-width="2" stroke-dasharray="8,5" points="474.7,147.4 500.8,177.8 526.9,208.1 553.0,237.0 579.0,257.7 605.1,297.7 631.2,339.8"/>
<rect x="471.7" y="144.4" width="6" height="6" fill="#4169E1"/>
<rect x="497.8" y="174.8" width="6" height="6" fill="#4169E1"/>
<rect x="523.9" y="205.1" width="6" height="6" fill="#4169E1"/>
<rect x="550.0" y="234.0" width="6" height="6" fill="#4169E1"/>
<rect x="576.0" y="254.7" width="6" height="6" fill="#4169E1"/>
<rect x="602.1" y="294.7" width="6" height="6" fill="#4169E1"/>
<rect x="628.2" y="336.8" width="6" height="6" fill="#4169E1"/>
<polyline fill="none" stroke="#1E3A8A" stroke-width="2" stroke-dasharray="8,5" points="448.6,125.5 474.7,147.4 500.8,177.8 526.9,208.1 553.0,237.0 579.0,257.7 605.1,297.7"/>
<rect x="445.6" y="122.5" width="6" height="6" fill="#1E3A8A"/>
<rect x="471.7" y="144.4" width="6" height="6" fill="#1E3A8A"/>
<rect x="497.8" y="174.8" width="6" height="6" fill="#1E3A8A"/>
<rect x="523.9" y="205.1" width="6" height="6" fill="#1E3A8A"/>
<rect x="550.0" y="234.0" width="6" height="6" fill="#1E3A8A"/>
<rect x="576.0" y="254.7" width="6" height="6" fill="#1E3A8A"/>
<rect x="602.1" y="294.7" width="6" height="6" fill="#1E3A8A"/>
<polyline fill="none" stroke="#0F1D45" stroke-width="2" stroke-dasharray="8,5" points="422.5,105.0 448.6,125.5 474.7,147.4 500.8,177.8 526.9,208.1 553.0,237.0 579.0,257.7"/>
<rect x="419.5" y="102.0" width="6" height="6" fill="#0F1D45"/>
<rect x="445.6" y="122.5" width="6" height="6" fill="#0F1D45"/>
<rect x="471.7" y="144.4" width="6" height="6" fill="#0F1D45"/>
<rect x="497.8" y="174.8" width="6" height="6" fill="#0F1D45"/>
<rect x="523.9" y="205.1" width="6" height="6" fill="#0F1D45"/>
<rect x="550.0" y="234.0" width="6" height="6" fill="#0F1D45"/>
<rect x="576.0" y="254.7" width="6" height="6" fill="#0F1D45"/>
<polyline fill="none" stroke="#22a06b" stroke-width="2" points="526.9,208.1 553.0,237.0 579.0,257.7 605.1,297.7 631.2,339.8 657.2,367.4 683.3,397.8"/>
<polygon points="526.9,204.1 530.9,208.1 526.9,212.1 522.9,208.1" fill="#22a06b"/>
<polygon points="553.0,233.0 557.0,237.0 553.0,241.0 549.0,237.0" fill="#22a06b"/>
<polygon points="579.0,253.7 583.0,257.7 579.0,261.7 575.0,257.7" fill="#22a06b"/>
<polygon points="605.1,293.7 609.1,297.7 605.1,301.7 601.1,297.7" fill="#22a06b"/>
<polygon points="631.2,335.8 635.2,339.8 631.2,343.8 627.2,339.8" fill="#22a06b"/>
<polygon points="657.2,363.4 661.2,367.4 657.2,371.4 653.2,367.4" fill="#22a06b"/>
<polygon points="683.3,393.8 687.3,397.8 683.3,401.8 679.3,397.8" fill="#22a06b"/>
<polyline fill="none" stroke="#e6a800" stroke-width="2" points="125.5,88.5 129.4,88.5 133.3,88.5 137.3,88.5 141.2,88.5 145.1,88.5 149.0,88.5"/>
<polygon points="125.5,84.5 129.5,91.5 121.5,91.5" fill="#e6a800"/>
<polygon points="129.4,84.5 133.4,91.5 125.4,91.5" fill="#e6a800"/>
<polygon points="133.3,84.5 137.3,91.5 129.3,91.5" fill="#e6a800"/>
<polygon points="137.3,84.5 141.3,91.5 133.3,91.5" fill="#e6a800"/>
<polygon points="141.2,84.5 145.2,91.5 137.2,91.5" fill="#e6a800"/>
<polygon points="145.1,84.5 149.1,91.5 141.1,91.5" fill="#e6a800"/>
<polygon points="149.0,84.5 153.0,91.5 145.0,91.5" fill="#e6a800"/>
<polyline fill="none" stroke="#9b59b6" stroke-width="2" points="469.6,220.0 487.0,259.0 508.8,323.3 517.2,350.1 521.1,374.7 529.0,435.7 532.9,466.9"/>
<polygon points="469.6,215.0 468.5,218.4 464.9,218.4 467.7,220.6 466.7,224.0 469.6,222.0 472.6,224.0 471.5,220.6 474.4,218.4 470.8,218.4" fill="#9b59b6"/>
<polygon points="487.0,254.0 485.9,257.4 482.3,257.5 485.1,259.6 484.1,263.1 487.0,261.0 490.0,263.1 488.9,259.6 491.8,257.5 488.2,257.4" fill="#9b59b6"/>
<polygon points="508.8,318.3 507.6,321.7 504.0,321.7 506.9,323.9 505.8,327.3 508.8,325.3 511.7,327.3 510.7,323.9 513.5,321.7 510.0,321.7" fill="#9b59b6"/>
<polygon points="517.2,345.1 516.0,348.5 512.4,348.6 515.3,350.8 514.2,354.2 517.2,352.1 520.1,354.2 519.1,350.8 521.9,348.6 518.3,348.5" fill="#9b59b6"/>
<polygon points="521.1,369.7 520.0,373.1 516.4,373.2 519.2,375.3 518.2,378.7 521.1,376.7 524.1,378.7 523.0,375.3 525.9,373.2 522.3,373.1" fill="#9b59b6"/>
<polygon points="529.0,430.7 527.8,434.0 524.2,434.1 527.1,436.3 526.0,439.7 529.0,437.7 531.9,439.7 530.9,436.3 533.7,434.1 530.2,434.0" fill="#9b59b6"/>
<polygon points="532.9,461.9 531.7,465.3 528.1,465.4 531.0,467.6 529.9,471.0 532.9,468.9 535.8,471.0 534.8,467.6 537.6,465.4 534.1,465.3" fill="#9b59b6"/>
<polyline fill="none" stroke="#e05d10" stroke-width="2" points="311.0,139.4 339.6,146.6 367.2,151.2 394.1,154.0 420.6,156.5 446.9,159.6 473.0,165.1"/>
<circle cx="311.0" cy="139.4" r="3" fill="#e05d10"/>
<circle cx="339.6" cy="146.6" r="3" fill="#e05d10"/>
<circle cx="367.2" cy="151.2" r="3" fill="#e05d10"/>
<circle cx="394.1" cy="154.0" r="3" fill="#e05d10"/>
<circle cx="420.6" cy="156.5" r="3" fill="#e05d10"/>
<circle cx="446.9" cy="159.6" r="3" fill="#e05d10"/>
<circle cx="473.0" cy="165.1" r="3" fill="#e05d10"/>
<polyline fill="none" stroke="#888888" stroke-width="2" stroke-dasharray="8,5" points="581.9,169.6 621.0,194.9 671.5,229.0 709.4,254.8 747.1,280.8 796.9,312.4 834.5,342.8"/>
<circle cx="581.9" cy="169.6" r="3" fill="#888888"/>
<circle cx="621.0" cy="194.9" r="3" fill="#888888"/>
<circle cx="671.5" cy="229.0" r="3" fill="#888888"/>
<circle cx="709.4" cy="254.8" r="3" fill="#888888"/>
<circle cx="747.1" cy="280.8" r="3" fill="#888888"/>
<circle cx="796.9" cy="312.4" r="3" fill="#888888"/>
<circle cx="834.5" cy="342.8" r="3" fill="#888888"/>
<line x1="886" y1="60" x2="902" y2="60" stroke="#ef4444" stroke-width="2" stroke-dasharray="8,5"/>
<circle cx="894.0" cy="60.0" r="3" fill="#ef4444"/>
<text class="label" x="908" y="64">Theoretical</text>
<line x1="886" y1="78" x2="902" y2="78" stroke="#2a7fff" stroke-width="2"/>
<rect x="891.0" y="75.0" width="6" height="6" fill="#2a7fff"/>
<text class="label" x="908" y="82">Adaptive (t=0)</text>
<line x1="886" y1="96" x2="902" y2="96" stroke="#6495ED" stroke-width="2" stroke-dasharray="8,5"/>
<rect x="891.0" y="93.0" width="6" height="6" fill="#6495ED"/>
<text class="label" x="908" y="100">Adaptive (t=1)</text>
<line x1="886" y1="114" x2="902" y2="114" stroke="#4169E1" stroke-width="2" stroke-dasharray="8,5"/>
<rect x="891.0" y="111.0" width="6" height="6" fill="#4169E1"/>
<text class="label" x="908" y="118">Adaptive (t=2)</text>
<line x1="886" y1="132" x2="902" y2="132" stroke="#1E3A8A" stroke-width="2" stroke-dasharray="8,5"/>
<rect x="891.0" y="129.0" width="6" height="6" fill="#1E3A8A"/>
<text class="label" x="908" y="136">Adaptive (t=3)</text>
<line x1="886" y1="150" x2="902" y2="150" stroke="#0F1D45" stroke-width="2" stroke-dasharray="8,5"/>
<rect x="891.0" y="147.0" width="6" height="6" fill="#0F1D45"/>
<text class="label" x="908" y="154">Adaptive (t=4)</text>
<line x1="886" y1="168" x2="902" y2="168" stroke="#22a06b" stroke-width="2"/>
<polygon points="894.0,164.0 898.0,168.0 894.0,172.0 890.0,168.0" fill="#22a06b"/>
<text class="label" x="908" y="172">SODA</text>
<line x1="886" y1="186" x2="902" y2="186" stroke="#e6a800" stroke-width="2"/>
<polygon points="894.0,182.0 898.0,189.0 890.0,189.0" fill="#e6a800"/>
<text class="label" x="908" y="190">Truncation</text>
<line x1="886" y1="204" x2="902" y2="204" stroke="#9b59b6" stroke-width="2"/>
<polygon points="894.0,199.0 892.8,202.4 889.2,202.5 892.1,204.6 891.1,208.0 894.0,206.0 896.9,208.0 895.9,204.6 898.8,202.5 895.2,202.4" fill="#9b59b6"/>
<text class="label" x="908" y="208">Hybrid</text>
<line x1="886" y1="222" x2="902" y2="222" stroke="#e05d10" stroke-width="2"/>
<circle cx="894.0" cy="222.0" r="3" fill="#e05d10"/>
<text class="label" x="908" y="226">CDF-ARE</text>
<line x1="886" y1="240" x2="902" y2="240" stroke="#888888" stroke-width="2" stroke-dasharray="8,5"/>
<circle cx="894.0" cy="240.0" r="3" fill="#888888"/>
<text class="label" x="908" y="244">Bloom V3</text>
<text x="480" y="590" text-anchor="middle">Bits per Key (BPK)</text>
<text transform="translate(16,295) rotate(-90)" text-anchor="middle">False Positive Rate (FPR)</text>
</svg>
