<svg xmlns="http://www.w3.org/2000/svg" width="1020" height="600" viewBox="0 0 1020 600">
<style>text{font-family:Menlo,Monaco,monospace;font-size:12px;fill:#222} .axis{stroke:#333;stroke-width:1} .grid{stroke:#eee;stroke-width:0.5} .label{font-size:11px;fill:#444}</style>
<text x="510" y="28" text-anchor="middle" style="font-size:14px;font-weight:bold">FPR vs BPK — Cluster (n=65536, L=16)</text>
<line class="axis" x1="90.0" y1="550.0" x2="870.0" y2="550.0"/>
<line class="axis" x1="90.0" y1="40.0" x2="90.0" y2="550.0"/>
<line class="grid" x1="90.0" y1="499.0" x2="870.0" y2="499.0"/>
<text class="label" x="82.0" y="503.0" text-anchor="end">10^-4</text>
<line class="grid" x1="90.0" y1="397.0" x2="870.0" y2="397.0"/>
<text class="label" x="82.0" y="401.0" text-anchor="end">10^-3</text>
<line class="grid" x1="90.0" y1="295.0" x2="870.0" y2="295.0"/>
<text class="label" x="82.0" y="299.0" text-anchor="end">10^-2</text>
<line class="grid" x1="90.0" y1="193.0" x2="870.0" y2="193.0"/>
<text class="label" x="82.0" y="197.0" text-anchor="end">10^-1</text>
<line class="grid" x1="90.0" y1="91.0" x2="870.0" y2="91.0"/>
<text class="label" x="82.0" y="95.0" text-anchor="end">1</text>
<line class="grid" x1="142.9" y1="40.0" x2="142.9" y2="550.0"/>
<text class="label" x="142.9" y="566.0" text-anchor="middle">2</text>
<line class="grid" x1="229.3" y1="40.0" x2="229.3" y2="550.0"/>
<text class="label" x="229.3" y="566.0" text-anchor="middle">4</text>
<line class="grid" x1="315.8" y1="40.0" x2="315.8" y2="550.0"/>
<text class="label" x="315.8" y="566.0" text-anchor="middle">6</text>
<line class="grid" x1="402.2" y1="40.0" x2="402.2" y2="550.0"/>
<text class="label" x="402.2" y="566.0" text-anchor="middle">8</text>
<line class="grid" x1="488.7" y1="40.0" x2="488.7" y2="550.0"/>
<text class="label" x="488.7" y="566.0" text-anchor="middle">10</text>
<line class="grid" x1="575.2" y1="40.0" x2="575.2" y2="550.0"/>
<text class="label" x="575.2" y="566.0" text-anchor="middle">12</text>
<line class="grid" x1="661.6" y1="40.0" x2="661.6" y2="550.0"/>
<text class="label" x="661.6" y="566.0" text-anchor="middle">14</text>
<line class="grid" x1="748.1" y1="40.0" x2="748.1" y2="550.0"/>
<text class="label" x="748.1" y="566.0" text-anchor="middle">16</text>
<line class="grid" x1="834.6" y1="40.0" x2="834.6" y2="550.0"/>
<text class="label" x="834.6" y="566.0" text-anchor="middle">18</text>
<polyline fill="none" stroke="#ef4444" stroke-width="2" stroke-dasharray="8,5" points="372.9,193.0 416.2,223.7 473.3,264.3 516.5,295.0 559.8,325.7 616.9,366.3 660.2,397.0"/>
<circle cx="372.9" cy="193.0" r="3" fill="#ef4444"/>
<circle cx="416.2" cy="223.7" r="3" fill="#ef4444"/>
<circle cx="473.3" cy="264.3" r="3" fill="#ef4444"/>
<circle cx="516.5" cy="295.0" r="3" fill="#ef4444"/>
<circle cx="559.8" cy="325.7" r="3" fill="#ef4444"/>
<circle cx="616.9" cy="366.3" r="3" fill="#ef4444"/>
<circle cx="660.2" cy="397.0" r="3" fill="#ef4444"/>
<polyline fill="none" stroke="#2a7fff" stroke-width="2" points="531.3,217.0 574.8,248.2 618.2,282.5 661.5,315.7 704.8,345.0 791.3,425.4 834.5,459.2"/>
<rect x="528.3" y="214.0" width="6" height="6" fill="#2a7fff"/>
<rect x="571.8" y="245.2" width="6" height="6" fill="#2a7fff"/>
<rect x="615.2" y="279.5" width="6" height="6" fill="#2a7fff"/>
<rect x="658.5" y="312.7" width="6" height="6" fill="#2a7fff"/>
<rect x="701.8" y="342.0" width="6" height="6" fill="#2a7fff"/>
<rect x="788.3" y="422.4" width="6" height="6" fill="#2a7fff"/>
<rect x="831.5" y="456.2" width="6" height="6" fill="#2a7fff"/>
<polyline fill="none" stroke="#6495ED" stroke-width="2" stroke-dasharray="8,5" points="487.4,186.4 531.3,217.0 574.8,248.2 618.2,282.5 661.5,315.7 748.1,385.8 791.3,425.4"/>
<rect x="484.4" y="183.4" width="6" height="6" fill="#6495ED"/>
<rect x="528.3" y="214.0" width="6" height="6" fill="#6495ED"/>
<rect x="571.8" y="245.2" width="6" height="6" fill="#6495ED"/>
<rect x="615.2" y="279.5" width="6" height="6" fill="#6495ED"/>
<rect x="658.5" y="312.7" width="6" height="6" fill="#6495ED"/>
<rect x="745.1" y="382.8" width="6" height="6" fill="#6495ED"/>
<rect x="788.3" y="422.4" width="6" height="6" fill="#6495ED"/>
<polyline fill="none" stroke="#4169E1" stroke-width="2" stroke-dasharray="8,5" points="442.9,158.0 487.4,186.4 531.3,217.0 574.8,248.2 618.2,282.5 704.8,345.0 748.1,385.8"/>
<rect x="439.9" y="155.0" width="6" height="6" fill="#4169E1"/>
<rect x="484.4" y="183.4" width="6" height="6" fill="#4169E1"/>
<rect x="528.3" y="214.0" width="6" height="6" fill="#4169E1"/>
<rect x="571.8" y="245.2" width="6" height="6" fill="#4169E1"/>
<rect x="615.2" y="279.5" width="6" height="6" fill="#4169E1"/>
<rect x="701.8" y="342.0" width="6" height="6" fill="#4169E1"/>
<rect x="745.1" y="382.8" width="6" height="6" fill="#4169E1"/>
<polyline fill="none" stroke="#1E3A8A" stroke-width="2" stroke-dasharray="8,5" points="397.6,132.4 442.9,158.0 531.3,217.0 574.8,248.2 618.2,282.5 661.5,315.7 704.8,345.0"/>
<rect x="394.6" y="129.4" width="6" height="6" fill="#1E3A8A"/>
<rect x="439.9" y="155.0" width="6" height="6" fill="#1E3A8A"/>
<rect x="528.3" y="214.0" width="6" height="6" fill="#1E3A8A"/>
<rect x="571.8" y="245.2" width="6" height="6" fill="#1E3A8A"/>
<rect x="615.2" y="279.5" width="6" height="6" fill="#1E3A8A"/>
<rect x="658.5" y="312.7" width="6" height="6" fill="#1E3A8A"/>
<rect x="701.8" y="342.0" width="6" height="6" fill="#1E3A8A"/>
<polyline fill="none" stroke="#0F1D45" stroke-width="2" stroke-dasharray="8,5" points="397.6,132.4 442.9,158.0 487.4,186.4 531.3,217.0 574.8,248.2 618.2,282.5 661.5,315.7"/>
<rect x="394.6" y="129.4" width="6" height="6" fill="#0F1D45"/>
<rect x="439.9" y="155.0" width="6" height="6" fill="#0F1D45"/>
<rect x="484.4" y="183.4" width="6" height="6" fill="#0F1D45"/>
<rect x="528.3" y="214.0" width="6" height="6" fill="#0F1D45"/>
<rect x="571.8" y="245.2" width="6" height="6" fill="#0F1D45"/>
<rect x="615.2" y="279.5" width="6" height="6" fill="#0F1D45"/>
<rect x="658.5" y="312.7" width="6" height="6" fill="#0F1D45"/>
<polyline fill="none" stroke="#22a06b" stroke-width="2" points="531.3,217.0 574.8,248.2 618.2,282.5 661.5,315.7 704.8,345.0 748.1,385.8 791.3,425.4"/>
<polygon points="531.3,213.0 535.3,217.0 531.3,221.0 527.3,217.0" fill="#22a06b"/>
<polygon points="574.8,244.2 578.8,248.2 574.8,252.2 570.8,248.2" fill="#22a06b"/>
<polygon points="618.2,278.5 622.2,282.5 618.2,286.5 614.2,282.5" fill="#22a06b"/>
<polygon points="661.5,311.7 665.5,315.7 661.5,319.7 657.5,315.7" fill="#22a06b"/>
<polygon points="704.8,341.0 708.8,345.0 704.8,349.0 700.8,345.0" fill="#22a06b"/>
<polygon points="748.1,381.8 752.1,385.8 748.1,389.8 744.1,385.8" fill="#22a06b"/>
<polygon points="791.3,421.4 795.3,425.4 791.3,429.4 787.3,425.4" fill="#22a06b"/>
<polyline fill="none" stroke="#e6a800" stroke-width="2" points="125.5,98.2 132.0,98.2 138.5,98.2 145.0,98.2 151.5,98.2 158.0,98.2 164.5,98.2"/>
<polygon points="125.5,94.2 129.5,101.2 121.5,101.2" fill="#e6a800"/>
<polygon points="132.0,94.2 136.0,101.2 128.0,101.2" fill="#e6a800"/>
<polygon points="138.5,94.2 142.5,101.2 134.5,101.2" fill="#e6a800"/>
<polygon points="145.0,94.2 149.0,101.2 141.0,101.2" fill="#e6a800"/>
<polygon points="151.5,94.2 155.5,101.2 147.5,101.2" fill="#e6a800"/>
<polygon points="158.0,94.2 162.0,101.2 154.0,101.2" fill="#e6a800"/>
<polygon points="164.5,94.2 168.5,101.2 160.5,101.2" fill="#e6a800"/>
<polyline fill="none" stroke="#9b59b6" stroke-width="2" points="489.7,207.2 533.6,237.7 614.2,306.2 657.6,346.3 700.9,387.0 736.0,440.3 764.5,494.7"/>
<polygon points="489.7,202.2 488.5,205.5 484.9,205.6 487.8,207.8 486.7,211.2 489.7,209.2 492.6,211.2 491.6,207.8 494.4,205.6 490.9,205.5" fill="#9b59b6"/>
<polygon points="533.6,232.7 532.5,236.0 528.9,236.1 531.7,238.3 530.7,241.7 533.6,239.7 536.6,241.7 535.5,238.3 538.4,236.1 534.8,236.0" fill="#9b59b6"/>
<polygon points="614.2,301.2 613.0,304.5 609.5,304.6 612.3,306.8 611.3,310.2 614.2,308.2 617.2,310.2 616.1,306.8 619.0,304.6 615.4,304.5" fill="#9b59b6"/>
<polygon points="657.6,341.3 656.4,344.7 652.8,344.8 655.7,347.0 654.6,350.4 657.6,348.3 660.5,350.4 659.5,347.0 662.3,344.8 658.8,344.7" fill="#9b59b6"/>
<polygon points="700.9,382.0 699.7,385.4 696.1,385.5 699.0,387.6 698.0,391.1 700.9,389.0 703.8,391.1 702.8,387.6 705.6,385.5 702.1,385.4" fill="#9b59b6"/>
<polygon points="736.0,435.3 734.8,438.7 731.2,438.8 734.1,441.0 733.0,444.4 736.0,442.3 738.9,444.4 737.9,441.0 740.7,438.8 737.1,438.7" fill="#9b59b6"/>
<polygon points="764.5,489.7 763.3,493.1 759.7,493.1 762.6,495.3 761.6,498.7 764.5,496.7 767.4,498.7 766.4,495.3 769.3,493.1 765.7,493.1" fill="#9b59b6"/>
<polyline fill="none" stroke="#e05d10" stroke-width="2" points="433.3,195.7 480.6,223.3 526.4,249.4 571.1,271.9 615.1,290.7 658.6,304.0 701.9,310.9"/>
<circle cx="433.3" cy="195.7" r="3" fill="#e05d10"/>
<circle cx="480.6" cy="223.3" r="3" fill="#e05d10"/>
<circle cx="526.4" cy="249.4" r="3" fill="#e05d10"/>
<circle cx="571.1" cy="271.9" r="3" fill="#e05d10"/>
<circle cx="615.1" cy="290.7" r="3" fill="#e05d10"/>
<circle cx="658.6" cy="304.0" r="3" fill="#e05d10"/>
<circle cx="701.9" cy="310.9" r="3" fill="#e05d10"/>
<line x1="886" y1="60" x2="902" y2="60" stroke="#ef4444" stroke-width="2" stroke-dasharray="8,5"/>
<circle cx="894.0" cy="60.0" r="3" fill="#ef4444"/>
<text class="label" x="908" y="64">Theoretical</text>
<line x1="886" y1="78" x2="902" y2="78" stroke="#2a7fff" stroke-width="2"/>
<rect x="891.0" y="75.0" width="6" height="6" fill="#2a7fff"/>
<text class="label" x="908" y="82">Adaptive (t=0)</text>
<line x1="886" y1="96" x2="902" y2="96" stroke="#6495ED" stroke-width="2" stroke-dasharray="8,5"/>
<rect x="891.0" y="93.0" width="6" height="6" fill="#6495ED"/>
<text class="label" x="908" y="100">Adaptive (t=1)</text>
<line x1="886" y1="114" x2="902" y2="114" stroke="#4169E1" stroke-width="2" stroke-dasharray="8,5"/>
<rect x="891.0" y="111.0" width="6" height="6" fill="#4169E1"/>
<text class="label" x="908" y="118">Adaptive (t=2)</text>
<line x1="886" y1="132" x2="902" y2="132" stroke="#1E3A8A" stroke-width="2" stroke-dasharray="8,5"/>
<rect x="891.0" y="129.0" width="6" height="6" fill="#1E3A8A"/>
<text class="label" x="908" y="136">Adaptive (t=3)</text>
<line x1="886" y1="150" x2="902" y2="150" stroke="#0F1D45" stroke-width="2" stroke-dasharray="8,5"/>
<rect x="891.0" y="147.0" width="6" height="6" fill="#0F1D45"/>
<text class="label" x="908" y="154">Adaptive (t=4)</text>
<line x1="886" y1="168" x2="902" y2="168" stroke="#22a06b" stroke-width="2"/>
<polygon points="894.0,164.0 898.0,168.0 894.0,172.0 890.0,168.0" fill="#22a06b"/>
<text class="label" x="908" y="172">SODA</text>
<line x1="886" y1="186" x2="902" y2="186" stroke="#e6a800" stroke-width="2"/>
<polygon points="894.0,182.0 898.0,189.0 890.0,189.0" fill="#e6a800"/>
<text class="label" x="908" y="190">Truncation</text>
<line x1="886" y1="204" x2="902" y2="204" stroke="#9b59b6" stroke-width="2"/>
<polygon points="894.0,199.0 892.8,202.4 889.2,202.5 892.1,204.6 891.1,208.0 894.0,206.0 896.9,208.0 895.9,204.6 898.8,202.5 895.2,202.4" fill="#9b59b6"/>
<text class="label" x="908" y="208">Hybrid</text>
<line x1="886" y1="222" x2="902" y2="222" stroke="#e05d10" stroke-width="2"/>
<circle cx="894.0" cy="222.0" r="3" fill="#e05d10"/>
<text class="label" x="908" y="226">CDF-ARE</text>
<text x="480" y="590" text-anchor="middle">Bits per Key (BPK)</text>
<text transform="translate(16,295) rotate(-90)" text-anchor="middle">False Positive Rate (FPR)</text>
</svg>
