<svg xmlns="http://www.w3.org/2000/svg" width="960" height="600" viewBox="0 0 960 600">
<style>text{font-family:Menlo,Monaco,monospace;font-size:12px;fill:#222} .axis{stroke:#333;stroke-width:1} .grid{stroke:#eee;stroke-width:0.5} .label{font-size:11px;fill:#444}</style>
<text x="480" y="28" text-anchor="middle" style="font-size:14px;font-weight:bold">Range Emptiness: FPR vs BPK (Cluster Distribution)</text>
<line class="axis" x1="90.0" y1="550.0" x2="920.0" y2="550.0"/>
<line class="axis" x1="90.0" y1="40.0" x2="90.0" y2="550.0"/>
<line class="grid" x1="90.0" y1="507.5" x2="920.0" y2="507.5"/>
<text class="label" x="82.0" y="511.5" text-anchor="end">10^-5</text>
<line class="grid" x1="90.0" y1="422.5" x2="920.0" y2="422.5"/>
<text class="label" x="82.0" y="426.5" text-anchor="end">10^-4</text>
<line class="grid" x1="90.0" y1="337.5" x2="920.0" y2="337.5"/>
<text class="label" x="82.0" y="341.5" text-anchor="end">10^-3</text>
<line class="grid" x1="90.0" y1="252.5" x2="920.0" y2="252.5"/>
<text class="label" x="82.0" y="256.5" text-anchor="end">0.01</text>
<line class="grid" x1="90.0" y1="167.5" x2="920.0" y2="167.5"/>
<text class="label" x="82.0" y="171.5" text-anchor="end">0.1</text>
<line class="grid" x1="90.0" y1="82.5" x2="920.0" y2="82.5"/>
<text class="label" x="82.0" y="86.5" text-anchor="end">1</text>
<line class="grid" x1="90.0" y1="40.0" x2="90.0" y2="550.0"/>
<text class="label" x="90.0" y="566.0" text-anchor="middle">0</text>
<line class="grid" x1="173.0" y1="40.0" x2="173.0" y2="550.0"/>
<text class="label" x="173.0" y="566.0" text-anchor="middle">2</text>
<line class="grid" x1="256.0" y1="40.0" x2="256.0" y2="550.0"/>
<text class="label" x="256.0" y="566.0" text-anchor="middle">4</text>
<line class="grid" x1="339.0" y1="40.0" x2="339.0" y2="550.0"/>
<text class="label" x="339.0" y="566.0" text-anchor="middle">6</text>
<line class="grid" x1="422.0" y1="40.0" x2="422.0" y2="550.0"/>
<text class="label" x="422.0" y="566.0" text-anchor="middle">8</text>
<line class="grid" x1="505.0" y1="40.0" x2="505.0" y2="550.0"/>
<text class="label" x="505.0" y="566.0" text-anchor="middle">10</text>
<line class="grid" x1="588.0" y1="40.0" x2="588.0" y2="550.0"/>
<text class="label" x="588.0" y="566.0" text-anchor="middle">12</text>
<line class="grid" x1="671.0" y1="40.0" x2="671.0" y2="550.0"/>
<text class="label" x="671.0" y="566.0" text-anchor="middle">14</text>
<line class="grid" x1="754.0" y1="40.0" x2="754.0" y2="550.0"/>
<text class="label" x="754.0" y="566.0" text-anchor="middle">16</text>
<line class="grid" x1="837.0" y1="40.0" x2="837.0" y2="550.0"/>
<text class="label" x="837.0" y="566.0" text-anchor="middle">18</text>
<line class="grid" x1="920.0" y1="40.0" x2="920.0" y2="550.0"/>
<text class="label" x="920.0" y="566.0" text-anchor="middle">20</text>
<polyline fill="none" stroke="#ef4444" stroke-width="2" stroke-dasharray="8,5" points="503.6,167.5 545.1,193.1 599.9,226.9 641.4,252.5 682.9,278.1 737.8,311.9 779.3,337.5"/>
<circle cx="503.6" cy="167.5" r="3" fill="#ef4444"/>
<circle cx="545.1" cy="193.1" r="3" fill="#ef4444"/>
<circle cx="599.9" cy="226.9" r="3" fill="#ef4444"/>
<circle cx="641.4" cy="252.5" r="3" fill="#ef4444"/>
<circle cx="682.9" cy="278.1" r="3" fill="#ef4444"/>
<circle cx="737.8" cy="311.9" r="3" fill="#ef4444"/>
<circle cx="779.3" cy="337.5" r="3" fill="#ef4444"/>
<polyline fill="none" stroke="#2a7fff" stroke-width="2" points="629.3,174.7 670.9,201.3 754.0,260.0 795.5,292.5 837.0,320.4 878.5,341.2 920.0,383.3"/>
<rect x="626.3" y="171.7" width="6" height="6" fill="#2a7fff"/>
<rect x="667.9" y="198.3" width="6" height="6" fill="#2a7fff"/>
<rect x="751.0" y="257.0" width="6" height="6" fill="#2a7fff"/>
<rect x="792.5" y="289.5" width="6" height="6" fill="#2a7fff"/>
<rect x="834.0" y="317.4" width="6" height="6" fill="#2a7fff"/>
<rect x="875.5" y="338.2" width="6" height="6" fill="#2a7fff"/>
<rect x="917.0" y="380.3" width="6" height="6" fill="#2a7fff"/>
<polyline fill="none" stroke="#6495ED" stroke-width="2" stroke-dasharray="8,5" points="587.7,148.6 629.3,174.7 712.4,226.2 754.0,260.0 795.5,292.5 837.0,320.4 878.5,341.2"/>
<rect x="584.7" y="145.6" width="6" height="6" fill="#6495ED"/>
<rect x="626.3" y="171.7" width="6" height="6" fill="#6495ED"/>
<rect x="709.4" y="223.2" width="6" height="6" fill="#6495ED"/>
<rect x="751.0" y="257.0" width="6" height="6" fill="#6495ED"/>
<rect x="792.5" y="289.5" width="6" height="6" fill="#6495ED"/>
<rect x="834.0" y="317.4" width="6" height="6" fill="#6495ED"/>
<rect x="875.5" y="338.2" width="6" height="6" fill="#6495ED"/>
<polyline fill="none" stroke="#4169E1" stroke-width="2" stroke-dasharray="8,5" points="587.7,148.6 629.3,174.7 670.9,201.3 712.4,226.2 754.0,260.0 795.5,292.5 837.0,320.4"/>
<rect x="584.7" y="145.6" width="6" height="6" fill="#4169E1"/>
<rect x="626.3" y="171.7" width="6" height="6" fill="#4169E1"/>
<rect x="667.9" y="198.3" width="6" height="6" fill="#4169E1"/>
<rect x="709.4" y="223.2" width="6" height="6" fill="#4169E1"/>
<rect x="751.0" y="257.0" width="6" height="6" fill="#4169E1"/>
<rect x="792.5" y="289.5" width="6" height="6" fill="#4169E1"/>
<rect x="834.0" y="317.4" width="6" height="6" fill="#4169E1"/>
<polyline fill="none" stroke="#1E3A8A" stroke-width="2" stroke-dasharray="8,5" points="545.9,125.2 587.7,148.6 629.3,174.7 670.9,201.3 712.4,226.2 754.0,260.0 795.5,292.5"/>
<rect x="542.9" y="122.2" width="6" height="6" fill="#1E3A8A"/>
<rect x="584.7" y="145.6" width="6" height="6" fill="#1E3A8A"/>
<rect x="626.3" y="171.7" width="6" height="6" fill="#1E3A8A"/>
<rect x="667.9" y="198.3" width="6" height="6" fill="#1E3A8A"/>
<rect x="709.4" y="223.2" width="6" height="6" fill="#1E3A8A"/>
<rect x="751.0" y="257.0" width="6" height="6" fill="#1E3A8A"/>
<rect x="792.5" y="289.5" width="6" height="6" fill="#1E3A8A"/>
<polyline fill="none" stroke="#0F1D45" stroke-width="2" stroke-dasharray="8,5" points="503.8,105.4 545.9,125.2 587.7,148.6 629.3,174.7 670.9,201.3 712.4,226.2 754.0,260.0"/>
<rect x="500.8" y="102.4" width="6" height="6" fill="#0F1D45"/>
<rect x="542.9" y="122.2" width="6" height="6" fill="#0F1D45"/>
<rect x="584.7" y="145.6" width="6" height="6" fill="#0F1D45"/>
<rect x="626.3" y="171.7" width="6" height="6" fill="#0F1D45"/>
<rect x="667.9" y="198.3" width="6" height="6" fill="#0F1D45"/>
<rect x="709.4" y="223.2" width="6" height="6" fill="#0F1D45"/>
<rect x="751.0" y="257.0" width="6" height="6" fill="#0F1D45"/>
<polyline fill="none" stroke="#22a06b" stroke-width="2" points="629.3,174.7 670.9,201.3 754.0,260.0 795.5,292.5 837.0,320.4 878.5,341.2 920.0,383.3"/>
<polygon points="629.3,170.7 633.3,174.7 629.3,178.7 625.3,174.7" fill="#22a06b"/>
<polygon points="670.9,197.3 674.9,201.3 670.9,205.3 666.9,201.3" fill="#22a06b"/>
<polygon points="754.0,256.0 758.0,260.0 754.0,264.0 750.0,260.0" fill="#22a06b"/>
<polygon points="795.5,288.5 799.5,292.5 795.5,296.5 791.5,292.5" fill="#22a06b"/>
<polygon points="837.0,316.4 841.0,320.4 837.0,324.4 833.0,320.4" fill="#22a06b"/>
<polygon points="878.5,337.2 882.5,341.2 878.5,345.2 874.5,341.2" fill="#22a06b"/>
<polygon points="920.0,379.3 924.0,383.3 920.0,387.3 916.0,383.3" fill="#22a06b"/>
<polyline fill="none" stroke="#e6a800" stroke-width="2" points="156.3,88.6 162.6,88.6 168.9,88.6 175.1,88.6 181.3,88.6 187.6,88.6 193.8,88.6"/>
<polygon points="156.3,84.6 160.3,91.6 152.3,91.6" fill="#e6a800"/>
<polygon points="162.6,84.6 166.6,91.6 158.6,91.6" fill="#e6a800"/>
<polygon points="168.9,84.6 172.9,91.6 164.9,91.6" fill="#e6a800"/>
<polygon points="175.1,84.6 179.1,91.6 171.1,91.6" fill="#e6a800"/>
<polygon points="181.3,84.6 185.3,91.6 177.3,91.6" fill="#e6a800"/>
<polygon points="187.6,84.6 191.6,91.6 183.6,91.6" fill="#e6a800"/>
<polygon points="193.8,84.6 197.8,91.6 189.8,91.6" fill="#e6a800"/>
<polyline fill="none" stroke="#9b59b6" stroke-width="2" points="612.5,196.2 654.4,231.2 696.1,265.0 723.6,302.5 751.0,340.6 791.7,427.9 805.0,466.4"/>
<polygon points="612.5,191.2 611.4,194.6 607.8,194.7 610.6,196.8 609.6,200.3 612.5,198.2 615.5,200.3 614.4,196.8 617.3,194.7 613.7,194.6" fill="#9b59b6"/>
<polygon points="654.4,226.2 653.2,229.6 649.6,229.6 652.5,231.8 651.5,235.2 654.4,233.2 657.3,235.2 656.3,231.8 659.2,229.6 655.6,229.6" fill="#9b59b6"/>
<polygon points="696.1,260.0 694.9,263.4 691.3,263.4 694.2,265.6 693.1,269.0 696.1,267.0 699.0,269.0 698.0,265.6 700.8,263.4 697.3,263.4" fill="#9b59b6"/>
<polygon points="723.6,297.5 722.4,300.8 718.8,300.9 721.7,303.1 720.6,306.5 723.6,304.5 726.5,306.5 725.5,303.1 728.3,300.9 724.7,300.8" fill="#9b59b6"/>
<polygon points="751.0,335.6 749.9,339.0 746.3,339.1 749.1,341.3 748.1,344.7 751.0,342.6 754.0,344.7 752.9,341.3 755.8,339.1 752.2,339.0" fill="#9b59b6"/>
<polygon points="791.7,422.9 790.6,426.3 787.0,426.4 789.8,428.6 788.8,432.0 791.7,429.9 794.7,432.0 793.7,428.6 796.5,426.4 792.9,426.3" fill="#9b59b6"/>
<polygon points="805.0,461.4 803.9,464.8 800.3,464.8 803.1,467.0 802.1,470.4 805.0,468.4 808.0,470.4 806.9,467.0 809.8,464.8 806.2,464.8" fill="#9b59b6"/>
<polyline fill="none" stroke="#e05d10" stroke-width="2" points="451.8,169.8 497.3,192.7 541.2,214.1 584.1,232.7 626.3,248.6 668.1,259.5 709.7,265.4"/>
<circle cx="451.8" cy="169.8" r="3" fill="#e05d10"/>
<circle cx="497.3" cy="192.7" r="3" fill="#e05d10"/>
<circle cx="541.2" cy="214.1" r="3" fill="#e05d10"/>
<circle cx="584.1" cy="232.7" r="3" fill="#e05d10"/>
<circle cx="626.3" cy="248.6" r="3" fill="#e05d10"/>
<circle cx="668.1" cy="259.5" r="3" fill="#e05d10"/>
<circle cx="709.7" cy="265.4" r="3" fill="#e05d10"/>
<line x1="700" y1="60" x2="716" y2="60" stroke="#ef4444" stroke-width="2" stroke-dasharray="8,5"/>
<circle cx="708.0" cy="60.0" r="3" fill="#ef4444"/>
<text class="label" x="722" y="64">Theoretical</text>
<line x1="700" y1="78" x2="716" y2="78" stroke="#2a7fff" stroke-width="2"/>
<rect x="705.0" y="75.0" width="6" height="6" fill="#2a7fff"/>
<text class="label" x="722" y="82">Adaptive (t=0)</text>
<line x1="700" y1="96" x2="716" y2="96" stroke="#6495ED" stroke-width="2" stroke-dasharray="8,5"/>
<rect x="705.0" y="93.0" width="6" height="6" fill="#6495ED"/>
<text class="label" x="722" y="100">Adaptive (t=1)</text>
<line x1="700" y1="114" x2="716" y2="114" stroke="#4169E1" stroke-width="2" stroke-dasharray="8,5"/>
<rect x="705.0" y="111.0" width="6" height="6" fill="#4169E1"/>
<text class="label" x="722" y="118">Adaptive (t=2)</text>
<line x1="700" y1="132" x2="716" y2="132" stroke="#1E3A8A" stroke-width="2" stroke-dasharray="8,5"/>
<rect x="705.0" y="129.0" width="6" height="6" fill="#1E3A8A"/>
<text class="label" x="722" y="136">Adaptive (t=3)</text>
<line x1="700" y1="150" x2="716" y2="150" stroke="#0F1D45" stroke-width="2" stroke-dasharray="8,5"/>
<rect x="705.0" y="147.0" width="6" height="6" fill="#0F1D45"/>
<text class="label" x="722" y="154">Adaptive (t=4)</text>
<line x1="700" y1="168" x2="716" y2="168" stroke="#22a06b" stroke-width="2"/>
<polygon points="708.0,164.0 712.0,168.0 708.0,172.0 704.0,168.0" fill="#22a06b"/>
<text class="label" x="722" y="172">SODA</text>
<line x1="700" y1="186" x2="716" y2="186" stroke="#e6a800" stroke-width="2"/>
<polygon points="708.0,182.0 712.0,189.0 704.0,189.0" fill="#e6a800"/>
<text class="label" x="722" y="190">Truncation</text>
<line x1="700" y1="204" x2="716" y2="204" stroke="#9b59b6" stroke-width="2"/>
<polygon points="708.0,199.0 706.8,202.4 703.2,202.5 706.1,204.6 705.1,208.0 708.0,206.0 710.9,208.0 709.9,204.6 712.8,202.5 709.2,202.4" fill="#9b59b6"/>
<text class="label" x="722" y="208">Hybrid</text>
<line x1="700" y1="222" x2="716" y2="222" stroke="#e05d10" stroke-width="2"/>
<circle cx="708.0" cy="222.0" r="3" fill="#e05d10"/>
<text class="label" x="722" y="226">CDF-ARE</text>
<text x="505" y="590" text-anchor="middle">Bits per Key (BPK)</text>
<text transform="translate(16,295) rotate(-90)" text-anchor="middle">False Positive Rate (FPR)</text>
</svg>
