<svg xmlns="http://www.w3.org/2000/svg" width="1020" height="600" viewBox="0 0 1020 600">
<style>text{font-family:Menlo,Monaco,monospace;font-size:12px;fill:#222} .axis{stroke:#333;stroke-width:1} .grid{stroke:#eee;stroke-width:0.5} .label{font-size:11px;fill:#444}</style>
<text x="510" y="28" text-anchor="middle" style="font-size:14px;font-weight:bold">FPR vs BPK — Cluster (n=65536, L=1)</text>
<line class="axis" x1="90.0" y1="550.0" x2="870.0" y2="550.0"/>
<line class="axis" x1="90.0" y1="40.0" x2="90.0" y2="550.0"/>
<line class="grid" x1="90.0" y1="499.0" x2="870.0" y2="499.0"/>
<text class="label" x="82.0" y="503.0" text-anchor="end">10^-4</text>
<line class="grid" x1="90.0" y1="397.0" x2="870.0" y2="397.0"/>
<text class="label" x="82.0" y="401.0" text-anchor="end">10^-3</text>
<line class="grid" x1="90.0" y1="295.0" x2="870.0" y2="295.0"/>
<text class="label" x="82.0" y="299.0" text-anchor="end">10^-2</text>
<line class="grid" x1="90.0" y1="193.0" x2="870.0" y2="193.0"/>
<text class="label" x="82.0" y="197.0" text-anchor="end">10^-1</text>
<line class="grid" x1="90.0" y1="91.0" x2="870.0" y2="91.0"/>
<text class="label" x="82.0" y="95.0" text-anchor="end">1</text>
<line class="grid" x1="146.8" y1="40.0" x2="146.8" y2="550.0"/>
<text class="label" x="146.8" y="566.0" text-anchor="middle">2</text>
<line class="grid" x1="253.1" y1="40.0" x2="253.1" y2="550.0"/>
<text class="label" x="253.1" y="566.0" text-anchor="middle">4</text>
<line class="grid" x1="359.3" y1="40.0" x2="359.3" y2="550.0"/>
<text class="label" x="359.3" y="566.0" text-anchor="middle">6</text>
<line class="grid" x1="465.6" y1="40.0" x2="465.6" y2="550.0"/>
<text class="label" x="465.6" y="566.0" text-anchor="middle">8</text>
<line class="grid" x1="571.9" y1="40.0" x2="571.9" y2="550.0"/>
<text class="label" x="571.9" y="566.0" text-anchor="middle">10</text>
<line class="grid" x1="678.2" y1="40.0" x2="678.2" y2="550.0"/>
<text class="label" x="678.2" y="566.0" text-anchor="middle">12</text>
<line class="grid" x1="784.4" y1="40.0" x2="784.4" y2="550.0"/>
<text class="label" x="784.4" y="566.0" text-anchor="middle">14</text>
<polyline fill="none" stroke="#ef4444" stroke-width="2" stroke-dasharray="8,5" points="217.1,193.0 270.2,223.7 340.4,264.3 393.6,295.0 446.7,325.7 516.9,366.3 570.1,397.0"/>
<circle cx="217.1" cy="193.0" r="3" fill="#ef4444"/>
<circle cx="270.2" cy="223.7" r="3" fill="#ef4444"/>
<circle cx="340.4" cy="264.3" r="3" fill="#ef4444"/>
<circle cx="393.6" cy="295.0" r="3" fill="#ef4444"/>
<circle cx="446.7" cy="325.7" r="3" fill="#ef4444"/>
<circle cx="516.9" cy="366.3" r="3" fill="#ef4444"/>
<circle cx="570.1" cy="397.0" r="3" fill="#ef4444"/>
<polyline fill="none" stroke="#2a7fff" stroke-width="2" points="459.8,246.6 515.4,278.2 570.1,308.3 624.1,340.7 677.8,374.3 731.1,408.0 784.3,437.0"/>
<rect x="456.8" y="243.6" width="6" height="6" fill="#2a7fff"/>
<rect x="512.4" y="275.2" width="6" height="6" fill="#2a7fff"/>
<rect x="567.1" y="305.3" width="6" height="6" fill="#2a7fff"/>
<rect x="621.1" y="337.7" width="6" height="6" fill="#2a7fff"/>
<rect x="674.8" y="371.3" width="6" height="6" fill="#2a7fff"/>
<rect x="728.1" y="405.0" width="6" height="6" fill="#2a7fff"/>
<rect x="781.3" y="434.0" width="6" height="6" fill="#2a7fff"/>
<polyline fill="none" stroke="#6495ED" stroke-width="2" stroke-dasharray="8,5" points="402.8,215.9 459.8,246.6 515.4,278.2 570.1,308.3 624.1,340.7 677.8,374.3 731.1,408.0"/>
<rect x="399.8" y="212.9" width="6" height="6" fill="#6495ED"/>
<rect x="456.8" y="243.6" width="6" height="6" fill="#6495ED"/>
<rect x="512.4" y="275.2" width="6" height="6" fill="#6495ED"/>
<rect x="567.1" y="305.3" width="6" height="6" fill="#6495ED"/>
<rect x="621.1" y="337.7" width="6" height="6" fill="#6495ED"/>
<rect x="674.8" y="371.3" width="6" height="6" fill="#6495ED"/>
<rect x="728.1" y="405.0" width="6" height="6" fill="#6495ED"/>
<polyline fill="none" stroke="#4169E1" stroke-width="2" stroke-dasharray="8,5" points="402.8,215.9 459.8,246.6 515.4,278.2 570.1,308.3 624.1,340.7 677.8,374.3 731.1,408.0"/>
<rect x="399.8" y="212.9" width="6" height="6" fill="#4169E1"/>
<rect x="456.8" y="243.6" width="6" height="6" fill="#4169E1"/>
<rect x="512.4" y="275.2" width="6" height="6" fill="#4169E1"/>
<rect x="567.1" y="305.3" width="6" height="6" fill="#4169E1"/>
<rect x="621.1" y="337.7" width="6" height="6" fill="#4169E1"/>
<rect x="674.8" y="371.3" width="6" height="6" fill="#4169E1"/>
<rect x="728.1" y="405.0" width="6" height="6" fill="#4169E1"/>
<polyline fill="none" stroke="#1E3A8A" stroke-width="2" stroke-dasharray="8,5" points="402.8,215.9 459.8,246.6 515.4,278.2 570.1,308.3 624.1,340.7 677.8,374.3 731.1,408.0"/>
<rect x="399.8" y="212.9" width="6" height="6" fill="#1E3A8A"/>
<rect x="456.8" y="243.6" width="6" height="6" fill="#1E3A8A"/>
<rect x="512.4" y="275.2" width="6" height="6" fill="#1E3A8A"/>
<rect x="567.1" y="305.3" width="6" height="6" fill="#1E3A8A"/>
<rect x="621.1" y="337.7" width="6" height="6" fill="#1E3A8A"/>
<rect x="674.8" y="371.3" width="6" height="6" fill="#1E3A8A"/>
<rect x="728.1" y="405.0" width="6" height="6" fill="#1E3A8A"/>
<polyline fill="none" stroke="#0F1D45" stroke-width="2" stroke-dasharray="8,5" points="402.8,215.9 459.8,246.6 515.4,278.2 570.1,308.3 624.1,340.7 677.8,374.3 731.1,408.0"/>
<rect x="399.8" y="212.9" width="6" height="6" fill="#0F1D45"/>
<rect x="456.8" y="243.6" width="6" height="6" fill="#0F1D45"/>
<rect x="512.4" y="275.2" width="6" height="6" fill="#0F1D45"/>
<rect x="567.1" y="305.3" width="6" height="6" fill="#0F1D45"/>
<rect x="621.1" y="337.7" width="6" height="6" fill="#0F1D45"/>
<rect x="674.8" y="371.3" width="6" height="6" fill="#0F1D45"/>
<rect x="728.1" y="405.0" width="6" height="6" fill="#0F1D45"/>
<polyline fill="none" stroke="#22a06b" stroke-width="2" points="402.8,215.9 459.8,246.6 515.4,278.2 570.1,308.3 624.1,340.7 677.8,374.3 731.1,408.0"/>
<polygon points="402.8,211.9 406.8,215.9 402.8,219.9 398.8,215.9" fill="#22a06b"/>
<polygon points="459.8,242.6 463.8,246.6 459.8,250.6 455.8,246.6" fill="#22a06b"/>
<polygon points="515.4,274.2 519.4,278.2 515.4,282.2 511.4,278.2" fill="#22a06b"/>
<polygon points="570.1,304.3 574.1,308.3 570.1,312.3 566.1,308.3" fill="#22a06b"/>
<polygon points="624.1,336.7 628.1,340.7 624.1,344.7 620.1,340.7" fill="#22a06b"/>
<polygon points="677.8,370.3 681.8,374.3 677.8,378.3 673.8,374.3" fill="#22a06b"/>
<polygon points="731.1,404.0 735.1,408.0 731.1,412.0 727.1,408.0" fill="#22a06b"/>
<polyline fill="none" stroke="#e6a800" stroke-width="2" points="125.5,98.2 133.5,98.2 141.5,98.2 149.5,98.2 157.5,98.2 165.4,98.2 173.4,98.2"/>
<polygon points="125.5,94.2 129.5,101.2 121.5,101.2" fill="#e6a800"/>
<polygon points="133.5,94.2 137.5,101.2 129.5,101.2" fill="#e6a800"/>
<polygon points="141.5,94.2 145.5,101.2 137.5,101.2" fill="#e6a800"/>
<polygon points="149.5,94.2 153.5,101.2 145.5,101.2" fill="#e6a800"/>
<polygon points="157.5,94.2 161.5,101.2 153.5,101.2" fill="#e6a800"/>
<polygon points="165.4,94.2 169.4,101.2 161.4,101.2" fill="#e6a800"/>
<polygon points="173.4,94.2 177.4,101.2 169.4,101.2" fill="#e6a800"/>
<polyline fill="none" stroke="#9b59b6" stroke-width="2" points="451.5,238.0 506.9,268.2 577.8,317.5 631.7,351.5 685.3,383.2 746.6,423.9 799.8,463.1"/>
<polygon points="451.5,233.0 450.3,236.4 446.7,236.5 449.6,238.6 448.5,242.0 451.5,240.0 454.4,242.0 453.4,238.6 456.2,236.5 452.6,236.4" fill="#9b59b6"/>
<polygon points="506.9,263.2 505.8,266.6 502.2,266.6 505.0,268.8 504.0,272.2 506.9,270.2 509.9,272.2 508.8,268.8 511.7,266.6 508.1,266.6" fill="#9b59b6"/>
<polygon points="577.8,312.5 576.6,315.9 573.0,316.0 575.9,318.1 574.9,321.5 577.8,319.5 580.7,321.5 579.7,318.1 582.6,316.0 579.0,315.9" fill="#9b59b6"/>
<polygon points="631.7,346.5 630.5,349.8 627.0,349.9 629.8,352.1 628.8,355.5 631.7,353.5 634.6,355.5 633.6,352.1 636.5,349.9 632.9,349.8" fill="#9b59b6"/>
<polygon points="685.3,378.2 684.1,381.6 680.5,381.7 683.4,383.8 682.3,387.2 685.3,385.2 688.2,387.2 687.2,383.8 690.0,381.7 686.5,381.6" fill="#9b59b6"/>
<polygon points="746.6,418.9 745.4,422.3 741.9,422.3 744.7,424.5 743.7,427.9 746.6,425.9 749.6,427.9 748.5,424.5 751.4,422.3 747.8,422.3" fill="#9b59b6"/>
<polygon points="799.8,458.1 798.6,461.4 795.1,461.5 797.9,463.7 796.9,467.1 799.8,465.1 802.7,467.1 801.7,463.7 804.6,461.5 801.0,461.4" fill="#9b59b6"/>
<polyline fill="none" stroke="#e05d10" stroke-width="2" points="501.8,189.0 561.1,214.8 618.2,238.3 673.5,257.9 727.7,271.5 781.3,281.0 834.5,286.8"/>
<circle cx="501.8" cy="189.0" r="3" fill="#e05d10"/>
<circle cx="561.1" cy="214.8" r="3" fill="#e05d10"/>
<circle cx="618.2" cy="238.3" r="3" fill="#e05d10"/>
<circle cx="673.5" cy="257.9" r="3" fill="#e05d10"/>
<circle cx="727.7" cy="271.5" r="3" fill="#e05d10"/>
<circle cx="781.3" cy="281.0" r="3" fill="#e05d10"/>
<circle cx="834.5" cy="286.8" r="3" fill="#e05d10"/>
<polyline fill="none" stroke="#888888" stroke-width="2" stroke-dasharray="8,5" points="295.2,192.1 371.8,221.9 473.2,263.8 549.8,294.0 626.5,325.9 727.8,364.1 804.5,393.8"/>
<circle cx="295.2" cy="192.1" r="3" fill="#888888"/>
<circle cx="371.8" cy="221.9" r="3" fill="#888888"/>
<circle cx="473.2" cy="263.8" r="3" fill="#888888"/>
<circle cx="549.8" cy="294.0" r="3" fill="#888888"/>
<circle cx="626.5" cy="325.9" r="3" fill="#888888"/>
<circle cx="727.8" cy="364.1" r="3" fill="#888888"/>
<circle cx="804.5" cy="393.8" r="3" fill="#888888"/>
<line x1="886" y1="60" x2="902" y2="60" stroke="#ef4444" stroke-width="2" stroke-dasharray="8,5"/>
<circle cx="894.0" cy="60.0" r="3" fill="#ef4444"/>
<text class="label" x="908" y="64">Theoretical</text>
<line x1="886" y1="78" x2="902" y2="78" stroke="#2a7fff" stroke-width="2"/>
<rect x="891.0" y="75.0" width="6" height="6" fill="#2a7fff"/>
<text class="label" x="908" y="82">Adaptive (t=0)</text>
<line x1="886" y1="96" x2="902" y2="96" stroke="#6495ED" stroke-width="2" stroke-dasharray="8,5"/>
<rect x="891.0" y="93.0" width="6" height="6" fill="#6495ED"/>
<text class="label" x="908" y="100">Adaptive (t=1)</text>
<line x1="886" y1="114" x2="902" y2="114" stroke="#4169E1" stroke-width="2" stroke-dasharray="8,5"/>
<rect x="891.0" y="111.0" width="6" height="6" fill="#4169E1"/>
<text class="label" x="908" y="118">Adaptive (t=2)</text>
<line x1="886" y1="132" x2="902" y2="132" stroke="#1E3A8A" stroke-width="2" stroke-dasharray="8,5"/>
<rect x="891.0" y="129.0" width="6" height="6" fill="#1E3A8A"/>
<text class="label" x="908" y="136">Adaptive (t=3)</text>
<line x1="886" y1="150" x2="902" y2="150" stroke="#0F1D45" stroke-width="2" stroke-dasharray="8,5"/>
<rect x="891.0" y="147.0" width="6" height="6" fill="#0F1D45"/>
<text class="label" x="908" y="154">Adaptive (t=4)</text>
<line x1="886" y1="168" x2="902" y2="168" stroke="#22a06b" stroke-width="2"/>
<polygon points="894.0,164.0 898.0,168.0 894.0,172.0 890.0,168.0" fill="#22a06b"/>
<text class="label" x="908" y="172">SODA</text>
<line x1="886" y1="186" x2="902" y2="186" stroke="#e6a800" stroke-width="2"/>
<polygon points="894.0,182.0 898.0,189.0 890.0,189.0" fill="#e6a800"/>
<text class="label" x="908" y="190">Truncation</text>
<line x1="886" y1="204" x2="902" y2="204" stroke="#9b59b6" stroke-width="2"/>
<polygon points="894.0,199.0 892.8,202.4 889.2,202.5 892.1,204.6 891.1,208.0 894.0,206.0 896.9,208.0 895.9,204.6 898.8,202.5 895.2,202.4" fill="#9b59b6"/>
<text class="label" x="908" y="208">Hybrid</text>
<line x1="886" y1="222" x2="902" y2="222" stroke="#e05d10" stroke-width="2"/>
<circle cx="894.0" cy="222.0" r="3" fill="#e05d10"/>
<text class="label" x="908" y="226">CDF-ARE</text>
<line x1="886" y1="240" x2="902" y2="240" stroke="#888888" stroke-width="2" stroke-dasharray="8,5"/>
<circle cx="894.0" cy="240.0" r="3" fill="#888888"/>
<text class="label" x="908" y="244">Bloom V3</text>
<text x="480" y="590" text-anchor="middle">Bits per Key (BPK)</text>
<text transform="translate(16,295) rotate(-90)" text-anchor="middle">False Positive Rate (FPR)</text>
</svg>
