<svg xmlns="http://www.w3.org/2000/svg" width="1020" height="600" viewBox="0 0 1020 600">
<style>text{font-family:Menlo,Monaco,monospace;font-size:12px;fill:#222} .axis{stroke:#333;stroke-width:1} .grid{stroke:#eee;stroke-width:0.5} .label{font-size:11px;fill:#444}</style>
<text x="510" y="28" text-anchor="middle" style="font-size:14px;font-weight:bold">FPR vs BPK — Cluster (n=65536, L=1024)</text>
<line class="axis" x1="90.0" y1="550.0" x2="870.0" y2="550.0"/>
<line class="axis" x1="90.0" y1="40.0" x2="90.0" y2="550.0"/>
<line class="grid" x1="90.0" y1="507.5" x2="870.0" y2="507.5"/>
<text class="label" x="82.0" y="511.5" text-anchor="end">10^-5</text>
<line class="grid" x1="90.0" y1="422.5" x2="870.0" y2="422.5"/>
<text class="label" x="82.0" y="426.5" text-anchor="end">10^-4</text>
<line class="grid" x1="90.0" y1="337.5" x2="870.0" y2="337.5"/>
<text class="label" x="82.0" y="341.5" text-anchor="end">10^-3</text>
<line class="grid" x1="90.0" y1="252.5" x2="870.0" y2="252.5"/>
<text class="label" x="82.0" y="256.5" text-anchor="end">10^-2</text>
<line class="grid" x1="90.0" y1="167.5" x2="870.0" y2="167.5"/>
<text class="label" x="82.0" y="171.5" text-anchor="end">10^-1</text>
<line class="grid" x1="90.0" y1="82.5" x2="870.0" y2="82.5"/>
<text class="label" x="82.0" y="86.5" text-anchor="end">1</text>
<line class="grid" x1="214.1" y1="40.0" x2="214.1" y2="550.0"/>
<text class="label" x="214.1" y="566.0" text-anchor="middle">5</text>
<line class="grid" x1="344.5" y1="40.0" x2="344.5" y2="550.0"/>
<text class="label" x="344.5" y="566.0" text-anchor="middle">10</text>
<line class="grid" x1="474.8" y1="40.0" x2="474.8" y2="550.0"/>
<text class="label" x="474.8" y="566.0" text-anchor="middle">15</text>
<line class="grid" x1="605.1" y1="40.0" x2="605.1" y2="550.0"/>
<text class="label" x="605.1" y="566.0" text-anchor="middle">20</text>
<line class="grid" x1="735.4" y1="40.0" x2="735.4" y2="550.0"/>
<text class="label" x="735.4" y="566.0" text-anchor="middle">25</text>
<line class="grid" x1="865.7" y1="40.0" x2="865.7" y2="550.0"/>
<text class="label" x="865.7" y="566.0" text-anchor="middle">30</text>
<polyline fill="none" stroke="#ef4444" stroke-width="2" stroke-dasharray="8,5" points="431.0,167.5 457.1,193.1 491.6,226.9 517.6,252.5 543.7,278.1 578.1,311.9 604.2,337.5"/>
<circle cx="431.0" cy="167.5" r="3" fill="#ef4444"/>
<circle cx="457.1" cy="193.1" r="3" fill="#ef4444"/>
<circle cx="491.6" cy="226.9" r="3" fill="#ef4444"/>
<circle cx="517.6" cy="252.5" r="3" fill="#ef4444"/>
<circle cx="543.7" cy="278.1" r="3" fill="#ef4444"/>
<circle cx="578.1" cy="311.9" r="3" fill="#ef4444"/>
<circle cx="604.2" cy="337.5" r="3" fill="#ef4444"/>
<polyline fill="none" stroke="#2a7fff" stroke-width="2" points="526.9,204.1 553.0,233.6 579.0,254.1 605.1,295.2 631.2,334.9 657.2,362.6 683.3,392.6"/>
<rect x="523.9" y="201.1" width="6" height="6" fill="#2a7fff"/>
<rect x="550.0" y="230.6" width="6" height="6" fill="#2a7fff"/>
<rect x="576.0" y="251.1" width="6" height="6" fill="#2a7fff"/>
<rect x="602.1" y="292.2" width="6" height="6" fill="#2a7fff"/>
<rect x="628.2" y="331.9" width="6" height="6" fill="#2a7fff"/>
<rect x="654.2" y="359.6" width="6" height="6" fill="#2a7fff"/>
<rect x="680.3" y="389.6" width="6" height="6" fill="#2a7fff"/>
<polyline fill="none" stroke="#6495ED" stroke-width="2" stroke-dasharray="8,5" points="500.8,174.6 526.9,204.1 553.0,233.6 579.0,254.1 605.1,295.2 631.2,334.9 657.2,362.6"/>
<rect x="497.8" y="171.6" width="6" height="6" fill="#6495ED"/>
<rect x="523.9" y="201.1" width="6" height="6" fill="#6495ED"/>
<rect x="550.0" y="230.6" width="6" height="6" fill="#6495ED"/>
<rect x="576.0" y="251.1" width="6" height="6" fill="#6495ED"/>
<rect x="602.1" y="292.2" width="6" height="6" fill="#6495ED"/>
<rect x="628.2" y="331.9" width="6" height="6" fill="#6495ED"/>
<rect x="654.2" y="359.6" width="6" height="6" fill="#6495ED"/>
<polyline fill="none" stroke="#4169E1" stroke-width="2" stroke-dasharray="8,5" points="474.7,144.6 500.8,174.6 526.9,204.1 553.0,233.6 579.0,254.1 605.1,295.2 631.2,334.9"/>
<rect x="471.7" y="141.6" width="6" height="6" fill="#4169E1"/>
<rect x="497.8" y="171.6" width="6" height="6" fill="#4169E1"/>
<rect x="523.9" y="201.1" width="6" height="6" fill="#4169E1"/>
<rect x="550.0" y="230.6" width="6" height="6" fill="#4169E1"/>
<rect x="576.0" y="251.1" width="6" height="6" fill="#4169E1"/>
<rect x="602.1" y="292.2" width="6" height="6" fill="#4169E1"/>
<rect x="628.2" y="331.9" width="6" height="6" fill="#4169E1"/>
<polyline fill="none" stroke="#1E3A8A" stroke-width="2" stroke-dasharray="8,5" points="448.6,122.5 474.7,144.6 500.8,174.6 526.9,204.1 553.0,233.6 579.0,254.1 605.1,295.2"/>
<rect x="445.6" y="119.5" width="6" height="6" fill="#1E3A8A"/>
<rect x="471.7" y="141.6" width="6" height="6" fill="#1E3A8A"/>
<rect x="497.8" y="171.6" width="6" height="6" fill="#1E3A8A"/>
<rect x="523.9" y="201.1" width="6" height="6" fill="#1E3A8A"/>
<rect x="550.0" y="230.6" width="6" height="6" fill="#1E3A8A"/>
<rect x="576.0" y="251.1" width="6" height="6" fill="#1E3A8A"/>
<rect x="602.1" y="292.2" width="6" height="6" fill="#1E3A8A"/>
<polyline fill="none" stroke="#0F1D45" stroke-width="2" stroke-dasharray="8,5" points="422.5,102.3 448.6,122.5 474.7,144.6 500.8,174.6 526.9,204.1 553.0,233.6 579.0,254.1"/>
<rect x="419.5" y="99.3" width="6" height="6" fill="#0F1D45"/>
<rect x="445.6" y="119.5" width="6" height="6" fill="#0F1D45"/>
<rect x="471.7" y="141.6" width="6" height="6" fill="#0F1D45"/>
<rect x="497.8" y="171.6" width="6" height="6" fill="#0F1D45"/>
<rect x="523.9" y="201.1" width="6" height="6" fill="#0F1D45"/>
<rect x="550.0" y="230.6" width="6" height="6" fill="#0F1D45"/>
<rect x="576.0" y="251.1" width="6" height="6" fill="#0F1D45"/>
<polyline fill="none" stroke="#22a06b" stroke-width="2" points="526.9,204.1 553.0,233.6 579.0,254.1 605.1,295.2 631.2,334.9 657.2,362.6 683.3,392.6"/>
<polygon points="526.9,200.1 530.9,204.1 526.9,208.1 522.9,204.1" fill="#22a06b"/>
<polygon points="553.0,229.6 557.0,233.6 553.0,237.6 549.0,233.6" fill="#22a06b"/>
<polygon points="579.0,250.1 583.0,254.1 579.0,258.1 575.0,254.1" fill="#22a06b"/>
<polygon points="605.1,291.2 609.1,295.2 605.1,299.2 601.1,295.2" fill="#22a06b"/>
<polygon points="631.2,330.9 635.2,334.9 631.2,338.9 627.2,334.9" fill="#22a06b"/>
<polygon points="657.2,358.6 661.2,362.6 657.2,366.6 653.2,362.6" fill="#22a06b"/>
<polygon points="683.3,388.6 687.3,392.6 683.3,396.6 679.3,392.6" fill="#22a06b"/>
<polyline fill="none" stroke="#e6a800" stroke-width="2" points="125.5,89.5 129.4,89.5 133.3,89.5 137.3,89.5 141.2,89.5 145.1,89.5 149.0,89.5"/>
<polygon points="125.5,85.5 129.5,92.5 121.5,92.5" fill="#e6a800"/>
<polygon points="129.4,85.5 133.4,92.5 125.4,92.5" fill="#e6a800"/>
<polygon points="133.3,85.5 137.3,92.5 129.3,92.5" fill="#e6a800"/>
<polygon points="137.3,85.5 141.3,92.5 133.3,92.5" fill="#e6a800"/>
<polygon points="141.2,85.5 145.2,92.5 137.2,92.5" fill="#e6a800"/>
<polygon points="145.1,85.5 149.1,92.5 141.1,92.5" fill="#e6a800"/>
<polygon points="149.0,85.5 153.0,92.5 145.0,92.5" fill="#e6a800"/>
<polyline fill="none" stroke="#9b59b6" stroke-width="2" points="469.6,215.0 487.0,253.9 508.8,318.0 517.2,344.9 521.1,369.5 529.0,430.4 532.9,461.7"/>
<polygon points="469.6,210.0 468.5,213.4 464.9,213.5 467.7,215.6 466.7,219.1 469.6,217.0 472.6,219.1 471.5,215.6 474.4,213.5 470.8,213.4" fill="#9b59b6"/>
<polygon points="487.0,248.9 485.9,252.3 482.3,252.4 485.1,254.5 484.1,258.0 487.0,255.9 490.0,258.0 488.9,254.5 491.8,252.4 488.2,252.3" fill="#9b59b6"/>
<polygon points="508.8,313.0 507.6,316.4 504.0,316.5 506.9,318.6 505.8,322.1 508.8,320.0 511.7,322.1 510.7,318.6 513.5,316.5 510.0,316.4" fill="#9b59b6"/>
<polygon points="517.2,339.9 516.0,343.3 512.4,343.3 515.3,345.5 514.2,348.9 517.2,346.9 520.1,348.9 519.1,345.5 521.9,343.3 518.3,343.3" fill="#9b59b6"/>
<polygon points="521.1,364.5 520.0,367.8 516.4,367.9 519.2,370.1 518.2,373.5 521.1,371.5 524.1,373.5 523.0,370.1 525.9,367.9 522.3,367.8" fill="#9b59b6"/>
<polygon points="529.0,425.4 527.8,428.8 524.2,428.9 527.1,431.0 526.0,434.5 529.0,432.4 531.9,434.5 530.9,431.0 533.7,428.9 530.2,428.8" fill="#9b59b6"/>
<polygon points="532.9,456.7 531.7,460.1 528.1,460.1 531.0,462.3 529.9,465.7 532.9,463.7 535.8,465.7 534.8,462.3 537.6,460.1 534.1,460.1" fill="#9b59b6"/>
<polyline fill="none" stroke="#e05d10" stroke-width="2" points="311.0,169.5 339.6,192.1 367.2,213.6 394.1,230.9 420.6,245.9 446.9,256.1 473.0,262.0"/>
<circle cx="311.0" cy="169.5" r="3" fill="#e05d10"/>
<circle cx="339.6" cy="192.1" r="3" fill="#e05d10"/>
<circle cx="367.2" cy="213.6" r="3" fill="#e05d10"/>
<circle cx="394.1" cy="230.9" r="3" fill="#e05d10"/>
<circle cx="420.6" cy="245.9" r="3" fill="#e05d10"/>
<circle cx="446.9" cy="256.1" r="3" fill="#e05d10"/>
<circle cx="473.0" cy="262.0" r="3" fill="#e05d10"/>
<polyline fill="none" stroke="#888888" stroke-width="2" stroke-dasharray="8,5" points="581.9,167.0 621.0,192.4 671.5,226.2 709.4,252.3 747.1,278.5 796.9,309.8 834.5,339.6"/>
<circle cx="581.9" cy="167.0" r="3" fill="#888888"/>
<circle cx="621.0" cy="192.4" r="3" fill="#888888"/>
<circle cx="671.5" cy="226.2" r="3" fill="#888888"/>
<circle cx="709.4" cy="252.3" r="3" fill="#888888"/>
<circle cx="747.1" cy="278.5" r="3" fill="#888888"/>
<circle cx="796.9" cy="309.8" r="3" fill="#888888"/>
<circle cx="834.5" cy="339.6" r="3" fill="#888888"/>
<line x1="886" y1="60" x2="902" y2="60" stroke="#ef4444" stroke-width="2" stroke-dasharray="8,5"/>
<circle cx="894.0" cy="60.0" r="3" fill="#ef4444"/>
<text class="label" x="908" y="64">Theoretical</text>
<line x1="886" y1="78" x2="902" y2="78" stroke="#2a7fff" stroke-width="2"/>
<rect x="891.0" y="75.0" width="6" height="6" fill="#2a7fff"/>
<text class="label" x="908" y="82">Adaptive (t=0)</text>
<line x1="886" y1="96" x2="902" y2="96" stroke="#6495ED" stroke-width="2" stroke-dasharray="8,5"/>
<rect x="891.0" y="93.0" width="6" height="6" fill="#6495ED"/>
<text class="label" x="908" y="100">Adaptive (t=1)</text>
<line x1="886" y1="114" x2="902" y2="114" stroke="#4169E1" stroke-width="2" stroke-dasharray="8,5"/>
<rect x="891.0" y="111.0" width="6" height="6" fill="#4169E1"/>
<text class="label" x="908" y="118">Adaptive (t=2)</text>
<line x1="886" y1="132" x2="902" y2="132" stroke="#1E3A8A" stroke-width="2" stroke-dasharray="8,5"/>
<rect x="891.0" y="129.0" width="6" height="6" fill="#1E3A8A"/>
<text class="label" x="908" y="136">Adaptive (t=3)</text>
<line x1="886" y1="150" x2="902" y2="150" stroke="#0F1D45" stroke-width="2" stroke-dasharray="8,5"/>
<rect x="891.0" y="147.0" width="6" height="6" fill="#0F1D45"/>
<text class="label" x="908" y="154">Adaptive (t=4)</text>
<line x1="886" y1="168" x2="902" y2="168" stroke="#22a06b" stroke-width="2"/>
<polygon points="894.0,164.0 898.0,168.0 894.0,172.0 890.0,168.0" fill="#22a06b"/>
<text class="label" x="908" y="172">SODA</text>
<line x1="886" y1="186" x2="902" y2="186" stroke="#e6a800" stroke-width="2"/>
<polygon points="894.0,182.0 898.0,189.0 890.0,189.0" fill="#e6a800"/>
<text class="label" x="908" y="190">Truncation</text>
<line x1="886" y1="204" x2="902" y2="204" stroke="#9b59b6" stroke-width="2"/>
<polygon points="894.0,199.0 892.8,202.4 889.2,202.5 892.1,204.6 891.1,208.0 894.0,206.0 896.9,208.0 895.9,204.6 898.8,202.5 895.2,202.4" fill="#9b59b6"/>
<text class="label" x="908" y="208">Hybrid</text>
<line x1="886" y1="222" x2="902" y2="222" stroke="#e05d10" stroke-width="2"/>
<circle cx="894.0" cy="222.0" r="3" fill="#e05d10"/>
<text class="label" x="908" y="226">CDF-ARE</text>
<line x1="886" y1="240" x2="902" y2="240" stroke="#888888" stroke-width="2" stroke-dasharray="8,5"/>
<circle cx="894.0" cy="240.0" r="3" fill="#888888"/>
<text class="label" x="908" y="244">Bloom V3</text>
<text x="480" y="590" text-anchor="middle">Bits per Key (BPK)</text>
<text transform="translate(16,295) rotate(-90)" text-anchor="middle">False Positive Rate (FPR)</text>
</svg>
