<svg xmlns="http://www.w3.org/2000/svg" width="960.0" height="540.0" viewBox="0 0 960.0 540.0">
<style>text{font-family:Menlo,Monaco,monospace;font-size:12px;fill:#222} .axis{stroke:#333;stroke-width:1} .grid{stroke:#ddd;stroke-width:1} .label{font-size:11px;fill:#444}</style>
<text x="480.0" y="26" text-anchor="middle">Range Emptiness Filters Comparison: FPR vs Space</text>
<line class="axis" x1="90.0" y1="465.0" x2="920.0" y2="465.0" />
<line class="axis" x1="90.0" y1="55.0" x2="90.0" y2="465.0" />
<line class="grid" x1="90.0" y1="465.00" x2="920.0" y2="465.00" />
<text class="label" x="82.0" y="469.00" text-anchor="end">10^-7</text>
<line class="grid" x1="90.0" y1="406.43" x2="920.0" y2="406.43" />
<text class="label" x="82.0" y="410.43" text-anchor="end">10^-6</text>
<line class="grid" x1="90.0" y1="347.86" x2="920.0" y2="347.86" />
<text class="label" x="82.0" y="351.86" text-anchor="end">10^-5</text>
<line class="grid" x1="90.0" y1="289.29" x2="920.0" y2="289.29" />
<text class="label" x="82.0" y="293.29" text-anchor="end">10^-4</text>
<line class="grid" x1="90.0" y1="230.71" x2="920.0" y2="230.71" />
<text class="label" x="82.0" y="234.71" text-anchor="end">10^-3</text>
<line class="grid" x1="90.0" y1="172.14" x2="920.0" y2="172.14" />
<text class="label" x="82.0" y="176.14" text-anchor="end">10^-2</text>
<line class="grid" x1="90.0" y1="113.57" x2="920.0" y2="113.57" />
<text class="label" x="82.0" y="117.57" text-anchor="end">10^-1</text>
<line class="grid" x1="90.0" y1="55.00" x2="920.0" y2="55.00" />
<text class="label" x="82.0" y="59.00" text-anchor="end">10^0</text>
<line class="grid" x1="90.00" y1="55.0" x2="90.00" y2="465.0" />
<text class="label" x="90.00" y="485.0" text-anchor="middle">0.0</text>
<line class="grid" x1="666.42" y1="55.0" x2="666.42" y2="465.0" />
<text class="label" x="666.42" y="485.0" text-anchor="middle">13.6</text>
<line class="grid" x1="708.68" y1="55.0" x2="708.68" y2="465.0" />
<text class="label" x="708.68" y="485.0" text-anchor="middle">14.6</text>
<line class="grid" x1="750.94" y1="55.0" x2="750.94" y2="465.0" />
<text class="label" x="750.94" y="485.0" text-anchor="middle">15.6</text>
<line class="grid" x1="793.21" y1="55.0" x2="793.21" y2="465.0" />
<text class="label" x="793.21" y="485.0" text-anchor="middle">16.6</text>
<line class="grid" x1="835.47" y1="55.0" x2="835.47" y2="465.0" />
<text class="label" x="835.47" y="485.0" text-anchor="middle">17.6</text>
<line class="grid" x1="877.74" y1="55.0" x2="877.74" y2="465.0" />
<text class="label" x="877.74" y="485.0" text-anchor="middle">18.6</text>
<line class="grid" x1="920.00" y1="55.0" x2="920.00" y2="465.0" />
<text class="label" x="920.00" y="485.0" text-anchor="middle">19.6</text>
<polyline fill="none" stroke="#2a7fff" stroke-width="2.5" points="666.42,162.55 708.68,178.14 750.94,193.97 793.21,211.60 835.47,226.50 877.74,233.39 920.00,255.33" />
<circle cx="666.42" cy="162.55" r="3.5" fill="#2a7fff" />
<circle cx="708.68" cy="178.14" r="3.5" fill="#2a7fff" />
<circle cx="750.94" cy="193.97" r="3.5" fill="#2a7fff" />
<circle cx="793.21" cy="211.60" r="3.5" fill="#2a7fff" />
<circle cx="835.47" cy="226.50" r="3.5" fill="#2a7fff" />
<circle cx="877.74" cy="233.39" r="3.5" fill="#2a7fff" />
<circle cx="920.00" cy="255.33" r="3.5" fill="#2a7fff" />
<line x1="100.0" y1="67.0" x2="116.0" y2="67.0" stroke="#2a7fff" stroke-width="2.5" />
<text class="label" x="122.0" y="71.0">Adaptive ARE (Uniform)</text>
<polyline fill="none" stroke="#e4572e" stroke-width="2.5" points="666.42,150.00 708.68,161.26 750.94,188.97 793.21,231.75 835.47,185.14 877.74,465.00 920.00,237.03" />
<circle cx="666.42" cy="150.00" r="3.5" fill="#e4572e" />
<circle cx="708.68" cy="161.26" r="3.5" fill="#e4572e" />
<circle cx="750.94" cy="188.97" r="3.5" fill="#e4572e" />
<circle cx="793.21" cy="231.75" r="3.5" fill="#e4572e" />
<circle cx="835.47" cy="185.14" r="3.5" fill="#e4572e" />
<circle cx="877.74" cy="465.00" r="3.5" fill="#e4572e" />
<circle cx="920.00" cy="237.03" r="3.5" fill="#e4572e" />
<line x1="100.0" y1="85.0" x2="116.0" y2="85.0" stroke="#e4572e" stroke-width="2.5" />
<text class="label" x="122.0" y="89.0">Adaptive ARE (Sequential)</text>
<polyline fill="none" stroke="#22a06b" stroke-width="2.5" points="666.42,465.00 708.68,465.00 750.94,465.00 793.21,465.00 835.47,465.00 877.74,465.00 920.00,465.00" />
<circle cx="666.42" cy="465.00" r="3.5" fill="#22a06b" />
<circle cx="708.68" cy="465.00" r="3.5" fill="#22a06b" />
<circle cx="750.94" cy="465.00" r="3.5" fill="#22a06b" />
<circle cx="793.21" cy="465.00" r="3.5" fill="#22a06b" />
<circle cx="835.47" cy="465.00" r="3.5" fill="#22a06b" />
<circle cx="877.74" cy="465.00" r="3.5" fill="#22a06b" />
<circle cx="920.00" cy="465.00" r="3.5" fill="#22a06b" />
<line x1="100.0" y1="103.0" x2="116.0" y2="103.0" stroke="#22a06b" stroke-width="2.5" />
<text class="label" x="122.0" y="107.0">Original SODA (Sequential)</text>
<polyline fill="none" stroke="#7c3aed" stroke-width="2.5" points="90.00,465.00 90.00,465.00 90.00,465.00 90.00,465.00 90.00,465.00 90.00,465.00 90.00,465.00" />
<circle cx="90.00" cy="465.00" r="3.5" fill="#7c3aed" />
<circle cx="90.00" cy="465.00" r="3.5" fill="#7c3aed" />
<circle cx="90.00" cy="465.00" r="3.5" fill="#7c3aed" />
<circle cx="90.00" cy="465.00" r="3.5" fill="#7c3aed" />
<circle cx="90.00" cy="465.00" r="3.5" fill="#7c3aed" />
<circle cx="90.00" cy="465.00" r="3.5" fill="#7c3aed" />
<circle cx="90.00" cy="465.00" r="3.5" fill="#7c3aed" />
<line x1="100.0" y1="121.0" x2="116.0" y2="121.0" stroke="#7c3aed" stroke-width="2.5" />
<text class="label" x="122.0" y="125.0">Truncation ARE (Sequential)</text>
<polyline fill="none" stroke="#a16207" stroke-width="2.5" stroke-dasharray="10,6" points="666.42,113.57 708.68,131.20 750.94,154.51 793.21,172.14 835.47,189.77 877.74,213.08 920.00,230.71" />
<circle cx="666.42" cy="113.57" r="3.5" fill="#a16207" />
<circle cx="708.68" cy="131.20" r="3.5" fill="#a16207" />
<circle cx="750.94" cy="154.51" r="3.5" fill="#a16207" />
<circle cx="793.21" cy="172.14" r="3.5" fill="#a16207" />
<circle cx="835.47" cy="189.77" r="3.5" fill="#a16207" />
<circle cx="877.74" cy="213.08" r="3.5" fill="#a16207" />
<circle cx="920.00" cy="230.71" r="3.5" fill="#a16207" />
<line x1="100.0" y1="139.0" x2="116.0" y2="139.0" stroke="#a16207" stroke-width="2.5" stroke-dasharray="10,6" />
<text class="label" x="122.0" y="143.0">Theoretical Target</text>
<text class="label" x="480.0" y="522.0" text-anchor="middle">Bits per Key (bpk)</text>
<text class="label" transform="translate(20,270.0) rotate(-90)" text-anchor="middle">False Positive Rate (FPR)</text>
</svg>