<svg xmlns="http://www.w3.org/2000/svg" width="1020" height="600" viewBox="0 0 1020 600">
<style>text{font-family:Menlo,Monaco,monospace;font-size:12px;fill:#222} .axis{stroke:#333;stroke-width:1} .grid{stroke:#eee;stroke-width:0.5} .label{font-size:11px;fill:#444}</style>
<text x="510" y="28" text-anchor="middle" style="font-size:14px;font-weight:bold">FPR vs BPK — Cluster (n=65536, L=1)</text>
<line class="axis" x1="90.0" y1="550.0" x2="870.0" y2="550.0"/>
<line class="axis" x1="90.0" y1="40.0" x2="90.0" y2="550.0"/>
<line class="grid" x1="90.0" y1="507.5" x2="870.0" y2="507.5"/>
<text class="label" x="82.0" y="511.5" text-anchor="end">10^-5</text>
<line class="grid" x1="90.0" y1="422.5" x2="870.0" y2="422.5"/>
<text class="label" x="82.0" y="426.5" text-anchor="end">10^-4</text>
<line class="grid" x1="90.0" y1="337.5" x2="870.0" y2="337.5"/>
<text class="label" x="82.0" y="341.5" text-anchor="end">10^-3</text>
<line class="grid" x1="90.0" y1="252.5" x2="870.0" y2="252.5"/>
<text class="label" x="82.0" y="256.5" text-anchor="end">10^-2</text>
<line class="grid" x1="90.0" y1="167.5" x2="870.0" y2="167.5"/>
<text class="label" x="82.0" y="171.5" text-anchor="end">10^-1</text>
<line class="grid" x1="90.0" y1="82.5" x2="870.0" y2="82.5"/>
<text class="label" x="82.0" y="86.5" text-anchor="end">1</text>
<line class="grid" x1="145.1" y1="40.0" x2="145.1" y2="550.0"/>
<text class="label" x="145.1" y="566.0" text-anchor="middle">2</text>
<line class="grid" x1="242.9" y1="40.0" x2="242.9" y2="550.0"/>
<text class="label" x="242.9" y="566.0" text-anchor="middle">4</text>
<line class="grid" x1="340.7" y1="40.0" x2="340.7" y2="550.0"/>
<text class="label" x="340.7" y="566.0" text-anchor="middle">6</text>
<line class="grid" x1="438.5" y1="40.0" x2="438.5" y2="550.0"/>
<text class="label" x="438.5" y="566.0" text-anchor="middle">8</text>
<line class="grid" x1="536.2" y1="40.0" x2="536.2" y2="550.0"/>
<text class="label" x="536.2" y="566.0" text-anchor="middle">10</text>
<line class="grid" x1="634.0" y1="40.0" x2="634.0" y2="550.0"/>
<text class="label" x="634.0" y="566.0" text-anchor="middle">12</text>
<line class="grid" x1="731.8" y1="40.0" x2="731.8" y2="550.0"/>
<text class="label" x="731.8" y="566.0" text-anchor="middle">14</text>
<line class="grid" x1="829.6" y1="40.0" x2="829.6" y2="550.0"/>
<text class="label" x="829.6" y="566.0" text-anchor="middle">16</text>
<polyline fill="none" stroke="#ef4444" stroke-width="2" stroke-dasharray="8,5" points="209.7,167.5 258.6,193.1 323.3,226.9 372.1,252.5 421.0,278.1 485.7,311.9 534.6,337.5"/>
<circle cx="209.7" cy="167.5" r="3" fill="#ef4444"/>
<circle cx="258.6" cy="193.1" r="3" fill="#ef4444"/>
<circle cx="323.3" cy="226.9" r="3" fill="#ef4444"/>
<circle cx="372.1" cy="252.5" r="3" fill="#ef4444"/>
<circle cx="421.0" cy="278.1" r="3" fill="#ef4444"/>
<circle cx="485.7" cy="311.9" r="3" fill="#ef4444"/>
<circle cx="534.6" cy="337.5" r="3" fill="#ef4444"/>
<polyline fill="none" stroke="#2a7fff" stroke-width="2" points="433.1,212.2 484.2,238.5 534.6,263.6 584.3,290.6 633.7,318.6 682.7,346.7 731.7,370.9"/>
<rect x="430.1" y="209.2" width="6" height="6" fill="#2a7fff"/>
<rect x="481.2" y="235.5" width="6" height="6" fill="#2a7fff"/>
<rect x="531.6" y="260.6" width="6" height="6" fill="#2a7fff"/>
<rect x="581.3" y="287.6" width="6" height="6" fill="#2a7fff"/>
<rect x="630.7" y="315.6" width="6" height="6" fill="#2a7fff"/>
<rect x="679.7" y="343.7" width="6" height="6" fill="#2a7fff"/>
<rect x="728.7" y="367.9" width="6" height="6" fill="#2a7fff"/>
<polyline fill="none" stroke="#6495ED" stroke-width="2" stroke-dasharray="8,5" points="380.6,186.5 433.1,212.2 484.2,238.5 534.6,263.6 584.3,290.6 633.7,318.6 682.7,346.7"/>
<rect x="377.6" y="183.5" width="6" height="6" fill="#6495ED"/>
<rect x="430.1" y="209.2" width="6" height="6" fill="#6495ED"/>
<rect x="481.2" y="235.5" width="6" height="6" fill="#6495ED"/>
<rect x="531.6" y="260.6" width="6" height="6" fill="#6495ED"/>
<rect x="581.3" y="287.6" width="6" height="6" fill="#6495ED"/>
<rect x="630.7" y="315.6" width="6" height="6" fill="#6495ED"/>
<rect x="679.7" y="343.7" width="6" height="6" fill="#6495ED"/>
<polyline fill="none" stroke="#4169E1" stroke-width="2" stroke-dasharray="8,5" points="380.6,186.5 433.1,212.2 484.2,238.5 534.6,263.6 584.3,290.6 633.7,318.6 682.7,346.7"/>
<rect x="377.6" y="183.5" width="6" height="6" fill="#4169E1"/>
<rect x="430.1" y="209.2" width="6" height="6" fill="#4169E1"/>
<rect x="481.2" y="235.5" width="6" height="6" fill="#4169E1"/>
<rect x="531.6" y="260.6" width="6" height="6" fill="#4169E1"/>
<rect x="581.3" y="287.6" width="6" height="6" fill="#4169E1"/>
<rect x="630.7" y="315.6" width="6" height="6" fill="#4169E1"/>
<rect x="679.7" y="343.7" width="6" height="6" fill="#4169E1"/>
<polyline fill="none" stroke="#1E3A8A" stroke-width="2" stroke-dasharray="8,5" points="380.6,186.5 433.1,212.2 484.2,238.5 534.6,263.6 584.3,290.6 633.7,318.6 682.7,346.7"/>
<rect x="377.6" y="183.5" width="6" height="6" fill="#1E3A8A"/>
<rect x="430.1" y="209.2" width="6" height="6" fill="#1E3A8A"/>
<rect x="481.2" y="235.5" width="6" height="6" fill="#1E3A8A"/>
<rect x="531.6" y="260.6" width="6" height="6" fill="#1E3A8A"/>
<rect x="581.3" y="287.6" width="6" height="6" fill="#1E3A8A"/>
<rect x="630.7" y="315.6" width="6" height="6" fill="#1E3A8A"/>
<rect x="679.7" y="343.7" width="6" height="6" fill="#1E3A8A"/>
<polyline fill="none" stroke="#0F1D45" stroke-width="2" stroke-dasharray="8,5" points="380.6,186.5 433.1,212.2 484.2,238.5 534.6,263.6 584.3,290.6 633.7,318.6 682.7,346.7"/>
<rect x="377.6" y="183.5" width="6" height="6" fill="#0F1D45"/>
<rect x="430.1" y="209.2" width="6" height="6" fill="#0F1D45"/>
<rect x="481.2" y="235.5" width="6" height="6" fill="#0F1D45"/>
<rect x="531.6" y="260.6" width="6" height="6" fill="#0F1D45"/>
<rect x="581.3" y="287.6" width="6" height="6" fill="#0F1D45"/>
<rect x="630.7" y="315.6" width="6" height="6" fill="#0F1D45"/>
<rect x="679.7" y="343.7" width="6" height="6" fill="#0F1D45"/>
<polyline fill="none" stroke="#22a06b" stroke-width="2" points="380.6,186.5 433.1,212.2 484.2,238.5 534.6,263.6 584.3,290.6 633.7,318.6 682.7,346.7"/>
<polygon points="380.6,182.5 384.6,186.5 380.6,190.5 376.6,186.5" fill="#22a06b"/>
<polygon points="433.1,208.2 437.1,212.2 433.1,216.2 429.1,212.2" fill="#22a06b"/>
<polygon points="484.2,234.5 488.2,238.5 484.2,242.5 480.2,238.5" fill="#22a06b"/>
<polygon points="534.6,259.6 538.6,263.6 534.6,267.6 530.6,263.6" fill="#22a06b"/>
<polygon points="584.3,286.6 588.3,290.6 584.3,294.6 580.3,290.6" fill="#22a06b"/>
<polygon points="633.7,314.6 637.7,318.6 633.7,322.6 629.7,318.6" fill="#22a06b"/>
<polygon points="682.7,342.7 686.7,346.7 682.7,350.7 678.7,346.7" fill="#22a06b"/>
<polyline fill="none" stroke="#e6a800" stroke-width="2" points="125.5,88.5 132.9,88.5 140.2,88.5 147.6,88.5 154.9,88.5 162.2,88.5 169.6,88.5"/>
<polygon points="125.5,84.5 129.5,91.5 121.5,91.5" fill="#e6a800"/>
<polygon points="132.9,84.5 136.9,91.5 128.9,91.5" fill="#e6a800"/>
<polygon points="140.2,84.5 144.2,91.5 136.2,91.5" fill="#e6a800"/>
<polygon points="147.6,84.5 151.6,91.5 143.6,91.5" fill="#e6a800"/>
<polygon points="154.9,84.5 158.9,91.5 150.9,91.5" fill="#e6a800"/>
<polygon points="162.2,84.5 166.2,91.5 158.2,91.5" fill="#e6a800"/>
<polygon points="169.6,84.5 173.6,91.5 165.6,91.5" fill="#e6a800"/>
<polyline fill="none" stroke="#9b59b6" stroke-width="2" points="539.5,280.7 589.2,308.7 638.5,330.9 687.6,357.9 736.7,383.8 785.6,415.8 834.5,441.3"/>
<polygon points="539.5,275.7 538.3,279.1 534.7,279.1 537.6,281.3 536.6,284.7 539.5,282.7 542.4,284.7 541.4,281.3 544.3,279.1 540.7,279.1" fill="#9b59b6"/>
<polygon points="589.2,303.7 588.0,307.1 584.4,307.2 587.3,309.3 586.2,312.8 589.2,310.7 592.1,312.8 591.1,309.3 593.9,307.2 590.4,307.1" fill="#9b59b6"/>
<polygon points="638.5,325.9 637.3,329.3 633.7,329.4 636.6,331.5 635.6,335.0 638.5,332.9 641.4,335.0 640.4,331.5 643.3,329.4 639.7,329.3" fill="#9b59b6"/>
<polygon points="687.6,352.9 686.5,356.3 682.9,356.4 685.7,358.5 684.7,362.0 687.6,359.9 690.6,362.0 689.5,358.5 692.4,356.4 688.8,356.3" fill="#9b59b6"/>
<polygon points="736.7,378.8 735.5,382.2 731.9,382.3 734.8,384.4 733.8,387.9 736.7,385.8 739.6,387.9 738.6,384.4 741.4,382.3 737.9,382.2" fill="#9b59b6"/>
<polygon points="785.6,410.8 784.5,414.1 780.9,414.2 783.7,416.4 782.7,419.8 785.6,417.8 788.6,419.8 787.5,416.4 790.4,414.2 786.8,414.1" fill="#9b59b6"/>
<polygon points="834.5,436.3 833.4,439.7 829.8,439.8 832.6,442.0 831.6,445.4 834.5,443.3 837.5,445.4 836.4,442.0 839.3,439.8 835.7,439.7" fill="#9b59b6"/>
<polyline fill="none" stroke="#e05d10" stroke-width="2" points="471.8,164.1 526.3,185.6 578.8,205.2 629.7,221.6 679.6,233.0 728.9,240.9 777.9,245.7"/>
<circle cx="471.8" cy="164.1" r="3" fill="#e05d10"/>
<circle cx="526.3" cy="185.6" r="3" fill="#e05d10"/>
<circle cx="578.8" cy="205.2" r="3" fill="#e05d10"/>
<circle cx="629.7" cy="221.6" r="3" fill="#e05d10"/>
<circle cx="679.6" cy="233.0" r="3" fill="#e05d10"/>
<circle cx="728.9" cy="240.9" r="3" fill="#e05d10"/>
<circle cx="777.9" cy="245.7" r="3" fill="#e05d10"/>
<polyline fill="none" stroke="#888888" stroke-width="2" stroke-dasharray="8,5" points="281.6,166.7 352.2,191.6 445.4,226.5 515.9,251.7 586.5,278.3 679.7,310.1 750.3,334.8"/>
<circle cx="281.6" cy="166.7" r="3" fill="#888888"/>
<circle cx="352.2" cy="191.6" r="3" fill="#888888"/>
<circle cx="445.4" cy="226.5" r="3" fill="#888888"/>
<circle cx="515.9" cy="251.7" r="3" fill="#888888"/>
<circle cx="586.5" cy="278.3" r="3" fill="#888888"/>
<circle cx="679.7" cy="310.1" r="3" fill="#888888"/>
<circle cx="750.3" cy="334.8" r="3" fill="#888888"/>
<line x1="886" y1="60" x2="902" y2="60" stroke="#ef4444" stroke-width="2" stroke-dasharray="8,5"/>
<circle cx="894.0" cy="60.0" r="3" fill="#ef4444"/>
<text class="label" x="908" y="64">Theoretical</text>
<line x1="886" y1="78" x2="902" y2="78" stroke="#2a7fff" stroke-width="2"/>
<rect x="891.0" y="75.0" width="6" height="6" fill="#2a7fff"/>
<text class="label" x="908" y="82">Adaptive (t=0)</text>
<line x1="886" y1="96" x2="902" y2="96" stroke="#6495ED" stroke-width="2" stroke-dasharray="8,5"/>
<rect x="891.0" y="93.0" width="6" height="6" fill="#6495ED"/>
<text class="label" x="908" y="100">Adaptive (t=1)</text>
<line x1="886" y1="114" x2="902" y2="114" stroke="#4169E1" stroke-width="2" stroke-dasharray="8,5"/>
<rect x="891.0" y="111.0" width="6" height="6" fill="#4169E1"/>
<text class="label" x="908" y="118">Adaptive (t=2)</text>
<line x1="886" y1="132" x2="902" y2="132" stroke="#1E3A8A" stroke-width="2" stroke-dasharray="8,5"/>
<rect x="891.0" y="129.0" width="6" height="6" fill="#1E3A8A"/>
<text class="label" x="908" y="136">Adaptive (t=3)</text>
<line x1="886" y1="150" x2="902" y2="150" stroke="#0F1D45" stroke-width="2" stroke-dasharray="8,5"/>
<rect x="891.0" y="147.0" width="6" height="6" fill="#0F1D45"/>
<text class="label" x="908" y="154">Adaptive (t=4)</text>
<line x1="886" y1="168" x2="902" y2="168" stroke="#22a06b" stroke-width="2"/>
<polygon points="894.0,164.0 898.0,168.0 894.0,172.0 890.0,168.0" fill="#22a06b"/>
<text class="label" x="908" y="172">SODA</text>
<line x1="886" y1="186" x2="902" y2="186" stroke="#e6a800" stroke-width="2"/>
<polygon points="894.0,182.0 898.0,189.0 890.0,189.0" fill="#e6a800"/>
<text class="label" x="908" y="190">Truncation</text>
<line x1="886" y1="204" x2="902" y2="204" stroke="#9b59b6" stroke-width="2"/>
<polygon points="894.0,199.0 892.8,202.4 889.2,202.5 892.1,204.6 891.1,208.0 894.0,206.0 896.9,208.0 895.9,204.6 898.8,202.5 895.2,202.4" fill="#9b59b6"/>
<text class="label" x="908" y="208">Hybrid</text>
<line x1="886" y1="222" x2="902" y2="222" stroke="#e05d10" stroke-width="2"/>
<circle cx="894.0" cy="222.0" r="3" fill="#e05d10"/>
<text class="label" x="908" y="226">CDF-ARE</text>
<line x1="886" y1="240" x2="902" y2="240" stroke="#888888" stroke-width="2" stroke-dasharray="8,5"/>
<circle cx="894.0" cy="240.0" r="3" fill="#888888"/>
<text class="label" x="908" y="244">Bloom V3</text>
<text x="480" y="590" text-anchor="middle">Bits per Key (BPK)</text>
<text transform="translate(16,295) rotate(-90)" text-anchor="middle">False Positive Rate (FPR)</text>
</svg>
