<svg xmlns="http://www.w3.org/2000/svg" width="1020" height="600" viewBox="0 0 1020 600">
<style>text{font-family:Menlo,Monaco,monospace;font-size:12px;fill:#222} .axis{stroke:#333;stroke-width:1} .grid{stroke:#eee;stroke-width:0.5} .label{font-size:11px;fill:#444}</style>
<text x="510" y="28" text-anchor="middle" style="font-size:14px;font-weight:bold">FPR vs BPK — Cluster shrink mode (n=65536, L=16)</text>
<line class="axis" x1="90.0" y1="550.0" x2="870.0" y2="550.0"/>
<line class="axis" x1="90.0" y1="40.0" x2="90.0" y2="550.0"/>
<line class="grid" x1="90.0" y1="499.0" x2="870.0" y2="499.0"/>
<text class="label" x="82.0" y="503.0" text-anchor="end">10^-4</text>
<line class="grid" x1="90.0" y1="397.0" x2="870.0" y2="397.0"/>
<text class="label" x="82.0" y="401.0" text-anchor="end">10^-3</text>
<line class="grid" x1="90.0" y1="295.0" x2="870.0" y2="295.0"/>
<text class="label" x="82.0" y="299.0" text-anchor="end">10^-2</text>
<line class="grid" x1="90.0" y1="193.0" x2="870.0" y2="193.0"/>
<text class="label" x="82.0" y="197.0" text-anchor="end">10^-1</text>
<line class="grid" x1="90.0" y1="91.0" x2="870.0" y2="91.0"/>
<text class="label" x="82.0" y="95.0" text-anchor="end">1</text>
<line class="grid" x1="140.8" y1="40.0" x2="140.8" y2="550.0"/>
<text class="label" x="140.8" y="566.0" text-anchor="middle">2</text>
<line class="grid" x1="217.3" y1="40.0" x2="217.3" y2="550.0"/>
<text class="label" x="217.3" y="566.0" text-anchor="middle">4</text>
<line class="grid" x1="293.7" y1="40.0" x2="293.7" y2="550.0"/>
<text class="label" x="293.7" y="566.0" text-anchor="middle">6</text>
<line class="grid" x1="370.2" y1="40.0" x2="370.2" y2="550.0"/>
<text class="label" x="370.2" y="566.0" text-anchor="middle">8</text>
<line class="grid" x1="446.6" y1="40.0" x2="446.6" y2="550.0"/>
<text class="label" x="446.6" y="566.0" text-anchor="middle">10</text>
<line class="grid" x1="523.1" y1="40.0" x2="523.1" y2="550.0"/>
<text class="label" x="523.1" y="566.0" text-anchor="middle">12</text>
<line class="grid" x1="599.5" y1="40.0" x2="599.5" y2="550.0"/>
<text class="label" x="599.5" y="566.0" text-anchor="middle">14</text>
<line class="grid" x1="676.0" y1="40.0" x2="676.0" y2="550.0"/>
<text class="label" x="676.0" y="566.0" text-anchor="middle">16</text>
<line class="grid" x1="752.5" y1="40.0" x2="752.5" y2="550.0"/>
<text class="label" x="752.5" y="566.0" text-anchor="middle">18</text>
<line class="grid" x1="828.9" y1="40.0" x2="828.9" y2="550.0"/>
<text class="label" x="828.9" y="566.0" text-anchor="middle">20</text>
<polyline fill="none" stroke="#ef4444" stroke-width="2" stroke-dasharray="8,5" points="344.3,193.0 382.5,223.7 433.0,264.3 471.3,295.0 509.5,325.7 560.0,366.3 598.2,397.0"/>
<circle cx="344.3" cy="193.0" r="3" fill="#ef4444"/>
<circle cx="382.5" cy="223.7" r="3" fill="#ef4444"/>
<circle cx="433.0" cy="264.3" r="3" fill="#ef4444"/>
<circle cx="471.3" cy="295.0" r="3" fill="#ef4444"/>
<circle cx="509.5" cy="325.7" r="3" fill="#ef4444"/>
<circle cx="560.0" cy="366.3" r="3" fill="#ef4444"/>
<circle cx="598.2" cy="397.0" r="3" fill="#ef4444"/>
<polyline fill="none" stroke="#2a7fff" stroke-width="2" points="484.2,217.8 522.8,248.9 561.2,280.2 599.5,312.4 637.7,342.8 714.2,413.7 752.5,459.3"/>
<rect x="481.2" y="214.8" width="6" height="6" fill="#2a7fff"/>
<rect x="519.8" y="245.9" width="6" height="6" fill="#2a7fff"/>
<rect x="558.2" y="277.2" width="6" height="6" fill="#2a7fff"/>
<rect x="596.5" y="309.4" width="6" height="6" fill="#2a7fff"/>
<rect x="634.7" y="339.8" width="6" height="6" fill="#2a7fff"/>
<rect x="711.2" y="410.7" width="6" height="6" fill="#2a7fff"/>
<rect x="749.5" y="456.3" width="6" height="6" fill="#2a7fff"/>
<polyline fill="none" stroke="#6495ED" stroke-width="2" stroke-dasharray="8,5" points="445.4,187.2 484.2,217.8 522.8,248.9 561.2,280.2 599.5,312.4 676.0,378.9 714.2,413.7"/>
<rect x="442.4" y="184.2" width="6" height="6" fill="#6495ED"/>
<rect x="481.2" y="214.8" width="6" height="6" fill="#6495ED"/>
<rect x="519.8" y="245.9" width="6" height="6" fill="#6495ED"/>
<rect x="558.2" y="277.2" width="6" height="6" fill="#6495ED"/>
<rect x="596.5" y="309.4" width="6" height="6" fill="#6495ED"/>
<rect x="673.0" y="375.9" width="6" height="6" fill="#6495ED"/>
<rect x="711.2" y="410.7" width="6" height="6" fill="#6495ED"/>
<polyline fill="none" stroke="#4169E1" stroke-width="2" stroke-dasharray="8,5" points="406.0,159.0 445.4,187.2 484.2,217.8 522.8,248.9 561.2,280.2 637.7,342.8 676.0,378.9"/>
<rect x="403.0" y="156.0" width="6" height="6" fill="#4169E1"/>
<rect x="442.4" y="184.2" width="6" height="6" fill="#4169E1"/>
<rect x="481.2" y="214.8" width="6" height="6" fill="#4169E1"/>
<rect x="519.8" y="245.9" width="6" height="6" fill="#4169E1"/>
<rect x="558.2" y="277.2" width="6" height="6" fill="#4169E1"/>
<rect x="634.7" y="339.8" width="6" height="6" fill="#4169E1"/>
<rect x="673.0" y="375.9" width="6" height="6" fill="#4169E1"/>
<polyline fill="none" stroke="#1E3A8A" stroke-width="2" stroke-dasharray="8,5" points="366.0,132.9 406.0,159.0 484.2,217.8 522.8,248.9 561.2,280.2 599.5,312.4 637.7,342.8"/>
<rect x="363.0" y="129.9" width="6" height="6" fill="#1E3A8A"/>
<rect x="403.0" y="156.0" width="6" height="6" fill="#1E3A8A"/>
<rect x="481.2" y="214.8" width="6" height="6" fill="#1E3A8A"/>
<rect x="519.8" y="245.9" width="6" height="6" fill="#1E3A8A"/>
<rect x="558.2" y="277.2" width="6" height="6" fill="#1E3A8A"/>
<rect x="596.5" y="309.4" width="6" height="6" fill="#1E3A8A"/>
<rect x="634.7" y="339.8" width="6" height="6" fill="#1E3A8A"/>
<polyline fill="none" stroke="#0F1D45" stroke-width="2" stroke-dasharray="8,5" points="366.0,132.9 406.0,159.0 445.4,187.2 484.2,217.8 522.8,248.9 561.2,280.2 599.5,312.4"/>
<rect x="363.0" y="129.9" width="6" height="6" fill="#0F1D45"/>
<rect x="403.0" y="156.0" width="6" height="6" fill="#0F1D45"/>
<rect x="442.4" y="184.2" width="6" height="6" fill="#0F1D45"/>
<rect x="481.2" y="214.8" width="6" height="6" fill="#0F1D45"/>
<rect x="519.8" y="245.9" width="6" height="6" fill="#0F1D45"/>
<rect x="558.2" y="277.2" width="6" height="6" fill="#0F1D45"/>
<rect x="596.5" y="309.4" width="6" height="6" fill="#0F1D45"/>
<polyline fill="none" stroke="#22a06b" stroke-width="2" points="484.2,217.8 522.8,248.9 561.2,280.2 599.5,312.4 637.7,342.8 676.0,378.9 714.2,413.7"/>
<polygon points="484.2,213.8 488.2,217.8 484.2,221.8 480.2,217.8" fill="#22a06b"/>
<polygon points="522.8,244.9 526.8,248.9 522.8,252.9 518.8,248.9" fill="#22a06b"/>
<polygon points="561.2,276.2 565.2,280.2 561.2,284.2 557.2,280.2" fill="#22a06b"/>
<polygon points="599.5,308.4 603.5,312.4 599.5,316.4 595.5,312.4" fill="#22a06b"/>
<polygon points="637.7,338.8 641.7,342.8 637.7,346.8 633.7,342.8" fill="#22a06b"/>
<polygon points="676.0,374.9 680.0,378.9 676.0,382.9 672.0,378.9" fill="#22a06b"/>
<polygon points="714.2,409.7 718.2,413.7 714.2,417.7 710.2,413.7" fill="#22a06b"/>
<polyline fill="none" stroke="#e6a800" stroke-width="2" points="125.5,98.2 131.2,98.2 137.0,98.2 142.8,98.2 148.5,98.2 154.2,98.2 160.0,98.2"/>
<polygon points="125.5,94.2 129.5,101.2 121.5,101.2" fill="#e6a800"/>
<polygon points="131.2,94.2 135.2,101.2 127.2,101.2" fill="#e6a800"/>
<polygon points="137.0,94.2 141.0,101.2 133.0,101.2" fill="#e6a800"/>
<polygon points="142.8,94.2 146.8,101.2 138.8,101.2" fill="#e6a800"/>
<polygon points="148.5,94.2 152.5,101.2 144.5,101.2" fill="#e6a800"/>
<polygon points="154.2,94.2 158.2,101.2 150.2,101.2" fill="#e6a800"/>
<polygon points="160.0,94.2 164.0,101.2 156.0,101.2" fill="#e6a800"/>
<polyline fill="none" stroke="#9b59b6" stroke-width="2" points="464.1,219.7 502.9,253.6 549.3,302.2 587.7,339.1 625.9,373.5 669.9,414.7 708.2,462.1"/>
<polygon points="464.1,214.7 462.9,218.1 459.4,218.2 462.2,220.3 461.2,223.8 464.1,221.7 467.1,223.8 466.0,220.3 468.9,218.2 465.3,218.1" fill="#9b59b6"/>
<polygon points="502.9,248.6 501.7,251.9 498.2,252.0 501.0,254.2 500.0,257.6 502.9,255.6 505.9,257.6 504.8,254.2 507.7,252.0 504.1,251.9" fill="#9b59b6"/>
<polygon points="549.3,297.2 548.1,300.5 544.5,300.6 547.4,302.8 546.4,306.2 549.3,304.2 552.2,306.2 551.2,302.8 554.0,300.6 550.5,300.5" fill="#9b59b6"/>
<polygon points="587.7,334.1 586.5,337.5 582.9,337.5 585.7,339.7 584.7,343.1 587.7,341.1 590.6,343.1 589.6,339.7 592.4,337.5 588.8,337.5" fill="#9b59b6"/>
<polygon points="625.9,368.5 624.8,371.9 621.2,371.9 624.0,374.1 623.0,377.5 625.9,375.5 628.9,377.5 627.8,374.1 630.7,371.9 627.1,371.9" fill="#9b59b6"/>
<polygon points="669.9,409.7 668.8,413.1 665.2,413.2 668.0,415.3 667.0,418.8 669.9,416.7 672.9,418.8 671.8,415.3 674.7,413.2 671.1,413.1" fill="#9b59b6"/>
<polygon points="708.2,457.1 707.0,460.5 703.4,460.5 706.3,462.7 705.2,466.1 708.2,464.1 711.1,466.1 710.1,462.7 712.9,460.5 709.3,460.5" fill="#9b59b6"/>
<polyline fill="none" stroke="#e05d10" stroke-width="2" points="396.3,187.2 438.9,211.4 479.9,232.4 519.7,249.4 558.7,261.8 597.3,273.2 635.6,282.9"/>
<circle cx="396.3" cy="187.2" r="3" fill="#e05d10"/>
<circle cx="438.9" cy="211.4" r="3" fill="#e05d10"/>
<circle cx="479.9" cy="232.4" r="3" fill="#e05d10"/>
<circle cx="519.7" cy="249.4" r="3" fill="#e05d10"/>
<circle cx="558.7" cy="261.8" r="3" fill="#e05d10"/>
<circle cx="597.3" cy="273.2" r="3" fill="#e05d10"/>
<circle cx="635.6" cy="282.9" r="3" fill="#e05d10"/>
<polyline fill="none" stroke="#888888" stroke-width="2" stroke-dasharray="8,5" points="464.3,192.4 521.4,223.3 595.5,266.4 651.0,296.2 706.3,327.0 779.4,370.9 834.5,397.9"/>
<circle cx="464.3" cy="192.4" r="3" fill="#888888"/>
<circle cx="521.4" cy="223.3" r="3" fill="#888888"/>
<circle cx="595.5" cy="266.4" r="3" fill="#888888"/>
<circle cx="651.0" cy="296.2" r="3" fill="#888888"/>
<circle cx="706.3" cy="327.0" r="3" fill="#888888"/>
<circle cx="779.4" cy="370.9" r="3" fill="#888888"/>
<circle cx="834.5" cy="397.9" r="3" fill="#888888"/>
<line x1="886" y1="60" x2="902" y2="60" stroke="#ef4444" stroke-width="2" stroke-dasharray="8,5"/>
<circle cx="894.0" cy="60.0" r="3" fill="#ef4444"/>
<text class="label" x="908" y="64">Theoretical</text>
<line x1="886" y1="78" x2="902" y2="78" stroke="#2a7fff" stroke-width="2"/>
<rect x="891.0" y="75.0" width="6" height="6" fill="#2a7fff"/>
<text class="label" x="908" y="82">Adaptive (t=0)</text>
<line x1="886" y1="96" x2="902" y2="96" stroke="#6495ED" stroke-width="2" stroke-dasharray="8,5"/>
<rect x="891.0" y="93.0" width="6" height="6" fill="#6495ED"/>
<text class="label" x="908" y="100">Adaptive (t=1)</text>
<line x1="886" y1="114" x2="902" y2="114" stroke="#4169E1" stroke-width="2" stroke-dasharray="8,5"/>
<rect x="891.0" y="111.0" width="6" height="6" fill="#4169E1"/>
<text class="label" x="908" y="118">Adaptive (t=2)</text>
<line x1="886" y1="132" x2="902" y2="132" stroke="#1E3A8A" stroke-width="2" stroke-dasharray="8,5"/>
<rect x="891.0" y="129.0" width="6" height="6" fill="#1E3A8A"/>
<text class="label" x="908" y="136">Adaptive (t=3)</text>
<line x1="886" y1="150" x2="902" y2="150" stroke="#0F1D45" stroke-width="2" stroke-dasharray="8,5"/>
<rect x="891.0" y="147.0" width="6" height="6" fill="#0F1D45"/>
<text class="label" x="908" y="154">Adaptive (t=4)</text>
<line x1="886" y1="168" x2="902" y2="168" stroke="#22a06b" stroke-width="2"/>
<polygon points="894.0,164.0 898.0,168.0 894.0,172.0 890.0,168.0" fill="#22a06b"/>
<text class="label" x="908" y="172">SODA</text>
<line x1="886" y1="186" x2="902" y2="186" stroke="#e6a800" stroke-width="2"/>
<polygon points="894.0,182.0 898.0,189.0 890.0,189.0" fill="#e6a800"/>
<text class="label" x="908" y="190">Truncation</text>
<line x1="886" y1="204" x2="902" y2="204" stroke="#9b59b6" stroke-width="2"/>
<polygon points="894.0,199.0 892.8,202.4 889.2,202.5 892.1,204.6 891.1,208.0 894.0,206.0 896.9,208.0 895.9,204.6 898.8,202.5 895.2,202.4" fill="#9b59b6"/>
<text class="label" x="908" y="208">Hybrid</text>
<line x1="886" y1="222" x2="902" y2="222" stroke="#e05d10" stroke-width="2"/>
<circle cx="894.0" cy="222.0" r="3" fill="#e05d10"/>
<text class="label" x="908" y="226">CDF-ARE</text>
<line x1="886" y1="240" x2="902" y2="240" stroke="#888888" stroke-width="2" stroke-dasharray="8,5"/>
<circle cx="894.0" cy="240.0" r="3" fill="#888888"/>
<text class="label" x="908" y="244">Bloom V3</text>
<text x="480" y="590" text-anchor="middle">Bits per Key (BPK)</text>
<text transform="translate(16,295) rotate(-90)" text-anchor="middle">False Positive Rate (FPR)</text>
</svg>
