<svg xmlns="http://www.w3.org/2000/svg" width="960" height="600" viewBox="0 0 960 600">
<style>text{font-family:Menlo,Monaco,monospace;font-size:12px;fill:#222} .axis{stroke:#333;stroke-width:1} .grid{stroke:#eee;stroke-width:0.5} .label{font-size:11px;fill:#444}</style>
<text x="480" y="28" text-anchor="middle" style="font-size:14px;font-weight:bold">Range Emptiness: FPR vs BPK (Cluster Distribution)</text>
<line class="axis" x1="90.0" y1="550.0" x2="920.0" y2="550.0"/>
<line class="axis" x1="90.0" y1="40.0" x2="90.0" y2="550.0"/>
<line class="grid" x1="90.0" y1="499.0" x2="920.0" y2="499.0"/>
<text class="label" x="82.0" y="503.0" text-anchor="end">10^-4</text>
<line class="grid" x1="90.0" y1="397.0" x2="920.0" y2="397.0"/>
<text class="label" x="82.0" y="401.0" text-anchor="end">10^-3</text>
<line class="grid" x1="90.0" y1="295.0" x2="920.0" y2="295.0"/>
<text class="label" x="82.0" y="299.0" text-anchor="end">0.01</text>
<line class="grid" x1="90.0" y1="193.0" x2="920.0" y2="193.0"/>
<text class="label" x="82.0" y="197.0" text-anchor="end">0.1</text>
<line class="grid" x1="90.0" y1="91.0" x2="920.0" y2="91.0"/>
<text class="label" x="82.0" y="95.0" text-anchor="end">1</text>
<line class="grid" x1="90.0" y1="40.0" x2="90.0" y2="550.0"/>
<text class="label" x="90.0" y="566.0" text-anchor="middle">0</text>
<line class="grid" x1="173.0" y1="40.0" x2="173.0" y2="550.0"/>
<text class="label" x="173.0" y="566.0" text-anchor="middle">2</text>
<line class="grid" x1="256.0" y1="40.0" x2="256.0" y2="550.0"/>
<text class="label" x="256.0" y="566.0" text-anchor="middle">4</text>
<line class="grid" x1="339.0" y1="40.0" x2="339.0" y2="550.0"/>
<text class="label" x="339.0" y="566.0" text-anchor="middle">6</text>
<line class="grid" x1="422.0" y1="40.0" x2="422.0" y2="550.0"/>
<text class="label" x="422.0" y="566.0" text-anchor="middle">8</text>
<line class="grid" x1="505.0" y1="40.0" x2="505.0" y2="550.0"/>
<text class="label" x="505.0" y="566.0" text-anchor="middle">10</text>
<line class="grid" x1="588.0" y1="40.0" x2="588.0" y2="550.0"/>
<text class="label" x="588.0" y="566.0" text-anchor="middle">12</text>
<line class="grid" x1="671.0" y1="40.0" x2="671.0" y2="550.0"/>
<text class="label" x="671.0" y="566.0" text-anchor="middle">14</text>
<line class="grid" x1="754.0" y1="40.0" x2="754.0" y2="550.0"/>
<text class="label" x="754.0" y="566.0" text-anchor="middle">16</text>
<line class="grid" x1="837.0" y1="40.0" x2="837.0" y2="550.0"/>
<text class="label" x="837.0" y="566.0" text-anchor="middle">18</text>
<line class="grid" x1="920.0" y1="40.0" x2="920.0" y2="550.0"/>
<text class="label" x="920.0" y="566.0" text-anchor="middle">20</text>
<polyline fill="none" stroke="#ef4444" stroke-width="2" stroke-dasharray="8,5" points="503.6,193.0 545.1,223.7 599.9,264.3 641.4,295.0 682.9,325.7 737.8,366.3 779.3,397.0"/>
<circle cx="503.6" cy="193.0" r="3" fill="#ef4444"/>
<circle cx="545.1" cy="223.7" r="3" fill="#ef4444"/>
<circle cx="599.9" cy="264.3" r="3" fill="#ef4444"/>
<circle cx="641.4" cy="295.0" r="3" fill="#ef4444"/>
<circle cx="682.9" cy="325.7" r="3" fill="#ef4444"/>
<circle cx="737.8" cy="366.3" r="3" fill="#ef4444"/>
<circle cx="779.3" cy="397.0" r="3" fill="#ef4444"/>
<polyline fill="none" stroke="#2a7fff" stroke-width="2" points="655.9,216.1 697.4,245.8 739.0,276.7 780.5,306.7 822.0,340.6 863.5,369.0 905.0,398.3"/>
<circle cx="655.9" cy="216.1" r="3" fill="#2a7fff"/>
<circle cx="697.4" cy="245.8" r="3" fill="#2a7fff"/>
<circle cx="739.0" cy="276.7" r="3" fill="#2a7fff"/>
<circle cx="780.5" cy="306.7" r="3" fill="#2a7fff"/>
<circle cx="822.0" cy="340.6" r="3" fill="#2a7fff"/>
<circle cx="863.5" cy="369.0" r="3" fill="#2a7fff"/>
<circle cx="905.0" cy="398.3" r="3" fill="#2a7fff"/>
<polyline fill="none" stroke="#22a06b" stroke-width="2" points="655.9,216.1 697.4,245.7 739.0,276.6 780.5,306.6 822.0,340.6 863.5,369.0 905.0,398.3"/>
<circle cx="655.9" cy="216.1" r="3" fill="#22a06b"/>
<circle cx="697.4" cy="245.7" r="3" fill="#22a06b"/>
<circle cx="739.0" cy="276.6" r="3" fill="#22a06b"/>
<circle cx="780.5" cy="306.6" r="3" fill="#22a06b"/>
<circle cx="822.0" cy="340.6" r="3" fill="#22a06b"/>
<circle cx="863.5" cy="369.0" r="3" fill="#22a06b"/>
<circle cx="905.0" cy="398.3" r="3" fill="#22a06b"/>
<polyline fill="none" stroke="#ffcc00" stroke-width="2" points="268.0,265.8 289.4,294.2 310.6,326.4 331.6,357.3 352.5,391.6 394.0,455.0 414.8,490.9"/>
<circle cx="268.0" cy="265.8" r="3" fill="#ffcc00"/>
<circle cx="289.4" cy="294.2" r="3" fill="#ffcc00"/>
<circle cx="310.6" cy="326.4" r="3" fill="#ffcc00"/>
<circle cx="331.6" cy="357.3" r="3" fill="#ffcc00"/>
<circle cx="352.5" cy="391.6" r="3" fill="#ffcc00"/>
<circle cx="394.0" cy="455.0" r="3" fill="#ffcc00"/>
<circle cx="414.8" cy="490.9" r="3" fill="#ffcc00"/>
<line x1="700" y1="60" x2="716" y2="60" stroke="#ef4444" stroke-width="2" stroke-dasharray="8,5"/>
<text class="label" x="722" y="64">Theoretical</text>
<line x1="700" y1="78" x2="716" y2="78" stroke="#2a7fff" stroke-width="2"/>
<text class="label" x="722" y="82">Adaptive</text>
<line x1="700" y1="96" x2="716" y2="96" stroke="#22a06b" stroke-width="2"/>
<text class="label" x="722" y="100">SODA</text>
<line x1="700" y1="114" x2="716" y2="114" stroke="#ffcc00" stroke-width="2"/>
<text class="label" x="722" y="118">Truncation</text>
<text x="505" y="590" text-anchor="middle">Bits per Key (BPK)</text>
<text transform="translate(16,295) rotate(-90)" text-anchor="middle">False Positive Rate (FPR)</text>
</svg>
