<svg xmlns="http://www.w3.org/2000/svg" width="960.0" height="540.0" viewBox="0 0 960.0 540.0">
<style>text{font-family:Menlo,Monaco,monospace;font-size:12px;fill:#222} .axis{stroke:#333;stroke-width:1} .grid{stroke:#ddd;stroke-width:1} .label{font-size:11px;fill:#444}</style>
<text x="480.0" y="26" text-anchor="middle">ARE: FPR vs Bits per Key (Ultra-Smooth)</text>
<line class="axis" x1="90.0" y1="465.0" x2="920.0" y2="465.0" />
<line class="axis" x1="90.0" y1="55.0" x2="90.0" y2="465.0" />
<line class="grid" x1="90.0" y1="465.00" x2="920.0" y2="465.00" />
<text class="label" x="82.0" y="469.00" text-anchor="end">10^-6</text>
<line class="grid" x1="90.0" y1="362.50" x2="920.0" y2="362.50" />
<text class="label" x="82.0" y="366.50" text-anchor="end">10^-5</text>
<line class="grid" x1="90.0" y1="260.00" x2="920.0" y2="260.00" />
<text class="label" x="82.0" y="264.00" text-anchor="end">10^-4</text>
<line class="grid" x1="90.0" y1="157.50" x2="920.0" y2="157.50" />
<text class="label" x="82.0" y="161.50" text-anchor="end">10^-3</text>
<line class="grid" x1="90.0" y1="55.00" x2="920.0" y2="55.00" />
<text class="label" x="82.0" y="59.00" text-anchor="end">10^-2</text>
<line class="grid" x1="90.00" y1="55.0" x2="90.00" y2="465.0" />
<text class="label" x="90.00" y="485.0" text-anchor="middle">3</text>
<line class="grid" x1="114.92" y1="55.0" x2="114.92" y2="465.0" />
<text class="label" x="114.92" y="485.0" text-anchor="middle">3</text>
<line class="grid" x1="123.22" y1="55.0" x2="123.22" y2="465.0" />
<text class="label" x="123.22" y="485.0" text-anchor="middle">3</text>
<line class="grid" x1="143.99" y1="55.0" x2="143.99" y2="465.0" />
<text class="label" x="143.99" y="485.0" text-anchor="middle">4</text>
<line class="grid" x1="157.04" y1="55.0" x2="157.04" y2="465.0" />
<text class="label" x="157.04" y="485.0" text-anchor="middle">4</text>
<line class="grid" x1="175.43" y1="55.0" x2="175.43" y2="465.0" />
<text class="label" x="175.43" y="485.0" text-anchor="middle">4</text>
<line class="grid" x1="181.96" y1="55.0" x2="181.96" y2="465.0" />
<text class="label" x="181.96" y="485.0" text-anchor="middle">4</text>
<line class="grid" x1="204.50" y1="55.0" x2="204.50" y2="465.0" />
<text class="label" x="204.50" y="485.0" text-anchor="middle">5</text>
<line class="grid" x1="215.18" y1="55.0" x2="215.18" y2="465.0" />
<text class="label" x="215.18" y="485.0" text-anchor="middle">5</text>
<line class="grid" x1="227.64" y1="55.0" x2="227.64" y2="465.0" />
<text class="label" x="227.64" y="485.0" text-anchor="middle">5</text>
<line class="grid" x1="244.25" y1="55.0" x2="244.25" y2="465.0" />
<text class="label" x="244.25" y="485.0" text-anchor="middle">5</text>
<line class="grid" x1="251.37" y1="55.0" x2="251.37" y2="465.0" />
<text class="label" x="251.37" y="485.0" text-anchor="middle">5</text>
<line class="grid" x1="272.14" y1="55.0" x2="272.14" y2="465.0" />
<text class="label" x="272.14" y="485.0" text-anchor="middle">6</text>
<line class="grid" x1="285.19" y1="55.0" x2="285.19" y2="465.0" />
<text class="label" x="285.19" y="485.0" text-anchor="middle">6</text>
<line class="grid" x1="296.46" y1="55.0" x2="296.46" y2="465.0" />
<text class="label" x="296.46" y="485.0" text-anchor="middle">6</text>
<line class="grid" x1="312.48" y1="55.0" x2="312.48" y2="465.0" />
<text class="label" x="312.48" y="485.0" text-anchor="middle">6</text>
<line class="grid" x1="318.41" y1="55.0" x2="318.41" y2="465.0" />
<text class="label" x="318.41" y="485.0" text-anchor="middle">6</text>
<line class="grid" x1="337.99" y1="55.0" x2="337.99" y2="465.0" />
<text class="label" x="337.99" y="485.0" text-anchor="middle">7</text>
<line class="grid" x1="351.64" y1="55.0" x2="351.64" y2="465.0" />
<text class="label" x="351.64" y="485.0" text-anchor="middle">7</text>
<line class="grid" x1="362.32" y1="55.0" x2="362.32" y2="465.0" />
<text class="label" x="362.32" y="485.0" text-anchor="middle">7</text>
<line class="grid" x1="377.15" y1="55.0" x2="377.15" y2="465.0" />
<text class="label" x="377.15" y="485.0" text-anchor="middle">7</text>
<line class="grid" x1="383.08" y1="55.0" x2="383.08" y2="465.0" />
<text class="label" x="383.08" y="485.0" text-anchor="middle">8</text>
<line class="grid" x1="402.07" y1="55.0" x2="402.07" y2="465.0" />
<text class="label" x="402.07" y="485.0" text-anchor="middle">8</text>
<line class="grid" x1="415.71" y1="55.0" x2="415.71" y2="465.0" />
<text class="label" x="415.71" y="485.0" text-anchor="middle">8</text>
<line class="grid" x1="425.80" y1="55.0" x2="425.80" y2="465.0" />
<text class="label" x="425.80" y="485.0" text-anchor="middle">8</text>
<line class="grid" x1="440.04" y1="55.0" x2="440.04" y2="465.0" />
<text class="label" x="440.04" y="485.0" text-anchor="middle">9</text>
<line class="grid" x1="445.38" y1="55.0" x2="445.38" y2="465.0" />
<text class="label" x="445.38" y="485.0" text-anchor="middle">9</text>
<line class="grid" x1="464.36" y1="55.0" x2="464.36" y2="465.0" />
<text class="label" x="464.36" y="485.0" text-anchor="middle">9</text>
<line class="grid" x1="478.01" y1="55.0" x2="478.01" y2="465.0" />
<text class="label" x="478.01" y="485.0" text-anchor="middle">9</text>
<line class="grid" x1="487.50" y1="55.0" x2="487.50" y2="465.0" />
<text class="label" x="487.50" y="485.0" text-anchor="middle">9</text>
<line class="grid" x1="501.74" y1="55.0" x2="501.74" y2="465.0" />
<text class="label" x="501.74" y="485.0" text-anchor="middle">10</text>
<line class="grid" x1="507.08" y1="55.0" x2="507.08" y2="465.0" />
<text class="label" x="507.08" y="485.0" text-anchor="middle">10</text>
<line class="grid" x1="525.47" y1="55.0" x2="525.47" y2="465.0" />
<text class="label" x="525.47" y="485.0" text-anchor="middle">10</text>
<line class="grid" x1="538.52" y1="55.0" x2="538.52" y2="465.0" />
<text class="label" x="538.52" y="485.0" text-anchor="middle">10</text>
<line class="grid" x1="548.01" y1="55.0" x2="548.01" y2="465.0" />
<text class="label" x="548.01" y="485.0" text-anchor="middle">10</text>
<line class="grid" x1="562.25" y1="55.0" x2="562.25" y2="465.0" />
<text class="label" x="562.25" y="485.0" text-anchor="middle">11</text>
<line class="grid" x1="567.59" y1="55.0" x2="567.59" y2="465.0" />
<text class="label" x="567.59" y="485.0" text-anchor="middle">11</text>
<line class="grid" x1="585.39" y1="55.0" x2="585.39" y2="465.0" />
<text class="label" x="585.39" y="485.0" text-anchor="middle">11</text>
<line class="grid" x1="599.04" y1="55.0" x2="599.04" y2="465.0" />
<text class="label" x="599.04" y="485.0" text-anchor="middle">11</text>
<line class="grid" x1="608.53" y1="55.0" x2="608.53" y2="465.0" />
<text class="label" x="608.53" y="485.0" text-anchor="middle">11</text>
<line class="grid" x1="622.17" y1="55.0" x2="622.17" y2="465.0" />
<text class="label" x="622.17" y="485.0" text-anchor="middle">12</text>
<line class="grid" x1="627.51" y1="55.0" x2="627.51" y2="465.0" />
<text class="label" x="627.51" y="485.0" text-anchor="middle">12</text>
<line class="grid" x1="645.90" y1="55.0" x2="645.90" y2="465.0" />
<text class="label" x="645.90" y="485.0" text-anchor="middle">12</text>
<line class="grid" x1="658.96" y1="55.0" x2="658.96" y2="465.0" />
<text class="label" x="658.96" y="485.0" text-anchor="middle">12</text>
<line class="grid" x1="668.45" y1="55.0" x2="668.45" y2="465.0" />
<text class="label" x="668.45" y="485.0" text-anchor="middle">12</text>
<line class="grid" x1="682.09" y1="55.0" x2="682.09" y2="465.0" />
<text class="label" x="682.09" y="485.0" text-anchor="middle">13</text>
<line class="grid" x1="687.43" y1="55.0" x2="687.43" y2="465.0" />
<text class="label" x="687.43" y="485.0" text-anchor="middle">13</text>
<line class="grid" x1="705.23" y1="55.0" x2="705.23" y2="465.0" />
<text class="label" x="705.23" y="485.0" text-anchor="middle">13</text>
<line class="grid" x1="718.28" y1="55.0" x2="718.28" y2="465.0" />
<text class="label" x="718.28" y="485.0" text-anchor="middle">13</text>
<line class="grid" x1="727.78" y1="55.0" x2="727.78" y2="465.0" />
<text class="label" x="727.78" y="485.0" text-anchor="middle">13</text>
<line class="grid" x1="741.42" y1="55.0" x2="741.42" y2="465.0" />
<text class="label" x="741.42" y="485.0" text-anchor="middle">14</text>
<line class="grid" x1="746.76" y1="55.0" x2="746.76" y2="465.0" />
<text class="label" x="746.76" y="485.0" text-anchor="middle">14</text>
<line class="grid" x1="765.15" y1="55.0" x2="765.15" y2="465.0" />
<text class="label" x="765.15" y="485.0" text-anchor="middle">14</text>
<line class="grid" x1="778.21" y1="55.0" x2="778.21" y2="465.0" />
<text class="label" x="778.21" y="485.0" text-anchor="middle">14</text>
<line class="grid" x1="787.11" y1="55.0" x2="787.11" y2="465.0" />
<text class="label" x="787.11" y="485.0" text-anchor="middle">14</text>
<line class="grid" x1="801.34" y1="55.0" x2="801.34" y2="465.0" />
<text class="label" x="801.34" y="485.0" text-anchor="middle">15</text>
<line class="grid" x1="806.09" y1="55.0" x2="806.09" y2="465.0" />
<text class="label" x="806.09" y="485.0" text-anchor="middle">15</text>
<line class="grid" x1="824.48" y1="55.0" x2="824.48" y2="465.0" />
<text class="label" x="824.48" y="485.0" text-anchor="middle">15</text>
<line class="grid" x1="837.53" y1="55.0" x2="837.53" y2="465.0" />
<text class="label" x="837.53" y="485.0" text-anchor="middle">15</text>
<line class="grid" x1="846.43" y1="55.0" x2="846.43" y2="465.0" />
<text class="label" x="846.43" y="485.0" text-anchor="middle">15</text>
<line class="grid" x1="860.67" y1="55.0" x2="860.67" y2="465.0" />
<text class="label" x="860.67" y="485.0" text-anchor="middle">16</text>
<line class="grid" x1="865.42" y1="55.0" x2="865.42" y2="465.0" />
<text class="label" x="865.42" y="485.0" text-anchor="middle">16</text>
<line class="grid" x1="883.81" y1="55.0" x2="883.81" y2="465.0" />
<text class="label" x="883.81" y="485.0" text-anchor="middle">16</text>
<line class="grid" x1="896.86" y1="55.0" x2="896.86" y2="465.0" />
<text class="label" x="896.86" y="485.0" text-anchor="middle">16</text>
<line class="grid" x1="920.00" y1="55.0" x2="920.00" y2="465.0" />
<text class="label" x="920.00" y="485.0" text-anchor="middle">17</text>
<polyline fill="none" stroke="#2a7fff" stroke-width="2.5" points="90.00,77.37 114.92,84.54 123.22,90.05 143.99,103.02 157.04,93.09 175.43,112.47 181.96,100.48 204.50,109.34 215.18,119.47 227.64,119.47 244.25,135.21 251.37,123.43 272.14,131.33 285.19,140.96 296.46,145.82 312.48,155.33 318.41,151.28 337.99,159.78 351.64,173.38 362.32,173.38 377.15,188.36 383.08,180.24 402.07,188.36 415.71,211.10 425.80,219.21 440.04,241.95 445.38,229.14 464.36,229.14 478.01,260.00 487.50,290.86 501.74,290.86 507.08,465.00 525.47,465.00 538.52,465.00 548.01,290.86 562.25,465.00 567.59,465.00 585.39,465.00 599.04,465.00 608.53,465.00 622.17,465.00 627.51,465.00 645.90,465.00 658.96,465.00 668.45,465.00 682.09,465.00 687.43,465.00 705.23,465.00 718.28,465.00 727.78,465.00 741.42,465.00 746.76,465.00 765.15,465.00 778.21,465.00 787.11,465.00 801.34,465.00 806.09,465.00 824.48,465.00 837.53,465.00 846.43,465.00 860.67,465.00 865.42,465.00 883.81,465.00 896.86,465.00 920.00,465.00" />
<circle cx="90.00" cy="77.37" r="3.5" fill="#2a7fff" />
<circle cx="114.92" cy="84.54" r="3.5" fill="#2a7fff" />
<circle cx="123.22" cy="90.05" r="3.5" fill="#2a7fff" />
<circle cx="143.99" cy="103.02" r="3.5" fill="#2a7fff" />
<circle cx="157.04" cy="93.09" r="3.5" fill="#2a7fff" />
<circle cx="175.43" cy="112.47" r="3.5" fill="#2a7fff" />
<circle cx="181.96" cy="100.48" r="3.5" fill="#2a7fff" />
<circle cx="204.50" cy="109.34" r="3.5" fill="#2a7fff" />
<circle cx="215.18" cy="119.47" r="3.5" fill="#2a7fff" />
<circle cx="227.64" cy="119.47" r="3.5" fill="#2a7fff" />
<circle cx="244.25" cy="135.21" r="3.5" fill="#2a7fff" />
<circle cx="251.37" cy="123.43" r="3.5" fill="#2a7fff" />
<circle cx="272.14" cy="131.33" r="3.5" fill="#2a7fff" />
<circle cx="285.19" cy="140.96" r="3.5" fill="#2a7fff" />
<circle cx="296.46" cy="145.82" r="3.5" fill="#2a7fff" />
<circle cx="312.48" cy="155.33" r="3.5" fill="#2a7fff" />
<circle cx="318.41" cy="151.28" r="3.5" fill="#2a7fff" />
<circle cx="337.99" cy="159.78" r="3.5" fill="#2a7fff" />
<circle cx="351.64" cy="173.38" r="3.5" fill="#2a7fff" />
<circle cx="362.32" cy="173.38" r="3.5" fill="#2a7fff" />
<circle cx="377.15" cy="188.36" r="3.5" fill="#2a7fff" />
<circle cx="383.08" cy="180.24" r="3.5" fill="#2a7fff" />
<circle cx="402.07" cy="188.36" r="3.5" fill="#2a7fff" />
<circle cx="415.71" cy="211.10" r="3.5" fill="#2a7fff" />
<circle cx="425.80" cy="219.21" r="3.5" fill="#2a7fff" />
<circle cx="440.04" cy="241.95" r="3.5" fill="#2a7fff" />
<circle cx="445.38" cy="229.14" r="3.5" fill="#2a7fff" />
<circle cx="464.36" cy="229.14" r="3.5" fill="#2a7fff" />
<circle cx="478.01" cy="260.00" r="3.5" fill="#2a7fff" />
<circle cx="487.50" cy="290.86" r="3.5" fill="#2a7fff" />
<circle cx="501.74" cy="290.86" r="3.5" fill="#2a7fff" />
<circle cx="507.08" cy="465.00" r="3.5" fill="#2a7fff" />
<circle cx="525.47" cy="465.00" r="3.5" fill="#2a7fff" />
<circle cx="538.52" cy="465.00" r="3.5" fill="#2a7fff" />
<circle cx="548.01" cy="290.86" r="3.5" fill="#2a7fff" />
<circle cx="562.25" cy="465.00" r="3.5" fill="#2a7fff" />
<circle cx="567.59" cy="465.00" r="3.5" fill="#2a7fff" />
<circle cx="585.39" cy="465.00" r="3.5" fill="#2a7fff" />
<circle cx="599.04" cy="465.00" r="3.5" fill="#2a7fff" />
<circle cx="608.53" cy="465.00" r="3.5" fill="#2a7fff" />
<circle cx="622.17" cy="465.00" r="3.5" fill="#2a7fff" />
<circle cx="627.51" cy="465.00" r="3.5" fill="#2a7fff" />
<circle cx="645.90" cy="465.00" r="3.5" fill="#2a7fff" />
<circle cx="658.96" cy="465.00" r="3.5" fill="#2a7fff" />
<circle cx="668.45" cy="465.00" r="3.5" fill="#2a7fff" />
<circle cx="682.09" cy="465.00" r="3.5" fill="#2a7fff" />
<circle cx="687.43" cy="465.00" r="3.5" fill="#2a7fff" />
<circle cx="705.23" cy="465.00" r="3.5" fill="#2a7fff" />
<circle cx="718.28" cy="465.00" r="3.5" fill="#2a7fff" />
<circle cx="727.78" cy="465.00" r="3.5" fill="#2a7fff" />
<circle cx="741.42" cy="465.00" r="3.5" fill="#2a7fff" />
<circle cx="746.76" cy="465.00" r="3.5" fill="#2a7fff" />
<circle cx="765.15" cy="465.00" r="3.5" fill="#2a7fff" />
<circle cx="778.21" cy="465.00" r="3.5" fill="#2a7fff" />
<circle cx="787.11" cy="465.00" r="3.5" fill="#2a7fff" />
<circle cx="801.34" cy="465.00" r="3.5" fill="#2a7fff" />
<circle cx="806.09" cy="465.00" r="3.5" fill="#2a7fff" />
<circle cx="824.48" cy="465.00" r="3.5" fill="#2a7fff" />
<circle cx="837.53" cy="465.00" r="3.5" fill="#2a7fff" />
<circle cx="846.43" cy="465.00" r="3.5" fill="#2a7fff" />
<circle cx="860.67" cy="465.00" r="3.5" fill="#2a7fff" />
<circle cx="865.42" cy="465.00" r="3.5" fill="#2a7fff" />
<circle cx="883.81" cy="465.00" r="3.5" fill="#2a7fff" />
<circle cx="896.86" cy="465.00" r="3.5" fill="#2a7fff" />
<circle cx="920.00" cy="465.00" r="3.5" fill="#2a7fff" />
<line x1="100.0" y1="67.0" x2="116.0" y2="67.0" stroke="#2a7fff" stroke-width="2.5" />
<text class="label" x="122.0" y="71.0">Experimental Curve</text>
<text class="label" x="480.0" y="522.0" text-anchor="middle">Bits per Key</text>
<text class="label" transform="translate(20,270.0) rotate(-90)" text-anchor="middle">False Positive Rate</text>
</svg>