<svg xmlns="http://www.w3.org/2000/svg" width="1020" height="600" viewBox="0 0 1020 600">
<style>text{font-family:Menlo,Monaco,monospace;font-size:12px;fill:#222} .axis{stroke:#333;stroke-width:1} .grid{stroke:#eee;stroke-width:0.5} .label{font-size:11px;fill:#444}</style>
<text x="510" y="28" text-anchor="middle" style="font-size:14px;font-weight:bold">FPR vs BPK — Cluster (n=65536, L=1024)</text>
<line class="axis" x1="90.0" y1="550.0" x2="870.0" y2="550.0"/>
<line class="axis" x1="90.0" y1="40.0" x2="90.0" y2="550.0"/>
<line class="grid" x1="90.0" y1="521.7" x2="870.0" y2="521.7"/>
<text class="label" x="82.0" y="525.7" text-anchor="end">10^-8</text>
<line class="grid" x1="90.0" y1="465.0" x2="870.0" y2="465.0"/>
<text class="label" x="82.0" y="469.0" text-anchor="end">10^-7</text>
<line class="grid" x1="90.0" y1="408.3" x2="870.0" y2="408.3"/>
<text class="label" x="82.0" y="412.3" text-anchor="end">10^-6</text>
<line class="grid" x1="90.0" y1="351.7" x2="870.0" y2="351.7"/>
<text class="label" x="82.0" y="355.7" text-anchor="end">10^-5</text>
<line class="grid" x1="90.0" y1="295.0" x2="870.0" y2="295.0"/>
<text class="label" x="82.0" y="299.0" text-anchor="end">10^-4</text>
<line class="grid" x1="90.0" y1="238.3" x2="870.0" y2="238.3"/>
<text class="label" x="82.0" y="242.3" text-anchor="end">10^-3</text>
<line class="grid" x1="90.0" y1="181.7" x2="870.0" y2="181.7"/>
<text class="label" x="82.0" y="185.7" text-anchor="end">10^-2</text>
<line class="grid" x1="90.0" y1="125.0" x2="870.0" y2="125.0"/>
<text class="label" x="82.0" y="129.0" text-anchor="end">10^-1</text>
<line class="grid" x1="90.0" y1="68.3" x2="870.0" y2="68.3"/>
<text class="label" x="82.0" y="72.3" text-anchor="end">1</text>
<line class="grid" x1="214.1" y1="40.0" x2="214.1" y2="550.0"/>
<text class="label" x="214.1" y="566.0" text-anchor="middle">5</text>
<line class="grid" x1="344.4" y1="40.0" x2="344.4" y2="550.0"/>
<text class="label" x="344.4" y="566.0" text-anchor="middle">10</text>
<line class="grid" x1="474.8" y1="40.0" x2="474.8" y2="550.0"/>
<text class="label" x="474.8" y="566.0" text-anchor="middle">15</text>
<line class="grid" x1="605.1" y1="40.0" x2="605.1" y2="550.0"/>
<text class="label" x="605.1" y="566.0" text-anchor="middle">20</text>
<line class="grid" x1="735.4" y1="40.0" x2="735.4" y2="550.0"/>
<text class="label" x="735.4" y="566.0" text-anchor="middle">25</text>
<line class="grid" x1="865.7" y1="40.0" x2="865.7" y2="550.0"/>
<text class="label" x="865.7" y="566.0" text-anchor="middle">30</text>
<polyline fill="none" stroke="#ef4444" stroke-width="2" stroke-dasharray="8,5" points="431.0,125.0 457.1,142.1 491.5,164.6 517.6,181.7 543.7,198.7 578.1,221.3 604.2,238.3"/>
<circle cx="431.0" cy="125.0" r="3" fill="#ef4444"/>
<circle cx="457.1" cy="142.1" r="3" fill="#ef4444"/>
<circle cx="491.5" cy="164.6" r="3" fill="#ef4444"/>
<circle cx="517.6" cy="181.7" r="3" fill="#ef4444"/>
<circle cx="543.7" cy="198.7" r="3" fill="#ef4444"/>
<circle cx="578.1" cy="221.3" r="3" fill="#ef4444"/>
<circle cx="604.2" cy="238.3" r="3" fill="#ef4444"/>
<polyline fill="none" stroke="#2a7fff" stroke-width="2" points="526.9,142.8 553.0,169.0 579.0,178.9 605.1,219.9 631.2,240.0 657.2,255.2 683.3,273.8"/>
<rect x="523.9" y="139.8" width="6" height="6" fill="#2a7fff"/>
<rect x="550.0" y="166.0" width="6" height="6" fill="#2a7fff"/>
<rect x="576.0" y="175.9" width="6" height="6" fill="#2a7fff"/>
<rect x="602.1" y="216.9" width="6" height="6" fill="#2a7fff"/>
<rect x="628.2" y="237.0" width="6" height="6" fill="#2a7fff"/>
<rect x="654.2" y="252.2" width="6" height="6" fill="#2a7fff"/>
<rect x="680.3" y="270.8" width="6" height="6" fill="#2a7fff"/>
<polyline fill="none" stroke="#6495ED" stroke-width="2" stroke-dasharray="8,5" points="500.8,125.7 526.9,142.8 553.0,169.0 579.0,178.9 605.1,219.9 631.2,240.0 657.2,255.2"/>
<rect x="497.8" y="122.7" width="6" height="6" fill="#6495ED"/>
<rect x="523.9" y="139.8" width="6" height="6" fill="#6495ED"/>
<rect x="550.0" y="166.0" width="6" height="6" fill="#6495ED"/>
<rect x="576.0" y="175.9" width="6" height="6" fill="#6495ED"/>
<rect x="602.1" y="216.9" width="6" height="6" fill="#6495ED"/>
<rect x="628.2" y="237.0" width="6" height="6" fill="#6495ED"/>
<rect x="654.2" y="252.2" width="6" height="6" fill="#6495ED"/>
<polyline fill="none" stroke="#4169E1" stroke-width="2" stroke-dasharray="8,5" points="474.7,108.6 500.8,125.7 526.9,142.8 553.0,169.0 579.0,178.9 605.1,219.9 631.2,240.0"/>
<rect x="471.7" y="105.6" width="6" height="6" fill="#4169E1"/>
<rect x="497.8" y="122.7" width="6" height="6" fill="#4169E1"/>
<rect x="523.9" y="139.8" width="6" height="6" fill="#4169E1"/>
<rect x="550.0" y="166.0" width="6" height="6" fill="#4169E1"/>
<rect x="576.0" y="175.9" width="6" height="6" fill="#4169E1"/>
<rect x="602.1" y="216.9" width="6" height="6" fill="#4169E1"/>
<rect x="628.2" y="237.0" width="6" height="6" fill="#4169E1"/>
<polyline fill="none" stroke="#1E3A8A" stroke-width="2" stroke-dasharray="8,5" points="448.7,93.4 474.7,108.6 500.8,125.7 526.9,142.8 553.0,169.0 579.0,178.9 605.1,219.9"/>
<rect x="445.7" y="90.4" width="6" height="6" fill="#1E3A8A"/>
<rect x="471.7" y="105.6" width="6" height="6" fill="#1E3A8A"/>
<rect x="497.8" y="122.7" width="6" height="6" fill="#1E3A8A"/>
<rect x="523.9" y="139.8" width="6" height="6" fill="#1E3A8A"/>
<rect x="550.0" y="166.0" width="6" height="6" fill="#1E3A8A"/>
<rect x="576.0" y="175.9" width="6" height="6" fill="#1E3A8A"/>
<rect x="602.1" y="216.9" width="6" height="6" fill="#1E3A8A"/>
<polyline fill="none" stroke="#0F1D45" stroke-width="2" stroke-dasharray="8,5" points="422.5,80.8 448.7,93.4 474.7,108.6 500.8,125.7 526.9,142.8 553.0,169.0 579.0,178.9"/>
<rect x="419.5" y="77.8" width="6" height="6" fill="#0F1D45"/>
<rect x="445.7" y="90.4" width="6" height="6" fill="#0F1D45"/>
<rect x="471.7" y="105.6" width="6" height="6" fill="#0F1D45"/>
<rect x="497.8" y="122.7" width="6" height="6" fill="#0F1D45"/>
<rect x="523.9" y="139.8" width="6" height="6" fill="#0F1D45"/>
<rect x="550.0" y="166.0" width="6" height="6" fill="#0F1D45"/>
<rect x="576.0" y="175.9" width="6" height="6" fill="#0F1D45"/>
<polyline fill="none" stroke="#22a06b" stroke-width="2" points="526.9,142.8 553.0,169.0 579.0,178.9 605.1,219.9 631.2,240.0 657.2,255.2 683.3,273.8"/>
<polygon points="526.9,138.8 530.9,142.8 526.9,146.8 522.9,142.8" fill="#22a06b"/>
<polygon points="553.0,165.0 557.0,169.0 553.0,173.0 549.0,169.0" fill="#22a06b"/>
<polygon points="579.0,174.9 583.0,178.9 579.0,182.9 575.0,178.9" fill="#22a06b"/>
<polygon points="605.1,215.9 609.1,219.9 605.1,223.9 601.1,219.9" fill="#22a06b"/>
<polygon points="631.2,236.0 635.2,240.0 631.2,244.0 627.2,240.0" fill="#22a06b"/>
<polygon points="657.2,251.2 661.2,255.2 657.2,259.2 653.2,255.2" fill="#22a06b"/>
<polygon points="683.3,269.8 687.3,273.8 683.3,277.8 679.3,273.8" fill="#22a06b"/>
<polyline fill="none" stroke="#e6a800" stroke-width="2" points="125.5,73.4 129.4,73.4 133.3,73.4 137.2,73.4 141.2,73.4 145.1,73.4 149.0,73.4"/>
<polygon points="125.5,69.4 129.5,76.4 121.5,76.4" fill="#e6a800"/>
<polygon points="129.4,69.4 133.4,76.4 125.4,76.4" fill="#e6a800"/>
<polygon points="133.3,69.4 137.3,76.4 129.3,76.4" fill="#e6a800"/>
<polygon points="137.2,69.4 141.2,76.4 133.2,76.4" fill="#e6a800"/>
<polygon points="141.2,69.4 145.2,76.4 137.2,76.4" fill="#e6a800"/>
<polygon points="145.1,69.4 149.1,76.4 141.1,76.4" fill="#e6a800"/>
<polygon points="149.0,69.4 153.0,76.4 145.0,76.4" fill="#e6a800"/>
<polyline fill="none" stroke="#9b59b6" stroke-width="2" points="581.7,273.8 607.8,521.7 633.8,521.7 659.9,521.7 685.9,521.7 712.0,521.7 738.1,521.7"/>
<polygon points="581.7,268.8 580.5,272.2 576.9,272.2 579.8,274.4 578.8,277.8 581.7,275.8 584.6,277.8 583.6,274.4 586.4,272.2 582.9,272.2" fill="#9b59b6"/>
<polygon points="607.8,516.7 606.6,520.0 603.0,520.1 605.9,522.3 604.8,525.7 607.8,523.7 610.7,525.7 609.7,522.3 612.5,520.1 608.9,520.0" fill="#9b59b6"/>
<polygon points="633.8,516.7 632.6,520.0 629.1,520.1 631.9,522.3 630.9,525.7 633.8,523.7 636.8,525.7 635.7,522.3 638.6,520.1 635.0,520.0" fill="#9b59b6"/>
<polygon points="659.9,516.7 658.7,520.0 655.1,520.1 658.0,522.3 656.9,525.7 659.9,523.7 662.8,525.7 661.8,522.3 664.6,520.1 661.1,520.0" fill="#9b59b6"/>
<polygon points="685.9,516.7 684.8,520.0 681.2,520.1 684.0,522.3 683.0,525.7 685.9,523.7 688.9,525.7 687.8,522.3 690.7,520.1 687.1,520.0" fill="#9b59b6"/>
<polygon points="712.0,516.7 710.8,520.0 707.3,520.1 710.1,522.3 709.1,525.7 712.0,523.7 715.0,525.7 713.9,522.3 716.8,520.1 713.2,520.0" fill="#9b59b6"/>
<polygon points="738.1,516.7 736.9,520.0 733.3,520.1 736.2,522.3 735.1,525.7 738.1,523.7 741.0,525.7 740.0,522.3 742.8,520.1 739.3,520.0" fill="#9b59b6"/>
<polyline fill="none" stroke="#e05d10" stroke-width="2" points="339.2,136.2 367.1,148.5 394.3,158.7 420.9,165.6 447.1,170.0 473.3,172.9 499.3,174.1"/>
<circle cx="339.2" cy="136.2" r="3" fill="#e05d10"/>
<circle cx="367.1" cy="148.5" r="3" fill="#e05d10"/>
<circle cx="394.3" cy="158.7" r="3" fill="#e05d10"/>
<circle cx="420.9" cy="165.6" r="3" fill="#e05d10"/>
<circle cx="447.1" cy="170.0" r="3" fill="#e05d10"/>
<circle cx="473.3" cy="172.9" r="3" fill="#e05d10"/>
<circle cx="499.3" cy="174.1" r="3" fill="#e05d10"/>
<polyline fill="none" stroke="#888888" stroke-width="2" stroke-dasharray="8,5" points="581.9,125.1 621.0,141.7 671.5,164.2 709.4,183.2 747.1,198.2 796.9,221.1 834.5,240.5"/>
<circle cx="581.9" cy="125.1" r="3" fill="#888888"/>
<circle cx="621.0" cy="141.7" r="3" fill="#888888"/>
<circle cx="671.5" cy="164.2" r="3" fill="#888888"/>
<circle cx="709.4" cy="183.2" r="3" fill="#888888"/>
<circle cx="747.1" cy="198.2" r="3" fill="#888888"/>
<circle cx="796.9" cy="221.1" r="3" fill="#888888"/>
<circle cx="834.5" cy="240.5" r="3" fill="#888888"/>
<line x1="886" y1="60" x2="902" y2="60" stroke="#ef4444" stroke-width="2" stroke-dasharray="8,5"/>
<circle cx="894.0" cy="60.0" r="3" fill="#ef4444"/>
<text class="label" x="908" y="64">Theoretical</text>
<line x1="886" y1="78" x2="902" y2="78" stroke="#2a7fff" stroke-width="2"/>
<rect x="891.0" y="75.0" width="6" height="6" fill="#2a7fff"/>
<text class="label" x="908" y="82">Adaptive (t=0)</text>
<line x1="886" y1="96" x2="902" y2="96" stroke="#6495ED" stroke-width="2" stroke-dasharray="8,5"/>
<rect x="891.0" y="93.0" width="6" height="6" fill="#6495ED"/>
<text class="label" x="908" y="100">Adaptive (t=1)</text>
<line x1="886" y1="114" x2="902" y2="114" stroke="#4169E1" stroke-width="2" stroke-dasharray="8,5"/>
<rect x="891.0" y="111.0" width="6" height="6" fill="#4169E1"/>
<text class="label" x="908" y="118">Adaptive (t=2)</text>
<line x1="886" y1="132" x2="902" y2="132" stroke="#1E3A8A" stroke-width="2" stroke-dasharray="8,5"/>
<rect x="891.0" y="129.0" width="6" height="6" fill="#1E3A8A"/>
<text class="label" x="908" y="136">Adaptive (t=3)</text>
<line x1="886" y1="150" x2="902" y2="150" stroke="#0F1D45" stroke-width="2" stroke-dasharray="8,5"/>
<rect x="891.0" y="147.0" width="6" height="6" fill="#0F1D45"/>
<text class="label" x="908" y="154">Adaptive (t=4)</text>
<line x1="886" y1="168" x2="902" y2="168" stroke="#22a06b" stroke-width="2"/>
<polygon points="894.0,164.0 898.0,168.0 894.0,172.0 890.0,168.0" fill="#22a06b"/>
<text class="label" x="908" y="172">SODA</text>
<line x1="886" y1="186" x2="902" y2="186" stroke="#e6a800" stroke-width="2"/>
<polygon points="894.0,182.0 898.0,189.0 890.0,189.0" fill="#e6a800"/>
<text class="label" x="908" y="190">Truncation</text>
<line x1="886" y1="204" x2="902" y2="204" stroke="#9b59b6" stroke-width="2"/>
<polygon points="894.0,199.0 892.8,202.4 889.2,202.5 892.1,204.6 891.1,208.0 894.0,206.0 896.9,208.0 895.9,204.6 898.8,202.5 895.2,202.4" fill="#9b59b6"/>
<text class="label" x="908" y="208">Hybrid</text>
<line x1="886" y1="222" x2="902" y2="222" stroke="#e05d10" stroke-width="2"/>
<circle cx="894.0" cy="222.0" r="3" fill="#e05d10"/>
<text class="label" x="908" y="226">CDF-ARE</text>
<line x1="886" y1="240" x2="902" y2="240" stroke="#888888" stroke-width="2" stroke-dasharray="8,5"/>
<circle cx="894.0" cy="240.0" r="3" fill="#888888"/>
<text class="label" x="908" y="244">Bloom V3</text>
<text x="480" y="590" text-anchor="middle">Bits per Key (BPK)</text>
<text transform="translate(16,295) rotate(-90)" text-anchor="middle">False Positive Rate (FPR)</text>
</svg>
