<svg xmlns="http://www.w3.org/2000/svg" width="960" height="600" viewBox="0 0 960 600">
<style>text{font-family:Menlo,Monaco,monospace;font-size:12px;fill:#222} .axis{stroke:#333;stroke-width:1} .grid{stroke:#eee;stroke-width:0.5} .label{font-size:11px;fill:#444}</style>
<text x="480" y="28" text-anchor="middle" style="font-size:14px;font-weight:bold">Range Emptiness: FPR vs BPK (Hybrid, Cluster Distribution)</text>
<line class="axis" x1="90.0" y1="550.0" x2="920.0" y2="550.0"/>
<line class="axis" x1="90.0" y1="40.0" x2="90.0" y2="550.0"/>
<line class="grid" x1="90.0" y1="507.5" x2="920.0" y2="507.5"/>
<text class="label" x="82.0" y="511.5" text-anchor="end">10^-5</text>
<line class="grid" x1="90.0" y1="422.5" x2="920.0" y2="422.5"/>
<text class="label" x="82.0" y="426.5" text-anchor="end">10^-4</text>
<line class="grid" x1="90.0" y1="337.5" x2="920.0" y2="337.5"/>
<text class="label" x="82.0" y="341.5" text-anchor="end">10^-3</text>
<line class="grid" x1="90.0" y1="252.5" x2="920.0" y2="252.5"/>
<text class="label" x="82.0" y="256.5" text-anchor="end">0.01</text>
<line class="grid" x1="90.0" y1="167.5" x2="920.0" y2="167.5"/>
<text class="label" x="82.0" y="171.5" text-anchor="end">0.1</text>
<line class="grid" x1="90.0" y1="82.5" x2="920.0" y2="82.5"/>
<text class="label" x="82.0" y="86.5" text-anchor="end">1</text>
<line class="grid" x1="90.0" y1="40.0" x2="90.0" y2="550.0"/>
<text class="label" x="90.0" y="566.0" text-anchor="middle">0</text>
<line class="grid" x1="173.0" y1="40.0" x2="173.0" y2="550.0"/>
<text class="label" x="173.0" y="566.0" text-anchor="middle">2</text>
<line class="grid" x1="256.0" y1="40.0" x2="256.0" y2="550.0"/>
<text class="label" x="256.0" y="566.0" text-anchor="middle">4</text>
<line class="grid" x1="339.0" y1="40.0" x2="339.0" y2="550.0"/>
<text class="label" x="339.0" y="566.0" text-anchor="middle">6</text>
<line class="grid" x1="422.0" y1="40.0" x2="422.0" y2="550.0"/>
<text class="label" x="422.0" y="566.0" text-anchor="middle">8</text>
<line class="grid" x1="505.0" y1="40.0" x2="505.0" y2="550.0"/>
<text class="label" x="505.0" y="566.0" text-anchor="middle">10</text>
<line class="grid" x1="588.0" y1="40.0" x2="588.0" y2="550.0"/>
<text class="label" x="588.0" y="566.0" text-anchor="middle">12</text>
<line class="grid" x1="671.0" y1="40.0" x2="671.0" y2="550.0"/>
<text class="label" x="671.0" y="566.0" text-anchor="middle">14</text>
<line class="grid" x1="754.0" y1="40.0" x2="754.0" y2="550.0"/>
<text class="label" x="754.0" y="566.0" text-anchor="middle">16</text>
<line class="grid" x1="837.0" y1="40.0" x2="837.0" y2="550.0"/>
<text class="label" x="837.0" y="566.0" text-anchor="middle">18</text>
<line class="grid" x1="920.0" y1="40.0" x2="920.0" y2="550.0"/>
<text class="label" x="920.0" y="566.0" text-anchor="middle">20</text>
<polyline fill="none" stroke="#ef4444" stroke-width="2" stroke-dasharray="8,5" points="503.6,167.5 545.1,193.1 599.9,226.9 641.4,252.5 682.9,278.1 737.8,311.9 779.3,337.5"/>
<circle cx="503.6" cy="167.5" r="3" fill="#ef4444"/>
<circle cx="545.1" cy="193.1" r="3" fill="#ef4444"/>
<circle cx="599.9" cy="226.9" r="3" fill="#ef4444"/>
<circle cx="641.4" cy="252.5" r="3" fill="#ef4444"/>
<circle cx="682.9" cy="278.1" r="3" fill="#ef4444"/>
<circle cx="737.8" cy="311.9" r="3" fill="#ef4444"/>
<circle cx="779.3" cy="337.5" r="3" fill="#ef4444"/>
<polyline fill="none" stroke="#2a7fff" stroke-width="2" points="655.6,189.7 697.2,214.0 738.9,243.5 780.4,264.2 822.0,301.0 863.5,323.7 905.0,359.2"/>
<rect x="652.6" y="186.7" width="6" height="6" fill="#2a7fff"/>
<rect x="694.2" y="211.0" width="6" height="6" fill="#2a7fff"/>
<rect x="735.9" y="240.5" width="6" height="6" fill="#2a7fff"/>
<rect x="777.4" y="261.2" width="6" height="6" fill="#2a7fff"/>
<rect x="819.0" y="298.0" width="6" height="6" fill="#2a7fff"/>
<rect x="860.5" y="320.7" width="6" height="6" fill="#2a7fff"/>
<rect x="902.0" y="356.2" width="6" height="6" fill="#2a7fff"/>
<polyline fill="none" stroke="#22a06b" stroke-width="2" points="655.6,189.7 697.2,214.0 738.9,243.5 780.4,264.2 822.0,301.0 863.5,323.7 905.0,359.2"/>
<polygon points="655.6,185.7 659.6,189.7 655.6,193.7 651.6,189.7" fill="#22a06b"/>
<polygon points="697.2,210.0 701.2,214.0 697.2,218.0 693.2,214.0" fill="#22a06b"/>
<polygon points="738.9,239.5 742.9,243.5 738.9,247.5 734.9,243.5" fill="#22a06b"/>
<polygon points="780.4,260.2 784.4,264.2 780.4,268.2 776.4,264.2" fill="#22a06b"/>
<polygon points="822.0,297.0 826.0,301.0 822.0,305.0 818.0,301.0" fill="#22a06b"/>
<polygon points="863.5,319.7 867.5,323.7 863.5,327.7 859.5,323.7" fill="#22a06b"/>
<polygon points="905.0,355.2 909.0,359.2 905.0,363.2 901.0,359.2" fill="#22a06b"/>
<polyline fill="none" stroke="#e6a800" stroke-width="2" points="154.5,88.5 160.9,88.5 167.2,88.6 173.4,88.6 179.7,88.6 192.2,88.6 198.4,88.6"/>
<polygon points="154.5,84.5 158.5,91.5 150.5,91.5" fill="#e6a800"/>
<polygon points="160.9,84.5 164.9,91.5 156.9,91.5" fill="#e6a800"/>
<polygon points="167.2,84.6 171.2,91.6 163.2,91.6" fill="#e6a800"/>
<polygon points="173.4,84.6 177.4,91.6 169.4,91.6" fill="#e6a800"/>
<polygon points="179.7,84.6 183.7,91.6 175.7,91.6" fill="#e6a800"/>
<polygon points="192.2,84.6 196.2,91.6 188.2,91.6" fill="#e6a800"/>
<polygon points="198.4,84.6 202.4,91.6 194.4,91.6" fill="#e6a800"/>
<polyline fill="none" stroke="#9b59b6" stroke-width="2" points="602.9,185.1 644.9,214.5 721.4,272.7 756.0,307.7 790.6,341.0 818.0,378.1 838.4,426.0"/>
<polygon points="602.9,180.1 601.8,183.5 598.2,183.6 601.0,185.7 600.0,189.2 602.9,187.1 605.9,189.2 604.8,185.7 607.7,183.6 604.1,183.5" fill="#9b59b6"/>
<polygon points="644.9,209.5 643.7,212.9 640.1,213.0 643.0,215.2 641.9,218.6 644.9,216.5 647.8,218.6 646.8,215.2 649.6,213.0 646.0,212.9" fill="#9b59b6"/>
<polygon points="721.4,267.7 720.2,271.1 716.6,271.2 719.5,273.3 718.4,276.8 721.4,274.7 724.3,276.8 723.3,273.3 726.1,271.2 722.5,271.1" fill="#9b59b6"/>
<polygon points="756.0,302.7 754.9,306.1 751.3,306.2 754.1,308.3 753.1,311.8 756.0,309.7 759.0,311.8 757.9,308.3 760.8,306.2 757.2,306.1" fill="#9b59b6"/>
<polygon points="790.6,336.0 789.5,339.4 785.9,339.5 788.7,341.7 787.7,345.1 790.6,343.0 793.6,345.1 792.5,341.7 795.4,339.5 791.8,339.4" fill="#9b59b6"/>
<polygon points="818.0,373.1 816.9,376.5 813.3,376.5 816.1,378.7 815.1,382.1 818.0,380.1 821.0,382.1 819.9,378.7 822.8,376.5 819.2,376.5" fill="#9b59b6"/>
<polygon points="838.4,421.0 837.2,424.4 833.6,424.5 836.5,426.7 835.4,430.1 838.4,428.0 841.3,430.1 840.3,426.7 843.1,424.5 839.5,424.4" fill="#9b59b6"/>
<line x1="700" y1="60" x2="716" y2="60" stroke="#ef4444" stroke-width="2" stroke-dasharray="8,5"/>
<circle cx="708.0" cy="60.0" r="3" fill="#ef4444"/>
<text class="label" x="722" y="64">Theoretical</text>
<line x1="700" y1="78" x2="716" y2="78" stroke="#2a7fff" stroke-width="2"/>
<rect x="705.0" y="75.0" width="6" height="6" fill="#2a7fff"/>
<text class="label" x="722" y="82">Adaptive (t=0)</text>
<line x1="700" y1="96" x2="716" y2="96" stroke="#22a06b" stroke-width="2"/>
<polygon points="708.0,92.0 712.0,96.0 708.0,100.0 704.0,96.0" fill="#22a06b"/>
<text class="label" x="722" y="100">SODA</text>
<line x1="700" y1="114" x2="716" y2="114" stroke="#e6a800" stroke-width="2"/>
<polygon points="708.0,110.0 712.0,117.0 704.0,117.0" fill="#e6a800"/>
<text class="label" x="722" y="118">Truncation</text>
<line x1="700" y1="132" x2="716" y2="132" stroke="#9b59b6" stroke-width="2"/>
<polygon points="708.0,127.0 706.8,130.4 703.2,130.5 706.1,132.6 705.1,136.0 708.0,134.0 710.9,136.0 709.9,132.6 712.8,130.5 709.2,130.4" fill="#9b59b6"/>
<text class="label" x="722" y="136">Hybrid</text>
<text x="505" y="590" text-anchor="middle">Bits per Key (BPK)</text>
<text transform="translate(16,295) rotate(-90)" text-anchor="middle">False Positive Rate (FPR)</text>
</svg>
