<svg xmlns="http://www.w3.org/2000/svg" width="1020" height="600" viewBox="0 0 1020 600">
<style>text{font-family:Menlo,Monaco,monospace;font-size:12px;fill:#222} .axis{stroke:#333;stroke-width:1} .grid{stroke:#eee;stroke-width:0.5} .label{font-size:11px;fill:#444}</style>
<text x="510" y="28" text-anchor="middle" style="font-size:14px;font-weight:bold">FPR vs BPK — Cluster (n=65536, L=128)</text>
<line class="axis" x1="90.0" y1="550.0" x2="870.0" y2="550.0"/>
<line class="axis" x1="90.0" y1="40.0" x2="90.0" y2="550.0"/>
<line class="grid" x1="90.0" y1="507.5" x2="870.0" y2="507.5"/>
<text class="label" x="82.0" y="511.5" text-anchor="end">10^-5</text>
<line class="grid" x1="90.0" y1="422.5" x2="870.0" y2="422.5"/>
<text class="label" x="82.0" y="426.5" text-anchor="end">10^-4</text>
<line class="grid" x1="90.0" y1="337.5" x2="870.0" y2="337.5"/>
<text class="label" x="82.0" y="341.5" text-anchor="end">10^-3</text>
<line class="grid" x1="90.0" y1="252.5" x2="870.0" y2="252.5"/>
<text class="label" x="82.0" y="256.5" text-anchor="end">10^-2</text>
<line class="grid" x1="90.0" y1="167.5" x2="870.0" y2="167.5"/>
<text class="label" x="82.0" y="171.5" text-anchor="end">10^-1</text>
<line class="grid" x1="90.0" y1="82.5" x2="870.0" y2="82.5"/>
<text class="label" x="82.0" y="86.5" text-anchor="end">1</text>
<line class="grid" x1="141.0" y1="40.0" x2="141.0" y2="550.0"/>
<text class="label" x="141.0" y="566.0" text-anchor="middle">2</text>
<line class="grid" x1="218.0" y1="40.0" x2="218.0" y2="550.0"/>
<text class="label" x="218.0" y="566.0" text-anchor="middle">4</text>
<line class="grid" x1="295.1" y1="40.0" x2="295.1" y2="550.0"/>
<text class="label" x="295.1" y="566.0" text-anchor="middle">6</text>
<line class="grid" x1="372.2" y1="40.0" x2="372.2" y2="550.0"/>
<text class="label" x="372.2" y="566.0" text-anchor="middle">8</text>
<line class="grid" x1="449.2" y1="40.0" x2="449.2" y2="550.0"/>
<text class="label" x="449.2" y="566.0" text-anchor="middle">10</text>
<line class="grid" x1="526.3" y1="40.0" x2="526.3" y2="550.0"/>
<text class="label" x="526.3" y="566.0" text-anchor="middle">12</text>
<line class="grid" x1="603.4" y1="40.0" x2="603.4" y2="550.0"/>
<text class="label" x="603.4" y="566.0" text-anchor="middle">14</text>
<line class="grid" x1="680.4" y1="40.0" x2="680.4" y2="550.0"/>
<text class="label" x="680.4" y="566.0" text-anchor="middle">16</text>
<line class="grid" x1="757.5" y1="40.0" x2="757.5" y2="550.0"/>
<text class="label" x="757.5" y="566.0" text-anchor="middle">18</text>
<line class="grid" x1="834.5" y1="40.0" x2="834.5" y2="550.0"/>
<text class="label" x="834.5" y="566.0" text-anchor="middle">20</text>
<polyline fill="none" stroke="#ef4444" stroke-width="2" stroke-dasharray="8,5" points="461.6,167.5 500.2,193.1 551.1,226.9 589.6,252.5 628.2,278.1 679.1,311.9 717.6,337.5"/>
<circle cx="461.6" cy="167.5" r="3" fill="#ef4444"/>
<circle cx="500.2" cy="193.1" r="3" fill="#ef4444"/>
<circle cx="551.1" cy="226.9" r="3" fill="#ef4444"/>
<circle cx="589.6" cy="252.5" r="3" fill="#ef4444"/>
<circle cx="628.2" cy="278.1" r="3" fill="#ef4444"/>
<circle cx="679.1" cy="311.9" r="3" fill="#ef4444"/>
<circle cx="717.6" cy="337.5" r="3" fill="#ef4444"/>
<polyline fill="none" stroke="#2a7fff" stroke-width="2" points="603.3,192.5 641.8,217.0 680.4,250.3 718.9,282.1 757.5,309.2 796.0,330.5 834.5,371.1"/>
<rect x="600.3" y="189.5" width="6" height="6" fill="#2a7fff"/>
<rect x="638.8" y="214.0" width="6" height="6" fill="#2a7fff"/>
<rect x="677.4" y="247.3" width="6" height="6" fill="#2a7fff"/>
<rect x="715.9" y="279.1" width="6" height="6" fill="#2a7fff"/>
<rect x="754.5" y="306.2" width="6" height="6" fill="#2a7fff"/>
<rect x="793.0" y="327.5" width="6" height="6" fill="#2a7fff"/>
<rect x="831.5" y="368.1" width="6" height="6" fill="#2a7fff"/>
<polyline fill="none" stroke="#6495ED" stroke-width="2" stroke-dasharray="8,5" points="564.6,166.0 603.3,192.5 641.8,217.0 680.4,250.3 718.9,282.1 757.5,309.2 796.0,330.5"/>
<rect x="561.6" y="163.0" width="6" height="6" fill="#6495ED"/>
<rect x="600.3" y="189.5" width="6" height="6" fill="#6495ED"/>
<rect x="638.8" y="214.0" width="6" height="6" fill="#6495ED"/>
<rect x="677.4" y="247.3" width="6" height="6" fill="#6495ED"/>
<rect x="715.9" y="279.1" width="6" height="6" fill="#6495ED"/>
<rect x="754.5" y="306.2" width="6" height="6" fill="#6495ED"/>
<rect x="793.0" y="327.5" width="6" height="6" fill="#6495ED"/>
<polyline fill="none" stroke="#4169E1" stroke-width="2" stroke-dasharray="8,5" points="526.0,140.4 564.6,166.0 603.3,192.5 641.8,217.0 680.4,250.3 757.5,309.2 796.0,330.5"/>
<rect x="523.0" y="137.4" width="6" height="6" fill="#4169E1"/>
<rect x="561.6" y="163.0" width="6" height="6" fill="#4169E1"/>
<rect x="600.3" y="189.5" width="6" height="6" fill="#4169E1"/>
<rect x="638.8" y="214.0" width="6" height="6" fill="#4169E1"/>
<rect x="677.4" y="247.3" width="6" height="6" fill="#4169E1"/>
<rect x="754.5" y="306.2" width="6" height="6" fill="#4169E1"/>
<rect x="793.0" y="327.5" width="6" height="6" fill="#4169E1"/>
<polyline fill="none" stroke="#1E3A8A" stroke-width="2" stroke-dasharray="8,5" points="487.2,117.9 526.0,140.4 564.6,166.0 603.3,192.5 641.8,217.0 718.9,282.1 757.5,309.2"/>
<rect x="484.2" y="114.9" width="6" height="6" fill="#1E3A8A"/>
<rect x="523.0" y="137.4" width="6" height="6" fill="#1E3A8A"/>
<rect x="561.6" y="163.0" width="6" height="6" fill="#1E3A8A"/>
<rect x="600.3" y="189.5" width="6" height="6" fill="#1E3A8A"/>
<rect x="638.8" y="214.0" width="6" height="6" fill="#1E3A8A"/>
<rect x="715.9" y="279.1" width="6" height="6" fill="#1E3A8A"/>
<rect x="754.5" y="306.2" width="6" height="6" fill="#1E3A8A"/>
<polyline fill="none" stroke="#0F1D45" stroke-width="2" stroke-dasharray="8,5" points="448.1,99.7 487.2,117.9 526.0,140.4 564.6,166.0 603.3,192.5 680.4,250.3 718.9,282.1"/>
<rect x="445.1" y="96.7" width="6" height="6" fill="#0F1D45"/>
<rect x="484.2" y="114.9" width="6" height="6" fill="#0F1D45"/>
<rect x="523.0" y="137.4" width="6" height="6" fill="#0F1D45"/>
<rect x="561.6" y="163.0" width="6" height="6" fill="#0F1D45"/>
<rect x="600.3" y="189.5" width="6" height="6" fill="#0F1D45"/>
<rect x="677.4" y="247.3" width="6" height="6" fill="#0F1D45"/>
<rect x="715.9" y="279.1" width="6" height="6" fill="#0F1D45"/>
<polyline fill="none" stroke="#22a06b" stroke-width="2" points="603.3,192.5 641.8,217.0 680.4,250.3 718.9,282.1 757.5,309.2 796.0,330.5 834.5,371.1"/>
<polygon points="603.3,188.5 607.3,192.5 603.3,196.5 599.3,192.5" fill="#22a06b"/>
<polygon points="641.8,213.0 645.8,217.0 641.8,221.0 637.8,217.0" fill="#22a06b"/>
<polygon points="680.4,246.3 684.4,250.3 680.4,254.3 676.4,250.3" fill="#22a06b"/>
<polygon points="718.9,278.1 722.9,282.1 718.9,286.1 714.9,282.1" fill="#22a06b"/>
<polygon points="757.5,305.2 761.5,309.2 757.5,313.2 753.5,309.2" fill="#22a06b"/>
<polygon points="796.0,326.5 800.0,330.5 796.0,334.5 792.0,330.5" fill="#22a06b"/>
<polygon points="834.5,367.1 838.5,371.1 834.5,375.1 830.5,371.1" fill="#22a06b"/>
<polyline fill="none" stroke="#e6a800" stroke-width="2" points="125.5,88.6 131.3,88.6 137.1,88.6 142.9,88.6 148.7,88.6 154.5,88.6 160.3,88.6"/>
<polygon points="125.5,84.6 129.5,91.6 121.5,91.6" fill="#e6a800"/>
<polygon points="131.3,84.6 135.3,91.6 127.3,91.6" fill="#e6a800"/>
<polygon points="137.1,84.6 141.1,91.6 133.1,91.6" fill="#e6a800"/>
<polygon points="142.9,84.6 146.9,91.6 138.9,91.6" fill="#e6a800"/>
<polygon points="148.7,84.6 152.7,91.6 144.7,91.6" fill="#e6a800"/>
<polygon points="154.5,84.6 158.5,91.6 150.5,91.6" fill="#e6a800"/>
<polygon points="160.3,84.6 164.3,91.6 156.3,91.6" fill="#e6a800"/>
<polyline fill="none" stroke="#9b59b6" stroke-width="2" points="549.1,188.2 587.9,223.4 646.3,287.9 671.8,324.1 697.3,358.5 715.5,427.8 727.8,466.2"/>
<polygon points="549.1,183.2 547.9,186.6 544.3,186.7 547.2,188.9 546.1,192.3 549.1,190.2 552.0,192.3 551.0,188.9 553.8,186.7 550.2,186.6" fill="#9b59b6"/>
<polygon points="587.9,218.4 586.8,221.8 583.2,221.9 586.0,224.0 585.0,227.5 587.9,225.4 590.9,227.5 589.8,224.0 592.7,221.9 589.1,221.8" fill="#9b59b6"/>
<polygon points="646.3,282.9 645.1,286.3 641.5,286.4 644.4,288.6 643.4,292.0 646.3,289.9 649.2,292.0 648.2,288.6 651.0,286.4 647.5,286.3" fill="#9b59b6"/>
<polygon points="671.8,319.1 670.6,322.5 667.1,322.6 669.9,324.7 668.9,328.2 671.8,326.1 674.8,328.2 673.7,324.7 676.6,322.6 673.0,322.5" fill="#9b59b6"/>
<polygon points="697.3,353.5 696.1,356.9 692.6,357.0 695.4,359.1 694.4,362.6 697.3,360.5 700.3,362.6 699.2,359.1 702.1,357.0 698.5,356.9" fill="#9b59b6"/>
<polygon points="715.5,422.8 714.3,426.2 710.7,426.2 713.6,428.4 712.5,431.8 715.5,429.8 718.4,431.8 717.4,428.4 720.2,426.2 716.6,426.2" fill="#9b59b6"/>
<polygon points="727.8,461.2 726.6,464.6 723.0,464.7 725.9,466.9 724.9,470.3 727.8,468.2 730.7,470.3 729.7,466.9 732.6,464.7 729.0,464.6" fill="#9b59b6"/>
<polyline fill="none" stroke="#e05d10" stroke-width="2" points="399.8,169.9 442.0,192.8 482.8,214.2 522.7,233.2 561.9,248.9 600.6,259.5 639.2,265.6"/>
<circle cx="399.8" cy="169.9" r="3" fill="#e05d10"/>
<circle cx="442.0" cy="192.8" r="3" fill="#e05d10"/>
<circle cx="482.8" cy="214.2" r="3" fill="#e05d10"/>
<circle cx="522.7" cy="233.2" r="3" fill="#e05d10"/>
<circle cx="561.9" cy="248.9" r="3" fill="#e05d10"/>
<circle cx="600.6" cy="259.5" r="3" fill="#e05d10"/>
<circle cx="639.2" cy="265.6" r="3" fill="#e05d10"/>
<line x1="886" y1="60" x2="902" y2="60" stroke="#ef4444" stroke-width="2" stroke-dasharray="8,5"/>
<circle cx="894.0" cy="60.0" r="3" fill="#ef4444"/>
<text class="label" x="908" y="64">Theoretical</text>
<line x1="886" y1="78" x2="902" y2="78" stroke="#2a7fff" stroke-width="2"/>
<rect x="891.0" y="75.0" width="6" height="6" fill="#2a7fff"/>
<text class="label" x="908" y="82">Adaptive (t=0)</text>
<line x1="886" y1="96" x2="902" y2="96" stroke="#6495ED" stroke-width="2" stroke-dasharray="8,5"/>
<rect x="891.0" y="93.0" width="6" height="6" fill="#6495ED"/>
<text class="label" x="908" y="100">Adaptive (t=1)</text>
<line x1="886" y1="114" x2="902" y2="114" stroke="#4169E1" stroke-width="2" stroke-dasharray="8,5"/>
<rect x="891.0" y="111.0" width="6" height="6" fill="#4169E1"/>
<text class="label" x="908" y="118">Adaptive (t=2)</text>
<line x1="886" y1="132" x2="902" y2="132" stroke="#1E3A8A" stroke-width="2" stroke-dasharray="8,5"/>
<rect x="891.0" y="129.0" width="6" height="6" fill="#1E3A8A"/>
<text class="label" x="908" y="136">Adaptive (t=3)</text>
<line x1="886" y1="150" x2="902" y2="150" stroke="#0F1D45" stroke-width="2" stroke-dasharray="8,5"/>
<rect x="891.0" y="147.0" width="6" height="6" fill="#0F1D45"/>
<text class="label" x="908" y="154">Adaptive (t=4)</text>
<line x1="886" y1="168" x2="902" y2="168" stroke="#22a06b" stroke-width="2"/>
<polygon points="894.0,164.0 898.0,168.0 894.0,172.0 890.0,168.0" fill="#22a06b"/>
<text class="label" x="908" y="172">SODA</text>
<line x1="886" y1="186" x2="902" y2="186" stroke="#e6a800" stroke-width="2"/>
<polygon points="894.0,182.0 898.0,189.0 890.0,189.0" fill="#e6a800"/>
<text class="label" x="908" y="190">Truncation</text>
<line x1="886" y1="204" x2="902" y2="204" stroke="#9b59b6" stroke-width="2"/>
<polygon points="894.0,199.0 892.8,202.4 889.2,202.5 892.1,204.6 891.1,208.0 894.0,206.0 896.9,208.0 895.9,204.6 898.8,202.5 895.2,202.4" fill="#9b59b6"/>
<text class="label" x="908" y="208">Hybrid</text>
<line x1="886" y1="222" x2="902" y2="222" stroke="#e05d10" stroke-width="2"/>
<circle cx="894.0" cy="222.0" r="3" fill="#e05d10"/>
<text class="label" x="908" y="226">CDF-ARE</text>
<text x="480" y="590" text-anchor="middle">Bits per Key (BPK)</text>
<text transform="translate(16,295) rotate(-90)" text-anchor="middle">False Positive Rate (FPR)</text>
</svg>
