<svg xmlns="http://www.w3.org/2000/svg" width="960" height="600" viewBox="0 0 960 600">
<style>text{font-family:Menlo,Monaco,monospace;font-size:12px;fill:#222} .axis{stroke:#333;stroke-width:1} .grid{stroke:#eee;stroke-width:0.5} .label{font-size:11px;fill:#444}</style>
<text x="480" y="28" text-anchor="middle" style="font-size:14px;font-weight:bold">Range Emptiness: FPR vs Bits per Key</text>
<line class="axis" x1="90.0" y1="550.0" x2="920.0" y2="550.0"/>
<line class="axis" x1="90.0" y1="40.0" x2="90.0" y2="550.0"/>
<line class="grid" x1="90.0" y1="513.6" x2="920.0" y2="513.6"/>
<text class="label" x="82.0" y="517.6" text-anchor="end">10^-6</text>
<line class="grid" x1="90.0" y1="440.7" x2="920.0" y2="440.7"/>
<text class="label" x="82.0" y="444.7" text-anchor="end">10^-5</text>
<line class="grid" x1="90.0" y1="367.9" x2="920.0" y2="367.9"/>
<text class="label" x="82.0" y="371.9" text-anchor="end">10^-4</text>
<line class="grid" x1="90.0" y1="295.0" x2="920.0" y2="295.0"/>
<text class="label" x="82.0" y="299.0" text-anchor="end">10^-3</text>
<line class="grid" x1="90.0" y1="222.1" x2="920.0" y2="222.1"/>
<text class="label" x="82.0" y="226.1" text-anchor="end">0.01</text>
<line class="grid" x1="90.0" y1="149.3" x2="920.0" y2="149.3"/>
<text class="label" x="82.0" y="153.3" text-anchor="end">0.1</text>
<line class="grid" x1="90.0" y1="76.4" x2="920.0" y2="76.4"/>
<text class="label" x="82.0" y="80.4" text-anchor="end">1</text>
<line class="grid" x1="90.0" y1="40.0" x2="90.0" y2="550.0"/>
<text class="label" x="90.0" y="566.0" text-anchor="middle">0</text>
<line class="grid" x1="173.0" y1="40.0" x2="173.0" y2="550.0"/>
<text class="label" x="173.0" y="566.0" text-anchor="middle">2</text>
<line class="grid" x1="256.0" y1="40.0" x2="256.0" y2="550.0"/>
<text class="label" x="256.0" y="566.0" text-anchor="middle">4</text>
<line class="grid" x1="339.0" y1="40.0" x2="339.0" y2="550.0"/>
<text class="label" x="339.0" y="566.0" text-anchor="middle">6</text>
<line class="grid" x1="422.0" y1="40.0" x2="422.0" y2="550.0"/>
<text class="label" x="422.0" y="566.0" text-anchor="middle">8</text>
<line class="grid" x1="505.0" y1="40.0" x2="505.0" y2="550.0"/>
<text class="label" x="505.0" y="566.0" text-anchor="middle">10</text>
<line class="grid" x1="588.0" y1="40.0" x2="588.0" y2="550.0"/>
<text class="label" x="588.0" y="566.0" text-anchor="middle">12</text>
<line class="grid" x1="671.0" y1="40.0" x2="671.0" y2="550.0"/>
<text class="label" x="671.0" y="566.0" text-anchor="middle">14</text>
<line class="grid" x1="754.0" y1="40.0" x2="754.0" y2="550.0"/>
<text class="label" x="754.0" y="566.0" text-anchor="middle">16</text>
<line class="grid" x1="837.0" y1="40.0" x2="837.0" y2="550.0"/>
<text class="label" x="837.0" y="566.0" text-anchor="middle">18</text>
<line class="grid" x1="920.0" y1="40.0" x2="920.0" y2="550.0"/>
<text class="label" x="920.0" y="566.0" text-anchor="middle">20</text>
<polyline fill="none" stroke="#ef4444" stroke-width="2" stroke-dasharray="8,5" points="503.6,149.3 545.1,171.2 599.9,200.2 641.4,222.1 682.9,244.1 737.8,273.1 779.3,295.0"/>
<circle cx="503.6" cy="149.3" r="3" fill="#ef4444"/>
<circle cx="545.1" cy="171.2" r="3" fill="#ef4444"/>
<circle cx="599.9" cy="200.2" r="3" fill="#ef4444"/>
<circle cx="641.4" cy="222.1" r="3" fill="#ef4444"/>
<circle cx="682.9" cy="244.1" r="3" fill="#ef4444"/>
<circle cx="737.8" cy="273.1" r="3" fill="#ef4444"/>
<circle cx="779.3" cy="295.0" r="3" fill="#ef4444"/>
<polyline fill="none" stroke="#2a7fff" stroke-width="2" points="655.9,166.6 697.4,187.7 739.0,209.4 780.5,231.0 822.0,252.4 863.5,272.6 905.0,296.3"/>
<rect x="652.9" y="163.6" width="6" height="6" fill="#2a7fff"/>
<rect x="694.4" y="184.7" width="6" height="6" fill="#2a7fff"/>
<rect x="736.0" y="206.4" width="6" height="6" fill="#2a7fff"/>
<rect x="777.5" y="228.0" width="6" height="6" fill="#2a7fff"/>
<rect x="819.0" y="249.4" width="6" height="6" fill="#2a7fff"/>
<rect x="860.5" y="269.6" width="6" height="6" fill="#2a7fff"/>
<rect x="902.0" y="293.3" width="6" height="6" fill="#2a7fff"/>
<polyline fill="none" stroke="#2a7fff" stroke-width="2" stroke-dasharray="8,5" points="656.0,165.8 656.0,165.8 656.0,165.8 656.0,165.8 656.0,165.8 656.0,165.8 656.0,165.8"/>
<rect x="653.0" y="162.8" width="6" height="6" fill="#2a7fff"/>
<rect x="653.0" y="162.8" width="6" height="6" fill="#2a7fff"/>
<rect x="653.0" y="162.8" width="6" height="6" fill="#2a7fff"/>
<rect x="653.0" y="162.8" width="6" height="6" fill="#2a7fff"/>
<rect x="653.0" y="162.8" width="6" height="6" fill="#2a7fff"/>
<rect x="653.0" y="162.8" width="6" height="6" fill="#2a7fff"/>
<rect x="653.0" y="162.8" width="6" height="6" fill="#2a7fff"/>
<polyline fill="none" stroke="#22a06b" stroke-width="2" points="655.9,166.6 697.4,187.7 739.0,209.4 780.5,231.0 822.0,252.4 863.5,272.6 905.0,296.3"/>
<polygon points="655.9,162.6 659.9,166.6 655.9,170.6 651.9,166.6" fill="#22a06b"/>
<polygon points="697.4,183.7 701.4,187.7 697.4,191.7 693.4,187.7" fill="#22a06b"/>
<polygon points="739.0,205.4 743.0,209.4 739.0,213.4 735.0,209.4" fill="#22a06b"/>
<polygon points="780.5,227.0 784.5,231.0 780.5,235.0 776.5,231.0" fill="#22a06b"/>
<polygon points="822.0,248.4 826.0,252.4 822.0,256.4 818.0,252.4" fill="#22a06b"/>
<polygon points="863.5,268.6 867.5,272.6 863.5,276.6 859.5,272.6" fill="#22a06b"/>
<polygon points="905.0,292.3 909.0,296.3 905.0,300.3 901.0,296.3" fill="#22a06b"/>
<polyline fill="none" stroke="#22a06b" stroke-width="2" stroke-dasharray="8,5" points="656.0,165.8 697.5,187.3 739.0,209.9 780.5,232.3 822.0,256.2 863.5,278.6 905.0,299.4"/>
<polygon points="656.0,161.8 660.0,165.8 656.0,169.8 652.0,165.8" fill="#22a06b"/>
<polygon points="697.5,183.3 701.5,187.3 697.5,191.3 693.5,187.3" fill="#22a06b"/>
<polygon points="739.0,205.9 743.0,209.9 739.0,213.9 735.0,209.9" fill="#22a06b"/>
<polygon points="780.5,228.3 784.5,232.3 780.5,236.3 776.5,232.3" fill="#22a06b"/>
<polygon points="822.0,252.2 826.0,256.2 822.0,260.2 818.0,256.2" fill="#22a06b"/>
<polygon points="863.5,274.6 867.5,278.6 863.5,282.6 859.5,278.6" fill="#22a06b"/>
<polygon points="905.0,295.4 909.0,299.4 905.0,303.4 901.0,299.4" fill="#22a06b"/>
<polyline fill="none" stroke="#e6a800" stroke-width="2" points="402.3,180.8 445.9,202.0 488.6,225.0 530.6,246.5 572.5,268.0 655.9,311.2 697.4,328.2"/>
<polygon points="402.3,176.8 406.3,183.8 398.3,183.8" fill="#e6a800"/>
<polygon points="445.9,198.0 449.9,205.0 441.9,205.0" fill="#e6a800"/>
<polygon points="488.6,221.0 492.6,228.0 484.6,228.0" fill="#e6a800"/>
<polygon points="530.6,242.5 534.6,249.5 526.6,249.5" fill="#e6a800"/>
<polygon points="572.5,264.0 576.5,271.0 568.5,271.0" fill="#e6a800"/>
<polygon points="655.9,307.2 659.9,314.2 651.9,314.2" fill="#e6a800"/>
<polygon points="697.4,324.2 701.4,331.2 693.4,331.2" fill="#e6a800"/>
<line x1="700" y1="60" x2="716" y2="60" stroke="#ef4444" stroke-width="2" stroke-dasharray="8,5"/>
<circle cx="708.0" cy="60.0" r="3" fill="#ef4444"/>
<text class="label" x="722" y="64">Theoretical</text>
<line x1="700" y1="78" x2="716" y2="78" stroke="#2a7fff" stroke-width="2"/>
<rect x="705.0" y="75.0" width="6" height="6" fill="#2a7fff"/>
<text class="label" x="722" y="82">Adaptive (Unif)</text>
<line x1="700" y1="96" x2="716" y2="96" stroke="#2a7fff" stroke-width="2" stroke-dasharray="8,5"/>
<rect x="705.0" y="93.0" width="6" height="6" fill="#2a7fff"/>
<text class="label" x="722" y="100">Adaptive (Seq)</text>
<line x1="700" y1="114" x2="716" y2="114" stroke="#22a06b" stroke-width="2"/>
<polygon points="708.0,110.0 712.0,114.0 708.0,118.0 704.0,114.0" fill="#22a06b"/>
<text class="label" x="722" y="118">SODA (Unif)</text>
<line x1="700" y1="132" x2="716" y2="132" stroke="#22a06b" stroke-width="2" stroke-dasharray="8,5"/>
<polygon points="708.0,128.0 712.0,132.0 708.0,136.0 704.0,132.0" fill="#22a06b"/>
<text class="label" x="722" y="136">SODA (Seq)</text>
<line x1="700" y1="150" x2="716" y2="150" stroke="#e6a800" stroke-width="2"/>
<polygon points="708.0,146.0 712.0,153.0 704.0,153.0" fill="#e6a800"/>
<text class="label" x="722" y="154">Truncation (Unif)</text>
<line x1="700" y1="168" x2="716" y2="168" stroke="#e6a800" stroke-width="2" stroke-dasharray="8,5"/>
<polygon points="708.0,164.0 712.0,171.0 704.0,171.0" fill="#e6a800"/>
<text class="label" x="722" y="172">Truncation (Seq)</text>
<text x="505" y="590" text-anchor="middle">Bits per Key (BPK)</text>
<text transform="translate(16,295) rotate(-90)" text-anchor="middle">False Positive Rate (FPR)</text>
</svg>
