<svg xmlns="http://www.w3.org/2000/svg" width="960" height="600" viewBox="0 0 960 600">
<style>text{font-family:Menlo,Monaco,monospace;font-size:12px;fill:#222} .axis{stroke:#333;stroke-width:1} .grid{stroke:#eee;stroke-width:0.5} .label{font-size:11px;fill:#444}</style>
<text x="480" y="28" text-anchor="middle" style="font-size:14px;font-weight:bold">Range Emptiness: FPR vs BPK (Cluster Distribution)</text>
<line class="axis" x1="90.0" y1="550.0" x2="920.0" y2="550.0"/>
<line class="axis" x1="90.0" y1="40.0" x2="90.0" y2="550.0"/>
<line class="grid" x1="90.0" y1="507.5" x2="920.0" y2="507.5"/>
<text class="label" x="82.0" y="511.5" text-anchor="end">10^-5</text>
<line class="grid" x1="90.0" y1="422.5" x2="920.0" y2="422.5"/>
<text class="label" x="82.0" y="426.5" text-anchor="end">10^-4</text>
<line class="grid" x1="90.0" y1="337.5" x2="920.0" y2="337.5"/>
<text class="label" x="82.0" y="341.5" text-anchor="end">10^-3</text>
<line class="grid" x1="90.0" y1="252.5" x2="920.0" y2="252.5"/>
<text class="label" x="82.0" y="256.5" text-anchor="end">10^-2</text>
<line class="grid" x1="90.0" y1="167.5" x2="920.0" y2="167.5"/>
<text class="label" x="82.0" y="171.5" text-anchor="end">10^-1</text>
<line class="grid" x1="90.0" y1="82.5" x2="920.0" y2="82.5"/>
<text class="label" x="82.0" y="86.5" text-anchor="end">1</text>
<line class="grid" x1="144.2" y1="40.0" x2="144.2" y2="550.0"/>
<text class="label" x="144.2" y="566.0" text-anchor="middle">2</text>
<line class="grid" x1="226.2" y1="40.0" x2="226.2" y2="550.0"/>
<text class="label" x="226.2" y="566.0" text-anchor="middle">4</text>
<line class="grid" x1="308.2" y1="40.0" x2="308.2" y2="550.0"/>
<text class="label" x="308.2" y="566.0" text-anchor="middle">6</text>
<line class="grid" x1="390.2" y1="40.0" x2="390.2" y2="550.0"/>
<text class="label" x="390.2" y="566.0" text-anchor="middle">8</text>
<line class="grid" x1="472.2" y1="40.0" x2="472.2" y2="550.0"/>
<text class="label" x="472.2" y="566.0" text-anchor="middle">10</text>
<line class="grid" x1="554.3" y1="40.0" x2="554.3" y2="550.0"/>
<text class="label" x="554.3" y="566.0" text-anchor="middle">12</text>
<line class="grid" x1="636.3" y1="40.0" x2="636.3" y2="550.0"/>
<text class="label" x="636.3" y="566.0" text-anchor="middle">14</text>
<line class="grid" x1="718.3" y1="40.0" x2="718.3" y2="550.0"/>
<text class="label" x="718.3" y="566.0" text-anchor="middle">16</text>
<line class="grid" x1="800.3" y1="40.0" x2="800.3" y2="550.0"/>
<text class="label" x="800.3" y="566.0" text-anchor="middle">18</text>
<line class="grid" x1="882.3" y1="40.0" x2="882.3" y2="550.0"/>
<text class="label" x="882.3" y="566.0" text-anchor="middle">20</text>
<polyline fill="none" stroke="#ef4444" stroke-width="2" stroke-dasharray="8,5" points="470.8,167.5 511.8,193.1 566.0,226.9 607.1,252.5 648.1,278.1 702.3,311.9 743.3,337.5"/>
<circle cx="470.8" cy="167.5" r="3" fill="#ef4444"/>
<circle cx="511.8" cy="193.1" r="3" fill="#ef4444"/>
<circle cx="566.0" cy="226.9" r="3" fill="#ef4444"/>
<circle cx="607.1" cy="252.5" r="3" fill="#ef4444"/>
<circle cx="648.1" cy="278.1" r="3" fill="#ef4444"/>
<circle cx="702.3" cy="311.9" r="3" fill="#ef4444"/>
<circle cx="743.3" cy="337.5" r="3" fill="#ef4444"/>
<polyline fill="none" stroke="#2a7fff" stroke-width="2" points="595.1,174.7 636.2,201.3 718.2,260.0 759.3,292.5 800.3,320.4 841.3,341.2 882.3,383.3"/>
<rect x="592.1" y="171.7" width="6" height="6" fill="#2a7fff"/>
<rect x="633.2" y="198.3" width="6" height="6" fill="#2a7fff"/>
<rect x="715.2" y="257.0" width="6" height="6" fill="#2a7fff"/>
<rect x="756.3" y="289.5" width="6" height="6" fill="#2a7fff"/>
<rect x="797.3" y="317.4" width="6" height="6" fill="#2a7fff"/>
<rect x="838.3" y="338.2" width="6" height="6" fill="#2a7fff"/>
<rect x="879.3" y="380.3" width="6" height="6" fill="#2a7fff"/>
<polyline fill="none" stroke="#6495ED" stroke-width="2" stroke-dasharray="8,5" points="553.9,148.6 595.1,174.7 677.2,226.2 718.2,260.0 759.3,292.5 800.3,320.4 841.3,341.2"/>
<rect x="550.9" y="145.6" width="6" height="6" fill="#6495ED"/>
<rect x="592.1" y="171.7" width="6" height="6" fill="#6495ED"/>
<rect x="674.2" y="223.2" width="6" height="6" fill="#6495ED"/>
<rect x="715.2" y="257.0" width="6" height="6" fill="#6495ED"/>
<rect x="756.3" y="289.5" width="6" height="6" fill="#6495ED"/>
<rect x="797.3" y="317.4" width="6" height="6" fill="#6495ED"/>
<rect x="838.3" y="338.2" width="6" height="6" fill="#6495ED"/>
<polyline fill="none" stroke="#4169E1" stroke-width="2" stroke-dasharray="8,5" points="553.9,148.6 595.1,174.7 636.2,201.3 677.2,226.2 718.2,260.0 759.3,292.5 800.3,320.4"/>
<rect x="550.9" y="145.6" width="6" height="6" fill="#4169E1"/>
<rect x="592.1" y="171.7" width="6" height="6" fill="#4169E1"/>
<rect x="633.2" y="198.3" width="6" height="6" fill="#4169E1"/>
<rect x="674.2" y="223.2" width="6" height="6" fill="#4169E1"/>
<rect x="715.2" y="257.0" width="6" height="6" fill="#4169E1"/>
<rect x="756.3" y="289.5" width="6" height="6" fill="#4169E1"/>
<rect x="797.3" y="317.4" width="6" height="6" fill="#4169E1"/>
<polyline fill="none" stroke="#1E3A8A" stroke-width="2" stroke-dasharray="8,5" points="512.6,125.2 553.9,148.6 595.1,174.7 636.2,201.3 677.2,226.2 718.2,260.0 759.3,292.5"/>
<rect x="509.6" y="122.2" width="6" height="6" fill="#1E3A8A"/>
<rect x="550.9" y="145.6" width="6" height="6" fill="#1E3A8A"/>
<rect x="592.1" y="171.7" width="6" height="6" fill="#1E3A8A"/>
<rect x="633.2" y="198.3" width="6" height="6" fill="#1E3A8A"/>
<rect x="674.2" y="223.2" width="6" height="6" fill="#1E3A8A"/>
<rect x="715.2" y="257.0" width="6" height="6" fill="#1E3A8A"/>
<rect x="756.3" y="289.5" width="6" height="6" fill="#1E3A8A"/>
<polyline fill="none" stroke="#0F1D45" stroke-width="2" stroke-dasharray="8,5" points="471.0,105.4 512.6,125.2 553.9,148.6 595.1,174.7 636.2,201.3 677.2,226.2 718.2,260.0"/>
<rect x="468.0" y="102.4" width="6" height="6" fill="#0F1D45"/>
<rect x="509.6" y="122.2" width="6" height="6" fill="#0F1D45"/>
<rect x="550.9" y="145.6" width="6" height="6" fill="#0F1D45"/>
<rect x="592.1" y="171.7" width="6" height="6" fill="#0F1D45"/>
<rect x="633.2" y="198.3" width="6" height="6" fill="#0F1D45"/>
<rect x="674.2" y="223.2" width="6" height="6" fill="#0F1D45"/>
<rect x="715.2" y="257.0" width="6" height="6" fill="#0F1D45"/>
<polyline fill="none" stroke="#22a06b" stroke-width="2" points="595.1,174.7 636.2,201.3 718.2,260.0 759.3,292.5 800.3,320.4 841.3,341.2 882.3,383.3"/>
<polygon points="595.1,170.7 599.1,174.7 595.1,178.7 591.1,174.7" fill="#22a06b"/>
<polygon points="636.2,197.3 640.2,201.3 636.2,205.3 632.2,201.3" fill="#22a06b"/>
<polygon points="718.2,256.0 722.2,260.0 718.2,264.0 714.2,260.0" fill="#22a06b"/>
<polygon points="759.3,288.5 763.3,292.5 759.3,296.5 755.3,292.5" fill="#22a06b"/>
<polygon points="800.3,316.4 804.3,320.4 800.3,324.4 796.3,320.4" fill="#22a06b"/>
<polygon points="841.3,337.2 845.3,341.2 841.3,345.2 837.3,341.2" fill="#22a06b"/>
<polygon points="882.3,379.3 886.3,383.3 882.3,387.3 878.3,383.3" fill="#22a06b"/>
<polyline fill="none" stroke="#e6a800" stroke-width="2" points="127.7,88.6 134.0,88.6 140.1,88.6 146.3,88.6 152.5,88.6 158.6,88.6 164.8,88.6"/>
<polygon points="127.7,84.6 131.7,91.6 123.7,91.6" fill="#e6a800"/>
<polygon points="134.0,84.6 138.0,91.6 130.0,91.6" fill="#e6a800"/>
<polygon points="140.1,84.6 144.1,91.6 136.1,91.6" fill="#e6a800"/>
<polygon points="146.3,84.6 150.3,91.6 142.3,91.6" fill="#e6a800"/>
<polygon points="152.5,84.6 156.5,91.6 148.5,91.6" fill="#e6a800"/>
<polygon points="158.6,84.6 162.6,91.6 154.6,91.6" fill="#e6a800"/>
<polygon points="164.8,84.6 168.8,91.6 160.8,91.6" fill="#e6a800"/>
<polyline fill="none" stroke="#9b59b6" stroke-width="2" points="578.5,196.2 619.9,231.2 661.0,265.0 688.2,302.5 715.3,340.6 755.6,427.9 768.7,466.4"/>
<polygon points="578.5,191.2 577.3,194.6 573.7,194.7 576.6,196.8 575.6,200.3 578.5,198.2 581.4,200.3 580.4,196.8 583.3,194.7 579.7,194.6" fill="#9b59b6"/>
<polygon points="619.9,226.2 618.7,229.6 615.1,229.6 617.9,231.8 616.9,235.2 619.9,233.2 622.8,235.2 621.8,231.8 624.6,229.6 621.0,229.6" fill="#9b59b6"/>
<polygon points="661.0,260.0 659.9,263.4 656.3,263.4 659.1,265.6 658.1,269.0 661.0,267.0 664.0,269.0 662.9,265.6 665.8,263.4 662.2,263.4" fill="#9b59b6"/>
<polygon points="688.2,297.5 687.0,300.8 683.4,300.9 686.3,303.1 685.3,306.5 688.2,304.5 691.1,306.5 690.1,303.1 692.9,300.9 689.4,300.8" fill="#9b59b6"/>
<polygon points="715.3,335.6 714.2,339.0 710.6,339.1 713.4,341.3 712.4,344.7 715.3,342.6 718.3,344.7 717.2,341.3 720.1,339.1 716.5,339.0" fill="#9b59b6"/>
<polygon points="755.6,422.9 754.4,426.3 750.8,426.4 753.7,428.6 752.6,432.0 755.6,429.9 758.5,432.0 757.5,428.6 760.3,426.4 756.7,426.3" fill="#9b59b6"/>
<polygon points="768.7,461.4 767.5,464.8 763.9,464.8 766.8,467.0 765.7,470.4 768.7,468.4 771.6,470.4 770.6,467.0 773.4,464.8 769.9,464.8" fill="#9b59b6"/>
<polyline fill="none" stroke="#e05d10" stroke-width="2" points="419.7,169.8 464.6,192.7 508.0,214.1 550.4,232.7 592.1,248.6 633.4,259.5 674.5,265.4"/>
<circle cx="419.7" cy="169.8" r="3" fill="#e05d10"/>
<circle cx="464.6" cy="192.7" r="3" fill="#e05d10"/>
<circle cx="508.0" cy="214.1" r="3" fill="#e05d10"/>
<circle cx="550.4" cy="232.7" r="3" fill="#e05d10"/>
<circle cx="592.1" cy="248.6" r="3" fill="#e05d10"/>
<circle cx="633.4" cy="259.5" r="3" fill="#e05d10"/>
<circle cx="674.5" cy="265.4" r="3" fill="#e05d10"/>
<line x1="700" y1="60" x2="716" y2="60" stroke="#ef4444" stroke-width="2" stroke-dasharray="8,5"/>
<circle cx="708.0" cy="60.0" r="3" fill="#ef4444"/>
<text class="label" x="722" y="64">Theoretical</text>
<line x1="700" y1="78" x2="716" y2="78" stroke="#2a7fff" stroke-width="2"/>
<rect x="705.0" y="75.0" width="6" height="6" fill="#2a7fff"/>
<text class="label" x="722" y="82">Adaptive (t=0)</text>
<line x1="700" y1="96" x2="716" y2="96" stroke="#6495ED" stroke-width="2" stroke-dasharray="8,5"/>
<rect x="705.0" y="93.0" width="6" height="6" fill="#6495ED"/>
<text class="label" x="722" y="100">Adaptive (t=1)</text>
<line x1="700" y1="114" x2="716" y2="114" stroke="#4169E1" stroke-width="2" stroke-dasharray="8,5"/>
<rect x="705.0" y="111.0" width="6" height="6" fill="#4169E1"/>
<text class="label" x="722" y="118">Adaptive (t=2)</text>
<line x1="700" y1="132" x2="716" y2="132" stroke="#1E3A8A" stroke-width="2" stroke-dasharray="8,5"/>
<rect x="705.0" y="129.0" width="6" height="6" fill="#1E3A8A"/>
<text class="label" x="722" y="136">Adaptive (t=3)</text>
<line x1="700" y1="150" x2="716" y2="150" stroke="#0F1D45" stroke-width="2" stroke-dasharray="8,5"/>
<rect x="705.0" y="147.0" width="6" height="6" fill="#0F1D45"/>
<text class="label" x="722" y="154">Adaptive (t=4)</text>
<line x1="700" y1="168" x2="716" y2="168" stroke="#22a06b" stroke-width="2"/>
<polygon points="708.0,164.0 712.0,168.0 708.0,172.0 704.0,168.0" fill="#22a06b"/>
<text class="label" x="722" y="172">SODA</text>
<line x1="700" y1="186" x2="716" y2="186" stroke="#e6a800" stroke-width="2"/>
<polygon points="708.0,182.0 712.0,189.0 704.0,189.0" fill="#e6a800"/>
<text class="label" x="722" y="190">Truncation</text>
<line x1="700" y1="204" x2="716" y2="204" stroke="#9b59b6" stroke-width="2"/>
<polygon points="708.0,199.0 706.8,202.4 703.2,202.5 706.1,204.6 705.1,208.0 708.0,206.0 710.9,208.0 709.9,204.6 712.8,202.5 709.2,202.4" fill="#9b59b6"/>
<text class="label" x="722" y="208">Hybrid</text>
<line x1="700" y1="222" x2="716" y2="222" stroke="#e05d10" stroke-width="2"/>
<circle cx="708.0" cy="222.0" r="3" fill="#e05d10"/>
<text class="label" x="722" y="226">CDF-ARE</text>
<text x="505" y="590" text-anchor="middle">Bits per Key (BPK)</text>
<text transform="translate(16,295) rotate(-90)" text-anchor="middle">False Positive Rate (FPR)</text>
</svg>
