<svg xmlns="http://www.w3.org/2000/svg" width="1020" height="600" viewBox="0 0 1020 600">
<style>text{font-family:Menlo,Monaco,monospace;font-size:12px;fill:#222} .axis{stroke:#333;stroke-width:1} .grid{stroke:#eee;stroke-width:0.5} .label{font-size:11px;fill:#444}</style>
<text x="510" y="28" text-anchor="middle" style="font-size:14px;font-weight:bold">FPR vs BPK — Cluster (n=65536, L=128)</text>
<line class="axis" x1="90.0" y1="550.0" x2="870.0" y2="550.0"/>
<line class="axis" x1="90.0" y1="40.0" x2="90.0" y2="550.0"/>
<line class="grid" x1="90.0" y1="507.5" x2="870.0" y2="507.5"/>
<text class="label" x="82.0" y="511.5" text-anchor="end">10^-5</text>
<line class="grid" x1="90.0" y1="422.5" x2="870.0" y2="422.5"/>
<text class="label" x="82.0" y="426.5" text-anchor="end">10^-4</text>
<line class="grid" x1="90.0" y1="337.5" x2="870.0" y2="337.5"/>
<text class="label" x="82.0" y="341.5" text-anchor="end">10^-3</text>
<line class="grid" x1="90.0" y1="252.5" x2="870.0" y2="252.5"/>
<text class="label" x="82.0" y="256.5" text-anchor="end">10^-2</text>
<line class="grid" x1="90.0" y1="167.5" x2="870.0" y2="167.5"/>
<text class="label" x="82.0" y="171.5" text-anchor="end">10^-1</text>
<line class="grid" x1="90.0" y1="82.5" x2="870.0" y2="82.5"/>
<text class="label" x="82.0" y="86.5" text-anchor="end">1</text>
<line class="grid" x1="137.9" y1="40.0" x2="137.9" y2="550.0"/>
<text class="label" x="137.9" y="566.0" text-anchor="middle">2</text>
<line class="grid" x1="199.9" y1="40.0" x2="199.9" y2="550.0"/>
<text class="label" x="199.9" y="566.0" text-anchor="middle">4</text>
<line class="grid" x1="261.9" y1="40.0" x2="261.9" y2="550.0"/>
<text class="label" x="261.9" y="566.0" text-anchor="middle">6</text>
<line class="grid" x1="323.9" y1="40.0" x2="323.9" y2="550.0"/>
<text class="label" x="323.9" y="566.0" text-anchor="middle">8</text>
<line class="grid" x1="385.9" y1="40.0" x2="385.9" y2="550.0"/>
<text class="label" x="385.9" y="566.0" text-anchor="middle">10</text>
<line class="grid" x1="447.9" y1="40.0" x2="447.9" y2="550.0"/>
<text class="label" x="447.9" y="566.0" text-anchor="middle">12</text>
<line class="grid" x1="509.9" y1="40.0" x2="509.9" y2="550.0"/>
<text class="label" x="509.9" y="566.0" text-anchor="middle">14</text>
<line class="grid" x1="571.8" y1="40.0" x2="571.8" y2="550.0"/>
<text class="label" x="571.8" y="566.0" text-anchor="middle">16</text>
<line class="grid" x1="633.8" y1="40.0" x2="633.8" y2="550.0"/>
<text class="label" x="633.8" y="566.0" text-anchor="middle">18</text>
<line class="grid" x1="695.8" y1="40.0" x2="695.8" y2="550.0"/>
<text class="label" x="695.8" y="566.0" text-anchor="middle">20</text>
<line class="grid" x1="757.8" y1="40.0" x2="757.8" y2="550.0"/>
<text class="label" x="757.8" y="566.0" text-anchor="middle">22</text>
<line class="grid" x1="819.8" y1="40.0" x2="819.8" y2="550.0"/>
<text class="label" x="819.8" y="566.0" text-anchor="middle">24</text>
<polyline fill="none" stroke="#ef4444" stroke-width="2" stroke-dasharray="8,5" points="395.9,167.5 426.8,193.1 467.8,226.9 498.8,252.5 529.8,278.1 570.8,311.9 601.8,337.5"/>
<circle cx="395.9" cy="167.5" r="3" fill="#ef4444"/>
<circle cx="426.8" cy="193.1" r="3" fill="#ef4444"/>
<circle cx="467.8" cy="226.9" r="3" fill="#ef4444"/>
<circle cx="498.8" cy="252.5" r="3" fill="#ef4444"/>
<circle cx="529.8" cy="278.1" r="3" fill="#ef4444"/>
<circle cx="570.8" cy="311.9" r="3" fill="#ef4444"/>
<circle cx="601.8" cy="337.5" r="3" fill="#ef4444"/>
<polyline fill="none" stroke="#2a7fff" stroke-width="2" points="509.8,188.5 540.8,213.8 571.8,241.1 602.8,267.7 633.8,308.4 664.8,324.2 695.8,386.3"/>
<rect x="506.8" y="185.5" width="6" height="6" fill="#2a7fff"/>
<rect x="537.8" y="210.8" width="6" height="6" fill="#2a7fff"/>
<rect x="568.8" y="238.1" width="6" height="6" fill="#2a7fff"/>
<rect x="599.8" y="264.7" width="6" height="6" fill="#2a7fff"/>
<rect x="630.8" y="305.4" width="6" height="6" fill="#2a7fff"/>
<rect x="661.8" y="321.2" width="6" height="6" fill="#2a7fff"/>
<rect x="692.8" y="383.3" width="6" height="6" fill="#2a7fff"/>
<polyline fill="none" stroke="#6495ED" stroke-width="2" stroke-dasharray="8,5" points="478.7,163.2 509.8,188.5 540.8,213.8 571.8,241.1 602.8,267.7 633.8,308.4 664.8,324.2"/>
<rect x="475.7" y="160.2" width="6" height="6" fill="#6495ED"/>
<rect x="506.8" y="185.5" width="6" height="6" fill="#6495ED"/>
<rect x="537.8" y="210.8" width="6" height="6" fill="#6495ED"/>
<rect x="568.8" y="238.1" width="6" height="6" fill="#6495ED"/>
<rect x="599.8" y="264.7" width="6" height="6" fill="#6495ED"/>
<rect x="630.8" y="305.4" width="6" height="6" fill="#6495ED"/>
<rect x="661.8" y="321.2" width="6" height="6" fill="#6495ED"/>
<polyline fill="none" stroke="#4169E1" stroke-width="2" stroke-dasharray="8,5" points="447.6,139.9 478.7,163.2 509.8,188.5 540.8,213.8 571.8,241.1 633.8,308.4 664.8,324.2"/>
<rect x="444.6" y="136.9" width="6" height="6" fill="#4169E1"/>
<rect x="475.7" y="160.2" width="6" height="6" fill="#4169E1"/>
<rect x="506.8" y="185.5" width="6" height="6" fill="#4169E1"/>
<rect x="537.8" y="210.8" width="6" height="6" fill="#4169E1"/>
<rect x="568.8" y="238.1" width="6" height="6" fill="#4169E1"/>
<rect x="630.8" y="305.4" width="6" height="6" fill="#4169E1"/>
<rect x="661.8" y="321.2" width="6" height="6" fill="#4169E1"/>
<polyline fill="none" stroke="#1E3A8A" stroke-width="2" stroke-dasharray="8,5" points="416.4,118.2 447.6,139.9 478.7,163.2 509.8,188.5 540.8,213.8 602.8,267.7 633.8,308.4"/>
<rect x="413.4" y="115.2" width="6" height="6" fill="#1E3A8A"/>
<rect x="444.6" y="136.9" width="6" height="6" fill="#1E3A8A"/>
<rect x="475.7" y="160.2" width="6" height="6" fill="#1E3A8A"/>
<rect x="506.8" y="185.5" width="6" height="6" fill="#1E3A8A"/>
<rect x="537.8" y="210.8" width="6" height="6" fill="#1E3A8A"/>
<rect x="599.8" y="264.7" width="6" height="6" fill="#1E3A8A"/>
<rect x="630.8" y="305.4" width="6" height="6" fill="#1E3A8A"/>
<polyline fill="none" stroke="#0F1D45" stroke-width="2" stroke-dasharray="8,5" points="384.9,100.0 416.4,118.2 447.6,139.9 478.7,163.2 509.8,188.5 571.8,241.1 602.8,267.7"/>
<rect x="381.9" y="97.0" width="6" height="6" fill="#0F1D45"/>
<rect x="413.4" y="115.2" width="6" height="6" fill="#0F1D45"/>
<rect x="444.6" y="136.9" width="6" height="6" fill="#0F1D45"/>
<rect x="475.7" y="160.2" width="6" height="6" fill="#0F1D45"/>
<rect x="506.8" y="185.5" width="6" height="6" fill="#0F1D45"/>
<rect x="568.8" y="238.1" width="6" height="6" fill="#0F1D45"/>
<rect x="599.8" y="264.7" width="6" height="6" fill="#0F1D45"/>
<polyline fill="none" stroke="#22a06b" stroke-width="2" points="509.8,188.5 540.8,213.8 571.8,241.1 602.8,267.7 633.8,308.4 664.8,324.2 695.8,386.3"/>
<polygon points="509.8,184.5 513.8,188.5 509.8,192.5 505.8,188.5" fill="#22a06b"/>
<polygon points="540.8,209.8 544.8,213.8 540.8,217.8 536.8,213.8" fill="#22a06b"/>
<polygon points="571.8,237.1 575.8,241.1 571.8,245.1 567.8,241.1" fill="#22a06b"/>
<polygon points="602.8,263.7 606.8,267.7 602.8,271.7 598.8,267.7" fill="#22a06b"/>
<polygon points="633.8,304.4 637.8,308.4 633.8,312.4 629.8,308.4" fill="#22a06b"/>
<polygon points="664.8,320.2 668.8,324.2 664.8,328.2 660.8,324.2" fill="#22a06b"/>
<polygon points="695.8,382.3 699.8,386.3 695.8,390.3 691.8,386.3" fill="#22a06b"/>
<polyline fill="none" stroke="#e6a800" stroke-width="2" points="125.5,88.8 130.1,88.8 134.8,88.8 139.5,88.8 144.1,88.8 148.8,88.8 153.4,88.8"/>
<polygon points="125.5,84.8 129.5,91.8 121.5,91.8" fill="#e6a800"/>
<polygon points="130.1,84.8 134.1,91.8 126.1,91.8" fill="#e6a800"/>
<polygon points="134.8,84.8 138.8,91.8 130.8,91.8" fill="#e6a800"/>
<polygon points="139.5,84.8 143.5,91.8 135.5,91.8" fill="#e6a800"/>
<polygon points="144.1,84.8 148.1,91.8 140.1,91.8" fill="#e6a800"/>
<polygon points="148.8,84.8 152.8,91.8 144.8,91.8" fill="#e6a800"/>
<polygon points="153.4,84.8 157.4,91.8 149.4,91.8" fill="#e6a800"/>
<polyline fill="none" stroke="#9b59b6" stroke-width="2" points="476.6,191.5 507.8,222.6 548.2,269.3 579.3,306.3 610.3,354.1 646.0,426.9 677.0,454.7"/>
<polygon points="476.6,186.5 475.4,189.8 471.8,189.9 474.7,192.1 473.6,195.5 476.6,193.5 479.5,195.5 478.5,192.1 481.3,189.9 477.8,189.8" fill="#9b59b6"/>
<polygon points="507.8,217.6 506.6,220.9 503.1,221.0 505.9,223.2 504.9,226.6 507.8,224.6 510.8,226.6 509.7,223.2 512.6,221.0 509.0,220.9" fill="#9b59b6"/>
<polygon points="548.2,264.3 547.1,267.7 543.5,267.7 546.3,269.9 545.3,273.3 548.2,271.3 551.2,273.3 550.1,269.9 553.0,267.7 549.4,267.7" fill="#9b59b6"/>
<polygon points="579.3,301.3 578.1,304.7 574.5,304.8 577.4,307.0 576.4,310.4 579.3,308.3 582.2,310.4 581.2,307.0 584.1,304.8 580.5,304.7" fill="#9b59b6"/>
<polygon points="610.3,349.1 609.2,352.5 605.6,352.6 608.4,354.7 607.4,358.2 610.3,356.1 613.3,358.2 612.2,354.7 615.1,352.6 611.5,352.5" fill="#9b59b6"/>
<polygon points="646.0,421.9 644.8,425.2 641.3,425.3 644.1,427.5 643.1,430.9 646.0,428.9 648.9,430.9 647.9,427.5 650.8,425.3 647.2,425.2" fill="#9b59b6"/>
<polygon points="677.0,449.7 675.8,453.1 672.2,453.1 675.1,455.3 674.1,458.7 677.0,456.7 679.9,458.7 678.9,455.3 681.8,453.1 678.2,453.1" fill="#9b59b6"/>
<polyline fill="none" stroke="#e05d10" stroke-width="2" points="345.0,164.0 379.6,185.3 412.9,204.6 445.1,220.6 476.7,232.0 508.0,239.5 539.1,244.1"/>
<circle cx="345.0" cy="164.0" r="3" fill="#e05d10"/>
<circle cx="379.6" cy="185.3" r="3" fill="#e05d10"/>
<circle cx="412.9" cy="204.6" r="3" fill="#e05d10"/>
<circle cx="445.1" cy="220.6" r="3" fill="#e05d10"/>
<circle cx="476.7" cy="232.0" r="3" fill="#e05d10"/>
<circle cx="508.0" cy="239.5" r="3" fill="#e05d10"/>
<circle cx="539.1" cy="244.1" r="3" fill="#e05d10"/>
<polyline fill="none" stroke="#888888" stroke-width="2" stroke-dasharray="8,5" points="534.1,167.0 580.6,193.0 640.7,227.4 685.7,251.4 730.6,275.7 789.8,313.3 834.5,332.5"/>
<circle cx="534.1" cy="167.0" r="3" fill="#888888"/>
<circle cx="580.6" cy="193.0" r="3" fill="#888888"/>
<circle cx="640.7" cy="227.4" r="3" fill="#888888"/>
<circle cx="685.7" cy="251.4" r="3" fill="#888888"/>
<circle cx="730.6" cy="275.7" r="3" fill="#888888"/>
<circle cx="789.8" cy="313.3" r="3" fill="#888888"/>
<circle cx="834.5" cy="332.5" r="3" fill="#888888"/>
<line x1="886" y1="60" x2="902" y2="60" stroke="#ef4444" stroke-width="2" stroke-dasharray="8,5"/>
<circle cx="894.0" cy="60.0" r="3" fill="#ef4444"/>
<text class="label" x="908" y="64">Theoretical</text>
<line x1="886" y1="78" x2="902" y2="78" stroke="#2a7fff" stroke-width="2"/>
<rect x="891.0" y="75.0" width="6" height="6" fill="#2a7fff"/>
<text class="label" x="908" y="82">Adaptive (t=0)</text>
<line x1="886" y1="96" x2="902" y2="96" stroke="#6495ED" stroke-width="2" stroke-dasharray="8,5"/>
<rect x="891.0" y="93.0" width="6" height="6" fill="#6495ED"/>
<text class="label" x="908" y="100">Adaptive (t=1)</text>
<line x1="886" y1="114" x2="902" y2="114" stroke="#4169E1" stroke-width="2" stroke-dasharray="8,5"/>
<rect x="891.0" y="111.0" width="6" height="6" fill="#4169E1"/>
<text class="label" x="908" y="118">Adaptive (t=2)</text>
<line x1="886" y1="132" x2="902" y2="132" stroke="#1E3A8A" stroke-width="2" stroke-dasharray="8,5"/>
<rect x="891.0" y="129.0" width="6" height="6" fill="#1E3A8A"/>
<text class="label" x="908" y="136">Adaptive (t=3)</text>
<line x1="886" y1="150" x2="902" y2="150" stroke="#0F1D45" stroke-width="2" stroke-dasharray="8,5"/>
<rect x="891.0" y="147.0" width="6" height="6" fill="#0F1D45"/>
<text class="label" x="908" y="154">Adaptive (t=4)</text>
<line x1="886" y1="168" x2="902" y2="168" stroke="#22a06b" stroke-width="2"/>
<polygon points="894.0,164.0 898.0,168.0 894.0,172.0 890.0,168.0" fill="#22a06b"/>
<text class="label" x="908" y="172">SODA</text>
<line x1="886" y1="186" x2="902" y2="186" stroke="#e6a800" stroke-width="2"/>
<polygon points="894.0,182.0 898.0,189.0 890.0,189.0" fill="#e6a800"/>
<text class="label" x="908" y="190">Truncation</text>
<line x1="886" y1="204" x2="902" y2="204" stroke="#9b59b6" stroke-width="2"/>
<polygon points="894.0,199.0 892.8,202.4 889.2,202.5 892.1,204.6 891.1,208.0 894.0,206.0 896.9,208.0 895.9,204.6 898.8,202.5 895.2,202.4" fill="#9b59b6"/>
<text class="label" x="908" y="208">Hybrid</text>
<line x1="886" y1="222" x2="902" y2="222" stroke="#e05d10" stroke-width="2"/>
<circle cx="894.0" cy="222.0" r="3" fill="#e05d10"/>
<text class="label" x="908" y="226">CDF-ARE</text>
<line x1="886" y1="240" x2="902" y2="240" stroke="#888888" stroke-width="2" stroke-dasharray="8,5"/>
<circle cx="894.0" cy="240.0" r="3" fill="#888888"/>
<text class="label" x="908" y="244">Bloom V3</text>
<text x="480" y="590" text-anchor="middle">Bits per Key (BPK)</text>
<text transform="translate(16,295) rotate(-90)" text-anchor="middle">False Positive Rate (FPR)</text>
</svg>
