<svg xmlns="http://www.w3.org/2000/svg" width="960" height="600" viewBox="0 0 960 600">
<style>text{font-family:Menlo,Monaco,monospace;font-size:12px;fill:#222} .axis{stroke:#333;stroke-width:1} .grid{stroke:#eee;stroke-width:0.5} .label{font-size:11px;fill:#444}</style>
<text x="480" y="28" text-anchor="middle" style="font-size:14px;font-weight:bold">Range Emptiness: FPR vs BPK (Hybrid, Uniform Distribution)</text>
<line class="axis" x1="90.0" y1="550.0" x2="920.0" y2="550.0"/>
<line class="axis" x1="90.0" y1="40.0" x2="90.0" y2="550.0"/>
<line class="grid" x1="90.0" y1="499.0" x2="920.0" y2="499.0"/>
<text class="label" x="82.0" y="503.0" text-anchor="end">10^-4</text>
<line class="grid" x1="90.0" y1="397.0" x2="920.0" y2="397.0"/>
<text class="label" x="82.0" y="401.0" text-anchor="end">10^-3</text>
<line class="grid" x1="90.0" y1="295.0" x2="920.0" y2="295.0"/>
<text class="label" x="82.0" y="299.0" text-anchor="end">0.01</text>
<line class="grid" x1="90.0" y1="193.0" x2="920.0" y2="193.0"/>
<text class="label" x="82.0" y="197.0" text-anchor="end">0.1</text>
<line class="grid" x1="90.0" y1="91.0" x2="920.0" y2="91.0"/>
<text class="label" x="82.0" y="95.0" text-anchor="end">1</text>
<line class="grid" x1="90.0" y1="40.0" x2="90.0" y2="550.0"/>
<text class="label" x="90.0" y="566.0" text-anchor="middle">0</text>
<line class="grid" x1="173.0" y1="40.0" x2="173.0" y2="550.0"/>
<text class="label" x="173.0" y="566.0" text-anchor="middle">2</text>
<line class="grid" x1="256.0" y1="40.0" x2="256.0" y2="550.0"/>
<text class="label" x="256.0" y="566.0" text-anchor="middle">4</text>
<line class="grid" x1="339.0" y1="40.0" x2="339.0" y2="550.0"/>
<text class="label" x="339.0" y="566.0" text-anchor="middle">6</text>
<line class="grid" x1="422.0" y1="40.0" x2="422.0" y2="550.0"/>
<text class="label" x="422.0" y="566.0" text-anchor="middle">8</text>
<line class="grid" x1="505.0" y1="40.0" x2="505.0" y2="550.0"/>
<text class="label" x="505.0" y="566.0" text-anchor="middle">10</text>
<line class="grid" x1="588.0" y1="40.0" x2="588.0" y2="550.0"/>
<text class="label" x="588.0" y="566.0" text-anchor="middle">12</text>
<line class="grid" x1="671.0" y1="40.0" x2="671.0" y2="550.0"/>
<text class="label" x="671.0" y="566.0" text-anchor="middle">14</text>
<line class="grid" x1="754.0" y1="40.0" x2="754.0" y2="550.0"/>
<text class="label" x="754.0" y="566.0" text-anchor="middle">16</text>
<line class="grid" x1="837.0" y1="40.0" x2="837.0" y2="550.0"/>
<text class="label" x="837.0" y="566.0" text-anchor="middle">18</text>
<line class="grid" x1="920.0" y1="40.0" x2="920.0" y2="550.0"/>
<text class="label" x="920.0" y="566.0" text-anchor="middle">20</text>
<polyline fill="none" stroke="#ef4444" stroke-width="2" stroke-dasharray="8,5" points="503.6,193.0 545.1,223.7 599.9,264.3 641.4,295.0 682.9,325.7 737.8,366.3 779.3,397.0"/>
<circle cx="503.6" cy="193.0" r="3" fill="#ef4444"/>
<circle cx="545.1" cy="223.7" r="3" fill="#ef4444"/>
<circle cx="599.9" cy="264.3" r="3" fill="#ef4444"/>
<circle cx="641.4" cy="295.0" r="3" fill="#ef4444"/>
<circle cx="682.9" cy="325.7" r="3" fill="#ef4444"/>
<circle cx="737.8" cy="366.3" r="3" fill="#ef4444"/>
<circle cx="779.3" cy="397.0" r="3" fill="#ef4444"/>
<polyline fill="none" stroke="#2a7fff" stroke-width="2" points="655.9,217.3 697.4,246.8 739.0,277.1 780.5,307.4 822.0,337.4 863.5,365.6 905.0,398.8"/>
<rect x="652.9" y="214.3" width="6" height="6" fill="#2a7fff"/>
<rect x="694.4" y="243.8" width="6" height="6" fill="#2a7fff"/>
<rect x="736.0" y="274.1" width="6" height="6" fill="#2a7fff"/>
<rect x="777.5" y="304.4" width="6" height="6" fill="#2a7fff"/>
<rect x="819.0" y="334.4" width="6" height="6" fill="#2a7fff"/>
<rect x="860.5" y="362.6" width="6" height="6" fill="#2a7fff"/>
<rect x="902.0" y="395.8" width="6" height="6" fill="#2a7fff"/>
<polyline fill="none" stroke="#22a06b" stroke-width="2" points="655.9,217.3 697.4,246.8 739.0,277.1 780.5,307.4 822.0,337.4 863.5,365.6 905.0,398.8"/>
<polygon points="655.9,213.3 659.9,217.3 655.9,221.3 651.9,217.3" fill="#22a06b"/>
<polygon points="697.4,242.8 701.4,246.8 697.4,250.8 693.4,246.8" fill="#22a06b"/>
<polygon points="739.0,273.1 743.0,277.1 739.0,281.1 735.0,277.1" fill="#22a06b"/>
<polygon points="780.5,303.4 784.5,307.4 780.5,311.4 776.5,307.4" fill="#22a06b"/>
<polygon points="822.0,333.4 826.0,337.4 822.0,341.4 818.0,337.4" fill="#22a06b"/>
<polygon points="863.5,361.6 867.5,365.6 863.5,369.6 859.5,365.6" fill="#22a06b"/>
<polygon points="905.0,394.8 909.0,398.8 905.0,402.8 901.0,398.8" fill="#22a06b"/>
<polyline fill="none" stroke="#e6a800" stroke-width="2" points="402.3,237.1 445.9,266.8 488.6,299.0 530.6,329.1 572.5,359.2 655.9,419.6 697.4,443.5"/>
<polygon points="402.3,233.1 406.3,240.1 398.3,240.1" fill="#e6a800"/>
<polygon points="445.9,262.8 449.9,269.8 441.9,269.8" fill="#e6a800"/>
<polygon points="488.6,295.0 492.6,302.0 484.6,302.0" fill="#e6a800"/>
<polygon points="530.6,325.1 534.6,332.1 526.6,332.1" fill="#e6a800"/>
<polygon points="572.5,355.2 576.5,362.2 568.5,362.2" fill="#e6a800"/>
<polygon points="655.9,415.6 659.9,422.6 651.9,422.6" fill="#e6a800"/>
<polygon points="697.4,439.5 701.4,446.5 693.4,446.5" fill="#e6a800"/>
<polyline fill="none" stroke="#9b59b6" stroke-width="2" points="402.3,237.1 445.9,266.8 488.6,299.0 530.6,329.1 572.5,359.2 655.9,419.6 697.4,443.5"/>
<polygon points="402.3,232.1 401.1,235.4 397.5,235.5 400.4,237.7 399.3,241.1 402.3,239.1 405.2,241.1 404.2,237.7 407.0,235.5 403.5,235.4" fill="#9b59b6"/>
<polygon points="445.9,261.8 444.7,265.2 441.1,265.3 443.9,267.4 442.9,270.8 445.9,268.8 448.8,270.8 447.8,267.4 450.6,265.3 447.0,265.2" fill="#9b59b6"/>
<polygon points="488.6,294.0 487.5,297.4 483.9,297.4 486.7,299.6 485.7,303.0 488.6,301.0 491.6,303.0 490.5,299.6 493.4,297.4 489.8,297.4" fill="#9b59b6"/>
<polygon points="530.6,324.1 529.5,327.5 525.9,327.6 528.7,329.7 527.7,333.2 530.6,331.1 533.6,333.2 532.5,329.7 535.4,327.6 531.8,327.5" fill="#9b59b6"/>
<polygon points="572.5,354.2 571.3,357.5 567.7,357.6 570.6,359.8 569.6,363.2 572.5,361.2 575.4,363.2 574.4,359.8 577.3,357.6 573.7,357.5" fill="#9b59b6"/>
<polygon points="655.9,414.6 654.8,418.0 651.2,418.1 654.0,420.2 653.0,423.7 655.9,421.6 658.9,423.7 657.8,420.2 660.7,418.1 657.1,418.0" fill="#9b59b6"/>
<polygon points="697.4,438.5 696.3,441.9 692.7,442.0 695.5,444.1 694.5,447.6 697.4,445.5 700.4,447.6 699.3,444.1 702.2,442.0 698.6,441.9" fill="#9b59b6"/>
<line x1="700" y1="60" x2="716" y2="60" stroke="#ef4444" stroke-width="2" stroke-dasharray="8,5"/>
<circle cx="708.0" cy="60.0" r="3" fill="#ef4444"/>
<text class="label" x="722" y="64">Theoretical</text>
<line x1="700" y1="78" x2="716" y2="78" stroke="#2a7fff" stroke-width="2"/>
<rect x="705.0" y="75.0" width="6" height="6" fill="#2a7fff"/>
<text class="label" x="722" y="82">Adaptive (t=0)</text>
<line x1="700" y1="96" x2="716" y2="96" stroke="#22a06b" stroke-width="2"/>
<polygon points="708.0,92.0 712.0,96.0 708.0,100.0 704.0,96.0" fill="#22a06b"/>
<text class="label" x="722" y="100">SODA</text>
<line x1="700" y1="114" x2="716" y2="114" stroke="#e6a800" stroke-width="2"/>
<polygon points="708.0,110.0 712.0,117.0 704.0,117.0" fill="#e6a800"/>
<text class="label" x="722" y="118">Truncation</text>
<line x1="700" y1="132" x2="716" y2="132" stroke="#9b59b6" stroke-width="2"/>
<polygon points="708.0,127.0 706.8,130.4 703.2,130.5 706.1,132.6 705.1,136.0 708.0,134.0 710.9,136.0 709.9,132.6 712.8,130.5 709.2,130.4" fill="#9b59b6"/>
<text class="label" x="722" y="136">Hybrid</text>
<text x="505" y="590" text-anchor="middle">Bits per Key (BPK)</text>
<text transform="translate(16,295) rotate(-90)" text-anchor="middle">False Positive Rate (FPR)</text>
</svg>
