<svg xmlns="http://www.w3.org/2000/svg" width="1020" height="600" viewBox="0 0 1020 600">
<style>text{font-family:Menlo,Monaco,monospace;font-size:12px;fill:#222} .axis{stroke:#333;stroke-width:1} .grid{stroke:#eee;stroke-width:0.5} .label{font-size:11px;fill:#444}</style>
<text x="510" y="28" text-anchor="middle" style="font-size:14px;font-weight:bold">FPR vs BPK — Cluster (n=65536, L=128)</text>
<line class="axis" x1="90.0" y1="550.0" x2="870.0" y2="550.0"/>
<line class="axis" x1="90.0" y1="40.0" x2="90.0" y2="550.0"/>
<line class="grid" x1="90.0" y1="521.7" x2="870.0" y2="521.7"/>
<text class="label" x="82.0" y="525.7" text-anchor="end">10^-8</text>
<line class="grid" x1="90.0" y1="465.0" x2="870.0" y2="465.0"/>
<text class="label" x="82.0" y="469.0" text-anchor="end">10^-7</text>
<line class="grid" x1="90.0" y1="408.3" x2="870.0" y2="408.3"/>
<text class="label" x="82.0" y="412.3" text-anchor="end">10^-6</text>
<line class="grid" x1="90.0" y1="351.7" x2="870.0" y2="351.7"/>
<text class="label" x="82.0" y="355.7" text-anchor="end">10^-5</text>
<line class="grid" x1="90.0" y1="295.0" x2="870.0" y2="295.0"/>
<text class="label" x="82.0" y="299.0" text-anchor="end">10^-4</text>
<line class="grid" x1="90.0" y1="238.3" x2="870.0" y2="238.3"/>
<text class="label" x="82.0" y="242.3" text-anchor="end">10^-3</text>
<line class="grid" x1="90.0" y1="181.7" x2="870.0" y2="181.7"/>
<text class="label" x="82.0" y="185.7" text-anchor="end">10^-2</text>
<line class="grid" x1="90.0" y1="125.0" x2="870.0" y2="125.0"/>
<text class="label" x="82.0" y="129.0" text-anchor="end">10^-1</text>
<line class="grid" x1="90.0" y1="68.3" x2="870.0" y2="68.3"/>
<text class="label" x="82.0" y="72.3" text-anchor="end">1</text>
<line class="grid" x1="137.9" y1="40.0" x2="137.9" y2="550.0"/>
<text class="label" x="137.9" y="566.0" text-anchor="middle">2</text>
<line class="grid" x1="199.9" y1="40.0" x2="199.9" y2="550.0"/>
<text class="label" x="199.9" y="566.0" text-anchor="middle">4</text>
<line class="grid" x1="261.9" y1="40.0" x2="261.9" y2="550.0"/>
<text class="label" x="261.9" y="566.0" text-anchor="middle">6</text>
<line class="grid" x1="323.9" y1="40.0" x2="323.9" y2="550.0"/>
<text class="label" x="323.9" y="566.0" text-anchor="middle">8</text>
<line class="grid" x1="385.9" y1="40.0" x2="385.9" y2="550.0"/>
<text class="label" x="385.9" y="566.0" text-anchor="middle">10</text>
<line class="grid" x1="447.9" y1="40.0" x2="447.9" y2="550.0"/>
<text class="label" x="447.9" y="566.0" text-anchor="middle">12</text>
<line class="grid" x1="509.9" y1="40.0" x2="509.9" y2="550.0"/>
<text class="label" x="509.9" y="566.0" text-anchor="middle">14</text>
<line class="grid" x1="571.8" y1="40.0" x2="571.8" y2="550.0"/>
<text class="label" x="571.8" y="566.0" text-anchor="middle">16</text>
<line class="grid" x1="633.8" y1="40.0" x2="633.8" y2="550.0"/>
<text class="label" x="633.8" y="566.0" text-anchor="middle">18</text>
<line class="grid" x1="695.8" y1="40.0" x2="695.8" y2="550.0"/>
<text class="label" x="695.8" y="566.0" text-anchor="middle">20</text>
<line class="grid" x1="757.8" y1="40.0" x2="757.8" y2="550.0"/>
<text class="label" x="757.8" y="566.0" text-anchor="middle">22</text>
<line class="grid" x1="819.8" y1="40.0" x2="819.8" y2="550.0"/>
<text class="label" x="819.8" y="566.0" text-anchor="middle">24</text>
<polyline fill="none" stroke="#ef4444" stroke-width="2" stroke-dasharray="8,5" points="395.9,125.0 426.8,142.1 467.8,164.6 498.8,181.7 529.8,198.7 570.8,221.3 601.8,238.3"/>
<circle cx="395.9" cy="125.0" r="3" fill="#ef4444"/>
<circle cx="426.8" cy="142.1" r="3" fill="#ef4444"/>
<circle cx="467.8" cy="164.6" r="3" fill="#ef4444"/>
<circle cx="498.8" cy="181.7" r="3" fill="#ef4444"/>
<circle cx="529.8" cy="198.7" r="3" fill="#ef4444"/>
<circle cx="570.8" cy="221.3" r="3" fill="#ef4444"/>
<circle cx="601.8" cy="238.3" r="3" fill="#ef4444"/>
<polyline fill="none" stroke="#2a7fff" stroke-width="2" points="509.8,139.0 540.8,155.9 571.8,174.1 602.8,191.8 633.8,218.9 664.8,229.5 695.8,270.9"/>
<rect x="506.8" y="136.0" width="6" height="6" fill="#2a7fff"/>
<rect x="537.8" y="152.9" width="6" height="6" fill="#2a7fff"/>
<rect x="568.8" y="171.1" width="6" height="6" fill="#2a7fff"/>
<rect x="599.8" y="188.8" width="6" height="6" fill="#2a7fff"/>
<rect x="630.8" y="215.9" width="6" height="6" fill="#2a7fff"/>
<rect x="661.8" y="226.5" width="6" height="6" fill="#2a7fff"/>
<rect x="692.8" y="267.9" width="6" height="6" fill="#2a7fff"/>
<polyline fill="none" stroke="#6495ED" stroke-width="2" stroke-dasharray="8,5" points="478.7,122.1 509.8,139.0 540.8,155.9 571.8,174.1 602.8,191.8 633.8,218.9 664.8,229.5"/>
<rect x="475.7" y="119.1" width="6" height="6" fill="#6495ED"/>
<rect x="506.8" y="136.0" width="6" height="6" fill="#6495ED"/>
<rect x="537.8" y="152.9" width="6" height="6" fill="#6495ED"/>
<rect x="568.8" y="171.1" width="6" height="6" fill="#6495ED"/>
<rect x="599.8" y="188.8" width="6" height="6" fill="#6495ED"/>
<rect x="630.8" y="215.9" width="6" height="6" fill="#6495ED"/>
<rect x="661.8" y="226.5" width="6" height="6" fill="#6495ED"/>
<polyline fill="none" stroke="#4169E1" stroke-width="2" stroke-dasharray="8,5" points="447.6,106.6 478.7,122.1 509.8,139.0 540.8,155.9 571.8,174.1 633.8,218.9 664.8,229.5"/>
<rect x="444.6" y="103.6" width="6" height="6" fill="#4169E1"/>
<rect x="475.7" y="119.1" width="6" height="6" fill="#4169E1"/>
<rect x="506.8" y="136.0" width="6" height="6" fill="#4169E1"/>
<rect x="537.8" y="152.9" width="6" height="6" fill="#4169E1"/>
<rect x="568.8" y="171.1" width="6" height="6" fill="#4169E1"/>
<rect x="630.8" y="215.9" width="6" height="6" fill="#4169E1"/>
<rect x="661.8" y="226.5" width="6" height="6" fill="#4169E1"/>
<polyline fill="none" stroke="#1E3A8A" stroke-width="2" stroke-dasharray="8,5" points="416.4,92.1 447.6,106.6 478.7,122.1 509.8,139.0 540.8,155.9 602.8,191.8 633.8,218.9"/>
<rect x="413.4" y="89.1" width="6" height="6" fill="#1E3A8A"/>
<rect x="444.6" y="103.6" width="6" height="6" fill="#1E3A8A"/>
<rect x="475.7" y="119.1" width="6" height="6" fill="#1E3A8A"/>
<rect x="506.8" y="136.0" width="6" height="6" fill="#1E3A8A"/>
<rect x="537.8" y="152.9" width="6" height="6" fill="#1E3A8A"/>
<rect x="599.8" y="188.8" width="6" height="6" fill="#1E3A8A"/>
<rect x="630.8" y="215.9" width="6" height="6" fill="#1E3A8A"/>
<polyline fill="none" stroke="#0F1D45" stroke-width="2" stroke-dasharray="8,5" points="384.9,80.0 416.4,92.1 447.6,106.6 478.7,122.1 509.8,139.0 571.8,174.1 602.8,191.8"/>
<rect x="381.9" y="77.0" width="6" height="6" fill="#0F1D45"/>
<rect x="413.4" y="89.1" width="6" height="6" fill="#0F1D45"/>
<rect x="444.6" y="103.6" width="6" height="6" fill="#0F1D45"/>
<rect x="475.7" y="119.1" width="6" height="6" fill="#0F1D45"/>
<rect x="506.8" y="136.0" width="6" height="6" fill="#0F1D45"/>
<rect x="568.8" y="171.1" width="6" height="6" fill="#0F1D45"/>
<rect x="599.8" y="188.8" width="6" height="6" fill="#0F1D45"/>
<polyline fill="none" stroke="#22a06b" stroke-width="2" points="509.8,139.0 540.8,155.9 571.8,174.1 602.8,191.8 633.8,218.9 664.8,229.5 695.8,270.9"/>
<polygon points="509.8,135.0 513.8,139.0 509.8,143.0 505.8,139.0" fill="#22a06b"/>
<polygon points="540.8,151.9 544.8,155.9 540.8,159.9 536.8,155.9" fill="#22a06b"/>
<polygon points="571.8,170.1 575.8,174.1 571.8,178.1 567.8,174.1" fill="#22a06b"/>
<polygon points="602.8,187.8 606.8,191.8 602.8,195.8 598.8,191.8" fill="#22a06b"/>
<polygon points="633.8,214.9 637.8,218.9 633.8,222.9 629.8,218.9" fill="#22a06b"/>
<polygon points="664.8,225.5 668.8,229.5 664.8,233.5 660.8,229.5" fill="#22a06b"/>
<polygon points="695.8,266.9 699.8,270.9 695.8,274.9 691.8,270.9" fill="#22a06b"/>
<polyline fill="none" stroke="#e6a800" stroke-width="2" points="125.5,72.5 130.1,72.5 134.8,72.5 139.5,72.5 144.1,72.5 148.8,72.5 153.4,72.5"/>
<polygon points="125.5,68.5 129.5,75.5 121.5,75.5" fill="#e6a800"/>
<polygon points="130.1,68.5 134.1,75.5 126.1,75.5" fill="#e6a800"/>
<polygon points="134.8,68.5 138.8,75.5 130.8,75.5" fill="#e6a800"/>
<polygon points="139.5,68.5 143.5,75.5 135.5,75.5" fill="#e6a800"/>
<polygon points="144.1,68.5 148.1,75.5 140.1,75.5" fill="#e6a800"/>
<polygon points="148.8,68.5 152.8,75.5 144.8,75.5" fill="#e6a800"/>
<polygon points="153.4,68.5 157.4,75.5 149.4,75.5" fill="#e6a800"/>
<polyline fill="none" stroke="#9b59b6" stroke-width="2" points="575.0,193.3 606.0,215.7 637.0,251.3 668.0,323.5 699.0,521.7 730.0,521.7 761.0,521.7"/>
<polygon points="575.0,188.3 573.8,191.7 570.2,191.7 573.1,193.9 572.1,197.3 575.0,195.3 577.9,197.3 576.9,193.9 579.8,191.7 576.2,191.7" fill="#9b59b6"/>
<polygon points="606.0,210.7 604.8,214.1 601.2,214.2 604.1,216.4 603.1,219.8 606.0,217.7 608.9,219.8 607.9,216.4 610.7,214.2 607.2,214.1" fill="#9b59b6"/>
<polygon points="637.0,246.3 635.8,249.7 632.3,249.7 635.1,251.9 634.1,255.3 637.0,253.3 639.9,255.3 638.9,251.9 641.8,249.7 638.2,249.7" fill="#9b59b6"/>
<polygon points="668.0,318.5 666.8,321.9 663.2,322.0 666.1,324.2 665.1,327.6 668.0,325.5 670.9,327.6 669.9,324.2 672.8,322.0 669.2,321.9" fill="#9b59b6"/>
<polygon points="699.0,516.7 697.8,520.0 694.2,520.1 697.1,522.3 696.1,525.7 699.0,523.7 701.9,525.7 700.9,522.3 703.8,520.1 700.2,520.0" fill="#9b59b6"/>
<polygon points="730.0,516.7 728.8,520.0 725.2,520.1 728.1,522.3 727.1,525.7 730.0,523.7 732.9,525.7 731.9,522.3 734.7,520.1 731.2,520.0" fill="#9b59b6"/>
<polygon points="761.0,516.7 759.8,520.0 756.2,520.1 759.1,522.3 758.1,525.7 761.0,523.7 763.9,525.7 762.9,522.3 765.7,520.1 762.2,520.0" fill="#9b59b6"/>
<polyline fill="none" stroke="#e05d10" stroke-width="2" points="345.0,122.7 379.6,136.9 412.9,149.7 445.1,160.4 476.7,168.0 508.0,173.0 539.1,176.1"/>
<circle cx="345.0" cy="122.7" r="3" fill="#e05d10"/>
<circle cx="379.6" cy="136.9" r="3" fill="#e05d10"/>
<circle cx="412.9" cy="149.7" r="3" fill="#e05d10"/>
<circle cx="445.1" cy="160.4" r="3" fill="#e05d10"/>
<circle cx="476.7" cy="168.0" r="3" fill="#e05d10"/>
<circle cx="508.0" cy="173.0" r="3" fill="#e05d10"/>
<circle cx="539.1" cy="176.1" r="3" fill="#e05d10"/>
<polyline fill="none" stroke="#888888" stroke-width="2" stroke-dasharray="8,5" points="534.1,124.7 580.6,142.0 640.7,165.0 685.7,180.9 730.6,197.1 789.8,222.2 834.5,235.0"/>
<circle cx="534.1" cy="124.7" r="3" fill="#888888"/>
<circle cx="580.6" cy="142.0" r="3" fill="#888888"/>
<circle cx="640.7" cy="165.0" r="3" fill="#888888"/>
<circle cx="685.7" cy="180.9" r="3" fill="#888888"/>
<circle cx="730.6" cy="197.1" r="3" fill="#888888"/>
<circle cx="789.8" cy="222.2" r="3" fill="#888888"/>
<circle cx="834.5" cy="235.0" r="3" fill="#888888"/>
<line x1="886" y1="60" x2="902" y2="60" stroke="#ef4444" stroke-width="2" stroke-dasharray="8,5"/>
<circle cx="894.0" cy="60.0" r="3" fill="#ef4444"/>
<text class="label" x="908" y="64">Theoretical</text>
<line x1="886" y1="78" x2="902" y2="78" stroke="#2a7fff" stroke-width="2"/>
<rect x="891.0" y="75.0" width="6" height="6" fill="#2a7fff"/>
<text class="label" x="908" y="82">Adaptive (t=0)</text>
<line x1="886" y1="96" x2="902" y2="96" stroke="#6495ED" stroke-width="2" stroke-dasharray="8,5"/>
<rect x="891.0" y="93.0" width="6" height="6" fill="#6495ED"/>
<text class="label" x="908" y="100">Adaptive (t=1)</text>
<line x1="886" y1="114" x2="902" y2="114" stroke="#4169E1" stroke-width="2" stroke-dasharray="8,5"/>
<rect x="891.0" y="111.0" width="6" height="6" fill="#4169E1"/>
<text class="label" x="908" y="118">Adaptive (t=2)</text>
<line x1="886" y1="132" x2="902" y2="132" stroke="#1E3A8A" stroke-width="2" stroke-dasharray="8,5"/>
<rect x="891.0" y="129.0" width="6" height="6" fill="#1E3A8A"/>
<text class="label" x="908" y="136">Adaptive (t=3)</text>
<line x1="886" y1="150" x2="902" y2="150" stroke="#0F1D45" stroke-width="2" stroke-dasharray="8,5"/>
<rect x="891.0" y="147.0" width="6" height="6" fill="#0F1D45"/>
<text class="label" x="908" y="154">Adaptive (t=4)</text>
<line x1="886" y1="168" x2="902" y2="168" stroke="#22a06b" stroke-width="2"/>
<polygon points="894.0,164.0 898.0,168.0 894.0,172.0 890.0,168.0" fill="#22a06b"/>
<text class="label" x="908" y="172">SODA</text>
<line x1="886" y1="186" x2="902" y2="186" stroke="#e6a800" stroke-width="2"/>
<polygon points="894.0,182.0 898.0,189.0 890.0,189.0" fill="#e6a800"/>
<text class="label" x="908" y="190">Truncation</text>
<line x1="886" y1="204" x2="902" y2="204" stroke="#9b59b6" stroke-width="2"/>
<polygon points="894.0,199.0 892.8,202.4 889.2,202.5 892.1,204.6 891.1,208.0 894.0,206.0 896.9,208.0 895.9,204.6 898.8,202.5 895.2,202.4" fill="#9b59b6"/>
<text class="label" x="908" y="208">Hybrid</text>
<line x1="886" y1="222" x2="902" y2="222" stroke="#e05d10" stroke-width="2"/>
<circle cx="894.0" cy="222.0" r="3" fill="#e05d10"/>
<text class="label" x="908" y="226">CDF-ARE</text>
<line x1="886" y1="240" x2="902" y2="240" stroke="#888888" stroke-width="2" stroke-dasharray="8,5"/>
<circle cx="894.0" cy="240.0" r="3" fill="#888888"/>
<text class="label" x="908" y="244">Bloom V3</text>
<text x="480" y="590" text-anchor="middle">Bits per Key (BPK)</text>
<text transform="translate(16,295) rotate(-90)" text-anchor="middle">False Positive Rate (FPR)</text>
</svg>
