<svg xmlns="http://www.w3.org/2000/svg" width="1020" height="600" viewBox="0 0 1020 600">
<style>text{font-family:Menlo,Monaco,monospace;font-size:12px;fill:#222} .axis{stroke:#333;stroke-width:1} .grid{stroke:#eee;stroke-width:0.5} .label{font-size:11px;fill:#444}</style>
<text x="510" y="28" text-anchor="middle" style="font-size:14px;font-weight:bold">FPR vs BPK — Cluster (n=65536, L=16)</text>
<line class="axis" x1="90.0" y1="550.0" x2="870.0" y2="550.0"/>
<line class="axis" x1="90.0" y1="40.0" x2="90.0" y2="550.0"/>
<line class="grid" x1="90.0" y1="521.7" x2="870.0" y2="521.7"/>
<text class="label" x="82.0" y="525.7" text-anchor="end">10^-8</text>
<line class="grid" x1="90.0" y1="465.0" x2="870.0" y2="465.0"/>
<text class="label" x="82.0" y="469.0" text-anchor="end">10^-7</text>
<line class="grid" x1="90.0" y1="408.3" x2="870.0" y2="408.3"/>
<text class="label" x="82.0" y="412.3" text-anchor="end">10^-6</text>
<line class="grid" x1="90.0" y1="351.7" x2="870.0" y2="351.7"/>
<text class="label" x="82.0" y="355.7" text-anchor="end">10^-5</text>
<line class="grid" x1="90.0" y1="295.0" x2="870.0" y2="295.0"/>
<text class="label" x="82.0" y="299.0" text-anchor="end">10^-4</text>
<line class="grid" x1="90.0" y1="238.3" x2="870.0" y2="238.3"/>
<text class="label" x="82.0" y="242.3" text-anchor="end">10^-3</text>
<line class="grid" x1="90.0" y1="181.7" x2="870.0" y2="181.7"/>
<text class="label" x="82.0" y="185.7" text-anchor="end">10^-2</text>
<line class="grid" x1="90.0" y1="125.0" x2="870.0" y2="125.0"/>
<text class="label" x="82.0" y="129.0" text-anchor="end">10^-1</text>
<line class="grid" x1="90.0" y1="68.3" x2="870.0" y2="68.3"/>
<text class="label" x="82.0" y="72.3" text-anchor="end">1</text>
<line class="grid" x1="140.8" y1="40.0" x2="140.8" y2="550.0"/>
<text class="label" x="140.8" y="566.0" text-anchor="middle">2</text>
<line class="grid" x1="217.3" y1="40.0" x2="217.3" y2="550.0"/>
<text class="label" x="217.3" y="566.0" text-anchor="middle">4</text>
<line class="grid" x1="293.7" y1="40.0" x2="293.7" y2="550.0"/>
<text class="label" x="293.7" y="566.0" text-anchor="middle">6</text>
<line class="grid" x1="370.2" y1="40.0" x2="370.2" y2="550.0"/>
<text class="label" x="370.2" y="566.0" text-anchor="middle">8</text>
<line class="grid" x1="446.6" y1="40.0" x2="446.6" y2="550.0"/>
<text class="label" x="446.6" y="566.0" text-anchor="middle">10</text>
<line class="grid" x1="523.1" y1="40.0" x2="523.1" y2="550.0"/>
<text class="label" x="523.1" y="566.0" text-anchor="middle">12</text>
<line class="grid" x1="599.5" y1="40.0" x2="599.5" y2="550.0"/>
<text class="label" x="599.5" y="566.0" text-anchor="middle">14</text>
<line class="grid" x1="676.0" y1="40.0" x2="676.0" y2="550.0"/>
<text class="label" x="676.0" y="566.0" text-anchor="middle">16</text>
<line class="grid" x1="752.5" y1="40.0" x2="752.5" y2="550.0"/>
<text class="label" x="752.5" y="566.0" text-anchor="middle">18</text>
<line class="grid" x1="828.9" y1="40.0" x2="828.9" y2="550.0"/>
<text class="label" x="828.9" y="566.0" text-anchor="middle">20</text>
<polyline fill="none" stroke="#ef4444" stroke-width="2" stroke-dasharray="8,5" points="344.3,125.0 382.5,142.1 433.0,164.6 471.3,181.7 509.5,198.7 560.0,221.3 598.2,238.3"/>
<circle cx="344.3" cy="125.0" r="3" fill="#ef4444"/>
<circle cx="382.5" cy="142.1" r="3" fill="#ef4444"/>
<circle cx="433.0" cy="164.6" r="3" fill="#ef4444"/>
<circle cx="471.3" cy="181.7" r="3" fill="#ef4444"/>
<circle cx="509.5" cy="198.7" r="3" fill="#ef4444"/>
<circle cx="560.0" cy="221.3" r="3" fill="#ef4444"/>
<circle cx="598.2" cy="238.3" r="3" fill="#ef4444"/>
<polyline fill="none" stroke="#2a7fff" stroke-width="2" points="484.2,138.7 522.8,156.0 561.2,173.3 599.5,191.3 637.7,208.2 714.2,247.7 752.5,272.8"/>
<rect x="481.2" y="135.7" width="6" height="6" fill="#2a7fff"/>
<rect x="519.8" y="153.0" width="6" height="6" fill="#2a7fff"/>
<rect x="558.2" y="170.3" width="6" height="6" fill="#2a7fff"/>
<rect x="596.5" y="188.3" width="6" height="6" fill="#2a7fff"/>
<rect x="634.7" y="205.2" width="6" height="6" fill="#2a7fff"/>
<rect x="711.2" y="244.7" width="6" height="6" fill="#2a7fff"/>
<rect x="749.5" y="269.8" width="6" height="6" fill="#2a7fff"/>
<polyline fill="none" stroke="#6495ED" stroke-width="2" stroke-dasharray="8,5" points="445.4,121.7 484.2,138.7 522.8,156.0 561.2,173.3 599.5,191.3 676.0,228.2 714.2,247.7"/>
<rect x="442.4" y="118.7" width="6" height="6" fill="#6495ED"/>
<rect x="481.2" y="135.7" width="6" height="6" fill="#6495ED"/>
<rect x="519.8" y="153.0" width="6" height="6" fill="#6495ED"/>
<rect x="558.2" y="170.3" width="6" height="6" fill="#6495ED"/>
<rect x="596.5" y="188.3" width="6" height="6" fill="#6495ED"/>
<rect x="673.0" y="225.2" width="6" height="6" fill="#6495ED"/>
<rect x="711.2" y="244.7" width="6" height="6" fill="#6495ED"/>
<polyline fill="none" stroke="#4169E1" stroke-width="2" stroke-dasharray="8,5" points="406.0,106.0 445.4,121.7 484.2,138.7 522.8,156.0 561.2,173.3 637.7,208.2 676.0,228.2"/>
<rect x="403.0" y="103.0" width="6" height="6" fill="#4169E1"/>
<rect x="442.4" y="118.7" width="6" height="6" fill="#4169E1"/>
<rect x="481.2" y="135.7" width="6" height="6" fill="#4169E1"/>
<rect x="519.8" y="153.0" width="6" height="6" fill="#4169E1"/>
<rect x="558.2" y="170.3" width="6" height="6" fill="#4169E1"/>
<rect x="634.7" y="205.2" width="6" height="6" fill="#4169E1"/>
<rect x="673.0" y="225.2" width="6" height="6" fill="#4169E1"/>
<polyline fill="none" stroke="#1E3A8A" stroke-width="2" stroke-dasharray="8,5" points="366.0,91.5 406.0,106.0 484.2,138.7 522.8,156.0 561.2,173.3 599.5,191.3 637.7,208.2"/>
<rect x="363.0" y="88.5" width="6" height="6" fill="#1E3A8A"/>
<rect x="403.0" y="103.0" width="6" height="6" fill="#1E3A8A"/>
<rect x="481.2" y="135.7" width="6" height="6" fill="#1E3A8A"/>
<rect x="519.8" y="153.0" width="6" height="6" fill="#1E3A8A"/>
<rect x="558.2" y="170.3" width="6" height="6" fill="#1E3A8A"/>
<rect x="596.5" y="188.3" width="6" height="6" fill="#1E3A8A"/>
<rect x="634.7" y="205.2" width="6" height="6" fill="#1E3A8A"/>
<polyline fill="none" stroke="#0F1D45" stroke-width="2" stroke-dasharray="8,5" points="366.0,91.5 406.0,106.0 445.4,121.7 484.2,138.7 522.8,156.0 561.2,173.3 599.5,191.3"/>
<rect x="363.0" y="88.5" width="6" height="6" fill="#0F1D45"/>
<rect x="403.0" y="103.0" width="6" height="6" fill="#0F1D45"/>
<rect x="442.4" y="118.7" width="6" height="6" fill="#0F1D45"/>
<rect x="481.2" y="135.7" width="6" height="6" fill="#0F1D45"/>
<rect x="519.8" y="153.0" width="6" height="6" fill="#0F1D45"/>
<rect x="558.2" y="170.3" width="6" height="6" fill="#0F1D45"/>
<rect x="596.5" y="188.3" width="6" height="6" fill="#0F1D45"/>
<polyline fill="none" stroke="#22a06b" stroke-width="2" points="484.2,138.7 522.8,156.0 561.2,173.3 599.5,191.3 637.7,208.2 676.0,228.2 714.2,247.7"/>
<polygon points="484.2,134.7 488.2,138.7 484.2,142.7 480.2,138.7" fill="#22a06b"/>
<polygon points="522.8,152.0 526.8,156.0 522.8,160.0 518.8,156.0" fill="#22a06b"/>
<polygon points="561.2,169.3 565.2,173.3 561.2,177.3 557.2,173.3" fill="#22a06b"/>
<polygon points="599.5,187.3 603.5,191.3 599.5,195.3 595.5,191.3" fill="#22a06b"/>
<polygon points="637.7,204.2 641.7,208.2 637.7,212.2 633.7,208.2" fill="#22a06b"/>
<polygon points="676.0,224.2 680.0,228.2 676.0,232.2 672.0,228.2" fill="#22a06b"/>
<polygon points="714.2,243.7 718.2,247.7 714.2,251.7 710.2,247.7" fill="#22a06b"/>
<polyline fill="none" stroke="#e6a800" stroke-width="2" points="125.5,72.3 131.2,72.3 137.0,72.4 142.8,72.4 148.5,72.4 154.2,72.4 160.0,72.4"/>
<polygon points="125.5,68.3 129.5,75.3 121.5,75.3" fill="#e6a800"/>
<polygon points="131.2,68.3 135.2,75.3 127.2,75.3" fill="#e6a800"/>
<polygon points="137.0,68.4 141.0,75.4 133.0,75.4" fill="#e6a800"/>
<polygon points="142.8,68.4 146.8,75.4 138.8,75.4" fill="#e6a800"/>
<polygon points="148.5,68.4 152.5,75.4 144.5,75.4" fill="#e6a800"/>
<polygon points="154.2,68.4 158.2,75.4 150.2,75.4" fill="#e6a800"/>
<polygon points="160.0,68.4 164.0,75.4 156.0,75.4" fill="#e6a800"/>
<polyline fill="none" stroke="#9b59b6" stroke-width="2" points="565.0,188.5 603.4,205.2 641.6,224.1 679.9,244.3 718.1,265.5 794.6,368.6 832.8,521.7"/>
<polygon points="565.0,183.5 563.8,186.9 560.3,186.9 563.1,189.1 562.1,192.5 565.0,190.5 568.0,192.5 566.9,189.1 569.8,186.9 566.2,186.9" fill="#9b59b6"/>
<polygon points="603.4,200.2 602.2,203.5 598.6,203.6 601.5,205.8 600.4,209.2 603.4,207.2 606.3,209.2 605.3,205.8 608.1,203.6 604.6,203.5" fill="#9b59b6"/>
<polygon points="641.6,219.1 640.5,222.4 636.9,222.5 639.7,224.7 638.7,228.1 641.6,226.1 644.6,228.1 643.5,224.7 646.4,222.5 642.8,222.4" fill="#9b59b6"/>
<polygon points="679.9,239.3 678.7,242.7 675.1,242.8 678.0,244.9 676.9,248.3 679.9,246.3 682.8,248.3 681.8,244.9 684.6,242.8 681.1,242.7" fill="#9b59b6"/>
<polygon points="718.1,260.5 716.9,263.8 713.4,263.9 716.2,266.1 715.2,269.5 718.1,267.5 721.1,269.5 720.0,266.1 722.9,263.9 719.3,263.8" fill="#9b59b6"/>
<polygon points="794.6,363.6 793.4,367.0 789.8,367.0 792.7,369.2 791.7,372.6 794.6,370.6 797.5,372.6 796.5,369.2 799.3,367.0 795.8,367.0" fill="#9b59b6"/>
<polygon points="832.8,516.7 831.6,520.0 828.1,520.1 830.9,522.3 829.9,525.7 832.8,523.7 835.8,525.7 834.7,522.3 837.6,520.1 834.0,520.0" fill="#9b59b6"/>
<polyline fill="none" stroke="#e05d10" stroke-width="2" points="396.3,122.9 438.9,137.2 479.9,150.2 519.7,161.0 558.7,168.8 597.3,173.9 635.6,177.0"/>
<circle cx="396.3" cy="122.9" r="3" fill="#e05d10"/>
<circle cx="438.9" cy="137.2" r="3" fill="#e05d10"/>
<circle cx="479.9" cy="150.2" r="3" fill="#e05d10"/>
<circle cx="519.7" cy="161.0" r="3" fill="#e05d10"/>
<circle cx="558.7" cy="168.8" r="3" fill="#e05d10"/>
<circle cx="597.3" cy="173.9" r="3" fill="#e05d10"/>
<circle cx="635.6" cy="177.0" r="3" fill="#e05d10"/>
<polyline fill="none" stroke="#888888" stroke-width="2" stroke-dasharray="8,5" points="464.3,124.6 521.4,141.7 595.5,165.7 651.0,182.3 706.3,199.4 779.4,223.8 834.5,238.8"/>
<circle cx="464.3" cy="124.6" r="3" fill="#888888"/>
<circle cx="521.4" cy="141.7" r="3" fill="#888888"/>
<circle cx="595.5" cy="165.7" r="3" fill="#888888"/>
<circle cx="651.0" cy="182.3" r="3" fill="#888888"/>
<circle cx="706.3" cy="199.4" r="3" fill="#888888"/>
<circle cx="779.4" cy="223.8" r="3" fill="#888888"/>
<circle cx="834.5" cy="238.8" r="3" fill="#888888"/>
<line x1="886" y1="60" x2="902" y2="60" stroke="#ef4444" stroke-width="2" stroke-dasharray="8,5"/>
<circle cx="894.0" cy="60.0" r="3" fill="#ef4444"/>
<text class="label" x="908" y="64">Theoretical</text>
<line x1="886" y1="78" x2="902" y2="78" stroke="#2a7fff" stroke-width="2"/>
<rect x="891.0" y="75.0" width="6" height="6" fill="#2a7fff"/>
<text class="label" x="908" y="82">Adaptive (t=0)</text>
<line x1="886" y1="96" x2="902" y2="96" stroke="#6495ED" stroke-width="2" stroke-dasharray="8,5"/>
<rect x="891.0" y="93.0" width="6" height="6" fill="#6495ED"/>
<text class="label" x="908" y="100">Adaptive (t=1)</text>
<line x1="886" y1="114" x2="902" y2="114" stroke="#4169E1" stroke-width="2" stroke-dasharray="8,5"/>
<rect x="891.0" y="111.0" width="6" height="6" fill="#4169E1"/>
<text class="label" x="908" y="118">Adaptive (t=2)</text>
<line x1="886" y1="132" x2="902" y2="132" stroke="#1E3A8A" stroke-width="2" stroke-dasharray="8,5"/>
<rect x="891.0" y="129.0" width="6" height="6" fill="#1E3A8A"/>
<text class="label" x="908" y="136">Adaptive (t=3)</text>
<line x1="886" y1="150" x2="902" y2="150" stroke="#0F1D45" stroke-width="2" stroke-dasharray="8,5"/>
<rect x="891.0" y="147.0" width="6" height="6" fill="#0F1D45"/>
<text class="label" x="908" y="154">Adaptive (t=4)</text>
<line x1="886" y1="168" x2="902" y2="168" stroke="#22a06b" stroke-width="2"/>
<polygon points="894.0,164.0 898.0,168.0 894.0,172.0 890.0,168.0" fill="#22a06b"/>
<text class="label" x="908" y="172">SODA</text>
<line x1="886" y1="186" x2="902" y2="186" stroke="#e6a800" stroke-width="2"/>
<polygon points="894.0,182.0 898.0,189.0 890.0,189.0" fill="#e6a800"/>
<text class="label" x="908" y="190">Truncation</text>
<line x1="886" y1="204" x2="902" y2="204" stroke="#9b59b6" stroke-width="2"/>
<polygon points="894.0,199.0 892.8,202.4 889.2,202.5 892.1,204.6 891.1,208.0 894.0,206.0 896.9,208.0 895.9,204.6 898.8,202.5 895.2,202.4" fill="#9b59b6"/>
<text class="label" x="908" y="208">Hybrid</text>
<line x1="886" y1="222" x2="902" y2="222" stroke="#e05d10" stroke-width="2"/>
<circle cx="894.0" cy="222.0" r="3" fill="#e05d10"/>
<text class="label" x="908" y="226">CDF-ARE</text>
<line x1="886" y1="240" x2="902" y2="240" stroke="#888888" stroke-width="2" stroke-dasharray="8,5"/>
<circle cx="894.0" cy="240.0" r="3" fill="#888888"/>
<text class="label" x="908" y="244">Bloom V3</text>
<text x="480" y="590" text-anchor="middle">Bits per Key (BPK)</text>
<text transform="translate(16,295) rotate(-90)" text-anchor="middle">False Positive Rate (FPR)</text>
</svg>
