<svg xmlns="http://www.w3.org/2000/svg" width="1020" height="600" viewBox="0 0 1020 600">
<style>text{font-family:Menlo,Monaco,monospace;font-size:12px;fill:#222} .axis{stroke:#333;stroke-width:1} .grid{stroke:#eee;stroke-width:0.5} .label{font-size:11px;fill:#444}</style>
<text x="510" y="28" text-anchor="middle" style="font-size:14px;font-weight:bold">Build Time per Key (ε=0.010, L=100)</text>
<line class="axis" x1="90.0" y1="550.0" x2="870.0" y2="550.0"/>
<line class="axis" x1="90.0" y1="40.0" x2="90.0" y2="550.0"/>
<line class="grid" x1="90.0" y1="499.0" x2="870.0" y2="499.0"/>
<text class="label" x="82.0" y="503.0" text-anchor="end">10</text>
<line class="grid" x1="90.0" y1="397.0" x2="870.0" y2="397.0"/>
<text class="label" x="82.0" y="401.0" text-anchor="end">100</text>
<line class="grid" x1="90.0" y1="295.0" x2="870.0" y2="295.0"/>
<text class="label" x="82.0" y="299.0" text-anchor="end">1K</text>
<line class="grid" x1="90.0" y1="193.0" x2="870.0" y2="193.0"/>
<text class="label" x="82.0" y="197.0" text-anchor="end">10K</text>
<line class="grid" x1="90.0" y1="91.0" x2="870.0" y2="91.0"/>
<text class="label" x="82.0" y="95.0" text-anchor="end">100K</text>
<line class="grid" x1="90.0" y1="40.0" x2="90.0" y2="550.0"/>
<text class="label" x="90.0" y="566.0" text-anchor="middle">1K</text>
<line class="grid" x1="285.0" y1="40.0" x2="285.0" y2="550.0"/>
<text class="label" x="285.0" y="566.0" text-anchor="middle">10K</text>
<line class="grid" x1="480.0" y1="40.0" x2="480.0" y2="550.0"/>
<text class="label" x="480.0" y="566.0" text-anchor="middle">100K</text>
<line class="grid" x1="675.0" y1="40.0" x2="675.0" y2="550.0"/>
<text class="label" x="675.0" y="566.0" text-anchor="middle">1M</text>
<polyline fill="none" stroke="#2a7fff" stroke-width="2" points="92.0,331.6 209.4,336.3 326.8,336.4 444.2,362.0 561.6,364.8 679.0,360.6"/>
<rect x="89.0" y="328.6" width="6" height="6" fill="#2a7fff"/>
<rect x="206.4" y="333.3" width="6" height="6" fill="#2a7fff"/>
<rect x="323.8" y="333.4" width="6" height="6" fill="#2a7fff"/>
<rect x="441.2" y="359.0" width="6" height="6" fill="#2a7fff"/>
<rect x="558.6" y="361.8" width="6" height="6" fill="#2a7fff"/>
<rect x="676.0" y="357.6" width="6" height="6" fill="#2a7fff"/>
<polyline fill="none" stroke="#22a06b" stroke-width="2" points="92.0,376.7 209.4,376.9 326.8,376.7 444.2,374.3 561.6,368.4 679.0,368.3"/>
<polygon points="92.0,372.7 96.0,376.7 92.0,380.7 88.0,376.7" fill="#22a06b"/>
<polygon points="209.4,372.9 213.4,376.9 209.4,380.9 205.4,376.9" fill="#22a06b"/>
<polygon points="326.8,372.7 330.8,376.7 326.8,380.7 322.8,376.7" fill="#22a06b"/>
<polygon points="444.2,370.3 448.2,374.3 444.2,378.3 440.2,374.3" fill="#22a06b"/>
<polygon points="561.6,364.4 565.6,368.4 561.6,372.4 557.6,368.4" fill="#22a06b"/>
<polygon points="679.0,364.3 683.0,368.3 679.0,372.3 675.0,368.3" fill="#22a06b"/>
<polyline fill="none" stroke="#e6a800" stroke-width="2" points="92.0,486.1 209.4,494.1 326.8,493.3 444.2,495.1 561.6,488.8 679.0,485.3"/>
<polygon points="92.0,482.1 96.0,489.1 88.0,489.1" fill="#e6a800"/>
<polygon points="209.4,490.1 213.4,497.1 205.4,497.1" fill="#e6a800"/>
<polygon points="326.8,489.3 330.8,496.3 322.8,496.3" fill="#e6a800"/>
<polygon points="444.2,491.1 448.2,498.1 440.2,498.1" fill="#e6a800"/>
<polygon points="561.6,484.8 565.6,491.8 557.6,491.8" fill="#e6a800"/>
<polygon points="679.0,481.3 683.0,488.3 675.0,488.3" fill="#e6a800"/>
<polyline fill="none" stroke="#9b59b6" stroke-width="2" points="92.0,359.9 209.4,362.7 326.8,360.7 444.2,365.9 561.6,384.2 679.0,374.0"/>
<polygon points="92.0,354.9 90.8,358.3 87.3,358.4 90.1,360.6 89.1,364.0 92.0,361.9 94.9,364.0 93.9,360.6 96.8,358.4 93.2,358.3" fill="#9b59b6"/>
<polygon points="209.4,357.7 208.2,361.1 204.7,361.2 207.5,363.3 206.5,366.8 209.4,364.7 212.3,366.8 211.3,363.3 214.2,361.2 210.6,361.1" fill="#9b59b6"/>
<polygon points="326.8,355.7 325.6,359.1 322.1,359.1 324.9,361.3 323.9,364.7 326.8,362.7 329.8,364.7 328.7,361.3 331.6,359.1 328.0,359.1" fill="#9b59b6"/>
<polygon points="444.2,360.9 443.0,364.3 439.5,364.4 442.3,366.5 441.3,370.0 444.2,367.9 447.2,370.0 446.1,366.5 449.0,364.4 445.4,364.3" fill="#9b59b6"/>
<polygon points="561.6,379.2 560.4,382.5 556.9,382.6 559.7,384.8 558.7,388.2 561.6,386.2 564.6,388.2 563.5,384.8 566.4,382.6 562.8,382.5" fill="#9b59b6"/>
<polygon points="679.0,369.0 677.8,372.4 674.3,372.5 677.1,374.6 676.1,378.1 679.0,376.0 682.0,378.1 680.9,374.6 683.8,372.5 680.2,372.4" fill="#9b59b6"/>
<polyline fill="none" stroke="#e05d10" stroke-width="2" points="92.0,222.9 209.4,226.2 326.8,232.4 444.2,255.5 561.6,268.4 679.0,128.1"/>
<circle cx="92.0" cy="222.9" r="3" fill="#e05d10"/>
<circle cx="209.4" cy="226.2" r="3" fill="#e05d10"/>
<circle cx="326.8" cy="232.4" r="3" fill="#e05d10"/>
<circle cx="444.2" cy="255.5" r="3" fill="#e05d10"/>
<circle cx="561.6" cy="268.4" r="3" fill="#e05d10"/>
<circle cx="679.0" cy="128.1" r="3" fill="#e05d10"/>
<polyline fill="none" stroke="#888888" stroke-width="2" stroke-dasharray="8,5" points="92.0,425.6 209.4,429.8 326.8,429.8 444.2,428.5 561.6,420.0 679.0,420.1"/>
<circle cx="92.0" cy="425.6" r="3" fill="#888888"/>
<circle cx="209.4" cy="429.8" r="3" fill="#888888"/>
<circle cx="326.8" cy="429.8" r="3" fill="#888888"/>
<circle cx="444.2" cy="428.5" r="3" fill="#888888"/>
<circle cx="561.6" cy="420.0" r="3" fill="#888888"/>
<circle cx="679.0" cy="420.1" r="3" fill="#888888"/>
<line x1="886" y1="60" x2="902" y2="60" stroke="#2a7fff" stroke-width="2"/>
<rect x="891.0" y="57.0" width="6" height="6" fill="#2a7fff"/>
<text class="label" x="908" y="64">Adaptive(t=0)</text>
<line x1="886" y1="78" x2="902" y2="78" stroke="#22a06b" stroke-width="2"/>
<polygon points="894.0,74.0 898.0,78.0 894.0,82.0 890.0,78.0" fill="#22a06b"/>
<text class="label" x="908" y="82">SODA</text>
<line x1="886" y1="96" x2="902" y2="96" stroke="#e6a800" stroke-width="2"/>
<polygon points="894.0,92.0 898.0,99.0 890.0,99.0" fill="#e6a800"/>
<text class="label" x="908" y="100">Truncation</text>
<line x1="886" y1="114" x2="902" y2="114" stroke="#9b59b6" stroke-width="2"/>
<polygon points="894.0,109.0 892.8,112.4 889.2,112.5 892.1,114.6 891.1,118.0 894.0,116.0 896.9,118.0 895.9,114.6 898.8,112.5 895.2,112.4" fill="#9b59b6"/>
<text class="label" x="908" y="118">Hybrid</text>
<line x1="886" y1="132" x2="902" y2="132" stroke="#e05d10" stroke-width="2"/>
<circle cx="894.0" cy="132.0" r="3" fill="#e05d10"/>
<text class="label" x="908" y="136">CDF-ARE</text>
<line x1="886" y1="150" x2="902" y2="150" stroke="#888888" stroke-width="2" stroke-dasharray="8,5"/>
<circle cx="894.0" cy="150.0" r="3" fill="#888888"/>
<text class="label" x="908" y="154">Bloom V3</text>
<text x="480" y="590" text-anchor="middle">Number of Keys (n)</text>
<text transform="translate(16,295) rotate(-90)" text-anchor="middle">Build Time (ns/key)</text>
</svg>
