<svg xmlns="http://www.w3.org/2000/svg" width="960" height="600" viewBox="0 0 960 600">
<style>text{font-family:Menlo,Monaco,monospace;font-size:12px;fill:#222} .axis{stroke:#333;stroke-width:1} .grid{stroke:#eee;stroke-width:0.5} .label{font-size:11px;fill:#444}</style>
<text x="480" y="28" text-anchor="middle" style="font-size:14px;font-weight:bold">Build Time per Key (ε=0.010, L=100)</text>
<line class="axis" x1="90.0" y1="550.0" x2="920.0" y2="550.0"/>
<line class="axis" x1="90.0" y1="40.0" x2="90.0" y2="550.0"/>
<line class="grid" x1="90.0" y1="550.0" x2="920.0" y2="550.0"/>
<text class="label" x="82.0" y="554.0" text-anchor="end">0</text>
<line class="grid" x1="90.0" y1="460.6" x2="920.0" y2="460.6"/>
<text class="label" x="82.0" y="464.6" text-anchor="end">10K</text>
<line class="grid" x1="90.0" y1="371.3" x2="920.0" y2="371.3"/>
<text class="label" x="82.0" y="375.3" text-anchor="end">20K</text>
<line class="grid" x1="90.0" y1="281.9" x2="920.0" y2="281.9"/>
<text class="label" x="82.0" y="285.9" text-anchor="end">30K</text>
<line class="grid" x1="90.0" y1="192.6" x2="920.0" y2="192.6"/>
<text class="label" x="82.0" y="196.6" text-anchor="end">40K</text>
<line class="grid" x1="90.0" y1="103.2" x2="920.0" y2="103.2"/>
<text class="label" x="82.0" y="107.2" text-anchor="end">50K</text>
<line class="grid" x1="90.0" y1="40.0" x2="90.0" y2="550.0"/>
<text class="label" x="90.0" y="566.0" text-anchor="middle">1K</text>
<line class="grid" x1="297.5" y1="40.0" x2="297.5" y2="550.0"/>
<text class="label" x="297.5" y="566.0" text-anchor="middle">10K</text>
<line class="grid" x1="505.0" y1="40.0" x2="505.0" y2="550.0"/>
<text class="label" x="505.0" y="566.0" text-anchor="middle">100K</text>
<line class="grid" x1="712.5" y1="40.0" x2="712.5" y2="550.0"/>
<text class="label" x="712.5" y="566.0" text-anchor="middle">1M</text>
<line class="grid" x1="920.0" y1="40.0" x2="920.0" y2="550.0"/>
<text class="label" x="920.0" y="566.0" text-anchor="middle">10^7</text>
<polyline fill="none" stroke="#2a7fff" stroke-width="2" points="92.1,548.2 217.1,548.4 342.0,548.3 466.9,548.3 591.8,548.1 716.8,548.1"/>
<rect x="89.1" y="545.2" width="6" height="6" fill="#2a7fff"/>
<rect x="214.1" y="545.4" width="6" height="6" fill="#2a7fff"/>
<rect x="339.0" y="545.3" width="6" height="6" fill="#2a7fff"/>
<rect x="463.9" y="545.3" width="6" height="6" fill="#2a7fff"/>
<rect x="588.8" y="545.1" width="6" height="6" fill="#2a7fff"/>
<rect x="713.8" y="545.1" width="6" height="6" fill="#2a7fff"/>
<polyline fill="none" stroke="#22a06b" stroke-width="2" points="92.1,548.6 217.1,548.6 342.0,548.5 466.9,548.6 591.8,548.3 716.8,548.3"/>
<polygon points="92.1,544.6 96.1,548.6 92.1,552.6 88.1,548.6" fill="#22a06b"/>
<polygon points="217.1,544.6 221.1,548.6 217.1,552.6 213.1,548.6" fill="#22a06b"/>
<polygon points="342.0,544.5 346.0,548.5 342.0,552.5 338.0,548.5" fill="#22a06b"/>
<polygon points="466.9,544.6 470.9,548.6 466.9,552.6 462.9,548.6" fill="#22a06b"/>
<polygon points="591.8,544.3 595.8,548.3 591.8,552.3 587.8,548.3" fill="#22a06b"/>
<polygon points="716.8,544.3 720.8,548.3 716.8,552.3 712.8,548.3" fill="#22a06b"/>
<polyline fill="none" stroke="#e6a800" stroke-width="2" points="92.1,549.9 217.1,549.9 342.0,549.9 466.9,549.9 591.8,549.9 716.8,549.9"/>
<polygon points="92.1,545.9 96.1,552.9 88.1,552.9" fill="#e6a800"/>
<polygon points="217.1,545.9 221.1,552.9 213.1,552.9" fill="#e6a800"/>
<polygon points="342.0,545.9 346.0,552.9 338.0,552.9" fill="#e6a800"/>
<polygon points="466.9,545.9 470.9,552.9 462.9,552.9" fill="#e6a800"/>
<polygon points="591.8,545.9 595.8,552.9 587.8,552.9" fill="#e6a800"/>
<polygon points="716.8,545.9 720.8,552.9 712.8,552.9" fill="#e6a800"/>
<polyline fill="none" stroke="#9b59b6" stroke-width="2" points="92.1,547.8 217.1,548.1 342.0,548.0 466.9,548.2 591.8,548.8 716.8,548.5"/>
<polygon points="92.1,542.8 91.0,546.2 87.4,546.3 90.2,548.4 89.2,551.9 92.1,549.8 95.1,551.9 94.0,548.4 96.9,546.3 93.3,546.2" fill="#9b59b6"/>
<polygon points="217.1,543.1 215.9,546.5 212.3,546.6 215.2,548.7 214.1,552.2 217.1,550.1 220.0,552.2 219.0,548.7 221.8,546.6 218.2,546.5" fill="#9b59b6"/>
<polygon points="342.0,543.0 340.8,546.4 337.2,546.5 340.1,548.6 339.1,552.1 342.0,550.0 344.9,552.1 343.9,548.6 346.7,546.5 343.2,546.4" fill="#9b59b6"/>
<polygon points="466.9,543.2 465.7,546.6 462.2,546.7 465.0,548.8 464.0,552.3 466.9,550.2 469.9,552.3 468.8,548.8 471.7,546.7 468.1,546.6" fill="#9b59b6"/>
<polygon points="591.8,543.8 590.7,547.2 587.1,547.3 589.9,549.4 588.9,552.9 591.8,550.8 594.8,552.9 593.7,549.4 596.6,547.3 593.0,547.2" fill="#9b59b6"/>
<polygon points="716.8,543.5 715.6,546.9 712.0,547.0 714.9,549.1 713.8,552.6 716.8,550.5 719.7,552.6 718.7,549.1 721.5,547.0 718.0,546.9" fill="#9b59b6"/>
<polyline fill="none" stroke="#e05d10" stroke-width="2" points="92.1,503.2 217.1,509.4 342.0,514.2 466.9,529.4 591.8,534.5 716.8,86.4"/>
<circle cx="92.1" cy="503.2" r="3" fill="#e05d10"/>
<circle cx="217.1" cy="509.4" r="3" fill="#e05d10"/>
<circle cx="342.0" cy="514.2" r="3" fill="#e05d10"/>
<circle cx="466.9" cy="529.4" r="3" fill="#e05d10"/>
<circle cx="591.8" cy="534.5" r="3" fill="#e05d10"/>
<circle cx="716.8" cy="86.4" r="3" fill="#e05d10"/>
<line x1="700" y1="60" x2="716" y2="60" stroke="#2a7fff" stroke-width="2"/>
<rect x="705.0" y="57.0" width="6" height="6" fill="#2a7fff"/>
<text class="label" x="722" y="64">Adaptive(t=0)</text>
<line x1="700" y1="78" x2="716" y2="78" stroke="#22a06b" stroke-width="2"/>
<polygon points="708.0,74.0 712.0,78.0 708.0,82.0 704.0,78.0" fill="#22a06b"/>
<text class="label" x="722" y="82">SODA</text>
<line x1="700" y1="96" x2="716" y2="96" stroke="#e6a800" stroke-width="2"/>
<polygon points="708.0,92.0 712.0,99.0 704.0,99.0" fill="#e6a800"/>
<text class="label" x="722" y="100">Truncation</text>
<line x1="700" y1="114" x2="716" y2="114" stroke="#9b59b6" stroke-width="2"/>
<polygon points="708.0,109.0 706.8,112.4 703.2,112.5 706.1,114.6 705.1,118.0 708.0,116.0 710.9,118.0 709.9,114.6 712.8,112.5 709.2,112.4" fill="#9b59b6"/>
<text class="label" x="722" y="118">Hybrid</text>
<line x1="700" y1="132" x2="716" y2="132" stroke="#e05d10" stroke-width="2"/>
<circle cx="708.0" cy="132.0" r="3" fill="#e05d10"/>
<text class="label" x="722" y="136">CDF-ARE</text>
<text x="505" y="590" text-anchor="middle">Number of Keys (n)</text>
<text transform="translate(16,295) rotate(-90)" text-anchor="middle">Build Time (ns/key)</text>
</svg>
