<svg xmlns="http://www.w3.org/2000/svg" width="1020" height="600" viewBox="0 0 1020 600">
<style>text{font-family:Menlo,Monaco,monospace;font-size:12px;fill:#222} .axis{stroke:#333;stroke-width:1} .grid{stroke:#eee;stroke-width:0.5} .label{font-size:11px;fill:#444}</style>
<text x="510" y="28" text-anchor="middle" style="font-size:14px;font-weight:bold">Build Time per Key (ε=0.010, L=100)</text>
<line class="axis" x1="90.0" y1="550.0" x2="870.0" y2="550.0"/>
<line class="axis" x1="90.0" y1="40.0" x2="90.0" y2="550.0"/>
<line class="grid" x1="90.0" y1="499.0" x2="870.0" y2="499.0"/>
<text class="label" x="82.0" y="503.0" text-anchor="end">10</text>
<line class="grid" x1="90.0" y1="397.0" x2="870.0" y2="397.0"/>
<text class="label" x="82.0" y="401.0" text-anchor="end">100</text>
<line class="grid" x1="90.0" y1="295.0" x2="870.0" y2="295.0"/>
<text class="label" x="82.0" y="299.0" text-anchor="end">1K</text>
<line class="grid" x1="90.0" y1="193.0" x2="870.0" y2="193.0"/>
<text class="label" x="82.0" y="197.0" text-anchor="end">10K</text>
<line class="grid" x1="90.0" y1="91.0" x2="870.0" y2="91.0"/>
<text class="label" x="82.0" y="95.0" text-anchor="end">100K</text>
<line class="grid" x1="90.0" y1="40.0" x2="90.0" y2="550.0"/>
<text class="label" x="90.0" y="566.0" text-anchor="middle">1K</text>
<line class="grid" x1="285.0" y1="40.0" x2="285.0" y2="550.0"/>
<text class="label" x="285.0" y="566.0" text-anchor="middle">10K</text>
<line class="grid" x1="480.0" y1="40.0" x2="480.0" y2="550.0"/>
<text class="label" x="480.0" y="566.0" text-anchor="middle">100K</text>
<line class="grid" x1="675.0" y1="40.0" x2="675.0" y2="550.0"/>
<text class="label" x="675.0" y="566.0" text-anchor="middle">1M</text>
<polyline fill="none" stroke="#2a7fff" stroke-width="2" points="92.0,374.3 209.4,373.6 326.8,371.3 444.2,372.2 561.6,366.8 679.0,367.1"/>
<rect x="89.0" y="371.3" width="6" height="6" fill="#2a7fff"/>
<rect x="206.4" y="370.6" width="6" height="6" fill="#2a7fff"/>
<rect x="323.8" y="368.3" width="6" height="6" fill="#2a7fff"/>
<rect x="441.2" y="369.2" width="6" height="6" fill="#2a7fff"/>
<rect x="558.6" y="363.8" width="6" height="6" fill="#2a7fff"/>
<rect x="676.0" y="364.1" width="6" height="6" fill="#2a7fff"/>
<polyline fill="none" stroke="#22a06b" stroke-width="2" points="92.0,379.9 209.4,378.6 326.8,377.6 444.2,373.4 561.6,369.0 679.0,373.0"/>
<polygon points="92.0,375.9 96.0,379.9 92.0,383.9 88.0,379.9" fill="#22a06b"/>
<polygon points="209.4,374.6 213.4,378.6 209.4,382.6 205.4,378.6" fill="#22a06b"/>
<polygon points="326.8,373.6 330.8,377.6 326.8,381.6 322.8,377.6" fill="#22a06b"/>
<polygon points="444.2,369.4 448.2,373.4 444.2,377.4 440.2,373.4" fill="#22a06b"/>
<polygon points="561.6,365.0 565.6,369.0 561.6,373.0 557.6,369.0" fill="#22a06b"/>
<polygon points="679.0,369.0 683.0,373.0 679.0,377.0 675.0,373.0" fill="#22a06b"/>
<polyline fill="none" stroke="#e6a800" stroke-width="2" points="92.0,446.5 209.4,460.4 326.8,456.5 444.2,457.8 561.6,457.5 679.0,456.8"/>
<polygon points="92.0,442.5 96.0,449.5 88.0,449.5" fill="#e6a800"/>
<polygon points="209.4,456.4 213.4,463.4 205.4,463.4" fill="#e6a800"/>
<polygon points="326.8,452.5 330.8,459.5 322.8,459.5" fill="#e6a800"/>
<polygon points="444.2,453.8 448.2,460.8 440.2,460.8" fill="#e6a800"/>
<polygon points="561.6,453.5 565.6,460.5 557.6,460.5" fill="#e6a800"/>
<polygon points="679.0,452.8 683.0,459.8 675.0,459.8" fill="#e6a800"/>
<polyline fill="none" stroke="#9b59b6" stroke-width="2" points="92.0,364.5 209.4,385.3 326.8,377.6 444.2,378.0 561.6,405.7 679.0,409.3"/>
<polygon points="92.0,359.5 90.8,362.9 87.3,363.0 90.1,365.1 89.1,368.6 92.0,366.5 94.9,368.6 93.9,365.1 96.8,363.0 93.2,362.9" fill="#9b59b6"/>
<polygon points="209.4,380.3 208.2,383.7 204.7,383.7 207.5,385.9 206.5,389.3 209.4,387.3 212.3,389.3 211.3,385.9 214.2,383.7 210.6,383.7" fill="#9b59b6"/>
<polygon points="326.8,372.6 325.6,376.0 322.1,376.0 324.9,378.2 323.9,381.6 326.8,379.6 329.8,381.6 328.7,378.2 331.6,376.0 328.0,376.0" fill="#9b59b6"/>
<polygon points="444.2,373.0 443.0,376.4 439.5,376.4 442.3,378.6 441.3,382.0 444.2,380.0 447.2,382.0 446.1,378.6 449.0,376.4 445.4,376.4" fill="#9b59b6"/>
<polygon points="561.6,400.7 560.4,404.1 556.9,404.2 559.7,406.4 558.7,409.8 561.6,407.7 564.6,409.8 563.5,406.4 566.4,404.2 562.8,404.1" fill="#9b59b6"/>
<polygon points="679.0,404.3 677.8,407.7 674.3,407.8 677.1,410.0 676.1,413.4 679.0,411.3 682.0,413.4 680.9,410.0 683.8,407.8 680.2,407.7" fill="#9b59b6"/>
<polyline fill="none" stroke="#e05d10" stroke-width="2" points="92.0,220.1 209.4,212.3 326.8,221.6 444.2,259.5 561.6,272.5 679.0,165.3"/>
<circle cx="92.0" cy="220.1" r="3" fill="#e05d10"/>
<circle cx="209.4" cy="212.3" r="3" fill="#e05d10"/>
<circle cx="326.8" cy="221.6" r="3" fill="#e05d10"/>
<circle cx="444.2" cy="259.5" r="3" fill="#e05d10"/>
<circle cx="561.6" cy="272.5" r="3" fill="#e05d10"/>
<circle cx="679.0" cy="165.3" r="3" fill="#e05d10"/>
<polyline fill="none" stroke="#888888" stroke-width="2" stroke-dasharray="8,5" points="92.0,428.1 209.4,433.9 326.8,434.1 444.2,431.8 561.6,426.8 679.0,421.8"/>
<circle cx="92.0" cy="428.1" r="3" fill="#888888"/>
<circle cx="209.4" cy="433.9" r="3" fill="#888888"/>
<circle cx="326.8" cy="434.1" r="3" fill="#888888"/>
<circle cx="444.2" cy="431.8" r="3" fill="#888888"/>
<circle cx="561.6" cy="426.8" r="3" fill="#888888"/>
<circle cx="679.0" cy="421.8" r="3" fill="#888888"/>
<line x1="886" y1="60" x2="902" y2="60" stroke="#2a7fff" stroke-width="2"/>
<rect x="891.0" y="57.0" width="6" height="6" fill="#2a7fff"/>
<text class="label" x="908" y="64">Adaptive(t=0)</text>
<line x1="886" y1="78" x2="902" y2="78" stroke="#22a06b" stroke-width="2"/>
<polygon points="894.0,74.0 898.0,78.0 894.0,82.0 890.0,78.0" fill="#22a06b"/>
<text class="label" x="908" y="82">SODA</text>
<line x1="886" y1="96" x2="902" y2="96" stroke="#e6a800" stroke-width="2"/>
<polygon points="894.0,92.0 898.0,99.0 890.0,99.0" fill="#e6a800"/>
<text class="label" x="908" y="100">Truncation</text>
<line x1="886" y1="114" x2="902" y2="114" stroke="#9b59b6" stroke-width="2"/>
<polygon points="894.0,109.0 892.8,112.4 889.2,112.5 892.1,114.6 891.1,118.0 894.0,116.0 896.9,118.0 895.9,114.6 898.8,112.5 895.2,112.4" fill="#9b59b6"/>
<text class="label" x="908" y="118">Hybrid</text>
<line x1="886" y1="132" x2="902" y2="132" stroke="#e05d10" stroke-width="2"/>
<circle cx="894.0" cy="132.0" r="3" fill="#e05d10"/>
<text class="label" x="908" y="136">CDF-ARE</text>
<line x1="886" y1="150" x2="902" y2="150" stroke="#888888" stroke-width="2" stroke-dasharray="8,5"/>
<circle cx="894.0" cy="150.0" r="3" fill="#888888"/>
<text class="label" x="908" y="154">Bloom V3</text>
<text x="480" y="590" text-anchor="middle">Number of Keys (n)</text>
<text transform="translate(16,295) rotate(-90)" text-anchor="middle">Build Time (ns/key)</text>
</svg>
