<svg xmlns="http://www.w3.org/2000/svg" width="1020" height="600" viewBox="0 0 1020 600">
<style>text{font-family:Menlo,Monaco,monospace;font-size:12px;fill:#222} .axis{stroke:#333;stroke-width:1} .grid{stroke:#eee;stroke-width:0.5} .label{font-size:11px;fill:#444}</style>
<text x="510" y="28" text-anchor="middle" style="font-size:14px;font-weight:bold">Query Time vs Range Length (n=65536, ε=0.010)</text>
<line class="axis" x1="90.0" y1="550.0" x2="870.0" y2="550.0"/>
<line class="axis" x1="90.0" y1="40.0" x2="90.0" y2="550.0"/>
<line class="grid" x1="90.0" y1="550.0" x2="870.0" y2="550.0"/>
<text class="label" x="82.0" y="554.0" text-anchor="end">0</text>
<line class="grid" x1="90.0" y1="492.6" x2="870.0" y2="492.6"/>
<text class="label" x="82.0" y="496.6" text-anchor="end">50</text>
<line class="grid" x1="90.0" y1="435.2" x2="870.0" y2="435.2"/>
<text class="label" x="82.0" y="439.2" text-anchor="end">100</text>
<line class="grid" x1="90.0" y1="377.8" x2="870.0" y2="377.8"/>
<text class="label" x="82.0" y="381.8" text-anchor="end">150</text>
<line class="grid" x1="90.0" y1="320.4" x2="870.0" y2="320.4"/>
<text class="label" x="82.0" y="324.4" text-anchor="end">200</text>
<line class="grid" x1="90.0" y1="263.0" x2="870.0" y2="263.0"/>
<text class="label" x="82.0" y="267.0" text-anchor="end">250</text>
<line class="grid" x1="90.0" y1="205.6" x2="870.0" y2="205.6"/>
<text class="label" x="82.0" y="209.6" text-anchor="end">300</text>
<line class="grid" x1="90.0" y1="148.2" x2="870.0" y2="148.2"/>
<text class="label" x="82.0" y="152.2" text-anchor="end">350</text>
<line class="grid" x1="90.0" y1="90.8" x2="870.0" y2="90.8"/>
<text class="label" x="82.0" y="94.8" text-anchor="end">400</text>
<line class="grid" x1="90.0" y1="40.0" x2="90.0" y2="550.0"/>
<text class="label" x="90.0" y="566.0" text-anchor="middle">1</text>
<line class="grid" x1="285.0" y1="40.0" x2="285.0" y2="550.0"/>
<text class="label" x="285.0" y="566.0" text-anchor="middle">10</text>
<line class="grid" x1="480.0" y1="40.0" x2="480.0" y2="550.0"/>
<text class="label" x="480.0" y="566.0" text-anchor="middle">100</text>
<line class="grid" x1="675.0" y1="40.0" x2="675.0" y2="550.0"/>
<text class="label" x="675.0" y="566.0" text-anchor="middle">1K</text>
<polyline fill="none" stroke="#2a7fff" stroke-width="2" points="90.0,122.3 148.7,132.6 207.4,134.6 266.1,116.7 324.8,160.6 383.5,174.2 442.2,169.8 500.9,180.0 559.6,192.9 618.3,201.4 677.0,179.1"/>
<rect x="87.0" y="119.3" width="6" height="6" fill="#2a7fff"/>
<rect x="145.7" y="129.6" width="6" height="6" fill="#2a7fff"/>
<rect x="204.4" y="131.6" width="6" height="6" fill="#2a7fff"/>
<rect x="263.1" y="113.7" width="6" height="6" fill="#2a7fff"/>
<rect x="321.8" y="157.6" width="6" height="6" fill="#2a7fff"/>
<rect x="380.5" y="171.2" width="6" height="6" fill="#2a7fff"/>
<rect x="439.2" y="166.8" width="6" height="6" fill="#2a7fff"/>
<rect x="497.9" y="177.0" width="6" height="6" fill="#2a7fff"/>
<rect x="556.6" y="189.9" width="6" height="6" fill="#2a7fff"/>
<rect x="615.3" y="198.4" width="6" height="6" fill="#2a7fff"/>
<rect x="674.0" y="176.1" width="6" height="6" fill="#2a7fff"/>
<polyline fill="none" stroke="#22a06b" stroke-width="2" points="90.0,188.3 148.7,186.8 207.4,212.0 266.1,217.3 324.8,237.5 383.5,244.9 442.2,236.6 500.9,246.5 559.6,267.8 618.3,279.7 677.0,254.1"/>
<polygon points="90.0,184.3 94.0,188.3 90.0,192.3 86.0,188.3" fill="#22a06b"/>
<polygon points="148.7,182.8 152.7,186.8 148.7,190.8 144.7,186.8" fill="#22a06b"/>
<polygon points="207.4,208.0 211.4,212.0 207.4,216.0 203.4,212.0" fill="#22a06b"/>
<polygon points="266.1,213.3 270.1,217.3 266.1,221.3 262.1,217.3" fill="#22a06b"/>
<polygon points="324.8,233.5 328.8,237.5 324.8,241.5 320.8,237.5" fill="#22a06b"/>
<polygon points="383.5,240.9 387.5,244.9 383.5,248.9 379.5,244.9" fill="#22a06b"/>
<polygon points="442.2,232.6 446.2,236.6 442.2,240.6 438.2,236.6" fill="#22a06b"/>
<polygon points="500.9,242.5 504.9,246.5 500.9,250.5 496.9,246.5" fill="#22a06b"/>
<polygon points="559.6,263.8 563.6,267.8 559.6,271.8 555.6,267.8" fill="#22a06b"/>
<polygon points="618.3,275.7 622.3,279.7 618.3,283.7 614.3,279.7" fill="#22a06b"/>
<polygon points="677.0,250.1 681.0,254.1 677.0,258.1 673.0,254.1" fill="#22a06b"/>
<polyline fill="none" stroke="#e6a800" stroke-width="2" points="90.0,382.4 148.7,383.8 207.4,383.0 266.1,384.1 324.8,383.7 383.5,382.3 442.2,385.4 500.9,386.2 559.6,382.5 618.3,384.4 677.0,378.9"/>
<polygon points="90.0,378.4 94.0,385.4 86.0,385.4" fill="#e6a800"/>
<polygon points="148.7,379.8 152.7,386.8 144.7,386.8" fill="#e6a800"/>
<polygon points="207.4,379.0 211.4,386.0 203.4,386.0" fill="#e6a800"/>
<polygon points="266.1,380.1 270.1,387.1 262.1,387.1" fill="#e6a800"/>
<polygon points="324.8,379.7 328.8,386.7 320.8,386.7" fill="#e6a800"/>
<polygon points="383.5,378.3 387.5,385.3 379.5,385.3" fill="#e6a800"/>
<polygon points="442.2,381.4 446.2,388.4 438.2,388.4" fill="#e6a800"/>
<polygon points="500.9,382.2 504.9,389.2 496.9,389.2" fill="#e6a800"/>
<polygon points="559.6,378.5 563.6,385.5 555.6,385.5" fill="#e6a800"/>
<polygon points="618.3,380.4 622.3,387.4 614.3,387.4" fill="#e6a800"/>
<polygon points="677.0,374.9 681.0,381.9 673.0,381.9" fill="#e6a800"/>
<polyline fill="none" stroke="#9b59b6" stroke-width="2" points="90.0,154.0 148.7,156.7 207.4,142.0 266.1,143.9 324.8,128.0 383.5,131.3 442.2,115.7 500.9,86.4 559.6,96.7 618.3,88.4 677.0,86.5"/>
<polygon points="90.0,149.0 88.8,152.4 85.2,152.4 88.1,154.6 87.1,158.0 90.0,156.0 92.9,158.0 91.9,154.6 94.8,152.4 91.2,152.4" fill="#9b59b6"/>
<polygon points="148.7,151.7 147.5,155.1 143.9,155.2 146.8,157.4 145.8,160.8 148.7,158.7 151.6,160.8 150.6,157.4 153.5,155.2 149.9,155.1" fill="#9b59b6"/>
<polygon points="207.4,137.0 206.2,140.4 202.6,140.5 205.5,142.6 204.5,146.1 207.4,144.0 210.3,146.1 209.3,142.6 212.2,140.5 208.6,140.4" fill="#9b59b6"/>
<polygon points="266.1,138.9 264.9,142.3 261.3,142.4 264.2,144.5 263.2,147.9 266.1,145.9 269.0,147.9 268.0,144.5 270.9,142.4 267.3,142.3" fill="#9b59b6"/>
<polygon points="324.8,123.0 323.6,126.4 320.0,126.5 322.9,128.6 321.9,132.1 324.8,130.0 327.7,132.1 326.7,128.6 329.6,126.5 326.0,126.4" fill="#9b59b6"/>
<polygon points="383.5,126.3 382.3,129.7 378.7,129.7 381.6,131.9 380.6,135.3 383.5,133.3 386.4,135.3 385.4,131.9 388.3,129.7 384.7,129.7" fill="#9b59b6"/>
<polygon points="442.2,110.7 441.0,114.1 437.4,114.2 440.3,116.3 439.3,119.8 442.2,117.7 445.1,119.8 444.1,116.3 447.0,114.2 443.4,114.1" fill="#9b59b6"/>
<polygon points="500.9,81.4 499.7,84.7 496.2,84.8 499.0,87.0 498.0,90.4 500.9,88.4 503.8,90.4 502.8,87.0 505.7,84.8 502.1,84.7" fill="#9b59b6"/>
<polygon points="559.6,91.7 558.4,95.1 554.9,95.1 557.7,97.3 556.7,100.7 559.6,98.7 562.5,100.7 561.5,97.3 564.4,95.1 560.8,95.1" fill="#9b59b6"/>
<polygon points="618.3,83.4 617.1,86.8 613.6,86.8 616.4,89.0 615.4,92.4 618.3,90.4 621.2,92.4 620.2,89.0 623.1,86.8 619.5,86.8" fill="#9b59b6"/>
<polygon points="677.0,81.5 675.8,84.8 672.3,84.9 675.1,87.1 674.1,90.5 677.0,88.5 679.9,90.5 678.9,87.1 681.8,84.9 678.2,84.8" fill="#9b59b6"/>
<polyline fill="none" stroke="#e05d10" stroke-width="2" points="90.0,123.7 148.7,132.2 207.4,153.2 266.1,159.7 324.8,154.9 383.5,142.8 442.2,132.9 500.9,128.2 559.6,120.5 618.3,114.8 677.0,109.9"/>
<circle cx="90.0" cy="123.7" r="3" fill="#e05d10"/>
<circle cx="148.7" cy="132.2" r="3" fill="#e05d10"/>
<circle cx="207.4" cy="153.2" r="3" fill="#e05d10"/>
<circle cx="266.1" cy="159.7" r="3" fill="#e05d10"/>
<circle cx="324.8" cy="154.9" r="3" fill="#e05d10"/>
<circle cx="383.5" cy="142.8" r="3" fill="#e05d10"/>
<circle cx="442.2" cy="132.9" r="3" fill="#e05d10"/>
<circle cx="500.9" cy="128.2" r="3" fill="#e05d10"/>
<circle cx="559.6" cy="120.5" r="3" fill="#e05d10"/>
<circle cx="618.3" cy="114.8" r="3" fill="#e05d10"/>
<circle cx="677.0" cy="109.9" r="3" fill="#e05d10"/>
<polyline fill="none" stroke="#888888" stroke-width="2" stroke-dasharray="8,5" points="90.0,504.0 148.7,464.4 207.4,380.5 266.1,215.6"/>
<circle cx="90.0" cy="504.0" r="3" fill="#888888"/>
<circle cx="148.7" cy="464.4" r="3" fill="#888888"/>
<circle cx="207.4" cy="380.5" r="3" fill="#888888"/>
<circle cx="266.1" cy="215.6" r="3" fill="#888888"/>
<line x1="886" y1="60" x2="902" y2="60" stroke="#2a7fff" stroke-width="2"/>
<rect x="891.0" y="57.0" width="6" height="6" fill="#2a7fff"/>
<text class="label" x="908" y="64">Adaptive(t=0)</text>
<line x1="886" y1="78" x2="902" y2="78" stroke="#22a06b" stroke-width="2"/>
<polygon points="894.0,74.0 898.0,78.0 894.0,82.0 890.0,78.0" fill="#22a06b"/>
<text class="label" x="908" y="82">SODA</text>
<line x1="886" y1="96" x2="902" y2="96" stroke="#e6a800" stroke-width="2"/>
<polygon points="894.0,92.0 898.0,99.0 890.0,99.0" fill="#e6a800"/>
<text class="label" x="908" y="100">Truncation</text>
<line x1="886" y1="114" x2="902" y2="114" stroke="#9b59b6" stroke-width="2"/>
<polygon points="894.0,109.0 892.8,112.4 889.2,112.5 892.1,114.6 891.1,118.0 894.0,116.0 896.9,118.0 895.9,114.6 898.8,112.5 895.2,112.4" fill="#9b59b6"/>
<text class="label" x="908" y="118">Hybrid</text>
<line x1="886" y1="132" x2="902" y2="132" stroke="#e05d10" stroke-width="2"/>
<circle cx="894.0" cy="132.0" r="3" fill="#e05d10"/>
<text class="label" x="908" y="136">CDF-ARE</text>
<line x1="886" y1="150" x2="902" y2="150" stroke="#888888" stroke-width="2" stroke-dasharray="8,5"/>
<circle cx="894.0" cy="150.0" r="3" fill="#888888"/>
<text class="label" x="908" y="154">Bloom V3</text>
<text x="480" y="590" text-anchor="middle">Range Length (L)</text>
<text transform="translate(16,295) rotate(-90)" text-anchor="middle">Query Time (ns/op)</text>
</svg>
