<svg xmlns="http://www.w3.org/2000/svg" width="1020" height="600" viewBox="0 0 1020 600">
<style>text{font-family:Menlo,Monaco,monospace;font-size:12px;fill:#222} .axis{stroke:#333;stroke-width:1} .grid{stroke:#eee;stroke-width:0.5} .label{font-size:11px;fill:#444}</style>
<text x="510" y="28" text-anchor="middle" style="font-size:14px;font-weight:bold">Query Time vs Range Length (n=65536, ε=0.010)</text>
<line class="axis" x1="90.0" y1="550.0" x2="870.0" y2="550.0"/>
<line class="axis" x1="90.0" y1="40.0" x2="90.0" y2="550.0"/>
<line class="grid" x1="90.0" y1="550.0" x2="870.0" y2="550.0"/>
<text class="label" x="82.0" y="554.0" text-anchor="end">0</text>
<line class="grid" x1="90.0" y1="487.9" x2="870.0" y2="487.9"/>
<text class="label" x="82.0" y="491.9" text-anchor="end">50</text>
<line class="grid" x1="90.0" y1="425.8" x2="870.0" y2="425.8"/>
<text class="label" x="82.0" y="429.8" text-anchor="end">100</text>
<line class="grid" x1="90.0" y1="363.7" x2="870.0" y2="363.7"/>
<text class="label" x="82.0" y="367.7" text-anchor="end">150</text>
<line class="grid" x1="90.0" y1="301.6" x2="870.0" y2="301.6"/>
<text class="label" x="82.0" y="305.6" text-anchor="end">200</text>
<line class="grid" x1="90.0" y1="239.5" x2="870.0" y2="239.5"/>
<text class="label" x="82.0" y="243.5" text-anchor="end">250</text>
<line class="grid" x1="90.0" y1="177.3" x2="870.0" y2="177.3"/>
<text class="label" x="82.0" y="181.3" text-anchor="end">300</text>
<line class="grid" x1="90.0" y1="115.2" x2="870.0" y2="115.2"/>
<text class="label" x="82.0" y="119.2" text-anchor="end">350</text>
<line class="grid" x1="90.0" y1="53.1" x2="870.0" y2="53.1"/>
<text class="label" x="82.0" y="57.1" text-anchor="end">400</text>
<line class="grid" x1="90.0" y1="40.0" x2="90.0" y2="550.0"/>
<text class="label" x="90.0" y="566.0" text-anchor="middle">1</text>
<line class="grid" x1="285.0" y1="40.0" x2="285.0" y2="550.0"/>
<text class="label" x="285.0" y="566.0" text-anchor="middle">10</text>
<line class="grid" x1="480.0" y1="40.0" x2="480.0" y2="550.0"/>
<text class="label" x="480.0" y="566.0" text-anchor="middle">100</text>
<line class="grid" x1="675.0" y1="40.0" x2="675.0" y2="550.0"/>
<text class="label" x="675.0" y="566.0" text-anchor="middle">1K</text>
<polyline fill="none" stroke="#2a7fff" stroke-width="2" points="90.0,126.1 148.7,123.5 207.4,116.9 266.1,126.9 324.8,121.9 383.5,124.1 442.2,147.1 500.9,155.9 559.6,214.8 618.3,182.1 677.0,194.1"/>
<rect x="87.0" y="123.1" width="6" height="6" fill="#2a7fff"/>
<rect x="145.7" y="120.5" width="6" height="6" fill="#2a7fff"/>
<rect x="204.4" y="113.9" width="6" height="6" fill="#2a7fff"/>
<rect x="263.1" y="123.9" width="6" height="6" fill="#2a7fff"/>
<rect x="321.8" y="118.9" width="6" height="6" fill="#2a7fff"/>
<rect x="380.5" y="121.1" width="6" height="6" fill="#2a7fff"/>
<rect x="439.2" y="144.1" width="6" height="6" fill="#2a7fff"/>
<rect x="497.9" y="152.9" width="6" height="6" fill="#2a7fff"/>
<rect x="556.6" y="211.8" width="6" height="6" fill="#2a7fff"/>
<rect x="615.3" y="179.1" width="6" height="6" fill="#2a7fff"/>
<rect x="674.0" y="191.1" width="6" height="6" fill="#2a7fff"/>
<polyline fill="none" stroke="#22a06b" stroke-width="2" points="90.0,180.7 148.7,175.4 207.4,178.2 266.1,182.5 324.8,195.3 383.5,197.8 442.2,220.2 500.9,246.0 559.6,300.2 618.3,286.3 677.0,278.9"/>
<polygon points="90.0,176.7 94.0,180.7 90.0,184.7 86.0,180.7" fill="#22a06b"/>
<polygon points="148.7,171.4 152.7,175.4 148.7,179.4 144.7,175.4" fill="#22a06b"/>
<polygon points="207.4,174.2 211.4,178.2 207.4,182.2 203.4,178.2" fill="#22a06b"/>
<polygon points="266.1,178.5 270.1,182.5 266.1,186.5 262.1,182.5" fill="#22a06b"/>
<polygon points="324.8,191.3 328.8,195.3 324.8,199.3 320.8,195.3" fill="#22a06b"/>
<polygon points="383.5,193.8 387.5,197.8 383.5,201.8 379.5,197.8" fill="#22a06b"/>
<polygon points="442.2,216.2 446.2,220.2 442.2,224.2 438.2,220.2" fill="#22a06b"/>
<polygon points="500.9,242.0 504.9,246.0 500.9,250.0 496.9,246.0" fill="#22a06b"/>
<polygon points="559.6,296.2 563.6,300.2 559.6,304.2 555.6,300.2" fill="#22a06b"/>
<polygon points="618.3,282.3 622.3,286.3 618.3,290.3 614.3,286.3" fill="#22a06b"/>
<polygon points="677.0,274.9 681.0,278.9 677.0,282.9 673.0,278.9" fill="#22a06b"/>
<polyline fill="none" stroke="#e6a800" stroke-width="2" points="90.0,351.8 148.7,347.6 207.4,354.9 266.1,355.6 324.8,354.6 383.5,354.3 442.2,357.2 500.9,356.8 559.6,353.0 618.3,349.1 677.0,342.7"/>
<polygon points="90.0,347.8 94.0,354.8 86.0,354.8" fill="#e6a800"/>
<polygon points="148.7,343.6 152.7,350.6 144.7,350.6" fill="#e6a800"/>
<polygon points="207.4,350.9 211.4,357.9 203.4,357.9" fill="#e6a800"/>
<polygon points="266.1,351.6 270.1,358.6 262.1,358.6" fill="#e6a800"/>
<polygon points="324.8,350.6 328.8,357.6 320.8,357.6" fill="#e6a800"/>
<polygon points="383.5,350.3 387.5,357.3 379.5,357.3" fill="#e6a800"/>
<polygon points="442.2,353.2 446.2,360.2 438.2,360.2" fill="#e6a800"/>
<polygon points="500.9,352.8 504.9,359.8 496.9,359.8" fill="#e6a800"/>
<polygon points="559.6,349.0 563.6,356.0 555.6,356.0" fill="#e6a800"/>
<polygon points="618.3,345.1 622.3,352.1 614.3,352.1" fill="#e6a800"/>
<polygon points="677.0,338.7 681.0,345.7 673.0,345.7" fill="#e6a800"/>
<polyline fill="none" stroke="#9b59b6" stroke-width="2" points="90.0,119.7 148.7,119.3 207.4,122.9 266.1,130.8 324.8,112.0 383.5,124.6 442.2,107.7 500.9,100.4 559.6,95.7 618.3,86.4 677.0,136.2"/>
<polygon points="90.0,114.7 88.8,118.0 85.2,118.1 88.1,120.3 87.1,123.7 90.0,121.7 92.9,123.7 91.9,120.3 94.8,118.1 91.2,118.0" fill="#9b59b6"/>
<polygon points="148.7,114.3 147.5,117.7 143.9,117.8 146.8,119.9 145.8,123.4 148.7,121.3 151.6,123.4 150.6,119.9 153.5,117.8 149.9,117.7" fill="#9b59b6"/>
<polygon points="207.4,117.9 206.2,121.3 202.6,121.4 205.5,123.5 204.5,127.0 207.4,124.9 210.3,127.0 209.3,123.5 212.2,121.4 208.6,121.3" fill="#9b59b6"/>
<polygon points="266.1,125.8 264.9,129.2 261.3,129.2 264.2,131.4 263.2,134.8 266.1,132.8 269.0,134.8 268.0,131.4 270.9,129.2 267.3,129.2" fill="#9b59b6"/>
<polygon points="324.8,107.0 323.6,110.4 320.0,110.5 322.9,112.6 321.9,116.1 324.8,114.0 327.7,116.1 326.7,112.6 329.6,110.5 326.0,110.4" fill="#9b59b6"/>
<polygon points="383.5,119.6 382.3,123.0 378.7,123.1 381.6,125.2 380.6,128.7 383.5,126.6 386.4,128.7 385.4,125.2 388.3,123.1 384.7,123.0" fill="#9b59b6"/>
<polygon points="442.2,102.7 441.0,106.1 437.4,106.2 440.3,108.3 439.3,111.8 442.2,109.7 445.1,111.8 444.1,108.3 447.0,106.2 443.4,106.1" fill="#9b59b6"/>
<polygon points="500.9,95.4 499.7,98.8 496.2,98.8 499.0,101.0 498.0,104.4 500.9,102.4 503.8,104.4 502.8,101.0 505.7,98.8 502.1,98.8" fill="#9b59b6"/>
<polygon points="559.6,90.7 558.4,94.1 554.9,94.2 557.7,96.4 556.7,99.8 559.6,97.7 562.5,99.8 561.5,96.4 564.4,94.2 560.8,94.1" fill="#9b59b6"/>
<polygon points="618.3,81.4 617.1,84.7 613.6,84.8 616.4,87.0 615.4,90.4 618.3,88.4 621.2,90.4 620.2,87.0 623.1,84.8 619.5,84.7" fill="#9b59b6"/>
<polygon points="677.0,131.2 675.8,134.6 672.3,134.6 675.1,136.8 674.1,140.2 677.0,138.2 679.9,140.2 678.9,136.8 681.8,134.6 678.2,134.6" fill="#9b59b6"/>
<polyline fill="none" stroke="#e05d10" stroke-width="2" points="90.0,138.5 148.7,160.8 207.4,171.0 266.1,172.1 324.8,125.9 383.5,127.0 442.2,125.7 500.9,127.6 559.6,128.7 618.3,110.9 677.0,142.0"/>
<circle cx="90.0" cy="138.5" r="3" fill="#e05d10"/>
<circle cx="148.7" cy="160.8" r="3" fill="#e05d10"/>
<circle cx="207.4" cy="171.0" r="3" fill="#e05d10"/>
<circle cx="266.1" cy="172.1" r="3" fill="#e05d10"/>
<circle cx="324.8" cy="125.9" r="3" fill="#e05d10"/>
<circle cx="383.5" cy="127.0" r="3" fill="#e05d10"/>
<circle cx="442.2" cy="125.7" r="3" fill="#e05d10"/>
<circle cx="500.9" cy="127.6" r="3" fill="#e05d10"/>
<circle cx="559.6" cy="128.7" r="3" fill="#e05d10"/>
<circle cx="618.3" cy="110.9" r="3" fill="#e05d10"/>
<circle cx="677.0" cy="142.0" r="3" fill="#e05d10"/>
<polyline fill="none" stroke="#888888" stroke-width="2" stroke-dasharray="8,5" points="90.0,506.2 148.7,462.3 207.4,380.8 266.1,206.5"/>
<circle cx="90.0" cy="506.2" r="3" fill="#888888"/>
<circle cx="148.7" cy="462.3" r="3" fill="#888888"/>
<circle cx="207.4" cy="380.8" r="3" fill="#888888"/>
<circle cx="266.1" cy="206.5" r="3" fill="#888888"/>
<line x1="886" y1="60" x2="902" y2="60" stroke="#2a7fff" stroke-width="2"/>
<rect x="891.0" y="57.0" width="6" height="6" fill="#2a7fff"/>
<text class="label" x="908" y="64">Adaptive(t=0)</text>
<line x1="886" y1="78" x2="902" y2="78" stroke="#22a06b" stroke-width="2"/>
<polygon points="894.0,74.0 898.0,78.0 894.0,82.0 890.0,78.0" fill="#22a06b"/>
<text class="label" x="908" y="82">SODA</text>
<line x1="886" y1="96" x2="902" y2="96" stroke="#e6a800" stroke-width="2"/>
<polygon points="894.0,92.0 898.0,99.0 890.0,99.0" fill="#e6a800"/>
<text class="label" x="908" y="100">Truncation</text>
<line x1="886" y1="114" x2="902" y2="114" stroke="#9b59b6" stroke-width="2"/>
<polygon points="894.0,109.0 892.8,112.4 889.2,112.5 892.1,114.6 891.1,118.0 894.0,116.0 896.9,118.0 895.9,114.6 898.8,112.5 895.2,112.4" fill="#9b59b6"/>
<text class="label" x="908" y="118">Hybrid</text>
<line x1="886" y1="132" x2="902" y2="132" stroke="#e05d10" stroke-width="2"/>
<circle cx="894.0" cy="132.0" r="3" fill="#e05d10"/>
<text class="label" x="908" y="136">CDF-ARE</text>
<line x1="886" y1="150" x2="902" y2="150" stroke="#888888" stroke-width="2" stroke-dasharray="8,5"/>
<circle cx="894.0" cy="150.0" r="3" fill="#888888"/>
<text class="label" x="908" y="154">Bloom V3</text>
<text x="480" y="590" text-anchor="middle">Range Length (L)</text>
<text transform="translate(16,295) rotate(-90)" text-anchor="middle">Query Time (ns/op)</text>
</svg>
