<svg xmlns="http://www.w3.org/2000/svg" width="1020" height="600" viewBox="0 0 1020 600">
<style>text{font-family:Menlo,Monaco,monospace;font-size:12px;fill:#222} .axis{stroke:#333;stroke-width:1} .grid{stroke:#eee;stroke-width:0.5} .label{font-size:11px;fill:#444}</style>
<text x="510" y="28" text-anchor="middle" style="font-size:14px;font-weight:bold">Query Time vs Range Length (n=65536, ε=0.010)</text>
<line class="axis" x1="90.0" y1="550.0" x2="870.0" y2="550.0"/>
<line class="axis" x1="90.0" y1="40.0" x2="90.0" y2="550.0"/>
<line class="grid" x1="90.0" y1="550.0" x2="870.0" y2="550.0"/>
<text class="label" x="82.0" y="554.0" text-anchor="end">0</text>
<line class="grid" x1="90.0" y1="490.4" x2="870.0" y2="490.4"/>
<text class="label" x="82.0" y="494.4" text-anchor="end">50</text>
<line class="grid" x1="90.0" y1="430.7" x2="870.0" y2="430.7"/>
<text class="label" x="82.0" y="434.7" text-anchor="end">100</text>
<line class="grid" x1="90.0" y1="371.1" x2="870.0" y2="371.1"/>
<text class="label" x="82.0" y="375.1" text-anchor="end">150</text>
<line class="grid" x1="90.0" y1="311.4" x2="870.0" y2="311.4"/>
<text class="label" x="82.0" y="315.4" text-anchor="end">200</text>
<line class="grid" x1="90.0" y1="251.8" x2="870.0" y2="251.8"/>
<text class="label" x="82.0" y="255.8" text-anchor="end">250</text>
<line class="grid" x1="90.0" y1="192.1" x2="870.0" y2="192.1"/>
<text class="label" x="82.0" y="196.1" text-anchor="end">300</text>
<line class="grid" x1="90.0" y1="132.5" x2="870.0" y2="132.5"/>
<text class="label" x="82.0" y="136.5" text-anchor="end">350</text>
<line class="grid" x1="90.0" y1="72.8" x2="870.0" y2="72.8"/>
<text class="label" x="82.0" y="76.8" text-anchor="end">400</text>
<line class="grid" x1="90.0" y1="40.0" x2="90.0" y2="550.0"/>
<text class="label" x="90.0" y="566.0" text-anchor="middle">1</text>
<line class="grid" x1="285.0" y1="40.0" x2="285.0" y2="550.0"/>
<text class="label" x="285.0" y="566.0" text-anchor="middle">10</text>
<line class="grid" x1="480.0" y1="40.0" x2="480.0" y2="550.0"/>
<text class="label" x="480.0" y="566.0" text-anchor="middle">100</text>
<line class="grid" x1="675.0" y1="40.0" x2="675.0" y2="550.0"/>
<text class="label" x="675.0" y="566.0" text-anchor="middle">1K</text>
<polyline fill="none" stroke="#2a7fff" stroke-width="2" points="90.0,106.6 148.7,118.7 207.4,139.9 266.1,158.4 324.8,172.9 383.5,181.1 442.2,187.4 500.9,194.0 559.6,216.7 618.3,225.7 677.0,203.1"/>
<rect x="87.0" y="103.6" width="6" height="6" fill="#2a7fff"/>
<rect x="145.7" y="115.7" width="6" height="6" fill="#2a7fff"/>
<rect x="204.4" y="136.9" width="6" height="6" fill="#2a7fff"/>
<rect x="263.1" y="155.4" width="6" height="6" fill="#2a7fff"/>
<rect x="321.8" y="169.9" width="6" height="6" fill="#2a7fff"/>
<rect x="380.5" y="178.1" width="6" height="6" fill="#2a7fff"/>
<rect x="439.2" y="184.4" width="6" height="6" fill="#2a7fff"/>
<rect x="497.9" y="191.0" width="6" height="6" fill="#2a7fff"/>
<rect x="556.6" y="213.7" width="6" height="6" fill="#2a7fff"/>
<rect x="615.3" y="222.7" width="6" height="6" fill="#2a7fff"/>
<rect x="674.0" y="200.1" width="6" height="6" fill="#2a7fff"/>
<polyline fill="none" stroke="#22a06b" stroke-width="2" points="90.0,198.1 148.7,193.7 207.4,193.0 266.1,202.5 324.8,222.0 383.5,227.2 442.2,230.0 500.9,238.6 559.6,251.4 618.3,267.2 677.0,238.9"/>
<polygon points="90.0,194.1 94.0,198.1 90.0,202.1 86.0,198.1" fill="#22a06b"/>
<polygon points="148.7,189.7 152.7,193.7 148.7,197.7 144.7,193.7" fill="#22a06b"/>
<polygon points="207.4,189.0 211.4,193.0 207.4,197.0 203.4,193.0" fill="#22a06b"/>
<polygon points="266.1,198.5 270.1,202.5 266.1,206.5 262.1,202.5" fill="#22a06b"/>
<polygon points="324.8,218.0 328.8,222.0 324.8,226.0 320.8,222.0" fill="#22a06b"/>
<polygon points="383.5,223.2 387.5,227.2 383.5,231.2 379.5,227.2" fill="#22a06b"/>
<polygon points="442.2,226.0 446.2,230.0 442.2,234.0 438.2,230.0" fill="#22a06b"/>
<polygon points="500.9,234.6 504.9,238.6 500.9,242.6 496.9,238.6" fill="#22a06b"/>
<polygon points="559.6,247.4 563.6,251.4 559.6,255.4 555.6,251.4" fill="#22a06b"/>
<polygon points="618.3,263.2 622.3,267.2 618.3,271.2 614.3,267.2" fill="#22a06b"/>
<polygon points="677.0,234.9 681.0,238.9 677.0,242.9 673.0,238.9" fill="#22a06b"/>
<polyline fill="none" stroke="#e6a800" stroke-width="2" points="90.0,371.3 148.7,370.1 207.4,368.9 266.1,373.3 324.8,372.3 383.5,371.1 442.2,373.3 500.9,371.2 559.6,367.7 618.3,370.2 677.0,373.4"/>
<polygon points="90.0,367.3 94.0,374.3 86.0,374.3" fill="#e6a800"/>
<polygon points="148.7,366.1 152.7,373.1 144.7,373.1" fill="#e6a800"/>
<polygon points="207.4,364.9 211.4,371.9 203.4,371.9" fill="#e6a800"/>
<polygon points="266.1,369.3 270.1,376.3 262.1,376.3" fill="#e6a800"/>
<polygon points="324.8,368.3 328.8,375.3 320.8,375.3" fill="#e6a800"/>
<polygon points="383.5,367.1 387.5,374.1 379.5,374.1" fill="#e6a800"/>
<polygon points="442.2,369.3 446.2,376.3 438.2,376.3" fill="#e6a800"/>
<polygon points="500.9,367.2 504.9,374.2 496.9,374.2" fill="#e6a800"/>
<polygon points="559.6,363.7 563.6,370.7 555.6,370.7" fill="#e6a800"/>
<polygon points="618.3,366.2 622.3,373.2 614.3,373.2" fill="#e6a800"/>
<polygon points="677.0,369.4 681.0,376.4 673.0,376.4" fill="#e6a800"/>
<polyline fill="none" stroke="#9b59b6" stroke-width="2" points="90.0,135.7 148.7,132.7 207.4,135.2 266.1,137.6 324.8,135.4 383.5,116.0 442.2,100.4 500.9,86.4 559.6,133.1 618.3,128.8 677.0,122.5"/>
<polygon points="90.0,130.7 88.8,134.1 85.2,134.1 88.1,136.3 87.1,139.7 90.0,137.7 92.9,139.7 91.9,136.3 94.8,134.1 91.2,134.1" fill="#9b59b6"/>
<polygon points="148.7,127.7 147.5,131.1 143.9,131.1 146.8,133.3 145.8,136.7 148.7,134.7 151.6,136.7 150.6,133.3 153.5,131.1 149.9,131.1" fill="#9b59b6"/>
<polygon points="207.4,130.2 206.2,133.5 202.6,133.6 205.5,135.8 204.5,139.2 207.4,137.2 210.3,139.2 209.3,135.8 212.2,133.6 208.6,133.5" fill="#9b59b6"/>
<polygon points="266.1,132.6 264.9,136.0 261.3,136.0 264.2,138.2 263.2,141.6 266.1,139.6 269.0,141.6 268.0,138.2 270.9,136.0 267.3,136.0" fill="#9b59b6"/>
<polygon points="324.8,130.4 323.6,133.8 320.0,133.8 322.9,136.0 321.9,139.4 324.8,137.4 327.7,139.4 326.7,136.0 329.6,133.8 326.0,133.8" fill="#9b59b6"/>
<polygon points="383.5,111.0 382.3,114.4 378.7,114.5 381.6,116.6 380.6,120.1 383.5,118.0 386.4,120.1 385.4,116.6 388.3,114.5 384.7,114.4" fill="#9b59b6"/>
<polygon points="442.2,95.4 441.0,98.8 437.4,98.9 440.3,101.0 439.3,104.5 442.2,102.4 445.1,104.5 444.1,101.0 447.0,98.9 443.4,98.8" fill="#9b59b6"/>
<polygon points="500.9,81.4 499.7,84.7 496.2,84.8 499.0,87.0 498.0,90.4 500.9,88.4 503.8,90.4 502.8,87.0 505.7,84.8 502.1,84.7" fill="#9b59b6"/>
<polygon points="559.6,128.1 558.4,131.5 554.9,131.6 557.7,133.7 556.7,137.2 559.6,135.1 562.5,137.2 561.5,133.7 564.4,131.6 560.8,131.5" fill="#9b59b6"/>
<polygon points="618.3,123.8 617.1,127.2 613.6,127.3 616.4,129.5 615.4,132.9 618.3,130.8 621.2,132.9 620.2,129.5 623.1,127.3 619.5,127.2" fill="#9b59b6"/>
<polygon points="677.0,117.5 675.8,120.9 672.3,121.0 675.1,123.1 674.1,126.5 677.0,124.5 679.9,126.5 678.9,123.1 681.8,121.0 678.2,120.9" fill="#9b59b6"/>
<polyline fill="none" stroke="#e05d10" stroke-width="2" points="90.0,167.5 148.7,162.3 207.4,141.3 266.1,117.0 324.8,122.2 383.5,109.7 442.2,120.2 500.9,89.6 559.6,123.1 618.3,153.9 677.0,138.1"/>
<circle cx="90.0" cy="167.5" r="3" fill="#e05d10"/>
<circle cx="148.7" cy="162.3" r="3" fill="#e05d10"/>
<circle cx="207.4" cy="141.3" r="3" fill="#e05d10"/>
<circle cx="266.1" cy="117.0" r="3" fill="#e05d10"/>
<circle cx="324.8" cy="122.2" r="3" fill="#e05d10"/>
<circle cx="383.5" cy="109.7" r="3" fill="#e05d10"/>
<circle cx="442.2" cy="120.2" r="3" fill="#e05d10"/>
<circle cx="500.9" cy="89.6" r="3" fill="#e05d10"/>
<circle cx="559.6" cy="123.1" r="3" fill="#e05d10"/>
<circle cx="618.3" cy="153.9" r="3" fill="#e05d10"/>
<circle cx="677.0" cy="138.1" r="3" fill="#e05d10"/>
<line x1="886" y1="60" x2="902" y2="60" stroke="#2a7fff" stroke-width="2"/>
<rect x="891.0" y="57.0" width="6" height="6" fill="#2a7fff"/>
<text class="label" x="908" y="64">Adaptive(t=0)</text>
<line x1="886" y1="78" x2="902" y2="78" stroke="#22a06b" stroke-width="2"/>
<polygon points="894.0,74.0 898.0,78.0 894.0,82.0 890.0,78.0" fill="#22a06b"/>
<text class="label" x="908" y="82">SODA</text>
<line x1="886" y1="96" x2="902" y2="96" stroke="#e6a800" stroke-width="2"/>
<polygon points="894.0,92.0 898.0,99.0 890.0,99.0" fill="#e6a800"/>
<text class="label" x="908" y="100">Truncation</text>
<line x1="886" y1="114" x2="902" y2="114" stroke="#9b59b6" stroke-width="2"/>
<polygon points="894.0,109.0 892.8,112.4 889.2,112.5 892.1,114.6 891.1,118.0 894.0,116.0 896.9,118.0 895.9,114.6 898.8,112.5 895.2,112.4" fill="#9b59b6"/>
<text class="label" x="908" y="118">Hybrid</text>
<line x1="886" y1="132" x2="902" y2="132" stroke="#e05d10" stroke-width="2"/>
<circle cx="894.0" cy="132.0" r="3" fill="#e05d10"/>
<text class="label" x="908" y="136">CDF-ARE</text>
<text x="480" y="590" text-anchor="middle">Range Length (L)</text>
<text transform="translate(16,295) rotate(-90)" text-anchor="middle">Query Time (ns/op)</text>
</svg>
