<svg xmlns="http://www.w3.org/2000/svg" width="960" height="600" viewBox="0 0 960 600">
<style>text{font-family:Menlo,Monaco,monospace;font-size:12px;fill:#222} .axis{stroke:#333;stroke-width:1} .grid{stroke:#eee;stroke-width:0.5} .label{font-size:11px;fill:#444}</style>
<text x="480" y="28" text-anchor="middle" style="font-size:14px;font-weight:bold">Query Time vs Range Length (n=65536, ε=0.010)</text>
<line class="axis" x1="90.0" y1="550.0" x2="920.0" y2="550.0"/>
<line class="axis" x1="90.0" y1="40.0" x2="90.0" y2="550.0"/>
<line class="grid" x1="90.0" y1="550.0" x2="920.0" y2="550.0"/>
<text class="label" x="82.0" y="554.0" text-anchor="end">0</text>
<line class="grid" x1="90.0" y1="489.0" x2="920.0" y2="489.0"/>
<text class="label" x="82.0" y="493.0" text-anchor="end">50</text>
<line class="grid" x1="90.0" y1="428.0" x2="920.0" y2="428.0"/>
<text class="label" x="82.0" y="432.0" text-anchor="end">100</text>
<line class="grid" x1="90.0" y1="367.0" x2="920.0" y2="367.0"/>
<text class="label" x="82.0" y="371.0" text-anchor="end">150</text>
<line class="grid" x1="90.0" y1="305.9" x2="920.0" y2="305.9"/>
<text class="label" x="82.0" y="309.9" text-anchor="end">200</text>
<line class="grid" x1="90.0" y1="244.9" x2="920.0" y2="244.9"/>
<text class="label" x="82.0" y="248.9" text-anchor="end">250</text>
<line class="grid" x1="90.0" y1="183.9" x2="920.0" y2="183.9"/>
<text class="label" x="82.0" y="187.9" text-anchor="end">300</text>
<line class="grid" x1="90.0" y1="122.9" x2="920.0" y2="122.9"/>
<text class="label" x="82.0" y="126.9" text-anchor="end">350</text>
<line class="grid" x1="90.0" y1="61.9" x2="920.0" y2="61.9"/>
<text class="label" x="82.0" y="65.9" text-anchor="end">400</text>
<line class="grid" x1="90.0" y1="40.0" x2="90.0" y2="550.0"/>
<text class="label" x="90.0" y="566.0" text-anchor="middle">10</text>
<line class="grid" x1="297.5" y1="40.0" x2="297.5" y2="550.0"/>
<text class="label" x="297.5" y="566.0" text-anchor="middle">100</text>
<line class="grid" x1="505.0" y1="40.0" x2="505.0" y2="550.0"/>
<text class="label" x="505.0" y="566.0" text-anchor="middle">1K</text>
<line class="grid" x1="712.5" y1="40.0" x2="712.5" y2="550.0"/>
<text class="label" x="712.5" y="566.0" text-anchor="middle">10K</text>
<line class="grid" x1="920.0" y1="40.0" x2="920.0" y2="550.0"/>
<text class="label" x="920.0" y="566.0" text-anchor="middle">100K</text>
<polyline fill="none" stroke="#2a7fff" stroke-width="2" points="132.4,152.2 257.3,162.2 382.2,198.5 507.1,188.8 632.1,190.5 757.0,213.9"/>
<rect x="129.4" y="149.2" width="6" height="6" fill="#2a7fff"/>
<rect x="254.3" y="159.2" width="6" height="6" fill="#2a7fff"/>
<rect x="379.2" y="195.5" width="6" height="6" fill="#2a7fff"/>
<rect x="504.1" y="185.8" width="6" height="6" fill="#2a7fff"/>
<rect x="629.1" y="187.5" width="6" height="6" fill="#2a7fff"/>
<rect x="754.0" y="210.9" width="6" height="6" fill="#2a7fff"/>
<polyline fill="none" stroke="#22a06b" stroke-width="2" points="132.4,207.0 257.3,223.4 382.2,245.0 507.1,243.7 632.1,249.9 757.0,269.3"/>
<polygon points="132.4,203.0 136.4,207.0 132.4,211.0 128.4,207.0" fill="#22a06b"/>
<polygon points="257.3,219.4 261.3,223.4 257.3,227.4 253.3,223.4" fill="#22a06b"/>
<polygon points="382.2,241.0 386.2,245.0 382.2,249.0 378.2,245.0" fill="#22a06b"/>
<polygon points="507.1,239.7 511.1,243.7 507.1,247.7 503.1,243.7" fill="#22a06b"/>
<polygon points="632.1,245.9 636.1,249.9 632.1,253.9 628.1,249.9" fill="#22a06b"/>
<polygon points="757.0,265.3 761.0,269.3 757.0,273.3 753.0,269.3" fill="#22a06b"/>
<polyline fill="none" stroke="#e6a800" stroke-width="2" points="132.4,370.5 257.3,372.9 382.2,369.0 507.1,370.3 632.1,370.7 757.0,372.1"/>
<polygon points="132.4,366.5 136.4,373.5 128.4,373.5" fill="#e6a800"/>
<polygon points="257.3,368.9 261.3,375.9 253.3,375.9" fill="#e6a800"/>
<polygon points="382.2,365.0 386.2,372.0 378.2,372.0" fill="#e6a800"/>
<polygon points="507.1,366.3 511.1,373.3 503.1,373.3" fill="#e6a800"/>
<polygon points="632.1,366.7 636.1,373.7 628.1,373.7" fill="#e6a800"/>
<polygon points="757.0,368.1 761.0,375.1 753.0,375.1" fill="#e6a800"/>
<polyline fill="none" stroke="#9b59b6" stroke-width="2" points="132.4,132.8 257.3,112.8 382.2,120.0 507.1,119.4 632.1,118.1 757.0,209.6"/>
<polygon points="132.4,127.8 131.2,131.2 127.6,131.3 130.5,133.4 129.4,136.8 132.4,134.8 135.3,136.8 134.3,133.4 137.1,131.3 133.5,131.2" fill="#9b59b6"/>
<polygon points="257.3,107.8 256.1,111.2 252.5,111.3 255.4,113.4 254.3,116.8 257.3,114.8 260.2,116.8 259.2,113.4 262.0,111.3 258.5,111.2" fill="#9b59b6"/>
<polygon points="382.2,115.0 381.0,118.4 377.5,118.4 380.3,120.6 379.3,124.0 382.2,122.0 385.1,124.0 384.1,120.6 387.0,118.4 383.4,118.4" fill="#9b59b6"/>
<polygon points="507.1,114.4 506.0,117.8 502.4,117.9 505.2,120.1 504.2,123.5 507.1,121.4 510.1,123.5 509.0,120.1 511.9,117.9 508.3,117.8" fill="#9b59b6"/>
<polygon points="632.1,113.1 630.9,116.4 627.3,116.5 630.2,118.7 629.1,122.1 632.1,120.1 635.0,122.1 634.0,118.7 636.8,116.5 633.2,116.4" fill="#9b59b6"/>
<polygon points="757.0,204.6 755.8,207.9 752.2,208.0 755.1,210.2 754.1,213.6 757.0,211.6 759.9,213.6 758.9,210.2 761.7,208.0 758.2,207.9" fill="#9b59b6"/>
<polyline fill="none" stroke="#e05d10" stroke-width="2" points="132.4,154.4 257.3,133.3 382.2,122.4 507.1,117.6 632.1,86.4 757.0,128.8"/>
<circle cx="132.4" cy="154.4" r="3" fill="#e05d10"/>
<circle cx="257.3" cy="133.3" r="3" fill="#e05d10"/>
<circle cx="382.2" cy="122.4" r="3" fill="#e05d10"/>
<circle cx="507.1" cy="117.6" r="3" fill="#e05d10"/>
<circle cx="632.1" cy="86.4" r="3" fill="#e05d10"/>
<circle cx="757.0" cy="128.8" r="3" fill="#e05d10"/>
<line x1="700" y1="60" x2="716" y2="60" stroke="#2a7fff" stroke-width="2"/>
<rect x="705.0" y="57.0" width="6" height="6" fill="#2a7fff"/>
<text class="label" x="722" y="64">Adaptive(t=0)</text>
<line x1="700" y1="78" x2="716" y2="78" stroke="#22a06b" stroke-width="2"/>
<polygon points="708.0,74.0 712.0,78.0 708.0,82.0 704.0,78.0" fill="#22a06b"/>
<text class="label" x="722" y="82">SODA</text>
<line x1="700" y1="96" x2="716" y2="96" stroke="#e6a800" stroke-width="2"/>
<polygon points="708.0,92.0 712.0,99.0 704.0,99.0" fill="#e6a800"/>
<text class="label" x="722" y="100">Truncation</text>
<line x1="700" y1="114" x2="716" y2="114" stroke="#9b59b6" stroke-width="2"/>
<polygon points="708.0,109.0 706.8,112.4 703.2,112.5 706.1,114.6 705.1,118.0 708.0,116.0 710.9,118.0 709.9,114.6 712.8,112.5 709.2,112.4" fill="#9b59b6"/>
<text class="label" x="722" y="118">Hybrid</text>
<line x1="700" y1="132" x2="716" y2="132" stroke="#e05d10" stroke-width="2"/>
<circle cx="708.0" cy="132.0" r="3" fill="#e05d10"/>
<text class="label" x="722" y="136">CDF-ARE</text>
<text x="505" y="590" text-anchor="middle">Range Length (L)</text>
<text transform="translate(16,295) rotate(-90)" text-anchor="middle">Query Time (ns/op)</text>
</svg>
