<svg xmlns="http://www.w3.org/2000/svg" width="1020" height="600" viewBox="0 0 1020 600">
<style>text{font-family:Menlo,Monaco,monospace;font-size:12px;fill:#222} .axis{stroke:#333;stroke-width:1} .grid{stroke:#eee;stroke-width:0.5} .label{font-size:11px;fill:#444}</style>
<text x="510" y="28" text-anchor="middle" style="font-size:14px;font-weight:bold">FPR vs BPK — Uniform (n=262144, L=128)</text>
<line class="axis" x1="90.0" y1="550.0" x2="870.0" y2="550.0"/>
<line class="axis" x1="90.0" y1="40.0" x2="90.0" y2="550.0"/>
<line class="grid" x1="90.0" y1="513.6" x2="870.0" y2="513.6"/>
<text class="label" x="82.0" y="517.6" text-anchor="end">10^-6</text>
<line class="grid" x1="90.0" y1="440.7" x2="870.0" y2="440.7"/>
<text class="label" x="82.0" y="444.7" text-anchor="end">10^-5</text>
<line class="grid" x1="90.0" y1="367.9" x2="870.0" y2="367.9"/>
<text class="label" x="82.0" y="371.9" text-anchor="end">10^-4</text>
<line class="grid" x1="90.0" y1="295.0" x2="870.0" y2="295.0"/>
<text class="label" x="82.0" y="299.0" text-anchor="end">10^-3</text>
<line class="grid" x1="90.0" y1="222.1" x2="870.0" y2="222.1"/>
<text class="label" x="82.0" y="226.1" text-anchor="end">10^-2</text>
<line class="grid" x1="90.0" y1="149.3" x2="870.0" y2="149.3"/>
<text class="label" x="82.0" y="153.3" text-anchor="end">10^-1</text>
<line class="grid" x1="90.0" y1="76.4" x2="870.0" y2="76.4"/>
<text class="label" x="82.0" y="80.4" text-anchor="end">1</text>
<line class="grid" x1="90.0" y1="40.0" x2="90.0" y2="550.0"/>
<text class="label" x="90.0" y="566.0" text-anchor="middle">0</text>
<line class="grid" x1="147.1" y1="40.0" x2="147.1" y2="550.0"/>
<text class="label" x="147.1" y="566.0" text-anchor="middle">2</text>
<line class="grid" x1="204.3" y1="40.0" x2="204.3" y2="550.0"/>
<text class="label" x="204.3" y="566.0" text-anchor="middle">4</text>
<line class="grid" x1="261.4" y1="40.0" x2="261.4" y2="550.0"/>
<text class="label" x="261.4" y="566.0" text-anchor="middle">6</text>
<line class="grid" x1="318.6" y1="40.0" x2="318.6" y2="550.0"/>
<text class="label" x="318.6" y="566.0" text-anchor="middle">8</text>
<line class="grid" x1="375.7" y1="40.0" x2="375.7" y2="550.0"/>
<text class="label" x="375.7" y="566.0" text-anchor="middle">10</text>
<line class="grid" x1="432.9" y1="40.0" x2="432.9" y2="550.0"/>
<text class="label" x="432.9" y="566.0" text-anchor="middle">12</text>
<line class="grid" x1="490.0" y1="40.0" x2="490.0" y2="550.0"/>
<text class="label" x="490.0" y="566.0" text-anchor="middle">14</text>
<line class="grid" x1="547.1" y1="40.0" x2="547.1" y2="550.0"/>
<text class="label" x="547.1" y="566.0" text-anchor="middle">16</text>
<line class="grid" x1="604.3" y1="40.0" x2="604.3" y2="550.0"/>
<text class="label" x="604.3" y="566.0" text-anchor="middle">18</text>
<line class="grid" x1="661.4" y1="40.0" x2="661.4" y2="550.0"/>
<text class="label" x="661.4" y="566.0" text-anchor="middle">20</text>
<line class="grid" x1="718.6" y1="40.0" x2="718.6" y2="550.0"/>
<text class="label" x="718.6" y="566.0" text-anchor="middle">22</text>
<line class="grid" x1="775.7" y1="40.0" x2="775.7" y2="550.0"/>
<text class="label" x="775.7" y="566.0" text-anchor="middle">24</text>
<line class="grid" x1="832.9" y1="40.0" x2="832.9" y2="550.0"/>
<text class="label" x="832.9" y="566.0" text-anchor="middle">26</text>
<polyline fill="none" stroke="#ef4444" stroke-width="1.5" stroke-dasharray="8,5" points="290.0,76.4 318.6,98.4 347.1,120.3 375.7,142.2 404.3,164.2 432.9,186.1 461.4,208.0 490.0,230.0 518.6,251.9 547.1,273.8 575.7,295.8 604.3,317.7 632.9,339.6 661.4,361.5 690.0,383.5 718.6,405.4 747.1,427.3 775.7,449.3 804.3,471.2 832.9,493.1"/>
<polyline fill="none" stroke="#9b59b6" stroke-width="1.5" points="90.0,76.4 90.0,76.4 90.0,76.4 90.0,76.4 90.1,76.4 90.2,76.4 90.3,76.4 90.7,76.4 91.3,76.4 92.7,76.4 95.4,76.4 100.7,76.4 111.2,77.0 129.0,81.1 154.7,91.0 185.9,106.0 219.5,124.1 252.7,144.1 284.7,165.1 315.4,186.6 345.3,208.3 374.7,229.8 403.7,251.7 461.3,295.9 518.5,341.3 575.7,378.0 632.8,433.1 690.0,471.2"/>
<polygon points="90.0,72.4 94.0,79.4 86.0,79.4" fill="#9b59b6"/>
<polygon points="90.0,72.4 94.0,79.4 86.0,79.4" fill="#9b59b6"/>
<polygon points="90.0,72.4 94.0,79.4 86.0,79.4" fill="#9b59b6"/>
<polygon points="90.0,72.4 94.0,79.4 86.0,79.4" fill="#9b59b6"/>
<polygon points="90.1,72.4 94.1,79.4 86.1,79.4" fill="#9b59b6"/>
<polygon points="90.2,72.4 94.2,79.4 86.2,79.4" fill="#9b59b6"/>
<polygon points="90.3,72.4 94.3,79.4 86.3,79.4" fill="#9b59b6"/>
<polygon points="90.7,72.4 94.7,79.4 86.7,79.4" fill="#9b59b6"/>
<polygon points="91.3,72.4 95.3,79.4 87.3,79.4" fill="#9b59b6"/>
<polygon points="92.7,72.4 96.7,79.4 88.7,79.4" fill="#9b59b6"/>
<polygon points="95.4,72.4 99.4,79.4 91.4,79.4" fill="#9b59b6"/>
<polygon points="100.7,72.4 104.7,79.4 96.7,79.4" fill="#9b59b6"/>
<polygon points="111.2,73.0 115.2,80.0 107.2,80.0" fill="#9b59b6"/>
<polygon points="129.0,77.1 133.0,84.1 125.0,84.1" fill="#9b59b6"/>
<polygon points="154.7,87.0 158.7,94.0 150.7,94.0" fill="#9b59b6"/>
<polygon points="185.9,102.0 189.9,109.0 181.9,109.0" fill="#9b59b6"/>
<polygon points="219.5,120.1 223.5,127.1 215.5,127.1" fill="#9b59b6"/>
<polygon points="252.7,140.1 256.7,147.1 248.7,147.1" fill="#9b59b6"/>
<polygon points="284.7,161.1 288.7,168.1 280.7,168.1" fill="#9b59b6"/>
<polygon points="315.4,182.6 319.4,189.6 311.4,189.6" fill="#9b59b6"/>
<polygon points="345.3,204.3 349.3,211.3 341.3,211.3" fill="#9b59b6"/>
<polygon points="374.7,225.8 378.7,232.8 370.7,232.8" fill="#9b59b6"/>
<polygon points="403.7,247.7 407.7,254.7 399.7,254.7" fill="#9b59b6"/>
<polygon points="461.3,291.9 465.3,298.9 457.3,298.9" fill="#9b59b6"/>
<polygon points="518.5,337.3 522.5,344.3 514.5,344.3" fill="#9b59b6"/>
<polygon points="575.7,374.0 579.7,381.0 571.7,381.0" fill="#9b59b6"/>
<polygon points="632.8,429.1 636.8,436.1 628.8,436.1" fill="#9b59b6"/>
<polygon points="690.0,467.2 694.0,474.2 686.0,474.2" fill="#9b59b6"/>
<polyline fill="none" stroke="#4dd88a" stroke-width="1.5" points="90.0,76.4 90.0,76.4 90.0,76.4 90.0,76.4 90.1,76.4 90.2,76.4 90.3,76.4 90.7,76.4 91.3,76.4 92.7,76.4 95.4,76.4 100.7,76.4 111.2,76.4 129.0,76.4 154.7,76.4 186.0,76.4 219.6,76.4 252.9,76.4 284.7,76.4 315.5,77.0 345.4,81.0 374.7,91.0 403.7,106.0 461.3,144.2 518.5,186.7 575.7,230.4 632.8,274.3 690.0,320.9"/>
<polygon points="90.0,72.4 94.0,76.4 90.0,80.4 86.0,76.4" fill="#4dd88a"/>
<polygon points="90.0,72.4 94.0,76.4 90.0,80.4 86.0,76.4" fill="#4dd88a"/>
<polygon points="90.0,72.4 94.0,76.4 90.0,80.4 86.0,76.4" fill="#4dd88a"/>
<polygon points="90.0,72.4 94.0,76.4 90.0,80.4 86.0,76.4" fill="#4dd88a"/>
<polygon points="90.1,72.4 94.1,76.4 90.1,80.4 86.1,76.4" fill="#4dd88a"/>
<polygon points="90.2,72.4 94.2,76.4 90.2,80.4 86.2,76.4" fill="#4dd88a"/>
<polygon points="90.3,72.4 94.3,76.4 90.3,80.4 86.3,76.4" fill="#4dd88a"/>
<polygon points="90.7,72.4 94.7,76.4 90.7,80.4 86.7,76.4" fill="#4dd88a"/>
<polygon points="91.3,72.4 95.3,76.4 91.3,80.4 87.3,76.4" fill="#4dd88a"/>
<polygon points="92.7,72.4 96.7,76.4 92.7,80.4 88.7,76.4" fill="#4dd88a"/>
<polygon points="95.4,72.4 99.4,76.4 95.4,80.4 91.4,76.4" fill="#4dd88a"/>
<polygon points="100.7,72.4 104.7,76.4 100.7,80.4 96.7,76.4" fill="#4dd88a"/>
<polygon points="111.2,72.4 115.2,76.4 111.2,80.4 107.2,76.4" fill="#4dd88a"/>
<polygon points="129.0,72.4 133.0,76.4 129.0,80.4 125.0,76.4" fill="#4dd88a"/>
<polygon points="154.7,72.4 158.7,76.4 154.7,80.4 150.7,76.4" fill="#4dd88a"/>
<polygon points="186.0,72.4 190.0,76.4 186.0,80.4 182.0,76.4" fill="#4dd88a"/>
<polygon points="219.6,72.4 223.6,76.4 219.6,80.4 215.6,76.4" fill="#4dd88a"/>
<polygon points="252.9,72.4 256.9,76.4 252.9,80.4 248.9,76.4" fill="#4dd88a"/>
<polygon points="284.7,72.4 288.7,76.4 284.7,80.4 280.7,76.4" fill="#4dd88a"/>
<polygon points="315.5,73.0 319.5,77.0 315.5,81.0 311.5,77.0" fill="#4dd88a"/>
<polygon points="345.4,77.0 349.4,81.0 345.4,85.0 341.4,81.0" fill="#4dd88a"/>
<polygon points="374.7,87.0 378.7,91.0 374.7,95.0 370.7,91.0" fill="#4dd88a"/>
<polygon points="461.3,140.2 465.3,144.2 461.3,148.2 457.3,144.2" fill="#4dd88a"/>
<polygon points="403.7,102.0 407.7,106.0 403.7,110.0 399.7,106.0" fill="#4dd88a"/>
<polygon points="518.5,182.7 522.5,186.7 518.5,190.7 514.5,186.7" fill="#4dd88a"/>
<polygon points="575.7,226.4 579.7,230.4 575.7,234.4 571.7,230.4" fill="#4dd88a"/>
<polygon points="632.8,270.3 636.8,274.3 632.8,278.3 628.8,274.3" fill="#4dd88a"/>
<polygon points="690.0,316.9 694.0,320.9 690.0,324.9 686.0,320.9" fill="#4dd88a"/>
<line x1="886" y1="60" x2="902" y2="60" stroke="#ef4444" stroke-width="2" stroke-dasharray="8,5"/>
<circle cx="894.0" cy="60.0" r="3" fill="#ef4444"/>
<text class="label" x="908" y="64">Theoretical</text>
<line x1="886" y1="78" x2="902" y2="78" stroke="#9b59b6" stroke-width="2"/>
<polygon points="894.0,74.0 898.0,81.0 890.0,81.0" fill="#9b59b6"/>
<text class="label" x="908" y="82">Truncation</text>
<line x1="886" y1="96" x2="902" y2="96" stroke="#4dd88a" stroke-width="2"/>
<polygon points="894.0,92.0 898.0,96.0 894.0,100.0 890.0,96.0" fill="#4dd88a"/>
<text class="label" x="908" y="100">SODA</text>

<!-- Arrow 1: Truncation <-> Theoretical -->
<defs><marker id="ah" markerWidth="8" markerHeight="6" refX="8" refY="3" orient="auto"><path d="M0,0 L8,3 L0,6" fill="#555"/></marker><marker id="ahl" markerWidth="8" markerHeight="6" refX="0" refY="3" orient="auto"><path d="M8,0 L0,3 L8,6" fill="#555"/></marker></defs>
<line x1="375" y1="225" x2="565" y2="225" stroke="#555" stroke-width="1.5" marker-start="url(#ahl)" marker-end="url(#ah)"/>
<text x="450" y="200" text-anchor="middle" font-size="11" fill="#555" font-style="italic">≈ log₂(L) saved</text>
<text x="460" y="215" text-anchor="middle" font-size="10" fill="#777">contiguous phantoms</text>

<!-- Arrow 2: Theoretical <-> SODA -->
<line x1="590" y1="300" x2="660" y2="300" stroke="#555" stroke-width="1.5" marker-start="url(#ahl)" marker-end="url(#ah)"/>
<text x="640" y="293" text-anchor="middle" font-size="10" fill="#777">impl. overhead</text>

<text x="480" y="590" text-anchor="middle">Bits per Key (BPK)</text>
<text transform="translate(16,295) rotate(-90)" text-anchor="middle">False Positive Rate (FPR)</text>
</svg>
