<svg xmlns="http://www.w3.org/2000/svg" width="960.0" height="540.0" viewBox="0 0 960.0 540.0">
<style>text{font-family:Menlo,Monaco,monospace;font-size:12px;fill:#222} .axis{stroke:#333;stroke-width:1} .grid{stroke:#ddd;stroke-width:1} .label{font-size:11px;fill:#444}</style>
<text x="480.0" y="26" text-anchor="middle">ARE Build Throughput vs Key Size (L)</text>
<line class="axis" x1="90.0" y1="465.0" x2="920.0" y2="465.0" />
<line class="axis" x1="90.0" y1="55.0" x2="90.0" y2="465.0" />
<line class="grid" x1="90.0" y1="465.00" x2="920.0" y2="465.00" />
<text class="label" x="82.0" y="469.00" text-anchor="end">0.00</text>
<line class="grid" x1="90.0" y1="383.00" x2="920.0" y2="383.00" />
<text class="label" x="82.0" y="387.00" text-anchor="end">1420930.29</text>
<line class="grid" x1="90.0" y1="301.00" x2="920.0" y2="301.00" />
<text class="label" x="82.0" y="305.00" text-anchor="end">2841860.58</text>
<line class="grid" x1="90.0" y1="219.00" x2="920.0" y2="219.00" />
<text class="label" x="82.0" y="223.00" text-anchor="end">4262790.88</text>
<line class="grid" x1="90.0" y1="137.00" x2="920.0" y2="137.00" />
<text class="label" x="82.0" y="141.00" text-anchor="end">5683721.17</text>
<line class="grid" x1="90.0" y1="55.00" x2="920.0" y2="55.00" />
<text class="label" x="82.0" y="59.00" text-anchor="end">7104651.46</text>
<line class="grid" x1="90.00" y1="55.0" x2="90.00" y2="465.0" />
<text class="label" x="90.00" y="485.0" text-anchor="middle">64</text>
<line class="grid" x1="145.33" y1="55.0" x2="145.33" y2="465.0" />
<text class="label" x="145.33" y="485.0" text-anchor="middle">128</text>
<line class="grid" x1="256.00" y1="55.0" x2="256.00" y2="465.0" />
<text class="label" x="256.00" y="485.0" text-anchor="middle">256</text>
<line class="grid" x1="477.33" y1="55.0" x2="477.33" y2="465.0" />
<text class="label" x="477.33" y="485.0" text-anchor="middle">512</text>
<line class="grid" x1="920.00" y1="55.0" x2="920.00" y2="465.0" />
<text class="label" x="920.00" y="485.0" text-anchor="middle">1,024</text>
<polyline fill="none" stroke="#2a7fff" stroke-width="2.5" points="90.00,92.27 145.33,101.84 256.00,105.51 477.33,134.99 920.00,149.30" />
<circle cx="90.00" cy="92.27" r="3.5" fill="#2a7fff" />
<circle cx="145.33" cy="101.84" r="3.5" fill="#2a7fff" />
<circle cx="256.00" cy="105.51" r="3.5" fill="#2a7fff" />
<circle cx="477.33" cy="134.99" r="3.5" fill="#2a7fff" />
<circle cx="920.00" cy="149.30" r="3.5" fill="#2a7fff" />
<line x1="100.0" y1="67.0" x2="116.0" y2="67.0" stroke="#2a7fff" stroke-width="2.5" />
<text class="label" x="122.0" y="71.0">N=262K</text>
<polyline fill="none" stroke="#e4572e" stroke-width="2.5" points="90.00,121.47 145.33,134.20 256.00,145.77 477.33,136.19 920.00,132.02" />
<circle cx="90.00" cy="121.47" r="3.5" fill="#e4572e" />
<circle cx="145.33" cy="134.20" r="3.5" fill="#e4572e" />
<circle cx="256.00" cy="145.77" r="3.5" fill="#e4572e" />
<circle cx="477.33" cy="136.19" r="3.5" fill="#e4572e" />
<circle cx="920.00" cy="132.02" r="3.5" fill="#e4572e" />
<line x1="100.0" y1="85.0" x2="116.0" y2="85.0" stroke="#e4572e" stroke-width="2.5" />
<text class="label" x="122.0" y="89.0">N=1M</text>
<polyline fill="none" stroke="#22a06b" stroke-width="2.5" points="90.00,142.43 145.33,139.30 256.00,144.03 477.33,172.64 920.00,248.11" />
<circle cx="90.00" cy="142.43" r="3.5" fill="#22a06b" />
<circle cx="145.33" cy="139.30" r="3.5" fill="#22a06b" />
<circle cx="256.00" cy="144.03" r="3.5" fill="#22a06b" />
<circle cx="477.33" cy="172.64" r="3.5" fill="#22a06b" />
<circle cx="920.00" cy="248.11" r="3.5" fill="#22a06b" />
<line x1="100.0" y1="103.0" x2="116.0" y2="103.0" stroke="#22a06b" stroke-width="2.5" />
<text class="label" x="122.0" y="107.0">N=4M</text>
<polyline fill="none" stroke="#7c3aed" stroke-width="2.5" points="90.00,142.57 145.33,155.11 256.00,239.94 477.33,169.35 920.00,202.54" />
<circle cx="90.00" cy="142.57" r="3.5" fill="#7c3aed" />
<circle cx="145.33" cy="155.11" r="3.5" fill="#7c3aed" />
<circle cx="256.00" cy="239.94" r="3.5" fill="#7c3aed" />
<circle cx="477.33" cy="169.35" r="3.5" fill="#7c3aed" />
<circle cx="920.00" cy="202.54" r="3.5" fill="#7c3aed" />
<line x1="100.0" y1="121.0" x2="116.0" y2="121.0" stroke="#7c3aed" stroke-width="2.5" />
<text class="label" x="122.0" y="125.0">N=16M</text>
<text class="label" x="480.0" y="522.0" text-anchor="middle">Key Size (bits)</text>
<text class="label" transform="translate(20,270.0) rotate(-90)" text-anchor="middle">Keys/sec</text>
</svg>