<svg xmlns="http://www.w3.org/2000/svg" width="960" height="540" viewBox="0 0 960 540">
<style>text{font-family:Menlo,Monaco,monospace;font-size:12px;fill:#222} .axis{stroke:#333;stroke-width:1} .grid{stroke:#ddd;stroke-width:1} .label{font-size:11px;fill:#444}</style>
<text x="480.0" y="26" text-anchor="middle">Memory bits/key at 32768 keys (from benchmarks_parsed.csv)</text>
<line class="axis" x1="90" y1="465" x2="920" y2="465" />
<line class="axis" x1="90" y1="55" x2="90" y2="465" />
<line class="grid" x1="90" y1="465.00" x2="920" y2="465.00" />
<text class="label" x="82" y="469.00" text-anchor="end">0.0</text>
<line class="grid" x1="90" y1="383.00" x2="920" y2="383.00" />
<text class="label" x="82" y="387.00" text-anchor="end">54.1</text>
<line class="grid" x1="90" y1="301.00" x2="920" y2="301.00" />
<text class="label" x="82" y="305.00" text-anchor="end">108.2</text>
<line class="grid" x1="90" y1="219.00" x2="920" y2="219.00" />
<text class="label" x="82" y="223.00" text-anchor="end">162.2</text>
<line class="grid" x1="90" y1="137.00" x2="920" y2="137.00" />
<text class="label" x="82" y="141.00" text-anchor="end">216.3</text>
<line class="grid" x1="90" y1="55.00" x2="920" y2="55.00" />
<text class="label" x="82" y="59.00" text-anchor="end">270.4</text>
<line class="grid" x1="90.00" y1="55" x2="90.00" y2="465" />
<text class="label" x="90.00" y="485" text-anchor="middle">64</text>
<line class="grid" x1="145.33" y1="55" x2="145.33" y2="465" />
<text class="label" x="145.33" y="485" text-anchor="middle">128</text>
<line class="grid" x1="256.00" y1="55" x2="256.00" y2="465" />
<text class="label" x="256.00" y="485" text-anchor="middle">256</text>
<line class="grid" x1="477.33" y1="55" x2="477.33" y2="465" />
<text class="label" x="477.33" y="485" text-anchor="middle">512</text>
<line class="grid" x1="920.00" y1="55" x2="920.00" y2="465" />
<text class="label" x="920.00" y="485" text-anchor="middle">1024</text>
<polyline fill="none" stroke="#2a7fff" stroke-width="2.5" points="90.00,386.13 145.33,385.15 256.00,383.37 477.33,380.02 920.00,375.09" />
<circle cx="90.00" cy="386.13" r="3.5" fill="#2a7fff" />
<circle cx="145.33" cy="385.15" r="3.5" fill="#2a7fff" />
<circle cx="256.00" cy="383.37" r="3.5" fill="#2a7fff" />
<circle cx="477.33" cy="380.02" r="3.5" fill="#2a7fff" />
<circle cx="920.00" cy="375.09" r="3.5" fill="#2a7fff" />
<line x1="100" y1="67" x2="116" y2="67" stroke="#2a7fff" stroke-width="2.5" />
<text class="label" x="122" y="71">RLOC</text>
<polyline fill="none" stroke="#e4572e" stroke-width="2.5" points="90.00,288.95 145.33,270.45 256.00,160.81 477.33,126.39 920.00,92.27" />
<circle cx="90.00" cy="288.95" r="3.5" fill="#e4572e" />
<circle cx="145.33" cy="270.45" r="3.5" fill="#e4572e" />
<circle cx="256.00" cy="160.81" r="3.5" fill="#e4572e" />
<circle cx="477.33" cy="126.39" r="3.5" fill="#e4572e" />
<circle cx="920.00" cy="92.27" r="3.5" fill="#e4572e" />
<line x1="100" y1="85" x2="116" y2="85" stroke="#e4572e" stroke-width="2.5" />
<text class="label" x="122" y="89">LERLOC</text>
<polyline fill="none" stroke="#22a06b" stroke-width="2.5" points="90.00,443.77 145.33,443.77 256.00,443.77 477.33,443.77 920.00,443.77" />
<circle cx="90.00" cy="443.77" r="3.5" fill="#22a06b" />
<circle cx="145.33" cy="443.77" r="3.5" fill="#22a06b" />
<circle cx="256.00" cy="443.77" r="3.5" fill="#22a06b" />
<circle cx="477.33" cy="443.77" r="3.5" fill="#22a06b" />
<circle cx="920.00" cy="443.77" r="3.5" fill="#22a06b" />
<line x1="100" y1="103" x2="116" y2="103" stroke="#22a06b" stroke-width="2.5" />
<text class="label" x="122" y="107">MMPH baseline=14</text>
<text class="label" x="480.0" y="522" text-anchor="middle">Key size (bits)</text>
<text class="label" transform="translate(20,270.0) rotate(-90)" text-anchor="middle">bits/key</text>
</svg>