<svg xmlns="http://www.w3.org/2000/svg" width="960" height="540" viewBox="0 0 960 540">
<style>text{font-family:Menlo,Monaco,monospace;font-size:12px;fill:#222} .axis{stroke:#333;stroke-width:1} .grid{stroke:#ddd;stroke-width:1} .label{font-size:11px;fill:#444}</style>
<text x="480.0" y="26" text-anchor="middle">Bits per Key</text>
<line class="axis" x1="90" y1="465" x2="920" y2="465" />
<line class="axis" x1="90" y1="55" x2="90" y2="465" />
<line class="grid" x1="90" y1="465.00" x2="920" y2="465.00" />
<text class="label" x="82" y="469.00" text-anchor="end">0.00</text>
<line class="grid" x1="90" y1="383.00" x2="920" y2="383.00" />
<text class="label" x="82" y="387.00" text-anchor="end">75.06</text>
<line class="grid" x1="90" y1="301.00" x2="920" y2="301.00" />
<text class="label" x="82" y="305.00" text-anchor="end">150.13</text>
<line class="grid" x1="90" y1="219.00" x2="920" y2="219.00" />
<text class="label" x="82" y="223.00" text-anchor="end">225.19</text>
<line class="grid" x1="90" y1="137.00" x2="920" y2="137.00" />
<text class="label" x="82" y="141.00" text-anchor="end">300.26</text>
<line class="grid" x1="90" y1="55.00" x2="920" y2="55.00" />
<text class="label" x="82" y="59.00" text-anchor="end">375.32</text>
<line class="grid" x1="90.00" y1="55" x2="90.00" y2="465" />
<text class="label" x="90.00" y="485" text-anchor="middle">32.0</text>
<line class="grid" x1="281.54" y1="55" x2="281.54" y2="465" />
<text class="label" x="281.54" y="485" text-anchor="middle">256.0</text>
<line class="grid" x1="409.23" y1="55" x2="409.23" y2="465" />
<text class="label" x="409.23" y="485" text-anchor="middle">1024.0</text>
<line class="grid" x1="600.77" y1="55" x2="600.77" y2="465" />
<text class="label" x="600.77" y="485" text-anchor="middle">8192.0</text>
<line class="grid" x1="728.46" y1="55" x2="728.46" y2="465" />
<text class="label" x="728.46" y="485" text-anchor="middle">32768.0</text>
<line class="grid" x1="920.00" y1="55" x2="920.00" y2="465" />
<text class="label" x="920.00" y="485" text-anchor="middle">262144.0</text>
<polyline fill="none" stroke="#2a7fff" stroke-width="2.5" points="90.00,248.16 281.54,316.87 409.23,328.23 600.77,337.08 728.46,337.30 920.00,329.11" />
<circle cx="90.00" cy="248.16" r="3.5" fill="#2a7fff" />
<circle cx="281.54" cy="316.87" r="3.5" fill="#2a7fff" />
<circle cx="409.23" cy="328.23" r="3.5" fill="#2a7fff" />
<circle cx="600.77" cy="337.08" r="3.5" fill="#2a7fff" />
<circle cx="728.46" cy="337.30" r="3.5" fill="#2a7fff" />
<circle cx="920.00" cy="329.11" r="3.5" fill="#2a7fff" />
<line x1="100" y1="67" x2="116" y2="67" stroke="#2a7fff" stroke-width="2.5" />
<text class="label" x="122" y="71">KeySize=64</text>
<polyline fill="none" stroke="#e4572e" stroke-width="2.5" points="90.00,234.50 281.54,306.60 409.23,314.90 600.77,323.64 728.46,323.97 920.00,315.67" />
<circle cx="90.00" cy="234.50" r="3.5" fill="#e4572e" />
<circle cx="281.54" cy="306.60" r="3.5" fill="#e4572e" />
<circle cx="409.23" cy="314.90" r="3.5" fill="#e4572e" />
<circle cx="600.77" cy="323.64" r="3.5" fill="#e4572e" />
<circle cx="728.46" cy="323.97" r="3.5" fill="#e4572e" />
<circle cx="920.00" cy="315.67" r="3.5" fill="#e4572e" />
<line x1="100" y1="85" x2="116" y2="85" stroke="#e4572e" stroke-width="2.5" />
<text class="label" x="122" y="89">KeySize=128</text>
<polyline fill="none" stroke="#22a06b" stroke-width="2.5" points="90.00,160.22 281.54,223.03 409.23,231.01 600.77,244.33 728.46,244.77 920.00,232.21" />
<circle cx="90.00" cy="160.22" r="3.5" fill="#22a06b" />
<circle cx="281.54" cy="223.03" r="3.5" fill="#22a06b" />
<circle cx="409.23" cy="231.01" r="3.5" fill="#22a06b" />
<circle cx="600.77" cy="244.33" r="3.5" fill="#22a06b" />
<circle cx="728.46" cy="244.77" r="3.5" fill="#22a06b" />
<circle cx="920.00" cy="232.21" r="3.5" fill="#22a06b" />
<line x1="100" y1="103" x2="116" y2="103" stroke="#22a06b" stroke-width="2.5" />
<text class="label" x="122" y="107">KeySize=256</text>
<polyline fill="none" stroke="#7c3aed" stroke-width="2.5" points="90.00,121.77 281.54,199.00 409.23,206.10 600.77,220.19 728.46,221.18 920.00,208.61" />
<circle cx="90.00" cy="121.77" r="3.5" fill="#7c3aed" />
<circle cx="281.54" cy="199.00" r="3.5" fill="#7c3aed" />
<circle cx="409.23" cy="206.10" r="3.5" fill="#7c3aed" />
<circle cx="600.77" cy="220.19" r="3.5" fill="#7c3aed" />
<circle cx="728.46" cy="221.18" r="3.5" fill="#7c3aed" />
<circle cx="920.00" cy="208.61" r="3.5" fill="#7c3aed" />
<line x1="100" y1="121" x2="116" y2="121" stroke="#7c3aed" stroke-width="2.5" />
<text class="label" x="122" y="125">KeySize=512</text>
<polyline fill="none" stroke="#a16207" stroke-width="2.5" points="90.00,92.27 281.54,171.25 409.23,178.68 600.77,194.74 728.46,194.96 920.00,182.61" />
<circle cx="90.00" cy="92.27" r="3.5" fill="#a16207" />
<circle cx="281.54" cy="171.25" r="3.5" fill="#a16207" />
<circle cx="409.23" cy="178.68" r="3.5" fill="#a16207" />
<circle cx="600.77" cy="194.74" r="3.5" fill="#a16207" />
<circle cx="728.46" cy="194.96" r="3.5" fill="#a16207" />
<circle cx="920.00" cy="182.61" r="3.5" fill="#a16207" />
<line x1="100" y1="139" x2="116" y2="139" stroke="#a16207" stroke-width="2.5" />
<text class="label" x="122" y="143">KeySize=1024</text>
<text class="label" x="480.0" y="522" text-anchor="middle">Keys (N)</text>
<text class="label" transform="translate(20,270.0) rotate(-90)" text-anchor="middle">bits/key</text>
</svg>