<svg xmlns="http://www.w3.org/2000/svg" width="960" height="540" viewBox="0 0 960 540">
<style>text{font-family:Menlo,Monaco,monospace;font-size:12px;fill:#222} .axis{stroke:#333;stroke-width:1} .grid{stroke:#ddd;stroke-width:1} .label{font-size:11px;fill:#444}</style>
<text x="480.0" y="26" text-anchor="middle">Build Time (ns/op)</text>
<line class="axis" x1="90" y1="465" x2="920" y2="465" />
<line class="axis" x1="90" y1="55" x2="90" y2="465" />
<line class="grid" x1="90" y1="465.00" x2="920" y2="465.00" />
<text class="label" x="82" y="469.00" text-anchor="end">10^5</text>
<line class="grid" x1="90" y1="362.50" x2="920" y2="362.50" />
<text class="label" x="82" y="366.50" text-anchor="end">10^6</text>
<line class="grid" x1="90" y1="260.00" x2="920" y2="260.00" />
<text class="label" x="82" y="264.00" text-anchor="end">10^7</text>
<line class="grid" x1="90" y1="157.50" x2="920" y2="157.50" />
<text class="label" x="82" y="161.50" text-anchor="end">10^8</text>
<line class="grid" x1="90" y1="55.00" x2="920" y2="55.00" />
<text class="label" x="82" y="59.00" text-anchor="end">10^9</text>
<line class="grid" x1="90.00" y1="55" x2="90.00" y2="465" />
<text class="label" x="90.00" y="485" text-anchor="middle">32.0</text>
<line class="grid" x1="401.25" y1="55" x2="401.25" y2="465" />
<text class="label" x="401.25" y="485" text-anchor="middle">256.0</text>
<line class="grid" x1="608.75" y1="55" x2="608.75" y2="465" />
<text class="label" x="608.75" y="485" text-anchor="middle">1024.0</text>
<line class="grid" x1="920.00" y1="55" x2="920.00" y2="465" />
<text class="label" x="920.00" y="485" text-anchor="middle">8192.0</text>
<polyline fill="none" stroke="#2a7fff" stroke-width="2.5" points="90.00,398.46 401.25,307.54 608.75,241.79 920.00,139.19" />
<circle cx="90.00" cy="398.46" r="3.5" fill="#2a7fff" />
<circle cx="401.25" cy="307.54" r="3.5" fill="#2a7fff" />
<circle cx="608.75" cy="241.79" r="3.5" fill="#2a7fff" />
<circle cx="920.00" cy="139.19" r="3.5" fill="#2a7fff" />
<line x1="100" y1="67" x2="116" y2="67" stroke="#2a7fff" stroke-width="2.5" />
<text class="label" x="122" y="71">KeySize=64</text>
<text class="label" x="480.0" y="522" text-anchor="middle">Keys (N)</text>
<text class="label" transform="translate(20,270.0) rotate(-90)" text-anchor="middle">ns/op</text>
</svg>