<svg xmlns="http://www.w3.org/2000/svg" width="960" height="540" viewBox="0 0 960 540">
<style>text{font-family:Menlo,Monaco,monospace;font-size:12px;fill:#222} .axis{stroke:#333;stroke-width:1} .grid{stroke:#ddd;stroke-width:1} .label{font-size:11px;fill:#444}</style>
<text x="480.0" y="26" text-anchor="middle">Build Time (ns/op)</text>
<line class="axis" x1="90" y1="465" x2="920" y2="465" />
<line class="axis" x1="90" y1="55" x2="90" y2="465" />
<line class="grid" x1="90" y1="465.00" x2="920" y2="465.00" />
<text class="label" x="82" y="469.00" text-anchor="end">10^5</text>
<line class="grid" x1="90" y1="396.67" x2="920" y2="396.67" />
<text class="label" x="82" y="400.67" text-anchor="end">10^6</text>
<line class="grid" x1="90" y1="328.33" x2="920" y2="328.33" />
<text class="label" x="82" y="332.33" text-anchor="end">10^7</text>
<line class="grid" x1="90" y1="260.00" x2="920" y2="260.00" />
<text class="label" x="82" y="264.00" text-anchor="end">10^8</text>
<line class="grid" x1="90" y1="191.67" x2="920" y2="191.67" />
<text class="label" x="82" y="195.67" text-anchor="end">10^9</text>
<line class="grid" x1="90" y1="123.33" x2="920" y2="123.33" />
<text class="label" x="82" y="127.33" text-anchor="end">10^10</text>
<line class="grid" x1="90" y1="55.00" x2="920" y2="55.00" />
<text class="label" x="82" y="59.00" text-anchor="end">10^11</text>
<line class="grid" x1="90.00" y1="55" x2="90.00" y2="465" />
<text class="label" x="90.00" y="485" text-anchor="middle">32.0</text>
<line class="grid" x1="281.54" y1="55" x2="281.54" y2="465" />
<text class="label" x="281.54" y="485" text-anchor="middle">256.0</text>
<line class="grid" x1="409.23" y1="55" x2="409.23" y2="465" />
<text class="label" x="409.23" y="485" text-anchor="middle">1024.0</text>
<line class="grid" x1="600.77" y1="55" x2="600.77" y2="465" />
<text class="label" x="600.77" y="485" text-anchor="middle">8192.0</text>
<line class="grid" x1="728.46" y1="55" x2="728.46" y2="465" />
<text class="label" x="728.46" y="485" text-anchor="middle">32768.0</text>
<line class="grid" x1="920.00" y1="55" x2="920.00" y2="465" />
<text class="label" x="920.00" y="485" text-anchor="middle">262144.0</text>
<polyline fill="none" stroke="#2a7fff" stroke-width="2.5" points="90.00,451.81 281.54,387.74 409.23,341.57 600.77,274.83 728.46,225.27 920.00,115.51" />
<circle cx="90.00" cy="451.81" r="3.5" fill="#2a7fff" />
<circle cx="281.54" cy="387.74" r="3.5" fill="#2a7fff" />
<circle cx="409.23" cy="341.57" r="3.5" fill="#2a7fff" />
<circle cx="600.77" cy="274.83" r="3.5" fill="#2a7fff" />
<circle cx="728.46" cy="225.27" r="3.5" fill="#2a7fff" />
<circle cx="920.00" cy="115.51" r="3.5" fill="#2a7fff" />
<line x1="100" y1="67" x2="116" y2="67" stroke="#2a7fff" stroke-width="2.5" />
<text class="label" x="122" y="71">KeySize=64</text>
<polyline fill="none" stroke="#e4572e" stroke-width="2.5" points="90.00,447.37 281.54,385.01 409.23,338.67 600.77,272.81 728.46,222.28 920.00,113.24" />
<circle cx="90.00" cy="447.37" r="3.5" fill="#e4572e" />
<circle cx="281.54" cy="385.01" r="3.5" fill="#e4572e" />
<circle cx="409.23" cy="338.67" r="3.5" fill="#e4572e" />
<circle cx="600.77" cy="272.81" r="3.5" fill="#e4572e" />
<circle cx="728.46" cy="222.28" r="3.5" fill="#e4572e" />
<circle cx="920.00" cy="113.24" r="3.5" fill="#e4572e" />
<line x1="100" y1="85" x2="116" y2="85" stroke="#e4572e" stroke-width="2.5" />
<text class="label" x="122" y="89">KeySize=128</text>
<polyline fill="none" stroke="#22a06b" stroke-width="2.5" points="90.00,444.67 281.54,380.77 409.23,335.15 600.77,269.21 728.46,220.77 920.00,109.52" />
<circle cx="90.00" cy="444.67" r="3.5" fill="#22a06b" />
<circle cx="281.54" cy="380.77" r="3.5" fill="#22a06b" />
<circle cx="409.23" cy="335.15" r="3.5" fill="#22a06b" />
<circle cx="600.77" cy="269.21" r="3.5" fill="#22a06b" />
<circle cx="728.46" cy="220.77" r="3.5" fill="#22a06b" />
<circle cx="920.00" cy="109.52" r="3.5" fill="#22a06b" />
<line x1="100" y1="103" x2="116" y2="103" stroke="#22a06b" stroke-width="2.5" />
<text class="label" x="122" y="107">KeySize=256</text>
<polyline fill="none" stroke="#7c3aed" stroke-width="2.5" points="90.00,439.82 281.54,376.19 409.23,330.95 600.77,263.05 728.46,211.79 920.00,111.23" />
<circle cx="90.00" cy="439.82" r="3.5" fill="#7c3aed" />
<circle cx="281.54" cy="376.19" r="3.5" fill="#7c3aed" />
<circle cx="409.23" cy="330.95" r="3.5" fill="#7c3aed" />
<circle cx="600.77" cy="263.05" r="3.5" fill="#7c3aed" />
<circle cx="728.46" cy="211.79" r="3.5" fill="#7c3aed" />
<circle cx="920.00" cy="111.23" r="3.5" fill="#7c3aed" />
<line x1="100" y1="121" x2="116" y2="121" stroke="#7c3aed" stroke-width="2.5" />
<text class="label" x="122" y="125">KeySize=512</text>
<polyline fill="none" stroke="#a16207" stroke-width="2.5" points="90.00,433.19 281.54,369.72 409.23,322.85 600.77,256.84 728.46,206.03 920.00,109.07" />
<circle cx="90.00" cy="433.19" r="3.5" fill="#a16207" />
<circle cx="281.54" cy="369.72" r="3.5" fill="#a16207" />
<circle cx="409.23" cy="322.85" r="3.5" fill="#a16207" />
<circle cx="600.77" cy="256.84" r="3.5" fill="#a16207" />
<circle cx="728.46" cy="206.03" r="3.5" fill="#a16207" />
<circle cx="920.00" cy="109.07" r="3.5" fill="#a16207" />
<line x1="100" y1="139" x2="116" y2="139" stroke="#a16207" stroke-width="2.5" />
<text class="label" x="122" y="143">KeySize=1024</text>
<text class="label" x="480.0" y="522" text-anchor="middle">Keys (N)</text>
<text class="label" transform="translate(20,270.0) rotate(-90)" text-anchor="middle">ns/op</text>
</svg>