<svg xmlns="http://www.w3.org/2000/svg" width="960.0" height="540.0" viewBox="0 0 960.0 540.0">
<style>text{font-family:Menlo,Monaco,monospace;font-size:12px;fill:#222} .axis{stroke:#333;stroke-width:1} .grid{stroke:#ddd;stroke-width:1} .label{font-size:11px;fill:#444}</style>
<text x="480.0" y="26" text-anchor="middle">RLOC vs LERLOC Memory (KeySize=64)</text>
<line class="axis" x1="90.0" y1="465.0" x2="920.0" y2="465.0" />
<line class="axis" x1="90.0" y1="55.0" x2="90.0" y2="465.0" />
<line class="grid" x1="90.0" y1="465.00" x2="920.0" y2="465.00" />
<text class="label" x="82.0" y="469.00" text-anchor="end">0.00</text>
<line class="grid" x1="90.0" y1="383.00" x2="920.0" y2="383.00" />
<text class="label" x="82.0" y="387.00" text-anchor="end">51.22</text>
<line class="grid" x1="90.0" y1="301.00" x2="920.0" y2="301.00" />
<text class="label" x="82.0" y="305.00" text-anchor="end">102.43</text>
<line class="grid" x1="90.0" y1="219.00" x2="920.0" y2="219.00" />
<text class="label" x="82.0" y="223.00" text-anchor="end">153.65</text>
<line class="grid" x1="90.0" y1="137.00" x2="920.0" y2="137.00" />
<text class="label" x="82.0" y="141.00" text-anchor="end">204.86</text>
<line class="grid" x1="90.0" y1="55.00" x2="920.0" y2="55.00" />
<text class="label" x="82.0" y="59.00" text-anchor="end">256.08</text>
<line class="grid" x1="90.00" y1="55.0" x2="90.00" y2="465.0" />
<text class="label" x="90.00" y="485.0" text-anchor="middle">32.0</text>
<line class="grid" x1="339.00" y1="55.0" x2="339.00" y2="465.0" />
<text class="label" x="339.00" y="485.0" text-anchor="middle">256.0</text>
<line class="grid" x1="505.00" y1="55.0" x2="505.00" y2="465.0" />
<text class="label" x="505.00" y="485.0" text-anchor="middle">1024.0</text>
<line class="grid" x1="754.00" y1="55.0" x2="754.00" y2="465.0" />
<text class="label" x="754.00" y="485.0" text-anchor="middle">8192.0</text>
<line class="grid" x1="920.00" y1="55.0" x2="920.00" y2="465.0" />
<text class="label" x="920.00" y="485.0" text-anchor="middle">32768.0</text>
<polyline fill="none" stroke="#2a7fff" stroke-width="2.5" points="90.00,318.90 339.00,372.94 505.00,378.48 754.00,379.86 920.00,380.24" />
<circle cx="90.00" cy="318.90" r="3.5" fill="#2a7fff" />
<circle cx="339.00" cy="372.94" r="3.5" fill="#2a7fff" />
<circle cx="505.00" cy="378.48" r="3.5" fill="#2a7fff" />
<circle cx="754.00" cy="379.86" r="3.5" fill="#2a7fff" />
<circle cx="920.00" cy="380.24" r="3.5" fill="#2a7fff" />
<line x1="100.0" y1="67.0" x2="116.0" y2="67.0" stroke="#2a7fff" stroke-width="2.5" />
<text class="label" x="122.0" y="71.0">RLOC</text>
<polyline fill="none" stroke="#e4572e" stroke-width="2.5" points="90.00,92.27 339.00,254.30 505.00,264.23 754.00,277.12 920.00,277.68" />
<circle cx="90.00" cy="92.27" r="3.5" fill="#e4572e" />
<circle cx="339.00" cy="254.30" r="3.5" fill="#e4572e" />
<circle cx="505.00" cy="264.23" r="3.5" fill="#e4572e" />
<circle cx="754.00" cy="277.12" r="3.5" fill="#e4572e" />
<circle cx="920.00" cy="277.68" r="3.5" fill="#e4572e" />
<line x1="100.0" y1="85.0" x2="116.0" y2="85.0" stroke="#e4572e" stroke-width="2.5" />
<text class="label" x="122.0" y="89.0">LERLOC</text>
<text class="label" x="480.0" y="522.0" text-anchor="middle">Keys (N)</text>
<text class="label" transform="translate(20,270.0) rotate(-90)" text-anchor="middle">bits/key</text>
</svg>