<svg xmlns="http://www.w3.org/2000/svg" width="1040" height="700" viewBox="0 0 1040 700">
<defs><clipPath id="plot-region"><rect x="110.0" y="40.0" width="770.0" height="510.0"/></clipPath></defs>
<style>text{font-family:Menlo,Monaco,monospace;font-size:22px;fill:#222} .axis{stroke:#333;stroke-width:1.5} .grid{stroke:#eee;stroke-width:0.5} .label{font-size:20px;fill:#444}</style>
<text x="520" y="30" text-anchor="middle" style="font-size:24px;font-weight:bold">False-positive rate vs space on Wikipedia timestamps (n = 2²⁸, L = 128)</text>
<line class="axis" x1="110.0" y1="550.0" x2="880.0" y2="550.0"/>
<line class="axis" x1="110.0" y1="40.0" x2="110.0" y2="550.0"/>
<line class="grid" x1="110.0" y1="550.0" x2="880.0" y2="550.0"/>
<text class="label" x="102.0" y="554.0" text-anchor="end">10⁻⁷</text>
<line class="grid" x1="110.0" y1="482.0" x2="880.0" y2="482.0"/>
<text class="label" x="102.0" y="486.0" text-anchor="end">10⁻⁶</text>
<line class="grid" x1="110.0" y1="414.0" x2="880.0" y2="414.0"/>
<text class="label" x="102.0" y="418.0" text-anchor="end">10⁻⁵</text>
<line class="grid" x1="110.0" y1="346.0" x2="880.0" y2="346.0"/>
<text class="label" x="102.0" y="350.0" text-anchor="end">10⁻⁴</text>
<line class="grid" x1="110.0" y1="278.0" x2="880.0" y2="278.0"/>
<text class="label" x="102.0" y="282.0" text-anchor="end">10⁻³</text>
<line class="grid" x1="110.0" y1="210.0" x2="880.0" y2="210.0"/>
<text class="label" x="102.0" y="214.0" text-anchor="end">10⁻²</text>
<line class="grid" x1="110.0" y1="142.0" x2="880.0" y2="142.0"/>
<text class="label" x="102.0" y="146.0" text-anchor="end">10⁻¹</text>
<line class="grid" x1="110.0" y1="74.0" x2="880.0" y2="74.0"/>
<text class="label" x="102.0" y="78.0" text-anchor="end">1</text>
<line class="grid" x1="110.0" y1="40.0" x2="110.0" y2="550.0"/>
<text class="label" x="110.0" y="574.0" text-anchor="middle">0</text>
<line class="grid" x1="171.6" y1="40.0" x2="171.6" y2="550.0"/>
<text class="label" x="171.6" y="574.0" text-anchor="middle">2</text>
<line class="grid" x1="233.2" y1="40.0" x2="233.2" y2="550.0"/>
<text class="label" x="233.2" y="574.0" text-anchor="middle">4</text>
<line class="grid" x1="294.8" y1="40.0" x2="294.8" y2="550.0"/>
<text class="label" x="294.8" y="574.0" text-anchor="middle">6</text>
<line class="grid" x1="356.4" y1="40.0" x2="356.4" y2="550.0"/>
<text class="label" x="356.4" y="574.0" text-anchor="middle">8</text>
<line class="grid" x1="418.0" y1="40.0" x2="418.0" y2="550.0"/>
<text class="label" x="418.0" y="574.0" text-anchor="middle">10</text>
<line class="grid" x1="479.6" y1="40.0" x2="479.6" y2="550.0"/>
<text class="label" x="479.6" y="574.0" text-anchor="middle">12</text>
<line class="grid" x1="541.2" y1="40.0" x2="541.2" y2="550.0"/>
<text class="label" x="541.2" y="574.0" text-anchor="middle">14</text>
<line class="grid" x1="602.8" y1="40.0" x2="602.8" y2="550.0"/>
<text class="label" x="602.8" y="574.0" text-anchor="middle">16</text>
<line class="grid" x1="664.4" y1="40.0" x2="664.4" y2="550.0"/>
<text class="label" x="664.4" y="574.0" text-anchor="middle">18</text>
<line class="grid" x1="726.0" y1="40.0" x2="726.0" y2="550.0"/>
<text class="label" x="726.0" y="574.0" text-anchor="middle">20</text>
<line class="grid" x1="787.6" y1="40.0" x2="787.6" y2="550.0"/>
<text class="label" x="787.6" y="574.0" text-anchor="middle">22</text>
<line class="grid" x1="849.2" y1="40.0" x2="849.2" y2="550.0"/>
<text class="label" x="849.2" y="574.0" text-anchor="middle">24</text>
<line x1="110.0" y1="442.5" x2="880.0" y2="442.5" stroke="#999" stroke-width="1.5" stroke-dasharray="6,4"/>
<text x="880.0" y="438.5" text-anchor="end" style="font-size:17px;fill:#999">0 FP observed (floor = 4e-06)</text>
<g clip-path="url(#plot-region)">
<polyline fill="none" stroke="#0F766E" stroke-width="2.5" points="181.9,89.3 219.2,107.3 252.5,442.5"/>
<polygon points="181.9,84.5 186.7,89.3 181.9,94.1 177.1,89.3" fill="#0F766E"/>
<polygon points="219.2,102.5 224.0,107.3 219.2,112.1 214.4,107.3" fill="#0F766E"/>
<polygon points="252.5,437.7 257.3,442.5 252.5,447.3 247.7,442.5" fill="#0F766E"/>
<polyline fill="none" stroke="#1E3A8A" stroke-width="2.5" points="213.8,102.7 275.1,132.2 337.0,171.9 398.9,218.4 460.2,262.6 521.5,369.1"/>
<polygon points="213.8,97.9 218.6,102.7 213.8,107.5 209.0,102.7" fill="#1E3A8A"/>
<polygon points="275.1,127.4 279.9,132.2 275.1,137.0 270.3,132.2" fill="#1E3A8A"/>
<polygon points="337.0,167.1 341.8,171.9 337.0,176.7 332.2,171.9" fill="#1E3A8A"/>
<polygon points="398.9,213.6 403.7,218.4 398.9,223.2 394.1,218.4" fill="#1E3A8A"/>
<polygon points="460.2,257.8 465.0,262.6 460.2,267.4 455.4,262.6" fill="#1E3A8A"/>
<polygon points="521.5,364.3 526.3,369.1 521.5,373.9 516.7,369.1" fill="#1E3A8A"/>
<polyline fill="none" stroke="#15803D" stroke-width="2.5" points="233.2,101.6 294.8,113.3 356.4,126.8 418.0,146.6 479.6,169.2 541.2,185.7 602.8,197.3 664.4,206.1 726.0,213.0 787.6,222.3 910.8,224.1 972.4,230.4 1034.0,235.6 1095.6,240.3"/>
<polygon points="233.2,96.8 238.0,101.6 233.2,106.4 228.4,101.6" fill="#15803D"/>
<polygon points="294.8,108.5 299.6,113.3 294.8,118.1 290.0,113.3" fill="#15803D"/>
<polygon points="356.4,122.0 361.2,126.8 356.4,131.6 351.6,126.8" fill="#15803D"/>
<polygon points="418.0,141.8 422.8,146.6 418.0,151.4 413.2,146.6" fill="#15803D"/>
<polygon points="479.6,164.4 484.4,169.2 479.6,174.0 474.8,169.2" fill="#15803D"/>
<polygon points="541.2,180.9 546.0,185.7 541.2,190.5 536.4,185.7" fill="#15803D"/>
<polygon points="602.8,192.5 607.6,197.3 602.8,202.1 598.0,197.3" fill="#15803D"/>
<polygon points="664.4,201.3 669.2,206.1 664.4,210.9 659.6,206.1" fill="#15803D"/>
<polygon points="726.0,208.2 730.8,213.0 726.0,217.8 721.2,213.0" fill="#15803D"/>
<polygon points="787.6,217.5 792.4,222.3 787.6,227.1 782.8,222.3" fill="#15803D"/>
<polygon points="910.8,219.3 915.6,224.1 910.8,228.9 906.0,224.1" fill="#15803D"/>
<polygon points="972.4,225.6 977.2,230.4 972.4,235.2 967.6,230.4" fill="#15803D"/>
<polygon points="1034.0,230.8 1038.8,235.6 1034.0,240.4 1029.2,235.6" fill="#15803D"/>
<polygon points="1095.6,235.5 1100.4,240.3 1095.6,245.1 1090.8,240.3" fill="#15803D"/>
<polyline fill="none" stroke="#D946EF" stroke-width="2.5" points="110.0,74.0 124.3,74.0 138.5,74.3 161.0,81.6 191.2,101.4 200.7,170.0 225.3,442.5"/>
<circle cx="110.0" cy="74.0" r="3.6" fill="#D946EF"/>
<circle cx="124.3" cy="74.0" r="3.6" fill="#D946EF"/>
<circle cx="138.5" cy="74.3" r="3.6" fill="#D946EF"/>
<circle cx="161.0" cy="81.6" r="3.6" fill="#D946EF"/>
<circle cx="191.2" cy="101.4" r="3.6" fill="#D946EF"/>
<circle cx="200.7" cy="170.0" r="3.6" fill="#D946EF"/>
<circle cx="225.3" cy="442.5" r="3.6" fill="#D946EF"/>
</g>
<line x1="896" y1="60" x2="916" y2="60" stroke="#0F766E" stroke-width="2.5"/>
<polygon points="906.0,55.2 910.8,60.0 906.0,64.8 901.2,60.0" fill="#0F766E"/>
<text class="label" x="922" y="64">Grafite</text>
<line x1="896" y1="84" x2="916" y2="84" stroke="#1E3A8A" stroke-width="2.5"/>
<polygon points="906.0,79.2 910.8,84.0 906.0,88.8 901.2,84.0" fill="#1E3A8A"/>
<text class="label" x="922" y="88">SNARF</text>
<line x1="896" y1="108" x2="916" y2="108" stroke="#15803D" stroke-width="2.5"/>
<polygon points="906.0,103.2 910.8,108.0 906.0,112.8 901.2,108.0" fill="#15803D"/>
<text class="label" x="922" y="112">Rosetta</text>
<line x1="896" y1="132" x2="916" y2="132" stroke="#D946EF" stroke-width="2.5"/>
<circle cx="906.0" cy="132.0" r="3.6" fill="#D946EF"/>
<text class="label" x="922" y="136">Seg</text>
<text x="495" y="600" text-anchor="middle" style="font-size:22px">Bits per Key (BPK)</text>
<text transform="translate(22,295) rotate(-90)" text-anchor="middle" style="font-size:22px">False Positive Rate (FPR)</text>
<line x1="110.0" y1="610.0" x2="880.0" y2="610.0" stroke="#ccc" stroke-width="1"/>
<text x="102.0" y="613.0" text-anchor="end" style="font-size:17px;fill:#666">FPR ≤ 10⁻²</text>
<g transform="translate(229.4,610.0) scale(1.5) translate(-229.4,-610.0)"><polygon points="229.4,605.2 234.2,610.0 229.4,614.8 224.6,610.0" fill="#0F766E"/>
</g>
<g transform="translate(387.7,610.0) scale(1.5) translate(-387.7,-610.0)"><polygon points="387.7,605.2 392.5,610.0 387.7,614.8 382.9,610.0" fill="#1E3A8A"/>
</g>
<g transform="translate(699.2,610.0) scale(1.5) translate(-699.2,-610.0)"><polygon points="699.2,605.2 704.0,610.0 699.2,614.8 694.4,610.0" fill="#15803D"/>
</g>
<g transform="translate(204.3,610.0) scale(1.5) translate(-204.3,-610.0)"><circle cx="204.3" cy="610.0" r="3.6" fill="#D946EF"/>
</g>
<line x1="110.0" y1="638.0" x2="880.0" y2="638.0" stroke="#ccc" stroke-width="1"/>
<text x="102.0" y="641.0" text-anchor="end" style="font-size:17px;fill:#666">FPR ≤ 10⁻³</text>
<g transform="translate(236.1,638.0) scale(1.5) translate(-236.1,-638.0)"><polygon points="236.1,633.2 240.9,638.0 236.1,642.8 231.3,638.0" fill="#0F766E"/>
</g>
<g transform="translate(469.0,638.0) scale(1.5) translate(-469.0,-638.0)"><polygon points="469.0,633.2 473.8,638.0 469.0,642.8 464.2,638.0" fill="#1E3A8A"/>
</g>
<g transform="translate(210.5,638.0) scale(1.5) translate(-210.5,-638.0)"><circle cx="210.5" cy="638.0" r="3.6" fill="#D946EF"/>
</g>
<line x1="110.0" y1="666.0" x2="880.0" y2="666.0" stroke="#ccc" stroke-width="1"/>
<text x="102.0" y="669.0" text-anchor="end" style="font-size:17px;fill:#666">0 FP</text>
<g transform="translate(252.5,666.0) scale(1.5) translate(-252.5,-666.0)"><polygon points="252.5,661.2 257.3,666.0 252.5,670.8 247.7,666.0" fill="#0F766E"/>
</g>
<g transform="translate(225.3,666.0) scale(1.5) translate(-225.3,-666.0)"><circle cx="225.3" cy="666.0" r="3.6" fill="#D946EF"/>
</g>
</svg>
