<svg xmlns="http://www.w3.org/2000/svg" width="1020" height="700" viewBox="0 0 1020 700">
<defs><clipPath id="plot-region"><rect x="90.0" y="40.0" width="770.0" height="510.0"/></clipPath></defs>
<style>text{font-family:Menlo,Monaco,monospace;font-size:22px;fill:#222} .axis{stroke:#333;stroke-width:1.5} .grid{stroke:#eee;stroke-width:0.5} .label{font-size:20px;fill:#444}</style>
<line class="axis" x1="90.0" y1="550.0" x2="860.0" y2="550.0"/>
<line class="axis" x1="90.0" y1="40.0" x2="90.0" y2="550.0"/>
<line class="grid" x1="90.0" y1="550.0" x2="860.0" y2="550.0"/>
<text class="label" x="82.0" y="554.0" text-anchor="end">10^-7</text>
<line class="grid" x1="90.0" y1="482.0" x2="860.0" y2="482.0"/>
<text class="label" x="82.0" y="486.0" text-anchor="end">10^-6</text>
<line class="grid" x1="90.0" y1="414.0" x2="860.0" y2="414.0"/>
<text class="label" x="82.0" y="418.0" text-anchor="end">10^-5</text>
<line class="grid" x1="90.0" y1="346.0" x2="860.0" y2="346.0"/>
<text class="label" x="82.0" y="350.0" text-anchor="end">10^-4</text>
<line class="grid" x1="90.0" y1="278.0" x2="860.0" y2="278.0"/>
<text class="label" x="82.0" y="282.0" text-anchor="end">10^-3</text>
<line class="grid" x1="90.0" y1="210.0" x2="860.0" y2="210.0"/>
<text class="label" x="82.0" y="214.0" text-anchor="end">10^-2</text>
<line class="grid" x1="90.0" y1="142.0" x2="860.0" y2="142.0"/>
<text class="label" x="82.0" y="146.0" text-anchor="end">10^-1</text>
<line class="grid" x1="90.0" y1="74.0" x2="860.0" y2="74.0"/>
<text class="label" x="82.0" y="78.0" text-anchor="end">1</text>
<line class="grid" x1="90.0" y1="40.0" x2="90.0" y2="550.0"/>
<text class="label" x="90.0" y="574.0" text-anchor="middle">0</text>
<line class="grid" x1="151.6" y1="40.0" x2="151.6" y2="550.0"/>
<text class="label" x="151.6" y="574.0" text-anchor="middle">2</text>
<line class="grid" x1="213.2" y1="40.0" x2="213.2" y2="550.0"/>
<text class="label" x="213.2" y="574.0" text-anchor="middle">4</text>
<line class="grid" x1="274.8" y1="40.0" x2="274.8" y2="550.0"/>
<text class="label" x="274.8" y="574.0" text-anchor="middle">6</text>
<line class="grid" x1="336.4" y1="40.0" x2="336.4" y2="550.0"/>
<text class="label" x="336.4" y="574.0" text-anchor="middle">8</text>
<line class="grid" x1="398.0" y1="40.0" x2="398.0" y2="550.0"/>
<text class="label" x="398.0" y="574.0" text-anchor="middle">10</text>
<line class="grid" x1="459.6" y1="40.0" x2="459.6" y2="550.0"/>
<text class="label" x="459.6" y="574.0" text-anchor="middle">12</text>
<line class="grid" x1="521.2" y1="40.0" x2="521.2" y2="550.0"/>
<text class="label" x="521.2" y="574.0" text-anchor="middle">14</text>
<line class="grid" x1="582.8" y1="40.0" x2="582.8" y2="550.0"/>
<text class="label" x="582.8" y="574.0" text-anchor="middle">16</text>
<line class="grid" x1="644.4" y1="40.0" x2="644.4" y2="550.0"/>
<text class="label" x="644.4" y="574.0" text-anchor="middle">18</text>
<line class="grid" x1="706.0" y1="40.0" x2="706.0" y2="550.0"/>
<text class="label" x="706.0" y="574.0" text-anchor="middle">20</text>
<line class="grid" x1="767.6" y1="40.0" x2="767.6" y2="550.0"/>
<text class="label" x="767.6" y="574.0" text-anchor="middle">22</text>
<line class="grid" x1="829.2" y1="40.0" x2="829.2" y2="550.0"/>
<text class="label" x="829.2" y="574.0" text-anchor="middle">24</text>
<line x1="90.0" y1="474.9" x2="860.0" y2="474.9" stroke="#999" stroke-width="1.5" stroke-dasharray="6,4"/>
<text x="860.0" y="470.9" text-anchor="end" style="font-size:17px;fill:#999">0 FP observed (floor = 1e-06)</text>
<g clip-path="url(#plot-region)">
<polyline fill="none" stroke="#ef4444" stroke-width="2.5" stroke-dasharray="8,5" points="305.6,74.0 336.4,94.5 367.2,114.9 398.0,135.4 428.8,155.9 459.6,176.4 490.4,196.8 521.2,217.3 552.0,237.8 582.8,258.2 613.6,278.7 644.4,299.2 675.2,319.6 706.0,340.1 736.8,360.6 767.6,381.1 798.4,401.5 829.2,422.0 860.0,442.5 890.8,462.9"/>
<polyline fill="none" stroke="#4dd88a" stroke-width="2.5" points="90.0,74.0 90.0,74.0 90.0,74.0 90.0,74.0 90.0,74.0 90.0,74.0 90.1,74.0 90.1,74.0 90.2,74.0 90.5,74.0 91.0,74.0 91.9,74.0 93.9,74.0 99.6,74.0 109.0,74.0 124.3,74.0 144.4,74.0 178.2,74.0 214.5,74.0 250.2,74.0 284.5,74.0 317.6,74.5 349.9,78.3 412.8,101.5 474.8,137.2 536.5,176.7 598.2,217.4 659.8,258.3"/>
<polygon points="90.0,69.2 94.8,74.0 90.0,78.8 85.2,74.0" fill="#4dd88a"/>
<polygon points="90.0,69.2 94.8,74.0 90.0,78.8 85.2,74.0" fill="#4dd88a"/>
<polygon points="90.0,69.2 94.8,74.0 90.0,78.8 85.2,74.0" fill="#4dd88a"/>
<polygon points="90.0,69.2 94.8,74.0 90.0,78.8 85.2,74.0" fill="#4dd88a"/>
<polygon points="90.0,69.2 94.8,74.0 90.0,78.8 85.2,74.0" fill="#4dd88a"/>
<polygon points="90.0,69.2 94.8,74.0 90.0,78.8 85.2,74.0" fill="#4dd88a"/>
<polygon points="90.1,69.2 94.9,74.0 90.1,78.8 85.3,74.0" fill="#4dd88a"/>
<polygon points="90.1,69.2 94.9,74.0 90.1,78.8 85.3,74.0" fill="#4dd88a"/>
<polygon points="90.2,69.2 95.0,74.0 90.2,78.8 85.4,74.0" fill="#4dd88a"/>
<polygon points="90.5,69.2 95.3,74.0 90.5,78.8 85.7,74.0" fill="#4dd88a"/>
<polygon points="91.0,69.2 95.8,74.0 91.0,78.8 86.2,74.0" fill="#4dd88a"/>
<polygon points="91.9,69.2 96.7,74.0 91.9,78.8 87.1,74.0" fill="#4dd88a"/>
<polygon points="93.9,69.2 98.7,74.0 93.9,78.8 89.1,74.0" fill="#4dd88a"/>
<polygon points="99.6,69.2 104.4,74.0 99.6,78.8 94.8,74.0" fill="#4dd88a"/>
<polygon points="109.0,69.2 113.8,74.0 109.0,78.8 104.2,74.0" fill="#4dd88a"/>
<polygon points="124.3,69.2 129.1,74.0 124.3,78.8 119.5,74.0" fill="#4dd88a"/>
<polygon points="144.4,69.2 149.2,74.0 144.4,78.8 139.6,74.0" fill="#4dd88a"/>
<polygon points="178.2,69.2 183.0,74.0 178.2,78.8 173.4,74.0" fill="#4dd88a"/>
<polygon points="214.5,69.2 219.3,74.0 214.5,78.8 209.7,74.0" fill="#4dd88a"/>
<polygon points="250.2,69.2 255.0,74.0 250.2,78.8 245.4,74.0" fill="#4dd88a"/>
<polygon points="284.5,69.2 289.3,74.0 284.5,78.8 279.7,74.0" fill="#4dd88a"/>
<polygon points="317.6,69.7 322.4,74.5 317.6,79.3 312.8,74.5" fill="#4dd88a"/>
<polygon points="349.9,73.5 354.7,78.3 349.9,83.1 345.1,78.3" fill="#4dd88a"/>
<polygon points="412.8,96.7 417.6,101.5 412.8,106.3 408.0,101.5" fill="#4dd88a"/>
<polygon points="474.8,132.4 479.6,137.2 474.8,142.0 470.0,137.2" fill="#4dd88a"/>
<polygon points="536.5,171.9 541.3,176.7 536.5,181.5 531.7,176.7" fill="#4dd88a"/>
<polygon points="598.2,212.6 603.0,217.4 598.2,222.2 593.4,217.4" fill="#4dd88a"/>
<polygon points="659.8,253.5 664.6,258.3 659.8,263.1 655.0,258.3" fill="#4dd88a"/>
</g>
<line x1="876" y1="60" x2="896" y2="60" stroke="#ef4444" stroke-width="2.5" stroke-dasharray="8,5"/>
<circle cx="886.0" cy="60.0" r="3.6" fill="#ef4444"/>
<text class="label" x="902" y="64">Theoretical</text>
<line x1="876" y1="84" x2="896" y2="84" stroke="#4dd88a" stroke-width="2.5"/>
<polygon points="886.0,79.2 890.8,84.0 886.0,88.8 881.2,84.0" fill="#4dd88a"/>
<text class="label" x="902" y="88">SODA</text>
<text x="475" y="600" text-anchor="middle" style="font-size:22px">Bits per Key (BPK)</text>
<text transform="translate(22,295) rotate(-90)" text-anchor="middle" style="font-size:22px">False Positive Rate (FPR)</text>
<line x1="90.0" y1="610.0" x2="860.0" y2="610.0" stroke="#ccc" stroke-width="1"/>
<text x="82.0" y="613.0" text-anchor="end" style="font-size:17px;fill:#666">FPR ≤ 10⁻²</text>
<g transform="translate(510.2,610.0) scale(1.5) translate(-510.2,-610.0)"><circle cx="510.2" cy="610.0" r="3.6" fill="#ef4444"/>
</g>
<g transform="translate(586.9,610.0) scale(1.5) translate(-586.9,-610.0)"><polygon points="586.9,605.2 591.7,610.0 586.9,614.8 582.1,610.0" fill="#4dd88a"/>
</g>
<line x1="90.0" y1="638.0" x2="860.0" y2="638.0" stroke="#ccc" stroke-width="1"/>
<text x="82.0" y="641.0" text-anchor="end" style="font-size:17px;fill:#666">FPR ≤ 10⁻³</text>
<g transform="translate(612.5,638.0) scale(1.5) translate(-612.5,-638.0)"><circle cx="612.5" cy="638.0" r="3.6" fill="#ef4444"/>
</g>
<line x1="90.0" y1="666.0" x2="860.0" y2="666.0" stroke="#ccc" stroke-width="1"/>
<text x="82.0" y="669.0" text-anchor="end" style="font-size:17px;fill:#666">0 FP</text>

    <!-- ERE overhead arrow (placeholder — move to match curves) -->
<defs><marker id="ah" markerWidth="8" markerHeight="6" refX="8" refY="3" orient="auto"><path d="M0,0 L8,3 L0,6" fill="#555"/></marker><marker id="ahl" markerWidth="8" markerHeight="6" refX="0" refY="3" orient="auto"><path d="M8,0 L0,3 L8,6" fill="#555"/></marker></defs>
<line x1="450" y1="170" x2="525" y2="170" stroke="#555" stroke-width="2" marker-start="url(#ahl)" marker-end="url(#ah)"/>
<text x="500" y="200" text-anchor="middle" font-size="10" fill="#555">≈ 2 BPK</text>
<text x="500" y="225" text-anchor="middle" font-size="10" fill="#777">ERE overhead</text>
</svg>
