<svg xmlns="http://www.w3.org/2000/svg" width="960.0" height="540.0" viewBox="0 0 960.0 540.0">
<style>text{font-family:Menlo,Monaco,monospace;font-size:12px;fill:#222} .axis{stroke:#333;stroke-width:1} .grid{stroke:#ddd;stroke-width:1} .label{font-size:11px;fill:#444}</style>
<text x="480.0" y="26" text-anchor="middle">Build (KeySize=256): Allocs per Op</text>
<line class="axis" x1="90.0" y1="465.0" x2="920.0" y2="465.0" />
<line class="axis" x1="90.0" y1="55.0" x2="90.0" y2="465.0" />
<line class="grid" x1="90.0" y1="465.00" x2="920.0" y2="465.00" />
<text class="label" x="82.0" y="469.00" text-anchor="end">10^4</text>
<line class="grid" x1="90.0" y1="328.33" x2="920.0" y2="328.33" />
<text class="label" x="82.0" y="332.33" text-anchor="end">10^5</text>
<line class="grid" x1="90.0" y1="191.67" x2="920.0" y2="191.67" />
<text class="label" x="82.0" y="195.67" text-anchor="end">10^6</text>
<line class="grid" x1="90.0" y1="55.00" x2="920.0" y2="55.00" />
<text class="label" x="82.0" y="59.00" text-anchor="end">10^7</text>
<line class="grid" x1="90.00" y1="55.0" x2="90.00" y2="465.0" />
<text class="label" x="90.00" y="485.0" text-anchor="middle">1024.0</text>
<line class="grid" x1="588.00" y1="55.0" x2="588.00" y2="465.0" />
<text class="label" x="588.00" y="485.0" text-anchor="middle">8192.0</text>
<line class="grid" x1="920.00" y1="55.0" x2="920.00" y2="465.0" />
<text class="label" x="920.00" y="485.0" text-anchor="middle">32768.0</text>
<polyline fill="none" stroke="#2a7fff" stroke-width="2.5" points="90.00,409.44 588.00,280.78 920.00,197.53" />
<circle cx="90.00" cy="409.44" r="3.5" fill="#2a7fff" />
<circle cx="588.00" cy="280.78" r="3.5" fill="#2a7fff" />
<circle cx="920.00" cy="197.53" r="3.5" fill="#2a7fff" />
<line x1="100.0" y1="67.0" x2="116.0" y2="67.0" stroke="#2a7fff" stroke-width="2.5" />
<text class="label" x="122.0" y="71.0">ZFT</text>
<polyline fill="none" stroke="#e4572e" stroke-width="2.5" points="90.00,380.92 588.00,253.43 920.00,170.45" />
<circle cx="90.00" cy="380.92" r="3.5" fill="#e4572e" />
<circle cx="588.00" cy="253.43" r="3.5" fill="#e4572e" />
<circle cx="920.00" cy="170.45" r="3.5" fill="#e4572e" />
<line x1="100.0" y1="85.0" x2="116.0" y2="85.0" stroke="#e4572e" stroke-width="2.5" />
<text class="label" x="122.0" y="89.0">AZFT</text>
<polyline fill="none" stroke="#22a06b" stroke-width="2.5" points="90.00,330.85 588.00,198.10 920.00,91.11" />
<circle cx="90.00" cy="330.85" r="3.5" fill="#22a06b" />
<circle cx="588.00" cy="198.10" r="3.5" fill="#22a06b" />
<circle cx="920.00" cy="91.11" r="3.5" fill="#22a06b" />
<line x1="100.0" y1="103.0" x2="116.0" y2="103.0" stroke="#22a06b" stroke-width="2.5" />
<text class="label" x="122.0" y="107.0">RangeLocator</text>
<polyline fill="none" stroke="#7c3aed" stroke-width="2.5" points="90.00,321.49 588.00,188.25 920.00,85.14" />
<circle cx="90.00" cy="321.49" r="3.5" fill="#7c3aed" />
<circle cx="588.00" cy="188.25" r="3.5" fill="#7c3aed" />
<circle cx="920.00" cy="85.14" r="3.5" fill="#7c3aed" />
<line x1="100.0" y1="121.0" x2="116.0" y2="121.0" stroke="#7c3aed" stroke-width="2.5" />
<text class="label" x="122.0" y="125.0">LocalExactRangeLocator</text>
<polyline fill="none" stroke="#a16207" stroke-width="2.5" points="90.00,380.43 588.00,254.77 920.00,171.84" />
<circle cx="90.00" cy="380.43" r="3.5" fill="#a16207" />
<circle cx="588.00" cy="254.77" r="3.5" fill="#a16207" />
<circle cx="920.00" cy="171.84" r="3.5" fill="#a16207" />
<line x1="100.0" y1="139.0" x2="116.0" y2="139.0" stroke="#a16207" stroke-width="2.5" />
<text class="label" x="122.0" y="143.0">HZFT Old (Heavy)</text>
<polyline fill="none" stroke="#d946ef" stroke-width="2.5" points="90.00,436.81 588.00,316.27 920.00,233.92" />
<circle cx="90.00" cy="436.81" r="3.5" fill="#d946ef" />
<circle cx="588.00" cy="316.27" r="3.5" fill="#d946ef" />
<circle cx="920.00" cy="233.92" r="3.5" fill="#d946ef" />
<line x1="100.0" y1="157.0" x2="116.0" y2="157.0" stroke="#d946ef" stroke-width="2.5" />
<text class="label" x="122.0" y="161.0">HZFT New (Streaming)</text>
<text class="label" x="480.0" y="522.0" text-anchor="middle">Number of Keys</text>
<text class="label" transform="translate(20,270.0) rotate(-90)" text-anchor="middle">allocs</text>
</svg>