<svg xmlns="http://www.w3.org/2000/svg" width="1020" height="600" viewBox="0 0 1020 600">
<style>text{font-family:Menlo,Monaco,monospace;font-size:12px;fill:#222} .axis{stroke:#333;stroke-width:1} .grid{stroke:#eee;stroke-width:0.5} .label{font-size:11px;fill:#444}</style>
<text x="510" y="28" text-anchor="middle" style="font-size:14px;font-weight:bold">FPR vs BPK — clustered (n=262144, L=128)</text>
<line class="axis" x1="90.0" y1="550.0" x2="870.0" y2="550.0"/>
<line class="axis" x1="90.0" y1="40.0" x2="90.0" y2="550.0"/>
<line class="grid" x1="90.0" y1="513.6" x2="870.0" y2="513.6"/>
<text class="label" x="82.0" y="517.6" text-anchor="end">10^-6</text>
<line class="grid" x1="90.0" y1="440.7" x2="870.0" y2="440.7"/>
<text class="label" x="82.0" y="444.7" text-anchor="end">10^-5</text>
<line class="grid" x1="90.0" y1="367.9" x2="870.0" y2="367.9"/>
<text class="label" x="82.0" y="371.9" text-anchor="end">10^-4</text>
<line class="grid" x1="90.0" y1="295.0" x2="870.0" y2="295.0"/>
<text class="label" x="82.0" y="299.0" text-anchor="end">10^-3</text>
<line class="grid" x1="90.0" y1="222.1" x2="870.0" y2="222.1"/>
<text class="label" x="82.0" y="226.1" text-anchor="end">10^-2</text>
<line class="grid" x1="90.0" y1="149.3" x2="870.0" y2="149.3"/>
<text class="label" x="82.0" y="153.3" text-anchor="end">10^-1</text>
<line class="grid" x1="90.0" y1="76.4" x2="870.0" y2="76.4"/>
<text class="label" x="82.0" y="80.4" text-anchor="end">1</text>
<line class="grid" x1="90.0" y1="40.0" x2="90.0" y2="550.0"/>
<text class="label" x="90.0" y="566.0" text-anchor="middle">0</text>
<line class="grid" x1="147.1" y1="40.0" x2="147.1" y2="550.0"/>
<text class="label" x="147.1" y="566.0" text-anchor="middle">2</text>
<line class="grid" x1="204.3" y1="40.0" x2="204.3" y2="550.0"/>
<text class="label" x="204.3" y="566.0" text-anchor="middle">4</text>
<line class="grid" x1="261.4" y1="40.0" x2="261.4" y2="550.0"/>
<text class="label" x="261.4" y="566.0" text-anchor="middle">6</text>
<line class="grid" x1="318.6" y1="40.0" x2="318.6" y2="550.0"/>
<text class="label" x="318.6" y="566.0" text-anchor="middle">8</text>
<line class="grid" x1="375.7" y1="40.0" x2="375.7" y2="550.0"/>
<text class="label" x="375.7" y="566.0" text-anchor="middle">10</text>
<line class="grid" x1="432.9" y1="40.0" x2="432.9" y2="550.0"/>
<text class="label" x="432.9" y="566.0" text-anchor="middle">12</text>
<line class="grid" x1="490.0" y1="40.0" x2="490.0" y2="550.0"/>
<text class="label" x="490.0" y="566.0" text-anchor="middle">14</text>
<line class="grid" x1="547.1" y1="40.0" x2="547.1" y2="550.0"/>
<text class="label" x="547.1" y="566.0" text-anchor="middle">16</text>
<line class="grid" x1="604.3" y1="40.0" x2="604.3" y2="550.0"/>
<text class="label" x="604.3" y="566.0" text-anchor="middle">18</text>
<line class="grid" x1="661.4" y1="40.0" x2="661.4" y2="550.0"/>
<text class="label" x="661.4" y="566.0" text-anchor="middle">20</text>
<line class="grid" x1="718.6" y1="40.0" x2="718.6" y2="550.0"/>
<text class="label" x="718.6" y="566.0" text-anchor="middle">22</text>
<line class="grid" x1="775.7" y1="40.0" x2="775.7" y2="550.0"/>
<text class="label" x="775.7" y="566.0" text-anchor="middle">24</text>
<line class="grid" x1="832.9" y1="40.0" x2="832.9" y2="550.0"/>
<text class="label" x="832.9" y="566.0" text-anchor="middle">26</text>
<polyline fill="none" stroke="#ef4444" stroke-width="2" stroke-dasharray="8,5" points="290.0,76.4 318.6,98.4 347.1,120.3 375.7,142.2 404.3,164.2 432.9,186.1 461.4,208.0 490.0,230.0 518.6,251.9 547.1,273.8 575.7,295.8 604.3,317.7 632.9,339.6 661.4,361.5 690.0,383.5 718.6,405.4 747.1,427.3 775.7,449.3 804.3,471.2 832.9,493.1"/>
<polyline fill="none" stroke="#4dd88a" stroke-width="2" points="90.0,76.4 90.0,76.4 90.0,76.4 90.0,76.4 90.1,76.4 90.2,76.4 90.3,76.4 90.7,76.4 91.3,76.4 92.7,76.4 95.4,76.4 100.7,76.4 111.2,76.4 129.0,76.4 154.7,76.4 185.9,76.4 219.7,76.4 252.9,76.4 284.9,76.4 315.7,77.1 345.6,81.8 374.9,93.3 403.9,111.5 461.3,149.6 518.6,226.1 575.7,269.0 632.9,312.9 690.0,354.3"/>
<polygon points="90.0,72.4 94.0,76.4 90.0,80.4 86.0,76.4" fill="#4dd88a"/>
<polygon points="90.0,72.4 94.0,76.4 90.0,80.4 86.0,76.4" fill="#4dd88a"/>
<polygon points="90.0,72.4 94.0,76.4 90.0,80.4 86.0,76.4" fill="#4dd88a"/>
<polygon points="90.0,72.4 94.0,76.4 90.0,80.4 86.0,76.4" fill="#4dd88a"/>
<polygon points="90.1,72.4 94.1,76.4 90.1,80.4 86.1,76.4" fill="#4dd88a"/>
<polygon points="90.2,72.4 94.2,76.4 90.2,80.4 86.2,76.4" fill="#4dd88a"/>
<polygon points="90.3,72.4 94.3,76.4 90.3,80.4 86.3,76.4" fill="#4dd88a"/>
<polygon points="90.7,72.4 94.7,76.4 90.7,80.4 86.7,76.4" fill="#4dd88a"/>
<polygon points="91.3,72.4 95.3,76.4 91.3,80.4 87.3,76.4" fill="#4dd88a"/>
<polygon points="92.7,72.4 96.7,76.4 92.7,80.4 88.7,76.4" fill="#4dd88a"/>
<polygon points="95.4,72.4 99.4,76.4 95.4,80.4 91.4,76.4" fill="#4dd88a"/>
<polygon points="100.7,72.4 104.7,76.4 100.7,80.4 96.7,76.4" fill="#4dd88a"/>
<polygon points="111.2,72.4 115.2,76.4 111.2,80.4 107.2,76.4" fill="#4dd88a"/>
<polygon points="129.0,72.4 133.0,76.4 129.0,80.4 125.0,76.4" fill="#4dd88a"/>
<polygon points="154.7,72.4 158.7,76.4 154.7,80.4 150.7,76.4" fill="#4dd88a"/>
<polygon points="185.9,72.4 189.9,76.4 185.9,80.4 181.9,76.4" fill="#4dd88a"/>
<polygon points="219.7,72.4 223.7,76.4 219.7,80.4 215.7,76.4" fill="#4dd88a"/>
<polygon points="252.9,72.4 256.9,76.4 252.9,80.4 248.9,76.4" fill="#4dd88a"/>
<polygon points="284.9,72.4 288.9,76.4 284.9,80.4 280.9,76.4" fill="#4dd88a"/>
<polygon points="315.7,73.1 319.7,77.1 315.7,81.1 311.7,77.1" fill="#4dd88a"/>
<polygon points="345.6,77.8 349.6,81.8 345.6,85.8 341.6,81.8" fill="#4dd88a"/>
<polygon points="374.9,89.3 378.9,93.3 374.9,97.3 370.9,93.3" fill="#4dd88a"/>
<polygon points="403.9,107.5 407.9,111.5 403.9,115.5 399.9,111.5" fill="#4dd88a"/>
<polygon points="461.3,145.6 465.3,149.6 461.3,153.6 457.3,149.6" fill="#4dd88a"/>
<polygon points="518.6,222.1 522.6,226.1 518.6,230.1 514.6,226.1" fill="#4dd88a"/>
<polygon points="575.7,265.0 579.7,269.0 575.7,273.0 571.7,269.0" fill="#4dd88a"/>
<polygon points="632.9,308.9 636.9,312.9 632.9,316.9 628.9,312.9" fill="#4dd88a"/>
<polygon points="690.0,350.3 694.0,354.3 690.0,358.3 686.0,354.3" fill="#4dd88a"/>
<line x1="886" y1="60" x2="902" y2="60" stroke="#ef4444" stroke-width="2" stroke-dasharray="8,5"/>
<circle cx="894.0" cy="60.0" r="3" fill="#ef4444"/>
<text class="label" x="908" y="64">Theoretical</text>
<line x1="886" y1="78" x2="902" y2="78" stroke="#4dd88a" stroke-width="2"/>
<polygon points="894.0,74.0 898.0,78.0 894.0,82.0 890.0,78.0" fill="#4dd88a"/>
<text class="label" x="908" y="82">SODA</text>


    <!-- ERE overhead arrow -->
<defs><marker id="ah" markerWidth="8" markerHeight="6" refX="8" refY="3" orient="auto"><path d="M0,0 L8,3 L0,6" fill="#555"/></marker><marker id="ahl" markerWidth="8" markerHeight="6" refX="0" refY="3" orient="auto"><path d="M8,0 L0,3 L8,6" fill="#555"/></marker></defs>
<line x1="390" y1="150" x2="460" y2="150" stroke="#555" stroke-width="1.5" marker-start="url(#ahl)" marker-end="url(#ah)"/>
<text x="420" y="143" text-anchor="middle" font-size="10" fill="#555">≈ 3 BPK</text>
<text x="450" y="130" text-anchor="middle" font-size="10" fill="#777">ERE overhead (D₁, D₂)</text>

    <!-- ERE overhead arrow -->
<defs><marker id="ah" markerWidth="8" markerHeight="6" refX="8" refY="3" orient="auto"><path d="M0,0 L8,3 L0,6" fill="#555"/></marker><marker id="ahl" markerWidth="8" markerHeight="6" refX="0" refY="3" orient="auto"><path d="M8,0 L0,3 L8,6" fill="#555"/></marker></defs>
<line x1="535" y1="260" x2="565" y2="260" stroke="#555" stroke-width="1.5" marker-start="url(#ahl)" marker-end="url(#ah)"/>
<text x="565" y="253" text-anchor="middle" font-size="10" fill="#555">≈ 1 BPK</text>
<text x="595" y="240" text-anchor="middle" font-size="10" fill="#777">ERE overhead (D₁, D₂) - lucky hash collisions</text>

<text x="480" y="590" text-anchor="middle">Bits per Key (BPK)</text>
<text transform="translate(16,295) rotate(-90)" text-anchor="middle">False Positive Rate (FPR)</text>
</svg>
