<svg xmlns="http://www.w3.org/2000/svg" width="960.0" height="540.0" viewBox="0 0 960.0 540.0">
<style>text{font-family:Menlo,Monaco,monospace;font-size:12px;fill:#222} .axis{stroke:#333;stroke-width:1} .grid{stroke:#ddd;stroke-width:1} .label{font-size:11px;fill:#444}</style>
<text x="480.0" y="26" text-anchor="middle">ARE: Space Consumption by Key Distribution (N=200K)</text>
<line class="axis" x1="90.0" y1="465.0" x2="920.0" y2="465.0" />
<line class="axis" x1="90.0" y1="55.0" x2="90.0" y2="465.0" />
<line class="grid" x1="90.0" y1="465.00" x2="920.0" y2="465.00" />
<text class="label" x="82.0" y="469.00" text-anchor="end">0.00</text>
<line class="grid" x1="90.0" y1="383.00" x2="920.0" y2="383.00" />
<text class="label" x="82.0" y="387.00" text-anchor="end">2.99</text>
<line class="grid" x1="90.0" y1="301.00" x2="920.0" y2="301.00" />
<text class="label" x="82.0" y="305.00" text-anchor="end">5.99</text>
<line class="grid" x1="90.0" y1="219.00" x2="920.0" y2="219.00" />
<text class="label" x="82.0" y="223.00" text-anchor="end">8.98</text>
<line class="grid" x1="90.0" y1="137.00" x2="920.0" y2="137.00" />
<text class="label" x="82.0" y="141.00" text-anchor="end">11.97</text>
<line class="grid" x1="90.0" y1="55.00" x2="920.0" y2="55.00" />
<text class="label" x="82.0" y="59.00" text-anchor="end">14.97</text>
<line class="grid" x1="90.00" y1="55.0" x2="90.00" y2="465.0" />
<text class="label" x="90.00" y="485.0" text-anchor="middle">18.0</text>
<line class="grid" x1="173.00" y1="55.0" x2="173.00" y2="465.0" />
<text class="label" x="173.00" y="485.0" text-anchor="middle">19.0</text>
<line class="grid" x1="256.00" y1="55.0" x2="256.00" y2="465.0" />
<text class="label" x="256.00" y="485.0" text-anchor="middle">20.0</text>
<line class="grid" x1="339.00" y1="55.0" x2="339.00" y2="465.0" />
<text class="label" x="339.00" y="485.0" text-anchor="middle">21.0</text>
<line class="grid" x1="422.00" y1="55.0" x2="422.00" y2="465.0" />
<text class="label" x="422.00" y="485.0" text-anchor="middle">22.0</text>
<line class="grid" x1="505.00" y1="55.0" x2="505.00" y2="465.0" />
<text class="label" x="505.00" y="485.0" text-anchor="middle">23.0</text>
<line class="grid" x1="588.00" y1="55.0" x2="588.00" y2="465.0" />
<text class="label" x="588.00" y="485.0" text-anchor="middle">24.0</text>
<line class="grid" x1="671.00" y1="55.0" x2="671.00" y2="465.0" />
<text class="label" x="671.00" y="485.0" text-anchor="middle">25.0</text>
<line class="grid" x1="754.00" y1="55.0" x2="754.00" y2="465.0" />
<text class="label" x="754.00" y="485.0" text-anchor="middle">26.0</text>
<line class="grid" x1="837.00" y1="55.0" x2="837.00" y2="465.0" />
<text class="label" x="837.00" y="485.0" text-anchor="middle">27.0</text>
<line class="grid" x1="920.00" y1="55.0" x2="920.00" y2="465.0" />
<text class="label" x="920.00" y="485.0" text-anchor="middle">28.0</text>
<polyline fill="none" stroke="#2a7fff" stroke-width="2.5" points="90.00,384.68 173.00,353.78 256.00,321.62 339.00,290.52 422.00,260.50 505.00,231.44 588.00,203.10 671.00,175.15 754.00,147.38 837.00,119.78 920.00,92.27" />
<circle cx="90.00" cy="384.68" r="3.5" fill="#2a7fff" />
<circle cx="173.00" cy="353.78" r="3.5" fill="#2a7fff" />
<circle cx="256.00" cy="321.62" r="3.5" fill="#2a7fff" />
<circle cx="339.00" cy="290.52" r="3.5" fill="#2a7fff" />
<circle cx="422.00" cy="260.50" r="3.5" fill="#2a7fff" />
<circle cx="505.00" cy="231.44" r="3.5" fill="#2a7fff" />
<circle cx="588.00" cy="203.10" r="3.5" fill="#2a7fff" />
<circle cx="671.00" cy="175.15" r="3.5" fill="#2a7fff" />
<circle cx="754.00" cy="147.38" r="3.5" fill="#2a7fff" />
<circle cx="837.00" cy="119.78" r="3.5" fill="#2a7fff" />
<circle cx="920.00" cy="92.27" r="3.5" fill="#2a7fff" />
<line x1="100.0" y1="67.0" x2="116.0" y2="67.0" stroke="#2a7fff" stroke-width="2.5" />
<text class="label" x="122.0" y="71.0">Uniform Keys + Point Queries</text>
<polyline fill="none" stroke="#e4572e" stroke-width="2.5" points="90.00,375.35 173.00,347.96 256.00,320.57 339.00,293.18 422.00,265.79 505.00,238.40 588.00,211.01 671.00,183.61 754.00,156.22 837.00,128.83 920.00,101.44" />
<circle cx="90.00" cy="375.35" r="3.5" fill="#e4572e" />
<circle cx="173.00" cy="347.96" r="3.5" fill="#e4572e" />
<circle cx="256.00" cy="320.57" r="3.5" fill="#e4572e" />
<circle cx="339.00" cy="293.18" r="3.5" fill="#e4572e" />
<circle cx="422.00" cy="265.79" r="3.5" fill="#e4572e" />
<circle cx="505.00" cy="238.40" r="3.5" fill="#e4572e" />
<circle cx="588.00" cy="211.01" r="3.5" fill="#e4572e" />
<circle cx="671.00" cy="183.61" r="3.5" fill="#e4572e" />
<circle cx="754.00" cy="156.22" r="3.5" fill="#e4572e" />
<circle cx="837.00" cy="128.83" r="3.5" fill="#e4572e" />
<circle cx="920.00" cy="101.44" r="3.5" fill="#e4572e" />
<line x1="100.0" y1="85.0" x2="116.0" y2="85.0" stroke="#e4572e" stroke-width="2.5" />
<text class="label" x="122.0" y="89.0">Spread Keys + Point Queries</text>
<polyline fill="none" stroke="#22a06b" stroke-width="2.5" points="90.00,464.65 173.00,464.64 256.00,464.63 339.00,464.41 422.00,463.99 505.00,463.19 588.00,461.58 671.00,458.40 754.00,452.06 837.00,439.41 920.00,414.09" />
<circle cx="90.00" cy="464.65" r="3.5" fill="#22a06b" />
<circle cx="173.00" cy="464.64" r="3.5" fill="#22a06b" />
<circle cx="256.00" cy="464.63" r="3.5" fill="#22a06b" />
<circle cx="339.00" cy="464.41" r="3.5" fill="#22a06b" />
<circle cx="422.00" cy="463.99" r="3.5" fill="#22a06b" />
<circle cx="505.00" cy="463.19" r="3.5" fill="#22a06b" />
<circle cx="588.00" cy="461.58" r="3.5" fill="#22a06b" />
<circle cx="671.00" cy="458.40" r="3.5" fill="#22a06b" />
<circle cx="754.00" cy="452.06" r="3.5" fill="#22a06b" />
<circle cx="837.00" cy="439.41" r="3.5" fill="#22a06b" />
<circle cx="920.00" cy="414.09" r="3.5" fill="#22a06b" />
<line x1="100.0" y1="103.0" x2="116.0" y2="103.0" stroke="#22a06b" stroke-width="2.5" />
<text class="label" x="122.0" y="107.0">Clustered Keys + Point Queries</text>
<text class="label" x="480.0" y="522.0" text-anchor="middle">Prefix Length K (bits)</text>
<text class="label" transform="translate(20,270.0) rotate(-90)" text-anchor="middle">Bits per Key</text>
</svg>