<svg xmlns="http://www.w3.org/2000/svg" width="960" height="540" viewBox="0 0 960 540">
<style>text{font-family:Menlo,Monaco,monospace;font-size:12px;fill:#222} .axis{stroke:#333;stroke-width:1} .grid{stroke:#ddd;stroke-width:1} .label{font-size:11px;fill:#444}</style>
<text x="480.0" y="26" text-anchor="middle">Bits per Key (in-mem)</text>
<line class="axis" x1="90" y1="465" x2="920" y2="465" />
<line class="axis" x1="90" y1="55" x2="90" y2="465" />
<line class="grid" x1="90" y1="465.00" x2="920" y2="465.00" />
<text class="label" x="82" y="469.00" text-anchor="end">0.00</text>
<line class="grid" x1="90" y1="383.00" x2="920" y2="383.00" />
<text class="label" x="82" y="387.00" text-anchor="end">19.36</text>
<line class="grid" x1="90" y1="301.00" x2="920" y2="301.00" />
<text class="label" x="82" y="305.00" text-anchor="end">38.72</text>
<line class="grid" x1="90" y1="219.00" x2="920" y2="219.00" />
<text class="label" x="82" y="223.00" text-anchor="end">58.08</text>
<line class="grid" x1="90" y1="137.00" x2="920" y2="137.00" />
<text class="label" x="82" y="141.00" text-anchor="end">77.44</text>
<line class="grid" x1="90" y1="55.00" x2="920" y2="55.00" />
<text class="label" x="82" y="59.00" text-anchor="end">96.80</text>
<line class="grid" x1="90.00" y1="55" x2="90.00" y2="465" />
<text class="label" x="90.00" y="485" text-anchor="middle">32</text>
<line class="grid" x1="221.05" y1="55" x2="221.05" y2="465" />
<text class="label" x="221.05" y="485" text-anchor="middle">256</text>
<line class="grid" x1="308.42" y1="55" x2="308.42" y2="465" />
<text class="label" x="308.42" y="485" text-anchor="middle">1024</text>
<line class="grid" x1="439.47" y1="55" x2="439.47" y2="465" />
<text class="label" x="439.47" y="485" text-anchor="middle">8192</text>
<line class="grid" x1="526.84" y1="55" x2="526.84" y2="465" />
<text class="label" x="526.84" y="485" text-anchor="middle">32768</text>
<line class="grid" x1="657.89" y1="55" x2="657.89" y2="465" />
<text class="label" x="657.89" y="485" text-anchor="middle">262144</text>
<line class="grid" x1="745.26" y1="55" x2="745.26" y2="465" />
<text class="label" x="745.26" y="485" text-anchor="middle">1048576</text>
<line class="grid" x1="832.63" y1="55" x2="832.63" y2="465" />
<text class="label" x="832.63" y="485" text-anchor="middle">4194304</text>
<line class="grid" x1="876.32" y1="55" x2="876.32" y2="465" />
<text class="label" x="876.32" y="485" text-anchor="middle">8388608</text>
<line class="grid" x1="920.00" y1="55" x2="920.00" y2="465" />
<text class="label" x="920.00" y="485" text-anchor="middle">16777216</text>
<polyline fill="none" stroke="#2a7fff" stroke-width="2.5" points="90.00,92.27 221.05,227.30 308.42,247.38 439.47,259.03 526.84,267.62 657.89,275.80 745.26,280.50 832.63,284.18 920.00,287.32" />
<circle cx="90.00" cy="92.27" r="3.5" fill="#2a7fff" />
<circle cx="221.05" cy="227.30" r="3.5" fill="#2a7fff" />
<circle cx="308.42" cy="247.38" r="3.5" fill="#2a7fff" />
<circle cx="439.47" cy="259.03" r="3.5" fill="#2a7fff" />
<circle cx="526.84" cy="267.62" r="3.5" fill="#2a7fff" />
<circle cx="657.89" cy="275.80" r="3.5" fill="#2a7fff" />
<circle cx="745.26" cy="280.50" r="3.5" fill="#2a7fff" />
<circle cx="832.63" cy="284.18" r="3.5" fill="#2a7fff" />
<circle cx="920.00" cy="287.32" r="3.5" fill="#2a7fff" />
<line x1="100" y1="67" x2="116" y2="67" stroke="#2a7fff" stroke-width="2.5" />
<text class="label" x="122" y="71">bucket-mmph</text>
<polyline fill="none" stroke="#e4572e" stroke-width="2.5" points="90.00,218.28 221.05,389.69 308.42,399.73 439.47,399.73 526.84,400.45 657.89,400.15 745.26,400.15 876.32,400.20" />
<circle cx="90.00" cy="218.28" r="3.5" fill="#e4572e" />
<circle cx="221.05" cy="389.69" r="3.5" fill="#e4572e" />
<circle cx="308.42" cy="399.73" r="3.5" fill="#e4572e" />
<circle cx="439.47" cy="399.73" r="3.5" fill="#e4572e" />
<circle cx="526.84" cy="400.45" r="3.5" fill="#e4572e" />
<circle cx="657.89" cy="400.15" r="3.5" fill="#e4572e" />
<circle cx="745.26" cy="400.15" r="3.5" fill="#e4572e" />
<circle cx="876.32" cy="400.20" r="3.5" fill="#e4572e" />
<line x1="100" y1="85" x2="116" y2="85" stroke="#e4572e" stroke-width="2.5" />
<text class="label" x="122" y="89">bucket_with_approx_trie</text>
<polyline fill="none" stroke="#22a06b" stroke-width="2.5" points="90.00,278.64 221.05,293.46 308.42,295.07 439.47,295.49 526.84,295.58 657.89,295.58 745.26,295.58 832.63,295.58 920.00,295.58" />
<circle cx="90.00" cy="278.64" r="3.5" fill="#22a06b" />
<circle cx="221.05" cy="293.46" r="3.5" fill="#22a06b" />
<circle cx="308.42" cy="295.07" r="3.5" fill="#22a06b" />
<circle cx="439.47" cy="295.49" r="3.5" fill="#22a06b" />
<circle cx="526.84" cy="295.58" r="3.5" fill="#22a06b" />
<circle cx="657.89" cy="295.58" r="3.5" fill="#22a06b" />
<circle cx="745.26" cy="295.58" r="3.5" fill="#22a06b" />
<circle cx="832.63" cy="295.58" r="3.5" fill="#22a06b" />
<circle cx="920.00" cy="295.58" r="3.5" fill="#22a06b" />
<line x1="100" y1="103" x2="116" y2="103" stroke="#22a06b" stroke-width="2.5" />
<text class="label" x="122" y="107">rbtz-mmph</text>
<text class="label" x="480.0" y="522" text-anchor="middle">Key count</text>
<text class="label" transform="translate(20,270.0) rotate(-90)" text-anchor="middle">bits/key</text>
</svg>