<svg xmlns="http://www.w3.org/2000/svg" width="960.0" height="540.0" viewBox="0 0 960.0 540.0">
<style>text{font-family:Menlo,Monaco,monospace;font-size:12px;fill:#222} .axis{stroke:#333;stroke-width:1} .grid{stroke:#ddd;stroke-width:1} .label{font-size:11px;fill:#444}</style>
<text x="480.0" y="26" text-anchor="middle">Build: Bytes (in-mem)</text>
<line class="axis" x1="90.0" y1="465.0" x2="920.0" y2="465.0" />
<line class="axis" x1="90.0" y1="55.0" x2="90.0" y2="465.0" />
<line class="grid" x1="90.0" y1="465.00" x2="920.0" y2="465.00" />
<text class="label" x="82.0" y="469.00" text-anchor="end">10^2</text>
<line class="grid" x1="90.0" y1="396.67" x2="920.0" y2="396.67" />
<text class="label" x="82.0" y="400.67" text-anchor="end">10^3</text>
<line class="grid" x1="90.0" y1="328.33" x2="920.0" y2="328.33" />
<text class="label" x="82.0" y="332.33" text-anchor="end">10^4</text>
<line class="grid" x1="90.0" y1="260.00" x2="920.0" y2="260.00" />
<text class="label" x="82.0" y="264.00" text-anchor="end">10^5</text>
<line class="grid" x1="90.0" y1="191.67" x2="920.0" y2="191.67" />
<text class="label" x="82.0" y="195.67" text-anchor="end">10^6</text>
<line class="grid" x1="90.0" y1="123.33" x2="920.0" y2="123.33" />
<text class="label" x="82.0" y="127.33" text-anchor="end">10^7</text>
<line class="grid" x1="90.0" y1="55.00" x2="920.0" y2="55.00" />
<text class="label" x="82.0" y="59.00" text-anchor="end">10^8</text>
<line class="grid" x1="90.00" y1="55.0" x2="90.00" y2="465.0" />
<text class="label" x="90.00" y="485.0" text-anchor="middle">32.0</text>
<line class="grid" x1="221.05" y1="55.0" x2="221.05" y2="465.0" />
<text class="label" x="221.05" y="485.0" text-anchor="middle">256.0</text>
<line class="grid" x1="308.42" y1="55.0" x2="308.42" y2="465.0" />
<text class="label" x="308.42" y="485.0" text-anchor="middle">1024.0</text>
<line class="grid" x1="439.47" y1="55.0" x2="439.47" y2="465.0" />
<text class="label" x="439.47" y="485.0" text-anchor="middle">8192.0</text>
<line class="grid" x1="526.84" y1="55.0" x2="526.84" y2="465.0" />
<text class="label" x="526.84" y="485.0" text-anchor="middle">32768.0</text>
<line class="grid" x1="657.89" y1="55.0" x2="657.89" y2="465.0" />
<text class="label" x="657.89" y="485.0" text-anchor="middle">262144.0</text>
<line class="grid" x1="745.26" y1="55.0" x2="745.26" y2="465.0" />
<text class="label" x="745.26" y="485.0" text-anchor="middle">1048576.0</text>
<line class="grid" x1="832.63" y1="55.0" x2="832.63" y2="465.0" />
<text class="label" x="832.63" y="485.0" text-anchor="middle">4194304.0</text>
<line class="grid" x1="876.32" y1="55.0" x2="876.32" y2="465.0" />
<text class="label" x="876.32" y="485.0" text-anchor="middle">8388608.0</text>
<line class="grid" x1="920.00" y1="55.0" x2="920.00" y2="465.0" />
<text class="label" x="920.00" y="485.0" text-anchor="middle">16777216.0</text>
<polyline fill="none" stroke="#2a7fff" stroke-width="2.5" points="90.00,430.48 221.05,379.29 308.42,340.24 439.47,280.88 526.84,240.85 657.89,180.39 745.26,139.96 832.63,99.43 920.00,58.80" />
<circle cx="90.00" cy="430.48" r="3.5" fill="#2a7fff" />
<circle cx="221.05" cy="379.29" r="3.5" fill="#2a7fff" />
<circle cx="308.42" cy="340.24" r="3.5" fill="#2a7fff" />
<circle cx="439.47" cy="280.88" r="3.5" fill="#2a7fff" />
<circle cx="526.84" cy="240.85" r="3.5" fill="#2a7fff" />
<circle cx="657.89" cy="180.39" r="3.5" fill="#2a7fff" />
<circle cx="745.26" cy="139.96" r="3.5" fill="#2a7fff" />
<circle cx="832.63" cy="99.43" r="3.5" fill="#2a7fff" />
<circle cx="920.00" cy="58.80" r="3.5" fill="#2a7fff" />
<line x1="100.0" y1="67.0" x2="116.0" y2="67.0" stroke="#2a7fff" stroke-width="2.5" />
<text class="label" x="122.0" y="71.0">bucket-mmph</text>
<polyline fill="none" stroke="#e4572e" stroke-width="2.5" points="90.00,448.22 221.05,388.97 308.42,348.11 439.47,286.48 526.84,245.35 657.89,183.64 745.26,142.50 832.63,101.36 920.00,60.21" />
<circle cx="90.00" cy="448.22" r="3.5" fill="#e4572e" />
<circle cx="221.05" cy="388.97" r="3.5" fill="#e4572e" />
<circle cx="308.42" cy="348.11" r="3.5" fill="#e4572e" />
<circle cx="439.47" cy="286.48" r="3.5" fill="#e4572e" />
<circle cx="526.84" cy="245.35" r="3.5" fill="#e4572e" />
<circle cx="657.89" cy="183.64" r="3.5" fill="#e4572e" />
<circle cx="745.26" cy="142.50" r="3.5" fill="#e4572e" />
<circle cx="832.63" cy="101.36" r="3.5" fill="#e4572e" />
<circle cx="920.00" cy="60.21" r="3.5" fill="#e4572e" />
<line x1="100.0" y1="85.0" x2="116.0" y2="85.0" stroke="#e4572e" stroke-width="2.5" />
<text class="label" x="122.0" y="89.0">rbtz-mmph</text>
<polyline fill="none" stroke="#22a06b" stroke-width="2.5" points="90.00,439.90 221.05,413.40 308.42,376.51 439.47,314.79 526.84,273.99 657.89,212.13 745.26,170.99 876.32,109.31" />
<circle cx="90.00" cy="439.90" r="3.5" fill="#22a06b" />
<circle cx="221.05" cy="413.40" r="3.5" fill="#22a06b" />
<circle cx="308.42" cy="376.51" r="3.5" fill="#22a06b" />
<circle cx="439.47" cy="314.79" r="3.5" fill="#22a06b" />
<circle cx="526.84" cy="273.99" r="3.5" fill="#22a06b" />
<circle cx="657.89" cy="212.13" r="3.5" fill="#22a06b" />
<circle cx="745.26" cy="170.99" r="3.5" fill="#22a06b" />
<circle cx="876.32" cy="109.31" r="3.5" fill="#22a06b" />
<line x1="100.0" y1="103.0" x2="116.0" y2="103.0" stroke="#22a06b" stroke-width="2.5" />
<text class="label" x="122.0" y="107.0">bucket_with_approx_trie</text>
<text class="label" x="480.0" y="522.0" text-anchor="middle">Key count</text>
<text class="label" transform="translate(20,270.0) rotate(-90)" text-anchor="middle">bytes</text>
</svg>