<svg xmlns="http://www.w3.org/2000/svg" width="960.0" height="540.0" viewBox="0 0 960.0 540.0">
<style>text{font-family:Menlo,Monaco,monospace;font-size:12px;fill:#222} .axis{stroke:#333;stroke-width:1} .grid{stroke:#ddd;stroke-width:1} .label{font-size:11px;fill:#444}</style>
<text x="480.0" y="26" text-anchor="middle">Build: Allocs per Op</text>
<line class="axis" x1="90.0" y1="465.0" x2="920.0" y2="465.0" />
<line class="axis" x1="90.0" y1="55.0" x2="90.0" y2="465.0" />
<line class="grid" x1="90.0" y1="465.00" x2="920.0" y2="465.00" />
<text class="label" x="82.0" y="469.00" text-anchor="end">10^1</text>
<line class="grid" x1="90.0" y1="413.75" x2="920.0" y2="413.75" />
<text class="label" x="82.0" y="417.75" text-anchor="end">10^2</text>
<line class="grid" x1="90.0" y1="362.50" x2="920.0" y2="362.50" />
<text class="label" x="82.0" y="366.50" text-anchor="end">10^3</text>
<line class="grid" x1="90.0" y1="311.25" x2="920.0" y2="311.25" />
<text class="label" x="82.0" y="315.25" text-anchor="end">10^4</text>
<line class="grid" x1="90.0" y1="260.00" x2="920.0" y2="260.00" />
<text class="label" x="82.0" y="264.00" text-anchor="end">10^5</text>
<line class="grid" x1="90.0" y1="208.75" x2="920.0" y2="208.75" />
<text class="label" x="82.0" y="212.75" text-anchor="end">10^6</text>
<line class="grid" x1="90.0" y1="157.50" x2="920.0" y2="157.50" />
<text class="label" x="82.0" y="161.50" text-anchor="end">10^7</text>
<line class="grid" x1="90.0" y1="106.25" x2="920.0" y2="106.25" />
<text class="label" x="82.0" y="110.25" text-anchor="end">10^8</text>
<line class="grid" x1="90.0" y1="55.00" x2="920.0" y2="55.00" />
<text class="label" x="82.0" y="59.00" text-anchor="end">10^9</text>
<line class="grid" x1="90.00" y1="55.0" x2="90.00" y2="465.0" />
<text class="label" x="90.00" y="485.0" text-anchor="middle">32.0</text>
<line class="grid" x1="221.05" y1="55.0" x2="221.05" y2="465.0" />
<text class="label" x="221.05" y="485.0" text-anchor="middle">256.0</text>
<line class="grid" x1="308.42" y1="55.0" x2="308.42" y2="465.0" />
<text class="label" x="308.42" y="485.0" text-anchor="middle">1024.0</text>
<line class="grid" x1="439.47" y1="55.0" x2="439.47" y2="465.0" />
<text class="label" x="439.47" y="485.0" text-anchor="middle">8192.0</text>
<line class="grid" x1="526.84" y1="55.0" x2="526.84" y2="465.0" />
<text class="label" x="526.84" y="485.0" text-anchor="middle">32768.0</text>
<line class="grid" x1="657.89" y1="55.0" x2="657.89" y2="465.0" />
<text class="label" x="657.89" y="485.0" text-anchor="middle">262144.0</text>
<line class="grid" x1="745.26" y1="55.0" x2="745.26" y2="465.0" />
<text class="label" x="745.26" y="485.0" text-anchor="middle">1048576.0</text>
<line class="grid" x1="832.63" y1="55.0" x2="832.63" y2="465.0" />
<text class="label" x="832.63" y="485.0" text-anchor="middle">4194304.0</text>
<line class="grid" x1="876.32" y1="55.0" x2="876.32" y2="465.0" />
<text class="label" x="876.32" y="485.0" text-anchor="middle">8388608.0</text>
<line class="grid" x1="920.00" y1="55.0" x2="920.00" y2="465.0" />
<text class="label" x="920.00" y="485.0" text-anchor="middle">16777216.0</text>
<polyline fill="none" stroke="#2a7fff" stroke-width="2.5" points="90.00,410.64 221.05,371.35 308.42,340.16 439.47,294.17 526.84,263.65 657.89,217.75 745.26,187.11 832.63,156.43 920.00,125.71" />
<circle cx="90.00" cy="410.64" r="3.5" fill="#2a7fff" />
<circle cx="221.05" cy="371.35" r="3.5" fill="#2a7fff" />
<circle cx="308.42" cy="340.16" r="3.5" fill="#2a7fff" />
<circle cx="439.47" cy="294.17" r="3.5" fill="#2a7fff" />
<circle cx="526.84" cy="263.65" r="3.5" fill="#2a7fff" />
<circle cx="657.89" cy="217.75" r="3.5" fill="#2a7fff" />
<circle cx="745.26" cy="187.11" r="3.5" fill="#2a7fff" />
<circle cx="832.63" cy="156.43" r="3.5" fill="#2a7fff" />
<circle cx="920.00" cy="125.71" r="3.5" fill="#2a7fff" />
<line x1="100.0" y1="67.0" x2="116.0" y2="67.0" stroke="#2a7fff" stroke-width="2.5" />
<text class="label" x="122.0" y="71.0">bucket-mmph</text>
<polyline fill="none" stroke="#e4572e" stroke-width="2.5" points="90.00,437.76 221.05,397.66 308.42,367.69 439.47,321.68 526.84,290.88 657.89,244.61 745.26,213.76 832.63,182.92 920.00,152.06" />
<circle cx="90.00" cy="437.76" r="3.5" fill="#e4572e" />
<circle cx="221.05" cy="397.66" r="3.5" fill="#e4572e" />
<circle cx="308.42" cy="367.69" r="3.5" fill="#e4572e" />
<circle cx="439.47" cy="321.68" r="3.5" fill="#e4572e" />
<circle cx="526.84" cy="290.88" r="3.5" fill="#e4572e" />
<circle cx="657.89" cy="244.61" r="3.5" fill="#e4572e" />
<circle cx="745.26" cy="213.76" r="3.5" fill="#e4572e" />
<circle cx="832.63" cy="182.92" r="3.5" fill="#e4572e" />
<circle cx="920.00" cy="152.06" r="3.5" fill="#e4572e" />
<line x1="100.0" y1="85.0" x2="116.0" y2="85.0" stroke="#e4572e" stroke-width="2.5" />
<text class="label" x="122.0" y="89.0">rbtz-mmph</text>
<polyline fill="none" stroke="#22a06b" stroke-width="2.5" points="90.00,384.87 221.05,340.93 308.42,306.57 439.47,254.54 526.84,220.99 657.89,168.18 745.26,135.76 876.32,89.08" />
<circle cx="90.00" cy="384.87" r="3.5" fill="#22a06b" />
<circle cx="221.05" cy="340.93" r="3.5" fill="#22a06b" />
<circle cx="308.42" cy="306.57" r="3.5" fill="#22a06b" />
<circle cx="439.47" cy="254.54" r="3.5" fill="#22a06b" />
<circle cx="526.84" cy="220.99" r="3.5" fill="#22a06b" />
<circle cx="657.89" cy="168.18" r="3.5" fill="#22a06b" />
<circle cx="745.26" cy="135.76" r="3.5" fill="#22a06b" />
<circle cx="876.32" cy="89.08" r="3.5" fill="#22a06b" />
<line x1="100.0" y1="103.0" x2="116.0" y2="103.0" stroke="#22a06b" stroke-width="2.5" />
<text class="label" x="122.0" y="107.0">bucket_with_approx_trie</text>
<text class="label" x="480.0" y="522.0" text-anchor="middle">Key count</text>
<text class="label" transform="translate(20,270.0) rotate(-90)" text-anchor="middle">allocs</text>
</svg>