<svg xmlns="http://www.w3.org/2000/svg" width="960.0" height="540.0" viewBox="0 0 960.0 540.0">
<style>text{font-family:Menlo,Monaco,monospace;font-size:12px;fill:#222} .axis{stroke:#333;stroke-width:1} .grid{stroke:#ddd;stroke-width:1} .label{font-size:11px;fill:#444}</style>
<text x="480.0" y="26" text-anchor="middle">Lookup: Allocs per Op</text>
<line class="axis" x1="90.0" y1="465.0" x2="920.0" y2="465.0" />
<line class="axis" x1="90.0" y1="55.0" x2="90.0" y2="465.0" />
<line class="grid" x1="90.0" y1="465.00" x2="920.0" y2="465.00" />
<text class="label" x="82.0" y="469.00" text-anchor="end">10^0</text>
<line class="grid" x1="90.0" y1="260.00" x2="920.0" y2="260.00" />
<text class="label" x="82.0" y="264.00" text-anchor="end">10^1</text>
<line class="grid" x1="90.0" y1="55.00" x2="920.0" y2="55.00" />
<text class="label" x="82.0" y="59.00" text-anchor="end">10^2</text>
<line class="grid" x1="90.00" y1="55.0" x2="90.00" y2="465.0" />
<text class="label" x="90.00" y="485.0" text-anchor="middle">32.0</text>
<line class="grid" x1="228.33" y1="55.0" x2="228.33" y2="465.0" />
<text class="label" x="228.33" y="485.0" text-anchor="middle">256.0</text>
<line class="grid" x1="320.56" y1="55.0" x2="320.56" y2="465.0" />
<text class="label" x="320.56" y="485.0" text-anchor="middle">1024.0</text>
<line class="grid" x1="458.89" y1="55.0" x2="458.89" y2="465.0" />
<text class="label" x="458.89" y="485.0" text-anchor="middle">8192.0</text>
<line class="grid" x1="551.11" y1="55.0" x2="551.11" y2="465.0" />
<text class="label" x="551.11" y="485.0" text-anchor="middle">32768.0</text>
<line class="grid" x1="689.44" y1="55.0" x2="689.44" y2="465.0" />
<text class="label" x="689.44" y="485.0" text-anchor="middle">262144.0</text>
<line class="grid" x1="781.67" y1="55.0" x2="781.67" y2="465.0" />
<text class="label" x="781.67" y="485.0" text-anchor="middle">1048576.0</text>
<line class="grid" x1="873.89" y1="55.0" x2="873.89" y2="465.0" />
<text class="label" x="873.89" y="485.0" text-anchor="middle">4194304.0</text>
<line class="grid" x1="920.00" y1="55.0" x2="920.00" y2="465.0" />
<text class="label" x="920.00" y="485.0" text-anchor="middle">8388608.0</text>
<polyline fill="none" stroke="#2a7fff" stroke-width="2.5" points="90.00,465.00 228.33,465.00 320.56,465.00 458.89,465.00 551.11,465.00 689.44,465.00 781.67,465.00 873.89,465.00" />
<circle cx="90.00" cy="465.00" r="3.5" fill="#2a7fff" />
<circle cx="228.33" cy="465.00" r="3.5" fill="#2a7fff" />
<circle cx="320.56" cy="465.00" r="3.5" fill="#2a7fff" />
<circle cx="458.89" cy="465.00" r="3.5" fill="#2a7fff" />
<circle cx="551.11" cy="465.00" r="3.5" fill="#2a7fff" />
<circle cx="689.44" cy="465.00" r="3.5" fill="#2a7fff" />
<circle cx="781.67" cy="465.00" r="3.5" fill="#2a7fff" />
<circle cx="873.89" cy="465.00" r="3.5" fill="#2a7fff" />
<line x1="100.0" y1="67.0" x2="116.0" y2="67.0" stroke="#2a7fff" stroke-width="2.5" />
<text class="label" x="122.0" y="71.0">bucket-mmph</text>
<polyline fill="none" stroke="#e4572e" stroke-width="2.5" points="90.00,465.00 228.33,465.00 320.56,465.00 458.89,465.00 551.11,465.00 689.44,465.00 781.67,465.00 873.89,465.00" />
<circle cx="90.00" cy="465.00" r="3.5" fill="#e4572e" />
<circle cx="228.33" cy="465.00" r="3.5" fill="#e4572e" />
<circle cx="320.56" cy="465.00" r="3.5" fill="#e4572e" />
<circle cx="458.89" cy="465.00" r="3.5" fill="#e4572e" />
<circle cx="551.11" cy="465.00" r="3.5" fill="#e4572e" />
<circle cx="689.44" cy="465.00" r="3.5" fill="#e4572e" />
<circle cx="781.67" cy="465.00" r="3.5" fill="#e4572e" />
<circle cx="873.89" cy="465.00" r="3.5" fill="#e4572e" />
<line x1="100.0" y1="85.0" x2="116.0" y2="85.0" stroke="#e4572e" stroke-width="2.5" />
<text class="label" x="122.0" y="89.0">rbtz-mmph</text>
<polyline fill="none" stroke="#22a06b" stroke-width="2.5" points="90.00,269.38 228.33,260.00 320.56,251.51 458.89,223.90 551.11,212.76 689.44,185.85 781.67,178.42 920.00,178.42" />
<circle cx="90.00" cy="269.38" r="3.5" fill="#22a06b" />
<circle cx="228.33" cy="260.00" r="3.5" fill="#22a06b" />
<circle cx="320.56" cy="251.51" r="3.5" fill="#22a06b" />
<circle cx="458.89" cy="223.90" r="3.5" fill="#22a06b" />
<circle cx="551.11" cy="212.76" r="3.5" fill="#22a06b" />
<circle cx="689.44" cy="185.85" r="3.5" fill="#22a06b" />
<circle cx="781.67" cy="178.42" r="3.5" fill="#22a06b" />
<circle cx="920.00" cy="178.42" r="3.5" fill="#22a06b" />
<line x1="100.0" y1="103.0" x2="116.0" y2="103.0" stroke="#22a06b" stroke-width="2.5" />
<text class="label" x="122.0" y="107.0">bucket_with_approx_trie</text>
<text class="label" x="480.0" y="522.0" text-anchor="middle">Key count</text>
<text class="label" transform="translate(20,270.0) rotate(-90)" text-anchor="middle">allocs</text>
</svg>