<svg xmlns="http://www.w3.org/2000/svg" width="1020" height="600" viewBox="0 0 1020 600">
<style>text{font-family:Menlo,Monaco,monospace;font-size:12px;fill:#222} .axis{stroke:#333;stroke-width:1} .grid{stroke:#eee;stroke-width:0.5} .label{font-size:11px;fill:#444}</style>
<text x="510" y="28" text-anchor="middle" style="font-size:14px;font-weight:bold">FPR vs BPK — sosd_wiki (60-bit keys, n=14060704, L=65536)</text>
<line class="axis" x1="90.0" y1="550.0" x2="870.0" y2="550.0"/>
<line class="axis" x1="90.0" y1="40.0" x2="90.0" y2="550.0"/>
<line class="grid" x1="90.0" y1="521.7" x2="870.0" y2="521.7"/>
<text class="label" x="82.0" y="525.7" text-anchor="end">10^-8</text>
<line class="grid" x1="90.0" y1="465.0" x2="870.0" y2="465.0"/>
<text class="label" x="82.0" y="469.0" text-anchor="end">10^-7</text>
<line class="grid" x1="90.0" y1="408.3" x2="870.0" y2="408.3"/>
<text class="label" x="82.0" y="412.3" text-anchor="end">10^-6</text>
<line class="grid" x1="90.0" y1="351.7" x2="870.0" y2="351.7"/>
<text class="label" x="82.0" y="355.7" text-anchor="end">10^-5</text>
<line class="grid" x1="90.0" y1="295.0" x2="870.0" y2="295.0"/>
<text class="label" x="82.0" y="299.0" text-anchor="end">10^-4</text>
<line class="grid" x1="90.0" y1="238.3" x2="870.0" y2="238.3"/>
<text class="label" x="82.0" y="242.3" text-anchor="end">10^-3</text>
<line class="grid" x1="90.0" y1="181.7" x2="870.0" y2="181.7"/>
<text class="label" x="82.0" y="185.7" text-anchor="end">10^-2</text>
<line class="grid" x1="90.0" y1="125.0" x2="870.0" y2="125.0"/>
<text class="label" x="82.0" y="129.0" text-anchor="end">10^-1</text>
<line class="grid" x1="90.0" y1="68.3" x2="870.0" y2="68.3"/>
<text class="label" x="82.0" y="72.3" text-anchor="end">1</text>
<line class="grid" x1="90.0" y1="40.0" x2="90.0" y2="550.0"/>
<text class="label" x="90.0" y="566.0" text-anchor="middle">0</text>
<line class="grid" x1="167.4" y1="40.0" x2="167.4" y2="550.0"/>
<text class="label" x="167.4" y="566.0" text-anchor="middle">5</text>
<line class="grid" x1="244.8" y1="40.0" x2="244.8" y2="550.0"/>
<text class="label" x="244.8" y="566.0" text-anchor="middle">10</text>
<line class="grid" x1="322.1" y1="40.0" x2="322.1" y2="550.0"/>
<text class="label" x="322.1" y="566.0" text-anchor="middle">15</text>
<line class="grid" x1="399.5" y1="40.0" x2="399.5" y2="550.0"/>
<text class="label" x="399.5" y="566.0" text-anchor="middle">20</text>
<line class="grid" x1="476.9" y1="40.0" x2="476.9" y2="550.0"/>
<text class="label" x="476.9" y="566.0" text-anchor="middle">25</text>
<line class="grid" x1="554.3" y1="40.0" x2="554.3" y2="550.0"/>
<text class="label" x="554.3" y="566.0" text-anchor="middle">30</text>
<line class="grid" x1="631.7" y1="40.0" x2="631.7" y2="550.0"/>
<text class="label" x="631.7" y="566.0" text-anchor="middle">35</text>
<line class="grid" x1="709.0" y1="40.0" x2="709.0" y2="550.0"/>
<text class="label" x="709.0" y="566.0" text-anchor="middle">40</text>
<line class="grid" x1="786.4" y1="40.0" x2="786.4" y2="550.0"/>
<text class="label" x="786.4" y="566.0" text-anchor="middle">45</text>
<line class="grid" x1="863.8" y1="40.0" x2="863.8" y2="550.0"/>
<text class="label" x="863.8" y="566.0" text-anchor="middle">50</text>
<polyline fill="none" stroke="#ef4444" stroke-width="2" stroke-dasharray="8,5" points="337.6,68.3 353.1,85.4 368.6,102.5 384.0,119.5 399.5,136.6 430.5,170.7 461.4,204.8 523.3,273.0 585.2,341.3 647.1,409.5 709.0,477.7 832.9,614.2"/>
<circle cx="337.6" cy="68.3" r="3" fill="#ef4444"/>
<circle cx="353.1" cy="85.4" r="3" fill="#ef4444"/>
<circle cx="368.6" cy="102.5" r="3" fill="#ef4444"/>
<circle cx="384.0" cy="119.5" r="3" fill="#ef4444"/>
<circle cx="399.5" cy="136.6" r="3" fill="#ef4444"/>
<circle cx="430.5" cy="170.7" r="3" fill="#ef4444"/>
<circle cx="461.4" cy="204.8" r="3" fill="#ef4444"/>
<circle cx="523.3" cy="273.0" r="3" fill="#ef4444"/>
<circle cx="585.2" cy="341.3" r="3" fill="#ef4444"/>
<circle cx="647.1" cy="409.5" r="3" fill="#ef4444"/>
<circle cx="709.0" cy="477.7" r="3" fill="#ef4444"/>
<circle cx="832.9" cy="614.2" r="3" fill="#ef4444"/>
<polyline fill="none" stroke="#1a6b3c" stroke-width="2" points="160.3,96.9"/>
<polygon points="160.3,92.9 164.3,96.9 160.3,100.9 156.3,96.9" fill="#1a6b3c"/>
<polyline fill="none" stroke="#1a3a6b" stroke-width="2" points="142.1,78.0 172.9,103.1 204.1,126.5 235.2,143.0 266.0,155.4 296.8,183.4 327.9,183.4 359.0,183.4 389.8,183.4"/>
<polygon points="142.1,73.0 141.0,76.4 137.4,76.5 140.2,78.6 139.2,82.1 142.1,80.0 145.1,82.1 144.0,78.6 146.9,76.5 143.3,76.4" fill="#1a3a6b"/>
<polygon points="172.9,98.1 171.8,101.5 168.2,101.6 171.0,103.7 170.0,107.1 172.9,105.1 175.9,107.1 174.8,103.7 177.7,101.6 174.1,101.5" fill="#1a3a6b"/>
<polygon points="204.1,121.5 202.9,124.8 199.3,124.9 202.1,127.1 201.1,130.5 204.1,128.5 207.0,130.5 206.0,127.1 208.8,124.9 205.2,124.8" fill="#1a3a6b"/>
<polygon points="235.2,138.0 234.0,141.4 230.4,141.5 233.3,143.6 232.2,147.0 235.2,145.0 238.1,147.0 237.1,143.6 239.9,141.5 236.3,141.4" fill="#1a3a6b"/>
<polygon points="266.0,150.4 264.8,153.8 261.2,153.9 264.1,156.1 263.0,159.5 266.0,157.4 268.9,159.5 267.9,156.1 270.7,153.9 267.1,153.8" fill="#1a3a6b"/>
<polygon points="296.8,178.4 295.6,181.8 292.0,181.9 294.9,184.0 293.8,187.5 296.8,185.4 299.7,187.5 298.7,184.0 301.5,181.9 297.9,181.8" fill="#1a3a6b"/>
<polygon points="327.9,178.4 326.7,181.8 323.1,181.9 326.0,184.0 324.9,187.5 327.9,185.4 330.8,187.5 329.8,184.0 332.6,181.9 329.0,181.8" fill="#1a3a6b"/>
<polygon points="359.0,178.4 357.8,181.8 354.2,181.9 357.1,184.0 356.0,187.5 359.0,185.4 361.9,187.5 360.9,184.0 363.7,181.9 360.1,181.8" fill="#1a3a6b"/>
<polygon points="389.8,178.4 388.6,181.8 385.0,181.9 387.9,184.0 386.8,187.5 389.8,185.4 392.7,187.5 391.7,184.0 394.5,181.9 390.9,181.8" fill="#1a3a6b"/>
<polyline fill="none" stroke="#111111" stroke-width="2" points="246.9,137.9"/>
<rect x="243.9" y="134.9" width="6" height="6" fill="#111111"/>
<polyline fill="none" stroke="#111111" stroke-width="2" points="458.2,137.9"/>
<polygon points="458.2,133.9 462.2,140.9 454.2,140.9" fill="#111111"/>
<polyline fill="none" stroke="#111111" stroke-width="2" points="458.2,304.3"/>
<polygon points="458.2,300.3 462.2,304.3 458.2,308.3 454.2,304.3" fill="#111111"/>
<polyline fill="none" stroke="#2a7fff" stroke-width="2" points="90.0,68.3 90.0,68.3 90.0,68.3 90.0,68.3 90.0,68.3 90.0,68.3 90.0,68.3 90.0,68.3 90.0,68.3 90.0,68.3 90.1,68.3 90.1,68.3 90.2,68.3 90.4,68.3 90.9,68.3 91.7,68.3 93.5,68.3 103.7,68.5 131.1,73.7 201.3,521.7"/>
<rect x="87.0" y="65.3" width="6" height="6" fill="#2a7fff"/>
<rect x="87.0" y="65.3" width="6" height="6" fill="#2a7fff"/>
<rect x="87.0" y="65.3" width="6" height="6" fill="#2a7fff"/>
<rect x="87.0" y="65.3" width="6" height="6" fill="#2a7fff"/>
<rect x="87.0" y="65.3" width="6" height="6" fill="#2a7fff"/>
<rect x="87.0" y="65.3" width="6" height="6" fill="#2a7fff"/>
<rect x="87.0" y="65.3" width="6" height="6" fill="#2a7fff"/>
<rect x="87.0" y="65.3" width="6" height="6" fill="#2a7fff"/>
<rect x="87.0" y="65.3" width="6" height="6" fill="#2a7fff"/>
<rect x="87.0" y="65.3" width="6" height="6" fill="#2a7fff"/>
<rect x="87.1" y="65.3" width="6" height="6" fill="#2a7fff"/>
<rect x="87.1" y="65.3" width="6" height="6" fill="#2a7fff"/>
<rect x="87.2" y="65.3" width="6" height="6" fill="#2a7fff"/>
<rect x="87.4" y="65.3" width="6" height="6" fill="#2a7fff"/>
<rect x="87.9" y="65.3" width="6" height="6" fill="#2a7fff"/>
<rect x="88.7" y="65.3" width="6" height="6" fill="#2a7fff"/>
<rect x="90.5" y="65.3" width="6" height="6" fill="#2a7fff"/>
<rect x="100.7" y="65.5" width="6" height="6" fill="#2a7fff"/>
<rect x="128.1" y="70.7" width="6" height="6" fill="#2a7fff"/>
<rect x="198.3" y="518.7" width="6" height="6" fill="#2a7fff"/>
<polyline fill="none" stroke="#9b59b6" stroke-width="2" points="90.0,68.4 90.0,68.4 90.0,68.4 90.0,68.4 90.0,68.4 90.0,68.4 90.0,68.4 90.0,68.4 90.0,68.4 90.0,68.4 90.0,68.4 90.1,68.4 90.1,68.4 90.3,68.4 90.5,68.4 91.1,68.4 92.0,68.4 97.3,68.4 113.5,68.8 201.3,521.7 263.2,521.7 325.1,521.7 387.0,521.7 510.8,521.7"/>
<polygon points="90.0,64.4 94.0,71.4 86.0,71.4" fill="#9b59b6"/>
<polygon points="90.0,64.4 94.0,71.4 86.0,71.4" fill="#9b59b6"/>
<polygon points="90.0,64.4 94.0,71.4 86.0,71.4" fill="#9b59b6"/>
<polygon points="90.0,64.4 94.0,71.4 86.0,71.4" fill="#9b59b6"/>
<polygon points="90.0,64.4 94.0,71.4 86.0,71.4" fill="#9b59b6"/>
<polygon points="90.0,64.4 94.0,71.4 86.0,71.4" fill="#9b59b6"/>
<polygon points="90.0,64.4 94.0,71.4 86.0,71.4" fill="#9b59b6"/>
<polygon points="90.0,64.4 94.0,71.4 86.0,71.4" fill="#9b59b6"/>
<polygon points="90.0,64.4 94.0,71.4 86.0,71.4" fill="#9b59b6"/>
<polygon points="90.0,64.4 94.0,71.4 86.0,71.4" fill="#9b59b6"/>
<polygon points="90.0,64.4 94.0,71.4 86.0,71.4" fill="#9b59b6"/>
<polygon points="90.1,64.4 94.1,71.4 86.1,71.4" fill="#9b59b6"/>
<polygon points="90.1,64.4 94.1,71.4 86.1,71.4" fill="#9b59b6"/>
<polygon points="90.3,64.4 94.3,71.4 86.3,71.4" fill="#9b59b6"/>
<polygon points="90.5,64.4 94.5,71.4 86.5,71.4" fill="#9b59b6"/>
<polygon points="91.1,64.4 95.1,71.4 87.1,71.4" fill="#9b59b6"/>
<polygon points="92.0,64.4 96.0,71.4 88.0,71.4" fill="#9b59b6"/>
<polygon points="97.3,64.4 101.3,71.4 93.3,71.4" fill="#9b59b6"/>
<polygon points="113.5,64.8 117.5,71.8 109.5,71.8" fill="#9b59b6"/>
<polygon points="201.3,517.7 205.3,524.7 197.3,524.7" fill="#9b59b6"/>
<polygon points="263.2,517.7 267.2,524.7 259.2,524.7" fill="#9b59b6"/>
<polygon points="325.1,517.7 329.1,524.7 321.1,524.7" fill="#9b59b6"/>
<polygon points="387.0,517.7 391.0,524.7 383.0,524.7" fill="#9b59b6"/>
<polygon points="510.8,517.7 514.8,524.7 506.8,524.7" fill="#9b59b6"/>
<polyline fill="none" stroke="#4dd88a" stroke-width="2" points="90.0,68.3 90.0,68.3 90.0,68.3 90.0,68.3 90.0,68.3 90.0,68.3 90.0,68.3 90.0,68.3 90.0,68.3 90.0,68.3 90.1,68.3 90.1,68.3 90.2,68.3 90.4,68.3 90.9,68.3 91.7,68.3 93.5,68.3 103.7,68.5 131.1,73.7 201.3,521.7 263.2,521.7 325.1,521.7 387.0,521.7 510.8,521.7"/>
<polygon points="90.0,64.3 94.0,68.3 90.0,72.3 86.0,68.3" fill="#4dd88a"/>
<polygon points="90.0,64.3 94.0,68.3 90.0,72.3 86.0,68.3" fill="#4dd88a"/>
<polygon points="90.0,64.3 94.0,68.3 90.0,72.3 86.0,68.3" fill="#4dd88a"/>
<polygon points="90.0,64.3 94.0,68.3 90.0,72.3 86.0,68.3" fill="#4dd88a"/>
<polygon points="90.0,64.3 94.0,68.3 90.0,72.3 86.0,68.3" fill="#4dd88a"/>
<polygon points="90.0,64.3 94.0,68.3 90.0,72.3 86.0,68.3" fill="#4dd88a"/>
<polygon points="90.0,64.3 94.0,68.3 90.0,72.3 86.0,68.3" fill="#4dd88a"/>
<polygon points="90.0,64.3 94.0,68.3 90.0,72.3 86.0,68.3" fill="#4dd88a"/>
<polygon points="90.0,64.3 94.0,68.3 90.0,72.3 86.0,68.3" fill="#4dd88a"/>
<polygon points="90.0,64.3 94.0,68.3 90.0,72.3 86.0,68.3" fill="#4dd88a"/>
<polygon points="90.1,64.3 94.1,68.3 90.1,72.3 86.1,68.3" fill="#4dd88a"/>
<polygon points="90.1,64.3 94.1,68.3 90.1,72.3 86.1,68.3" fill="#4dd88a"/>
<polygon points="90.2,64.3 94.2,68.3 90.2,72.3 86.2,68.3" fill="#4dd88a"/>
<polygon points="90.4,64.3 94.4,68.3 90.4,72.3 86.4,68.3" fill="#4dd88a"/>
<polygon points="90.9,64.3 94.9,68.3 90.9,72.3 86.9,68.3" fill="#4dd88a"/>
<polygon points="91.7,64.3 95.7,68.3 91.7,72.3 87.7,68.3" fill="#4dd88a"/>
<polygon points="93.5,64.3 97.5,68.3 93.5,72.3 89.5,68.3" fill="#4dd88a"/>
<polygon points="103.7,64.5 107.7,68.5 103.7,72.5 99.7,68.5" fill="#4dd88a"/>
<polygon points="131.1,69.7 135.1,73.7 131.1,77.7 127.1,73.7" fill="#4dd88a"/>
<polygon points="201.3,517.7 205.3,521.7 201.3,525.7 197.3,521.7" fill="#4dd88a"/>
<polygon points="263.2,517.7 267.2,521.7 263.2,525.7 259.2,521.7" fill="#4dd88a"/>
<polygon points="325.1,517.7 329.1,521.7 325.1,525.7 321.1,521.7" fill="#4dd88a"/>
<polygon points="387.0,517.7 391.0,521.7 387.0,525.7 383.0,521.7" fill="#4dd88a"/>
<polygon points="510.8,517.7 514.8,521.7 510.8,525.7 506.8,521.7" fill="#4dd88a"/>
<polyline fill="none" stroke="#ff6b6b" stroke-width="2" points="90.0,68.4 90.0,68.4 90.0,68.4 90.0,68.4 90.0,68.4 90.0,68.4 90.0,68.4 90.0,68.4 90.0,68.4 90.0,68.4 90.1,68.4 90.2,68.4 90.4,68.4 90.7,68.4 91.1,68.5 91.9,68.6 92.8,68.6 98.1,68.6 114.3,69.0 201.1,521.7 262.3,521.7 323.5,521.7 384.7,521.7 507.1,521.7"/>
<polygon points="90.0,63.4 88.8,66.7 85.2,66.8 88.1,69.0 87.1,72.4 90.0,70.4 92.9,72.4 91.9,69.0 94.8,66.8 91.2,66.7" fill="#ff6b6b"/>
<polygon points="90.0,63.4 88.8,66.7 85.2,66.8 88.1,69.0 87.1,72.4 90.0,70.4 92.9,72.4 91.9,69.0 94.8,66.8 91.2,66.7" fill="#ff6b6b"/>
<polygon points="90.0,63.4 88.8,66.7 85.2,66.8 88.1,69.0 87.1,72.4 90.0,70.4 92.9,72.4 91.9,69.0 94.8,66.8 91.2,66.7" fill="#ff6b6b"/>
<polygon points="90.0,63.4 88.8,66.7 85.2,66.8 88.1,69.0 87.1,72.4 90.0,70.4 92.9,72.4 91.9,69.0 94.8,66.8 91.2,66.7" fill="#ff6b6b"/>
<polygon points="90.0,63.4 88.8,66.7 85.2,66.8 88.1,69.0 87.1,72.4 90.0,70.4 92.9,72.4 91.9,69.0 94.8,66.8 91.2,66.7" fill="#ff6b6b"/>
<polygon points="90.0,63.4 88.8,66.7 85.2,66.8 88.1,69.0 87.1,72.4 90.0,70.4 92.9,72.4 91.9,69.0 94.8,66.8 91.2,66.7" fill="#ff6b6b"/>
<polygon points="90.0,63.4 88.8,66.7 85.3,66.8 88.1,69.0 87.1,72.4 90.0,70.4 92.9,72.4 91.9,69.0 94.8,66.8 91.2,66.7" fill="#ff6b6b"/>
<polygon points="90.0,63.4 88.8,66.7 85.3,66.8 88.1,69.0 87.1,72.4 90.0,70.4 93.0,72.4 91.9,69.0 94.8,66.8 91.2,66.7" fill="#ff6b6b"/>
<polygon points="90.0,63.4 88.8,66.7 85.3,66.8 88.1,69.0 87.1,72.4 90.0,70.4 93.0,72.4 91.9,69.0 94.8,66.8 91.2,66.7" fill="#ff6b6b"/>
<polygon points="90.0,63.4 88.9,66.7 85.3,66.8 88.1,69.0 87.1,72.4 90.0,70.4 93.0,72.4 91.9,69.0 94.8,66.8 91.2,66.7" fill="#ff6b6b"/>
<polygon points="90.1,63.4 88.9,66.8 85.3,66.8 88.2,69.0 87.2,72.4 90.1,70.4 93.0,72.4 92.0,69.0 94.8,66.8 91.3,66.8" fill="#ff6b6b"/>
<polygon points="90.2,63.4 89.0,66.8 85.4,66.8 88.3,69.0 87.2,72.4 90.2,70.4 93.1,72.4 92.1,69.0 94.9,66.8 91.4,66.8" fill="#ff6b6b"/>
<polygon points="90.4,63.4 89.2,66.8 85.6,66.8 88.5,69.0 87.4,72.4 90.4,70.4 93.3,72.4 92.3,69.0 95.1,66.8 91.5,66.8" fill="#ff6b6b"/>
<polygon points="90.7,63.4 89.5,66.8 85.9,66.9 88.8,69.0 87.7,72.5 90.7,70.4 93.6,72.5 92.6,69.0 95.4,66.9 91.8,66.8" fill="#ff6b6b"/>
<polygon points="91.1,63.5 90.0,66.9 86.4,66.9 89.2,69.1 88.2,72.5 91.1,70.5 94.1,72.5 93.0,69.1 95.9,66.9 92.3,66.9" fill="#ff6b6b"/>
<polygon points="91.9,63.6 90.7,66.9 87.1,67.0 90.0,69.2 88.9,72.6 91.9,70.6 94.8,72.6 93.8,69.2 96.6,67.0 93.0,66.9" fill="#ff6b6b"/>
<polygon points="92.8,63.6 91.7,66.9 88.1,67.0 90.9,69.2 89.9,72.6 92.8,70.6 95.8,72.6 94.7,69.2 97.6,67.0 94.0,66.9" fill="#ff6b6b"/>
<polygon points="98.1,63.6 96.9,67.0 93.3,67.1 96.2,69.2 95.1,72.6 98.1,70.6 101.0,72.6 100.0,69.2 102.8,67.1 99.2,67.0" fill="#ff6b6b"/>
<polygon points="114.3,64.0 113.1,67.4 109.5,67.4 112.4,69.6 111.3,73.0 114.3,71.0 117.2,73.0 116.2,69.6 119.0,67.4 115.4,67.4" fill="#ff6b6b"/>
<polygon points="201.1,516.7 199.9,520.0 196.3,520.1 199.2,522.3 198.1,525.7 201.1,523.7 204.0,525.7 203.0,522.3 205.8,520.1 202.3,520.0" fill="#ff6b6b"/>
<polygon points="262.3,516.7 261.1,520.0 257.5,520.1 260.4,522.3 259.3,525.7 262.3,523.7 265.2,525.7 264.2,522.3 267.0,520.1 263.5,520.0" fill="#ff6b6b"/>
<polygon points="323.5,516.7 322.3,520.0 318.7,520.1 321.6,522.3 320.6,525.7 323.5,523.7 326.4,525.7 325.4,522.3 328.2,520.1 324.7,520.0" fill="#ff6b6b"/>
<polygon points="384.7,516.7 383.5,520.0 379.9,520.1 382.8,522.3 381.8,525.7 384.7,523.7 387.6,525.7 386.6,522.3 389.4,520.1 385.9,520.0" fill="#ff6b6b"/>
<polygon points="507.1,516.7 505.9,520.0 502.3,520.1 505.2,522.3 504.2,525.7 507.1,523.7 510.0,525.7 509.0,522.3 511.9,520.1 508.3,520.0" fill="#ff6b6b"/>
<polyline fill="none" stroke="#06b6d4" stroke-width="2" points="90.0,68.4 90.0,68.4 90.0,68.4 90.0,68.4 90.0,68.4 90.0,68.4 90.0,68.4 90.0,68.4 90.0,68.4 90.0,68.4 90.1,68.4 90.1,68.4 90.2,68.4 90.4,68.4 90.9,68.4 91.7,68.4 93.5,68.4 103.7,68.5 131.1,73.7 201.3,521.7"/>
<polygon points="90.0,63.4 88.8,66.7 85.2,66.8 88.1,69.0 87.1,72.4 90.0,70.4 92.9,72.4 91.9,69.0 94.8,66.8 91.2,66.7" fill="#06b6d4"/>
<polygon points="90.0,63.4 88.8,66.7 85.2,66.8 88.1,69.0 87.1,72.4 90.0,70.4 92.9,72.4 91.9,69.0 94.8,66.8 91.2,66.7" fill="#06b6d4"/>
<polygon points="90.0,63.4 88.8,66.7 85.2,66.8 88.1,69.0 87.1,72.4 90.0,70.4 92.9,72.4 91.9,69.0 94.8,66.8 91.2,66.7" fill="#06b6d4"/>
<polygon points="90.0,63.4 88.8,66.7 85.2,66.8 88.1,69.0 87.1,72.4 90.0,70.4 92.9,72.4 91.9,69.0 94.8,66.8 91.2,66.7" fill="#06b6d4"/>
<polygon points="90.0,63.4 88.8,66.7 85.2,66.8 88.1,69.0 87.1,72.4 90.0,70.4 92.9,72.4 91.9,69.0 94.8,66.8 91.2,66.7" fill="#06b6d4"/>
<polygon points="90.0,63.4 88.8,66.7 85.2,66.8 88.1,69.0 87.1,72.4 90.0,70.4 92.9,72.4 91.9,69.0 94.8,66.8 91.2,66.7" fill="#06b6d4"/>
<polygon points="90.0,63.4 88.8,66.7 85.2,66.8 88.1,69.0 87.1,72.4 90.0,70.4 92.9,72.4 91.9,69.0 94.8,66.8 91.2,66.7" fill="#06b6d4"/>
<polygon points="90.0,63.4 88.8,66.7 85.3,66.8 88.1,69.0 87.1,72.4 90.0,70.4 92.9,72.4 91.9,69.0 94.8,66.8 91.2,66.7" fill="#06b6d4"/>
<polygon points="90.0,63.4 88.8,66.7 85.3,66.8 88.1,69.0 87.1,72.4 90.0,70.4 93.0,72.4 91.9,69.0 94.8,66.8 91.2,66.7" fill="#06b6d4"/>
<polygon points="90.0,63.4 88.9,66.7 85.3,66.8 88.1,69.0 87.1,72.4 90.0,70.4 93.0,72.4 91.9,69.0 94.8,66.8 91.2,66.7" fill="#06b6d4"/>
<polygon points="90.1,63.4 88.9,66.7 85.3,66.8 88.2,69.0 87.1,72.4 90.1,70.4 93.0,72.4 92.0,69.0 94.8,66.8 91.2,66.7" fill="#06b6d4"/>
<polygon points="90.1,63.4 88.9,66.7 85.4,66.8 88.2,69.0 87.2,72.4 90.1,70.4 93.0,72.4 92.0,69.0 94.9,66.8 91.3,66.7" fill="#06b6d4"/>
<polygon points="90.2,63.4 89.0,66.7 85.5,66.8 88.3,69.0 87.3,72.4 90.2,70.4 93.2,72.4 92.1,69.0 95.0,66.8 91.4,66.7" fill="#06b6d4"/>
<polygon points="90.4,63.4 89.3,66.7 85.7,66.8 88.5,69.0 87.5,72.4 90.4,70.4 93.4,72.4 92.3,69.0 95.2,66.8 91.6,66.7" fill="#06b6d4"/>
<polygon points="90.9,63.4 89.7,66.7 86.1,66.8 89.0,69.0 87.9,72.4 90.9,70.4 93.8,72.4 92.8,69.0 95.6,66.8 92.0,66.7" fill="#06b6d4"/>
<polygon points="91.7,63.4 90.6,66.7 87.0,66.8 89.8,69.0 88.8,72.4 91.7,70.4 94.7,72.4 93.6,69.0 96.5,66.8 92.9,66.7" fill="#06b6d4"/>
<polygon points="93.5,63.4 92.3,66.7 88.7,66.8 91.6,69.0 90.5,72.4 93.5,70.4 96.4,72.4 95.4,69.0 98.2,66.8 94.6,66.7" fill="#06b6d4"/>
<polygon points="103.7,63.5 102.5,66.9 98.9,67.0 101.8,69.2 100.7,72.6 103.7,70.5 106.6,72.6 105.6,69.2 108.4,67.0 104.8,66.9" fill="#06b6d4"/>
<polygon points="131.1,68.7 130.0,72.1 126.4,72.1 129.2,74.3 128.2,77.7 131.1,75.7 134.1,77.7 133.0,74.3 135.9,72.1 132.3,72.1" fill="#06b6d4"/>
<polygon points="201.3,516.7 200.1,520.0 196.6,520.1 199.4,522.3 198.4,525.7 201.3,523.7 204.3,525.7 203.2,522.3 206.1,520.1 202.5,520.0" fill="#06b6d4"/>
<polyline fill="none" stroke="#888888" stroke-width="2" stroke-dasharray="8,5" points="519.7,229.1 542.9,292.5 572.9,288.4 595.4,306.6 617.8,291.4 647.4,521.7 669.7,521.7 692.1,385.4 721.6,521.7 743.9,521.7"/>
<circle cx="519.7" cy="229.1" r="3" fill="#888888"/>
<circle cx="542.9" cy="292.5" r="3" fill="#888888"/>
<circle cx="572.9" cy="288.4" r="3" fill="#888888"/>
<circle cx="595.4" cy="306.6" r="3" fill="#888888"/>
<circle cx="617.8" cy="291.4" r="3" fill="#888888"/>
<circle cx="647.4" cy="521.7" r="3" fill="#888888"/>
<circle cx="669.7" cy="521.7" r="3" fill="#888888"/>
<circle cx="692.1" cy="385.4" r="3" fill="#888888"/>
<circle cx="721.6" cy="521.7" r="3" fill="#888888"/>
<circle cx="743.9" cy="521.7" r="3" fill="#888888"/>
<line x1="886" y1="60" x2="902" y2="60" stroke="#ef4444" stroke-width="2" stroke-dasharray="8,5"/>
<circle cx="894.0" cy="60.0" r="3" fill="#ef4444"/>
<text class="label" x="908" y="64">Theoretical</text>
<line x1="886" y1="78" x2="902" y2="78" stroke="#1a6b3c" stroke-width="2"/>
<polygon points="894.0,74.0 898.0,78.0 894.0,82.0 890.0,78.0" fill="#1a6b3c"/>
<text class="label" x="908" y="82">Grafite</text>
<line x1="886" y1="96" x2="902" y2="96" stroke="#1a3a6b" stroke-width="2"/>
<polygon points="894.0,91.0 892.8,94.4 889.2,94.5 892.1,96.6 891.1,100.0 894.0,98.0 896.9,100.0 895.9,96.6 898.8,94.5 895.2,94.4" fill="#1a3a6b"/>
<text class="label" x="908" y="100">SNARF</text>
<line x1="886" y1="114" x2="902" y2="114" stroke="#111111" stroke-width="2"/>
<rect x="891.0" y="111.0" width="6" height="6" fill="#111111"/>
<text class="label" x="908" y="118">SuRF</text>
<line x1="886" y1="132" x2="902" y2="132" stroke="#111111" stroke-width="2"/>
<polygon points="894.0,128.0 898.0,135.0 890.0,135.0" fill="#111111"/>
<text class="label" x="908" y="136">SuRFHash(8)</text>
<line x1="886" y1="150" x2="902" y2="150" stroke="#111111" stroke-width="2"/>
<polygon points="894.0,146.0 898.0,150.0 894.0,154.0 890.0,150.0" fill="#111111"/>
<text class="label" x="908" y="154">SuRFReal(8)</text>
<line x1="886" y1="168" x2="902" y2="168" stroke="#2a7fff" stroke-width="2"/>
<rect x="891.0" y="165.0" width="6" height="6" fill="#2a7fff"/>
<text class="label" x="908" y="172">Adaptive (t=0)</text>
<line x1="886" y1="186" x2="902" y2="186" stroke="#9b59b6" stroke-width="2"/>
<polygon points="894.0,182.0 898.0,189.0 890.0,189.0" fill="#9b59b6"/>
<text class="label" x="908" y="190">Truncation</text>
<line x1="886" y1="204" x2="902" y2="204" stroke="#4dd88a" stroke-width="2"/>
<polygon points="894.0,200.0 898.0,204.0 894.0,208.0 890.0,204.0" fill="#4dd88a"/>
<text class="label" x="908" y="208">SODA</text>
<line x1="886" y1="222" x2="902" y2="222" stroke="#ff6b6b" stroke-width="2"/>
<polygon points="894.0,217.0 892.8,220.4 889.2,220.5 892.1,222.6 891.1,226.0 894.0,224.0 896.9,226.0 895.9,222.6 898.8,220.5 895.2,220.4" fill="#ff6b6b"/>
<text class="label" x="908" y="226">Hybrid</text>
<line x1="886" y1="240" x2="902" y2="240" stroke="#06b6d4" stroke-width="2"/>
<polygon points="894.0,235.0 892.8,238.4 889.2,238.5 892.1,240.6 891.1,244.0 894.0,242.0 896.9,244.0 895.9,240.6 898.8,238.5 895.2,238.4" fill="#06b6d4"/>
<text class="label" x="908" y="244">Scan-ARE</text>
<line x1="886" y1="258" x2="902" y2="258" stroke="#888888" stroke-width="2" stroke-dasharray="8,5"/>
<circle cx="894.0" cy="258.0" r="3" fill="#888888"/>
<text class="label" x="908" y="262">BloomARE</text>
<text x="480" y="590" text-anchor="middle">Bits per Key (BPK)</text>
<text transform="translate(16,295) rotate(-90)" text-anchor="middle">False Positive Rate (FPR)</text>
</svg>
