<svg xmlns="http://www.w3.org/2000/svg" width="1020" height="600" viewBox="0 0 1020 600">
<style>text{font-family:Menlo,Monaco,monospace;font-size:12px;fill:#222} .axis{stroke:#333;stroke-width:1} .grid{stroke:#eee;stroke-width:0.5} .label{font-size:11px;fill:#444}</style>
<text x="510" y="28" text-anchor="middle" style="font-size:14px;font-weight:bold">FPR vs BPK — sosd_books (60-bit keys, n=16777216, L=65536)</text>
<line class="axis" x1="90.0" y1="550.0" x2="870.0" y2="550.0"/>
<line class="axis" x1="90.0" y1="40.0" x2="90.0" y2="550.0"/>
<line class="grid" x1="90.0" y1="521.7" x2="870.0" y2="521.7"/>
<text class="label" x="82.0" y="525.7" text-anchor="end">10^-8</text>
<line class="grid" x1="90.0" y1="465.0" x2="870.0" y2="465.0"/>
<text class="label" x="82.0" y="469.0" text-anchor="end">10^-7</text>
<line class="grid" x1="90.0" y1="408.3" x2="870.0" y2="408.3"/>
<text class="label" x="82.0" y="412.3" text-anchor="end">10^-6</text>
<line class="grid" x1="90.0" y1="351.7" x2="870.0" y2="351.7"/>
<text class="label" x="82.0" y="355.7" text-anchor="end">10^-5</text>
<line class="grid" x1="90.0" y1="295.0" x2="870.0" y2="295.0"/>
<text class="label" x="82.0" y="299.0" text-anchor="end">10^-4</text>
<line class="grid" x1="90.0" y1="238.3" x2="870.0" y2="238.3"/>
<text class="label" x="82.0" y="242.3" text-anchor="end">10^-3</text>
<line class="grid" x1="90.0" y1="181.7" x2="870.0" y2="181.7"/>
<text class="label" x="82.0" y="185.7" text-anchor="end">10^-2</text>
<line class="grid" x1="90.0" y1="125.0" x2="870.0" y2="125.0"/>
<text class="label" x="82.0" y="129.0" text-anchor="end">10^-1</text>
<line class="grid" x1="90.0" y1="68.3" x2="870.0" y2="68.3"/>
<text class="label" x="82.0" y="72.3" text-anchor="end">1</text>
<line class="grid" x1="90.0" y1="40.0" x2="90.0" y2="550.0"/>
<text class="label" x="90.0" y="566.0" text-anchor="middle">0</text>
<line class="grid" x1="167.4" y1="40.0" x2="167.4" y2="550.0"/>
<text class="label" x="167.4" y="566.0" text-anchor="middle">5</text>
<line class="grid" x1="244.8" y1="40.0" x2="244.8" y2="550.0"/>
<text class="label" x="244.8" y="566.0" text-anchor="middle">10</text>
<line class="grid" x1="322.1" y1="40.0" x2="322.1" y2="550.0"/>
<text class="label" x="322.1" y="566.0" text-anchor="middle">15</text>
<line class="grid" x1="399.5" y1="40.0" x2="399.5" y2="550.0"/>
<text class="label" x="399.5" y="566.0" text-anchor="middle">20</text>
<line class="grid" x1="476.9" y1="40.0" x2="476.9" y2="550.0"/>
<text class="label" x="476.9" y="566.0" text-anchor="middle">25</text>
<line class="grid" x1="554.3" y1="40.0" x2="554.3" y2="550.0"/>
<text class="label" x="554.3" y="566.0" text-anchor="middle">30</text>
<line class="grid" x1="631.7" y1="40.0" x2="631.7" y2="550.0"/>
<text class="label" x="631.7" y="566.0" text-anchor="middle">35</text>
<line class="grid" x1="709.0" y1="40.0" x2="709.0" y2="550.0"/>
<text class="label" x="709.0" y="566.0" text-anchor="middle">40</text>
<line class="grid" x1="786.4" y1="40.0" x2="786.4" y2="550.0"/>
<text class="label" x="786.4" y="566.0" text-anchor="middle">45</text>
<line class="grid" x1="863.8" y1="40.0" x2="863.8" y2="550.0"/>
<text class="label" x="863.8" y="566.0" text-anchor="middle">50</text>
<polyline fill="none" stroke="#ef4444" stroke-width="2" stroke-dasharray="8,5" points="337.6,68.3 353.1,85.4 368.6,102.5 384.0,119.5 399.5,136.6 430.5,170.7 461.4,204.8 523.3,273.0 585.2,341.3 647.1,409.5 709.0,477.7 832.9,614.2"/>
<circle cx="337.6" cy="68.3" r="3" fill="#ef4444"/>
<circle cx="353.1" cy="85.4" r="3" fill="#ef4444"/>
<circle cx="368.6" cy="102.5" r="3" fill="#ef4444"/>
<circle cx="384.0" cy="119.5" r="3" fill="#ef4444"/>
<circle cx="399.5" cy="136.6" r="3" fill="#ef4444"/>
<circle cx="430.5" cy="170.7" r="3" fill="#ef4444"/>
<circle cx="461.4" cy="204.8" r="3" fill="#ef4444"/>
<circle cx="523.3" cy="273.0" r="3" fill="#ef4444"/>
<circle cx="585.2" cy="341.3" r="3" fill="#ef4444"/>
<circle cx="647.1" cy="409.5" r="3" fill="#ef4444"/>
<circle cx="709.0" cy="477.7" r="3" fill="#ef4444"/>
<circle cx="832.9" cy="614.2" r="3" fill="#ef4444"/>
<polyline fill="none" stroke="#1a3a6b" stroke-width="2" points="142.1,102.3 172.9,231.6 204.0,233.3 235.2,233.7 266.0,233.7 296.8,233.7 327.9,233.7 359.0,233.7 389.8,233.7"/>
<polygon points="142.1,97.3 141.0,100.7 137.4,100.7 140.2,102.9 139.2,106.3 142.1,104.3 145.1,106.3 144.0,102.9 146.9,100.7 143.3,100.7" fill="#1a3a6b"/>
<polygon points="172.9,226.6 171.8,230.0 168.2,230.1 171.0,232.3 170.0,235.7 172.9,233.6 175.9,235.7 174.8,232.3 177.7,230.1 174.1,230.0" fill="#1a3a6b"/>
<polygon points="204.0,228.3 202.9,231.7 199.3,231.7 202.1,233.9 201.1,237.3 204.0,235.3 207.0,237.3 206.0,233.9 208.8,231.7 205.2,231.7" fill="#1a3a6b"/>
<polygon points="235.2,228.7 234.0,232.0 230.4,232.1 233.3,234.3 232.2,237.7 235.2,235.7 238.1,237.7 237.1,234.3 239.9,232.1 236.3,232.0" fill="#1a3a6b"/>
<polygon points="266.0,228.7 264.8,232.0 261.2,232.1 264.1,234.3 263.0,237.7 266.0,235.7 268.9,237.7 267.9,234.3 270.7,232.1 267.1,232.0" fill="#1a3a6b"/>
<polygon points="296.8,228.7 295.6,232.0 292.0,232.1 294.8,234.3 293.8,237.7 296.8,235.7 299.7,237.7 298.7,234.3 301.5,232.1 297.9,232.0" fill="#1a3a6b"/>
<polygon points="327.9,228.7 326.7,232.0 323.1,232.1 326.0,234.3 324.9,237.7 327.9,235.7 330.8,237.7 329.8,234.3 332.6,232.1 329.0,232.0" fill="#1a3a6b"/>
<polygon points="359.0,228.7 357.8,232.0 354.2,232.1 357.1,234.3 356.0,237.7 359.0,235.7 361.9,237.7 360.9,234.3 363.7,232.1 360.1,232.0" fill="#1a3a6b"/>
<polygon points="389.8,228.7 388.6,232.0 385.0,232.1 387.9,234.3 386.8,237.7 389.8,235.7 392.7,237.7 391.7,234.3 394.5,232.1 390.9,232.0" fill="#1a3a6b"/>
<polyline fill="none" stroke="#111111" stroke-width="2" points="169.8,521.7"/>
<rect x="166.8" y="518.7" width="6" height="6" fill="#111111"/>
<polyline fill="none" stroke="#111111" stroke-width="2" points="293.6,521.7"/>
<polygon points="293.6,517.7 297.6,524.7 289.6,524.7" fill="#111111"/>
<polyline fill="none" stroke="#111111" stroke-width="2" points="293.6,521.7"/>
<polygon points="293.6,517.7 297.6,521.7 293.6,525.7 289.6,521.7" fill="#111111"/>
<polyline fill="none" stroke="#2a7fff" stroke-width="2" points="90.0,68.3 90.0,68.3 90.0,68.3 90.0,68.3 90.0,68.3 90.0,68.3 90.0,68.3 90.0,68.3 90.0,68.3 90.0,68.3 90.0,68.3 90.1,68.3 90.2,68.3 90.4,68.3 90.7,68.3 91.5,68.3 92.9,68.3 101.5,68.5 127.5,76.8 167.4,521.7"/>
<rect x="87.0" y="65.3" width="6" height="6" fill="#2a7fff"/>
<rect x="87.0" y="65.3" width="6" height="6" fill="#2a7fff"/>
<rect x="87.0" y="65.3" width="6" height="6" fill="#2a7fff"/>
<rect x="87.0" y="65.3" width="6" height="6" fill="#2a7fff"/>
<rect x="87.0" y="65.3" width="6" height="6" fill="#2a7fff"/>
<rect x="87.0" y="65.3" width="6" height="6" fill="#2a7fff"/>
<rect x="87.0" y="65.3" width="6" height="6" fill="#2a7fff"/>
<rect x="87.0" y="65.3" width="6" height="6" fill="#2a7fff"/>
<rect x="87.0" y="65.3" width="6" height="6" fill="#2a7fff"/>
<rect x="87.0" y="65.3" width="6" height="6" fill="#2a7fff"/>
<rect x="87.0" y="65.3" width="6" height="6" fill="#2a7fff"/>
<rect x="87.1" y="65.3" width="6" height="6" fill="#2a7fff"/>
<rect x="87.2" y="65.3" width="6" height="6" fill="#2a7fff"/>
<rect x="87.4" y="65.3" width="6" height="6" fill="#2a7fff"/>
<rect x="87.7" y="65.3" width="6" height="6" fill="#2a7fff"/>
<rect x="88.5" y="65.3" width="6" height="6" fill="#2a7fff"/>
<rect x="89.9" y="65.3" width="6" height="6" fill="#2a7fff"/>
<rect x="98.5" y="65.5" width="6" height="6" fill="#2a7fff"/>
<rect x="124.5" y="73.8" width="6" height="6" fill="#2a7fff"/>
<rect x="164.4" y="518.7" width="6" height="6" fill="#2a7fff"/>
<polyline fill="none" stroke="#9b59b6" stroke-width="2" points="90.0,68.3 90.0,68.3 90.0,68.3 90.0,68.3 90.0,68.3 90.0,68.3 90.0,68.3 90.0,68.3 90.0,68.3 90.0,68.3 90.0,68.3 90.1,68.3 90.1,68.3 90.3,68.3 90.5,68.3 91.1,68.3 92.1,68.3 98.5,68.4 121.5,70.5 198.3,521.7 260.2,521.7 322.1,521.7 384.0,521.7 507.9,521.7"/>
<polygon points="90.0,64.3 94.0,71.3 86.0,71.3" fill="#9b59b6"/>
<polygon points="90.0,64.3 94.0,71.3 86.0,71.3" fill="#9b59b6"/>
<polygon points="90.0,64.3 94.0,71.3 86.0,71.3" fill="#9b59b6"/>
<polygon points="90.0,64.3 94.0,71.3 86.0,71.3" fill="#9b59b6"/>
<polygon points="90.0,64.3 94.0,71.3 86.0,71.3" fill="#9b59b6"/>
<polygon points="90.0,64.3 94.0,71.3 86.0,71.3" fill="#9b59b6"/>
<polygon points="90.0,64.3 94.0,71.3 86.0,71.3" fill="#9b59b6"/>
<polygon points="90.0,64.3 94.0,71.3 86.0,71.3" fill="#9b59b6"/>
<polygon points="90.0,64.3 94.0,71.3 86.0,71.3" fill="#9b59b6"/>
<polygon points="90.0,64.3 94.0,71.3 86.0,71.3" fill="#9b59b6"/>
<polygon points="90.0,64.3 94.0,71.3 86.0,71.3" fill="#9b59b6"/>
<polygon points="90.1,64.3 94.1,71.3 86.1,71.3" fill="#9b59b6"/>
<polygon points="90.1,64.3 94.1,71.3 86.1,71.3" fill="#9b59b6"/>
<polygon points="90.3,64.3 94.3,71.3 86.3,71.3" fill="#9b59b6"/>
<polygon points="90.5,64.3 94.5,71.3 86.5,71.3" fill="#9b59b6"/>
<polygon points="91.1,64.3 95.1,71.3 87.1,71.3" fill="#9b59b6"/>
<polygon points="92.1,64.3 96.1,71.3 88.1,71.3" fill="#9b59b6"/>
<polygon points="98.5,64.4 102.5,71.4 94.5,71.4" fill="#9b59b6"/>
<polygon points="121.5,66.5 125.5,73.5 117.5,73.5" fill="#9b59b6"/>
<polygon points="198.3,517.7 202.3,524.7 194.3,524.7" fill="#9b59b6"/>
<polygon points="260.2,517.7 264.2,524.7 256.2,524.7" fill="#9b59b6"/>
<polygon points="322.1,517.7 326.1,524.7 318.1,524.7" fill="#9b59b6"/>
<polygon points="384.0,517.7 388.0,524.7 380.0,524.7" fill="#9b59b6"/>
<polygon points="507.9,517.7 511.9,524.7 503.9,524.7" fill="#9b59b6"/>
<polyline fill="none" stroke="#4dd88a" stroke-width="2" points="90.0,68.3 90.0,68.3 90.0,68.3 90.0,68.3 90.0,68.3 90.0,68.3 90.0,68.3 90.0,68.3 90.0,68.3 90.0,68.3 90.0,68.3 90.1,68.3 90.2,68.3 90.4,68.3 90.7,68.3 91.5,68.3 92.9,68.3 101.5,68.5 127.5,76.8 198.3,521.7 260.2,521.7 322.1,521.7 384.0,521.7 507.9,521.7"/>
<polygon points="90.0,64.3 94.0,68.3 90.0,72.3 86.0,68.3" fill="#4dd88a"/>
<polygon points="90.0,64.3 94.0,68.3 90.0,72.3 86.0,68.3" fill="#4dd88a"/>
<polygon points="90.0,64.3 94.0,68.3 90.0,72.3 86.0,68.3" fill="#4dd88a"/>
<polygon points="90.0,64.3 94.0,68.3 90.0,72.3 86.0,68.3" fill="#4dd88a"/>
<polygon points="90.0,64.3 94.0,68.3 90.0,72.3 86.0,68.3" fill="#4dd88a"/>
<polygon points="90.0,64.3 94.0,68.3 90.0,72.3 86.0,68.3" fill="#4dd88a"/>
<polygon points="90.0,64.3 94.0,68.3 90.0,72.3 86.0,68.3" fill="#4dd88a"/>
<polygon points="90.0,64.3 94.0,68.3 90.0,72.3 86.0,68.3" fill="#4dd88a"/>
<polygon points="90.0,64.3 94.0,68.3 90.0,72.3 86.0,68.3" fill="#4dd88a"/>
<polygon points="90.0,64.3 94.0,68.3 90.0,72.3 86.0,68.3" fill="#4dd88a"/>
<polygon points="90.0,64.3 94.0,68.3 90.0,72.3 86.0,68.3" fill="#4dd88a"/>
<polygon points="90.1,64.3 94.1,68.3 90.1,72.3 86.1,68.3" fill="#4dd88a"/>
<polygon points="90.2,64.3 94.2,68.3 90.2,72.3 86.2,68.3" fill="#4dd88a"/>
<polygon points="90.4,64.3 94.4,68.3 90.4,72.3 86.4,68.3" fill="#4dd88a"/>
<polygon points="90.7,64.3 94.7,68.3 90.7,72.3 86.7,68.3" fill="#4dd88a"/>
<polygon points="91.5,64.3 95.5,68.3 91.5,72.3 87.5,68.3" fill="#4dd88a"/>
<polygon points="92.9,64.3 96.9,68.3 92.9,72.3 88.9,68.3" fill="#4dd88a"/>
<polygon points="101.5,64.5 105.5,68.5 101.5,72.5 97.5,68.5" fill="#4dd88a"/>
<polygon points="127.5,72.8 131.5,76.8 127.5,80.8 123.5,76.8" fill="#4dd88a"/>
<polygon points="198.3,517.7 202.3,521.7 198.3,525.7 194.3,521.7" fill="#4dd88a"/>
<polygon points="260.2,517.7 264.2,521.7 260.2,525.7 256.2,521.7" fill="#4dd88a"/>
<polygon points="322.1,517.7 326.1,521.7 322.1,525.7 318.1,521.7" fill="#4dd88a"/>
<polygon points="384.0,517.7 388.0,521.7 384.0,525.7 380.0,521.7" fill="#4dd88a"/>
<polygon points="507.9,517.7 511.9,521.7 507.9,525.7 503.9,521.7" fill="#4dd88a"/>
<polyline fill="none" stroke="#ff6b6b" stroke-width="2" points="90.0,68.3 90.0,68.3 90.0,68.3 90.0,68.3 90.0,68.3 90.0,68.3 90.0,68.3 90.0,68.3 90.0,68.3 90.0,68.3 90.0,68.3 90.1,68.3 90.1,68.3 90.3,68.3 90.5,68.3 91.1,68.3 92.1,68.3 98.5,68.4 121.5,70.5 198.3,521.7 260.2,521.7 322.1,521.7 384.0,521.7 507.9,521.7"/>
<polygon points="90.0,63.3 88.8,66.7 85.2,66.8 88.1,69.0 87.1,72.4 90.0,70.3 92.9,72.4 91.9,69.0 94.8,66.8 91.2,66.7" fill="#ff6b6b"/>
<polygon points="90.0,63.3 88.8,66.7 85.2,66.8 88.1,69.0 87.1,72.4 90.0,70.3 92.9,72.4 91.9,69.0 94.8,66.8 91.2,66.7" fill="#ff6b6b"/>
<polygon points="90.0,63.3 88.8,66.7 85.2,66.8 88.1,69.0 87.1,72.4 90.0,70.3 92.9,72.4 91.9,69.0 94.8,66.8 91.2,66.7" fill="#ff6b6b"/>
<polygon points="90.0,63.3 88.8,66.7 85.2,66.8 88.1,69.0 87.1,72.4 90.0,70.3 92.9,72.4 91.9,69.0 94.8,66.8 91.2,66.7" fill="#ff6b6b"/>
<polygon points="90.0,63.3 88.8,66.7 85.2,66.8 88.1,69.0 87.1,72.4 90.0,70.3 92.9,72.4 91.9,69.0 94.8,66.8 91.2,66.7" fill="#ff6b6b"/>
<polygon points="90.0,63.3 88.8,66.7 85.2,66.8 88.1,69.0 87.1,72.4 90.0,70.3 92.9,72.4 91.9,69.0 94.8,66.8 91.2,66.7" fill="#ff6b6b"/>
<polygon points="90.0,63.3 88.8,66.7 85.2,66.8 88.1,69.0 87.1,72.4 90.0,70.3 92.9,72.4 91.9,69.0 94.8,66.8 91.2,66.7" fill="#ff6b6b"/>
<polygon points="90.0,63.3 88.8,66.7 85.2,66.8 88.1,69.0 87.1,72.4 90.0,70.3 92.9,72.4 91.9,69.0 94.8,66.8 91.2,66.7" fill="#ff6b6b"/>
<polygon points="90.0,63.3 88.8,66.7 85.3,66.8 88.1,69.0 87.1,72.4 90.0,70.3 92.9,72.4 91.9,69.0 94.8,66.8 91.2,66.7" fill="#ff6b6b"/>
<polygon points="90.0,63.3 88.8,66.7 85.3,66.8 88.1,69.0 87.1,72.4 90.0,70.3 93.0,72.4 91.9,69.0 94.8,66.8 91.2,66.7" fill="#ff6b6b"/>
<polygon points="90.0,63.3 88.9,66.7 85.3,66.8 88.1,69.0 87.1,72.4 90.0,70.3 93.0,72.4 91.9,69.0 94.8,66.8 91.2,66.7" fill="#ff6b6b"/>
<polygon points="90.1,63.3 88.9,66.7 85.3,66.8 88.2,69.0 87.1,72.4 90.1,70.3 93.0,72.4 92.0,69.0 94.8,66.8 91.2,66.7" fill="#ff6b6b"/>
<polygon points="90.1,63.3 89.0,66.7 85.4,66.8 88.2,69.0 87.2,72.4 90.1,70.3 93.1,72.4 92.0,69.0 94.9,66.8 91.3,66.7" fill="#ff6b6b"/>
<polygon points="90.3,63.3 89.1,66.7 85.5,66.8 88.4,69.0 87.3,72.4 90.3,70.3 93.2,72.4 92.2,69.0 95.0,66.8 91.4,66.7" fill="#ff6b6b"/>
<polygon points="90.5,63.3 89.4,66.7 85.8,66.8 88.6,69.0 87.6,72.4 90.5,70.3 93.5,72.4 92.4,69.0 95.3,66.8 91.7,66.7" fill="#ff6b6b"/>
<polygon points="91.1,63.3 89.9,66.7 86.3,66.8 89.2,69.0 88.1,72.4 91.1,70.3 94.0,72.4 93.0,69.0 95.8,66.8 92.2,66.7" fill="#ff6b6b"/>
<polygon points="92.1,63.3 91.0,66.7 87.4,66.8 90.2,69.0 89.2,72.4 92.1,70.3 95.1,72.4 94.0,69.0 96.9,66.8 93.3,66.7" fill="#ff6b6b"/>
<polygon points="98.5,63.4 97.3,66.8 93.8,66.8 96.6,69.0 95.6,72.4 98.5,70.4 101.5,72.4 100.4,69.0 103.3,66.8 99.7,66.8" fill="#ff6b6b"/>
<polygon points="121.5,65.5 120.3,68.9 116.7,69.0 119.6,71.2 118.5,74.6 121.5,72.5 124.4,74.6 123.4,71.2 126.2,69.0 122.7,68.9" fill="#ff6b6b"/>
<polygon points="198.3,516.7 197.2,520.0 193.6,520.1 196.4,522.3 195.4,525.7 198.3,523.7 201.3,525.7 200.2,522.3 203.1,520.1 199.5,520.0" fill="#ff6b6b"/>
<polygon points="260.2,516.7 259.1,520.0 255.5,520.1 258.3,522.3 257.3,525.7 260.2,523.7 263.2,525.7 262.1,522.3 265.0,520.1 261.4,520.0" fill="#ff6b6b"/>
<polygon points="322.1,516.7 321.0,520.0 317.4,520.1 320.2,522.3 319.2,525.7 322.1,523.7 325.1,525.7 324.0,522.3 326.9,520.1 323.3,520.0" fill="#ff6b6b"/>
<polygon points="384.0,516.7 382.9,520.0 379.3,520.1 382.1,522.3 381.1,525.7 384.0,523.7 387.0,525.7 385.9,522.3 388.8,520.1 385.2,520.0" fill="#ff6b6b"/>
<polygon points="507.9,516.7 506.7,520.0 503.1,520.1 506.0,522.3 504.9,525.7 507.9,523.7 510.8,525.7 509.8,522.3 512.6,520.1 509.0,520.0" fill="#ff6b6b"/>
<polyline fill="none" stroke="#06b6d4" stroke-width="2" points="90.0,68.3 90.0,68.3 90.0,68.3 90.0,68.3 90.0,68.3 90.0,68.3 90.0,68.3 90.0,68.3 90.0,68.3 90.0,68.3 90.0,68.3 90.1,68.3 90.2,68.3 90.4,68.3 90.7,68.3 91.5,68.3 92.9,68.3 101.5,68.5 127.5,76.8 167.4,521.7"/>
<polygon points="90.0,63.3 88.8,66.7 85.2,66.8 88.1,69.0 87.1,72.4 90.0,70.3 92.9,72.4 91.9,69.0 94.8,66.8 91.2,66.7" fill="#06b6d4"/>
<polygon points="90.0,63.3 88.8,66.7 85.2,66.8 88.1,69.0 87.1,72.4 90.0,70.3 92.9,72.4 91.9,69.0 94.8,66.8 91.2,66.7" fill="#06b6d4"/>
<polygon points="90.0,63.3 88.8,66.7 85.2,66.8 88.1,69.0 87.1,72.4 90.0,70.3 92.9,72.4 91.9,69.0 94.8,66.8 91.2,66.7" fill="#06b6d4"/>
<polygon points="90.0,63.3 88.8,66.7 85.2,66.8 88.1,69.0 87.1,72.4 90.0,70.3 92.9,72.4 91.9,69.0 94.8,66.8 91.2,66.7" fill="#06b6d4"/>
<polygon points="90.0,63.3 88.8,66.7 85.2,66.8 88.1,69.0 87.1,72.4 90.0,70.3 92.9,72.4 91.9,69.0 94.8,66.8 91.2,66.7" fill="#06b6d4"/>
<polygon points="90.0,63.3 88.8,66.7 85.2,66.8 88.1,69.0 87.1,72.4 90.0,70.3 92.9,72.4 91.9,69.0 94.8,66.8 91.2,66.7" fill="#06b6d4"/>
<polygon points="90.0,63.3 88.8,66.7 85.2,66.8 88.1,69.0 87.1,72.4 90.0,70.3 92.9,72.4 91.9,69.0 94.8,66.8 91.2,66.7" fill="#06b6d4"/>
<polygon points="90.0,63.3 88.8,66.7 85.3,66.8 88.1,69.0 87.1,72.4 90.0,70.3 92.9,72.4 91.9,69.0 94.8,66.8 91.2,66.7" fill="#06b6d4"/>
<polygon points="90.0,63.3 88.8,66.7 85.3,66.8 88.1,69.0 87.1,72.4 90.0,70.3 93.0,72.4 91.9,69.0 94.8,66.8 91.2,66.7" fill="#06b6d4"/>
<polygon points="90.0,63.3 88.8,66.7 85.3,66.8 88.1,69.0 87.1,72.4 90.0,70.3 93.0,72.4 91.9,69.0 94.8,66.8 91.2,66.7" fill="#06b6d4"/>
<polygon points="90.0,63.3 88.9,66.7 85.3,66.8 88.1,69.0 87.1,72.4 90.0,70.3 93.0,72.4 91.9,69.0 94.8,66.8 91.2,66.7" fill="#06b6d4"/>
<polygon points="90.1,63.3 88.9,66.7 85.3,66.8 88.2,69.0 87.2,72.4 90.1,70.3 93.0,72.4 92.0,69.0 94.8,66.8 91.3,66.7" fill="#06b6d4"/>
<polygon points="90.2,63.3 89.0,66.7 85.4,66.8 88.3,69.0 87.2,72.4 90.2,70.3 93.1,72.4 92.1,69.0 94.9,66.8 91.4,66.7" fill="#06b6d4"/>
<polygon points="90.4,63.3 89.2,66.7 85.6,66.8 88.5,69.0 87.4,72.4 90.4,70.3 93.3,72.4 92.3,69.0 95.1,66.8 91.5,66.7" fill="#06b6d4"/>
<polygon points="90.7,63.3 89.5,66.7 86.0,66.8 88.8,69.0 87.8,72.4 90.7,70.3 93.7,72.4 92.6,69.0 95.5,66.8 91.9,66.7" fill="#06b6d4"/>
<polygon points="91.5,63.3 90.3,66.7 86.7,66.8 89.5,69.0 88.5,72.4 91.5,70.3 94.4,72.4 93.4,69.0 96.2,66.8 92.6,66.7" fill="#06b6d4"/>
<polygon points="92.9,63.3 91.7,66.7 88.1,66.8 91.0,69.0 90.0,72.4 92.9,70.3 95.8,72.4 94.8,69.0 97.7,66.8 94.1,66.7" fill="#06b6d4"/>
<polygon points="101.5,63.5 100.3,66.9 96.8,67.0 99.6,69.2 98.6,72.6 101.5,70.5 104.4,72.6 103.4,69.2 106.3,67.0 102.7,66.9" fill="#06b6d4"/>
<polygon points="127.5,71.8 126.3,75.2 122.8,75.3 125.6,77.4 124.6,80.9 127.5,78.8 130.5,80.9 129.4,77.4 132.3,75.3 128.7,75.2" fill="#06b6d4"/>
<polygon points="167.4,516.7 166.2,520.0 162.6,520.1 165.5,522.3 164.4,525.7 167.4,523.7 170.3,525.7 169.3,522.3 172.1,520.1 168.6,520.0" fill="#06b6d4"/>
<polyline fill="none" stroke="#888888" stroke-width="2" stroke-dasharray="8,5" points="519.7,375.4 542.9,402.4 572.9,521.7 595.4,402.4 617.8,521.7 647.4,521.7 669.7,521.7 692.1,521.7 721.6,521.7 743.9,521.7"/>
<circle cx="519.7" cy="375.4" r="3" fill="#888888"/>
<circle cx="542.9" cy="402.4" r="3" fill="#888888"/>
<circle cx="572.9" cy="521.7" r="3" fill="#888888"/>
<circle cx="595.4" cy="402.4" r="3" fill="#888888"/>
<circle cx="617.8" cy="521.7" r="3" fill="#888888"/>
<circle cx="647.4" cy="521.7" r="3" fill="#888888"/>
<circle cx="669.7" cy="521.7" r="3" fill="#888888"/>
<circle cx="692.1" cy="521.7" r="3" fill="#888888"/>
<circle cx="721.6" cy="521.7" r="3" fill="#888888"/>
<circle cx="743.9" cy="521.7" r="3" fill="#888888"/>
<line x1="886" y1="60" x2="902" y2="60" stroke="#ef4444" stroke-width="2" stroke-dasharray="8,5"/>
<circle cx="894.0" cy="60.0" r="3" fill="#ef4444"/>
<text class="label" x="908" y="64">Theoretical</text>
<line x1="886" y1="78" x2="902" y2="78" stroke="#1a3a6b" stroke-width="2"/>
<polygon points="894.0,73.0 892.8,76.4 889.2,76.5 892.1,78.6 891.1,82.0 894.0,80.0 896.9,82.0 895.9,78.6 898.8,76.5 895.2,76.4" fill="#1a3a6b"/>
<text class="label" x="908" y="82">SNARF</text>
<line x1="886" y1="96" x2="902" y2="96" stroke="#111111" stroke-width="2"/>
<rect x="891.0" y="93.0" width="6" height="6" fill="#111111"/>
<text class="label" x="908" y="100">SuRF</text>
<line x1="886" y1="114" x2="902" y2="114" stroke="#111111" stroke-width="2"/>
<polygon points="894.0,110.0 898.0,117.0 890.0,117.0" fill="#111111"/>
<text class="label" x="908" y="118">SuRFHash(8)</text>
<line x1="886" y1="132" x2="902" y2="132" stroke="#111111" stroke-width="2"/>
<polygon points="894.0,128.0 898.0,132.0 894.0,136.0 890.0,132.0" fill="#111111"/>
<text class="label" x="908" y="136">SuRFReal(8)</text>
<line x1="886" y1="150" x2="902" y2="150" stroke="#2a7fff" stroke-width="2"/>
<rect x="891.0" y="147.0" width="6" height="6" fill="#2a7fff"/>
<text class="label" x="908" y="154">Adaptive (t=0)</text>
<line x1="886" y1="168" x2="902" y2="168" stroke="#9b59b6" stroke-width="2"/>
<polygon points="894.0,164.0 898.0,171.0 890.0,171.0" fill="#9b59b6"/>
<text class="label" x="908" y="172">Truncation</text>
<line x1="886" y1="186" x2="902" y2="186" stroke="#4dd88a" stroke-width="2"/>
<polygon points="894.0,182.0 898.0,186.0 894.0,190.0 890.0,186.0" fill="#4dd88a"/>
<text class="label" x="908" y="190">SODA</text>
<line x1="886" y1="204" x2="902" y2="204" stroke="#ff6b6b" stroke-width="2"/>
<polygon points="894.0,199.0 892.8,202.4 889.2,202.5 892.1,204.6 891.1,208.0 894.0,206.0 896.9,208.0 895.9,204.6 898.8,202.5 895.2,202.4" fill="#ff6b6b"/>
<text class="label" x="908" y="208">Hybrid</text>
<line x1="886" y1="222" x2="902" y2="222" stroke="#06b6d4" stroke-width="2"/>
<polygon points="894.0,217.0 892.8,220.4 889.2,220.5 892.1,222.6 891.1,226.0 894.0,224.0 896.9,226.0 895.9,222.6 898.8,220.5 895.2,220.4" fill="#06b6d4"/>
<text class="label" x="908" y="226">Scan-ARE</text>
<line x1="886" y1="240" x2="902" y2="240" stroke="#888888" stroke-width="2" stroke-dasharray="8,5"/>
<circle cx="894.0" cy="240.0" r="3" fill="#888888"/>
<text class="label" x="908" y="244">BloomARE</text>
<text x="480" y="590" text-anchor="middle">Bits per Key (BPK)</text>
<text transform="translate(16,295) rotate(-90)" text-anchor="middle">False Positive Rate (FPR)</text>
</svg>
