<svg xmlns="http://www.w3.org/2000/svg" width="960.0" height="540.0" viewBox="0 0 960.0 540.0">
<style>text{font-family:Menlo,Monaco,monospace;font-size:12px;fill:#222} .axis{stroke:#333;stroke-width:1} .grid{stroke:#ddd;stroke-width:1} .label{font-size:11px;fill:#444}</style>
<text x="480.0" y="26" text-anchor="middle">Trie Memory Efficiency: Bits/Key vs N</text>
<line class="axis" x1="90.0" y1="465.0" x2="920.0" y2="465.0" />
<line class="axis" x1="90.0" y1="55.0" x2="90.0" y2="465.0" />
<line class="grid" x1="90.0" y1="465.00" x2="920.0" y2="465.00" />
<text class="label" x="82.0" y="469.00" text-anchor="end">0.00</text>
<line class="grid" x1="90.0" y1="383.00" x2="920.0" y2="383.00" />
<text class="label" x="82.0" y="387.00" text-anchor="end">94.19</text>
<line class="grid" x1="90.0" y1="301.00" x2="920.0" y2="301.00" />
<text class="label" x="82.0" y="305.00" text-anchor="end">188.38</text>
<line class="grid" x1="90.0" y1="219.00" x2="920.0" y2="219.00" />
<text class="label" x="82.0" y="223.00" text-anchor="end">282.56</text>
<line class="grid" x1="90.0" y1="137.00" x2="920.0" y2="137.00" />
<text class="label" x="82.0" y="141.00" text-anchor="end">376.75</text>
<line class="grid" x1="90.0" y1="55.00" x2="920.0" y2="55.00" />
<text class="label" x="82.0" y="59.00" text-anchor="end">470.94</text>
<line class="grid" x1="90.00" y1="55.0" x2="90.00" y2="465.0" />
<text class="label" x="90.00" y="485.0" text-anchor="middle">1,024</text>
<line class="grid" x1="401.25" y1="55.0" x2="401.25" y2="465.0" />
<text class="label" x="401.25" y="485.0" text-anchor="middle">8,192</text>
<line class="grid" x1="608.75" y1="55.0" x2="608.75" y2="465.0" />
<text class="label" x="608.75" y="485.0" text-anchor="middle">32,768</text>
<line class="grid" x1="920.00" y1="55.0" x2="920.00" y2="465.0" />
<text class="label" x="920.00" y="485.0" text-anchor="middle">262,144</text>
<polyline fill="none" stroke="#2a7fff" stroke-width="2.5" stroke-dasharray="10,6" points="90.00,277.49 401.25,295.12 608.75,294.83 920.00,279.68" />
<circle cx="90.00" cy="277.49" r="3.5" fill="#2a7fff" />
<circle cx="401.25" cy="295.12" r="3.5" fill="#2a7fff" />
<circle cx="608.75" cy="294.83" r="3.5" fill="#2a7fff" />
<circle cx="920.00" cy="279.68" r="3.5" fill="#2a7fff" />
<line x1="100.0" y1="67.0" x2="116.0" y2="67.0" stroke="#2a7fff" stroke-width="2.5" stroke-dasharray="10,6" />
<text class="label" x="122.0" y="71.0">HZFT (L=64)</text>
<polyline fill="none" stroke="#2a7fff" stroke-width="2.5" points="90.00,432.47 401.25,434.28 608.75,434.28 920.00,432.27" />
<circle cx="90.00" cy="432.47" r="3.5" fill="#2a7fff" />
<circle cx="401.25" cy="434.28" r="3.5" fill="#2a7fff" />
<circle cx="608.75" cy="434.28" r="3.5" fill="#2a7fff" />
<circle cx="920.00" cy="432.27" r="3.5" fill="#2a7fff" />
<line x1="100.0" y1="85.0" x2="116.0" y2="85.0" stroke="#2a7fff" stroke-width="2.5" />
<text class="label" x="122.0" y="89.0">SHZFT (L=64)</text>
<polyline fill="none" stroke="#22a06b" stroke-width="2.5" stroke-dasharray="10,6" points="90.00,215.08 401.25,232.13 608.75,232.86 920.00,217.59" />
<circle cx="90.00" cy="215.08" r="3.5" fill="#22a06b" />
<circle cx="401.25" cy="232.13" r="3.5" fill="#22a06b" />
<circle cx="608.75" cy="232.86" r="3.5" fill="#22a06b" />
<circle cx="920.00" cy="217.59" r="3.5" fill="#22a06b" />
<line x1="100.0" y1="103.0" x2="116.0" y2="103.0" stroke="#22a06b" stroke-width="2.5" stroke-dasharray="10,6" />
<text class="label" x="122.0" y="107.0">HZFT (L=256)</text>
<polyline fill="none" stroke="#22a06b" stroke-width="2.5" points="90.00,424.57 401.25,425.95 608.75,426.21 920.00,424.36" />
<circle cx="90.00" cy="424.57" r="3.5" fill="#22a06b" />
<circle cx="401.25" cy="425.95" r="3.5" fill="#22a06b" />
<circle cx="608.75" cy="426.21" r="3.5" fill="#22a06b" />
<circle cx="920.00" cy="424.36" r="3.5" fill="#22a06b" />
<line x1="100.0" y1="121.0" x2="116.0" y2="121.0" stroke="#22a06b" stroke-width="2.5" />
<text class="label" x="122.0" y="125.0">SHZFT (L=256)</text>
<polyline fill="none" stroke="#e4572e" stroke-width="2.5" stroke-dasharray="10,6" points="90.00,153.65 401.25,170.48 608.75,171.13 920.00,155.42" />
<circle cx="90.00" cy="153.65" r="3.5" fill="#e4572e" />
<circle cx="401.25" cy="170.48" r="3.5" fill="#e4572e" />
<circle cx="608.75" cy="171.13" r="3.5" fill="#e4572e" />
<circle cx="920.00" cy="155.42" r="3.5" fill="#e4572e" />
<line x1="100.0" y1="139.0" x2="116.0" y2="139.0" stroke="#e4572e" stroke-width="2.5" stroke-dasharray="10,6" />
<text class="label" x="122.0" y="143.0">HZFT (L=1024)</text>
<polyline fill="none" stroke="#e4572e" stroke-width="2.5" points="90.00,417.89 401.25,418.71 608.75,418.91 920.00,417.18" />
<circle cx="90.00" cy="417.89" r="3.5" fill="#e4572e" />
<circle cx="401.25" cy="418.71" r="3.5" fill="#e4572e" />
<circle cx="608.75" cy="418.91" r="3.5" fill="#e4572e" />
<circle cx="920.00" cy="417.18" r="3.5" fill="#e4572e" />
<line x1="100.0" y1="157.0" x2="116.0" y2="157.0" stroke="#e4572e" stroke-width="2.5" />
<text class="label" x="122.0" y="161.0">SHZFT (L=1024)</text>
<polyline fill="none" stroke="#7c3aed" stroke-width="2.5" stroke-dasharray="10,6" points="90.00,92.27 401.25,108.30 608.75,108.73" />
<circle cx="90.00" cy="92.27" r="3.5" fill="#7c3aed" />
<circle cx="401.25" cy="108.30" r="3.5" fill="#7c3aed" />
<circle cx="608.75" cy="108.73" r="3.5" fill="#7c3aed" />
<line x1="100.0" y1="175.0" x2="116.0" y2="175.0" stroke="#7c3aed" stroke-width="2.5" stroke-dasharray="10,6" />
<text class="label" x="122.0" y="179.0">HZFT (L=4096)</text>
<polyline fill="none" stroke="#7c3aed" stroke-width="2.5" points="90.00,411.19 401.25,411.44 608.75,411.90" />
<circle cx="90.00" cy="411.19" r="3.5" fill="#7c3aed" />
<circle cx="401.25" cy="411.44" r="3.5" fill="#7c3aed" />
<circle cx="608.75" cy="411.90" r="3.5" fill="#7c3aed" />
<line x1="100.0" y1="193.0" x2="116.0" y2="193.0" stroke="#7c3aed" stroke-width="2.5" />
<text class="label" x="122.0" y="197.0">SHZFT (L=4096)</text>
<text class="label" x="480.0" y="522.0" text-anchor="middle">Number of Keys (N)</text>
<text class="label" transform="translate(20,270.0) rotate(-90)" text-anchor="middle">Bits Per Key</text>
</svg>