<svg xmlns="http://www.w3.org/2000/svg" width="960.0" height="540.0" viewBox="0 0 960.0 540.0">
<style>text{font-family:Menlo,Monaco,monospace;font-size:12px;fill:#222} .axis{stroke:#333;stroke-width:1} .grid{stroke:#ddd;stroke-width:1} .label{font-size:11px;fill:#444}</style>
<text x="480.0" y="26" text-anchor="middle">Trie Memory Efficiency: Bits/Key vs N</text>
<line class="axis" x1="90.0" y1="465.0" x2="920.0" y2="465.0" />
<line class="axis" x1="90.0" y1="55.0" x2="90.0" y2="465.0" />
<line class="grid" x1="90.0" y1="465.00" x2="920.0" y2="465.00" />
<text class="label" x="82.0" y="469.00" text-anchor="end">0.00</text>
<line class="grid" x1="90.0" y1="383.00" x2="920.0" y2="383.00" />
<text class="label" x="82.0" y="387.00" text-anchor="end">46.53</text>
<line class="grid" x1="90.0" y1="301.00" x2="920.0" y2="301.00" />
<text class="label" x="82.0" y="305.00" text-anchor="end">93.06</text>
<line class="grid" x1="90.0" y1="219.00" x2="920.0" y2="219.00" />
<text class="label" x="82.0" y="223.00" text-anchor="end">139.59</text>
<line class="grid" x1="90.0" y1="137.00" x2="920.0" y2="137.00" />
<text class="label" x="82.0" y="141.00" text-anchor="end">186.12</text>
<line class="grid" x1="90.0" y1="55.00" x2="920.0" y2="55.00" />
<text class="label" x="82.0" y="59.00" text-anchor="end">232.65</text>
<line class="grid" x1="90.00" y1="55.0" x2="90.00" y2="465.0" />
<text class="label" x="90.00" y="485.0" text-anchor="middle">32</text>
<line class="grid" x1="281.54" y1="55.0" x2="281.54" y2="465.0" />
<text class="label" x="281.54" y="485.0" text-anchor="middle">256</text>
<line class="grid" x1="409.23" y1="55.0" x2="409.23" y2="465.0" />
<text class="label" x="409.23" y="485.0" text-anchor="middle">1,024</text>
<line class="grid" x1="600.77" y1="55.0" x2="600.77" y2="465.0" />
<text class="label" x="600.77" y="485.0" text-anchor="middle">8,192</text>
<line class="grid" x1="728.46" y1="55.0" x2="728.46" y2="465.0" />
<text class="label" x="728.46" y="485.0" text-anchor="middle">32,768</text>
<line class="grid" x1="920.00" y1="55.0" x2="920.00" y2="465.0" />
<text class="label" x="920.00" y="485.0" text-anchor="middle">262,144</text>
<polyline fill="none" stroke="#2a7fff" stroke-width="2.5" points="90.00,321.81 281.54,370.28 409.23,374.77 600.77,377.40 728.46,375.28 920.00,374.59" />
<circle cx="90.00" cy="321.81" r="3.5" fill="#2a7fff" />
<circle cx="281.54" cy="370.28" r="3.5" fill="#2a7fff" />
<circle cx="409.23" cy="374.77" r="3.5" fill="#2a7fff" />
<circle cx="600.77" cy="377.40" r="3.5" fill="#2a7fff" />
<circle cx="728.46" cy="375.28" r="3.5" fill="#2a7fff" />
<circle cx="920.00" cy="374.59" r="3.5" fill="#2a7fff" />
<line x1="100.0" y1="67.0" x2="116.0" y2="67.0" stroke="#2a7fff" stroke-width="2.5" />
<text class="label" x="122.0" y="71.0">RLOC L=64</text>
<polyline fill="none" stroke="#e4572e" stroke-width="2.5" points="90.00,296.70 281.54,370.93 409.23,374.79 600.77,377.24 728.46,374.49 920.00,373.77" />
<circle cx="90.00" cy="296.70" r="3.5" fill="#e4572e" />
<circle cx="281.54" cy="370.93" r="3.5" fill="#e4572e" />
<circle cx="409.23" cy="374.79" r="3.5" fill="#e4572e" />
<circle cx="600.77" cy="377.24" r="3.5" fill="#e4572e" />
<circle cx="728.46" cy="374.49" r="3.5" fill="#e4572e" />
<circle cx="920.00" cy="373.77" r="3.5" fill="#e4572e" />
<line x1="100.0" y1="85.0" x2="116.0" y2="85.0" stroke="#e4572e" stroke-width="2.5" />
<text class="label" x="122.0" y="89.0">RLOC L=128</text>
<polyline fill="none" stroke="#22a06b" stroke-width="2.5" points="90.00,301.99 281.54,365.59 409.23,370.54 600.77,373.48 728.46,372.81 920.00,372.02" />
<circle cx="90.00" cy="301.99" r="3.5" fill="#22a06b" />
<circle cx="281.54" cy="365.59" r="3.5" fill="#22a06b" />
<circle cx="409.23" cy="370.54" r="3.5" fill="#22a06b" />
<circle cx="600.77" cy="373.48" r="3.5" fill="#22a06b" />
<circle cx="728.46" cy="372.81" r="3.5" fill="#22a06b" />
<circle cx="920.00" cy="372.02" r="3.5" fill="#22a06b" />
<line x1="100.0" y1="103.0" x2="116.0" y2="103.0" stroke="#22a06b" stroke-width="2.5" />
<text class="label" x="122.0" y="107.0">RLOC L=256</text>
<polyline fill="none" stroke="#7c3aed" stroke-width="2.5" points="90.00,295.38 281.54,363.95 409.23,367.91 600.77,371.40 728.46,369.64 920.00,368.62" />
<circle cx="90.00" cy="295.38" r="3.5" fill="#7c3aed" />
<circle cx="281.54" cy="363.95" r="3.5" fill="#7c3aed" />
<circle cx="409.23" cy="367.91" r="3.5" fill="#7c3aed" />
<circle cx="600.77" cy="371.40" r="3.5" fill="#7c3aed" />
<circle cx="728.46" cy="369.64" r="3.5" fill="#7c3aed" />
<circle cx="920.00" cy="368.62" r="3.5" fill="#7c3aed" />
<line x1="100.0" y1="121.0" x2="116.0" y2="121.0" stroke="#7c3aed" stroke-width="2.5" />
<text class="label" x="122.0" y="125.0">RLOC L=512</text>
<polyline fill="none" stroke="#a16207" stroke-width="2.5" points="90.00,267.97 281.54,338.61 409.23,354.84 600.77,363.95 728.46,362.56 920.00,361.24" />
<circle cx="90.00" cy="267.97" r="3.5" fill="#a16207" />
<circle cx="281.54" cy="338.61" r="3.5" fill="#a16207" />
<circle cx="409.23" cy="354.84" r="3.5" fill="#a16207" />
<circle cx="600.77" cy="363.95" r="3.5" fill="#a16207" />
<circle cx="728.46" cy="362.56" r="3.5" fill="#a16207" />
<circle cx="920.00" cy="361.24" r="3.5" fill="#a16207" />
<line x1="100.0" y1="139.0" x2="116.0" y2="139.0" stroke="#a16207" stroke-width="2.5" />
<text class="label" x="122.0" y="143.0">RLOC L=1024</text>
<polyline fill="none" stroke="#d946ef" stroke-width="2.5" points="90.00,92.27 281.54,288.77 409.23,294.97 600.77,321.27 728.46,320.67 920.00,320.17" />
<circle cx="90.00" cy="92.27" r="3.5" fill="#d946ef" />
<circle cx="281.54" cy="288.77" r="3.5" fill="#d946ef" />
<circle cx="409.23" cy="294.97" r="3.5" fill="#d946ef" />
<circle cx="600.77" cy="321.27" r="3.5" fill="#d946ef" />
<circle cx="728.46" cy="320.67" r="3.5" fill="#d946ef" />
<circle cx="920.00" cy="320.17" r="3.5" fill="#d946ef" />
<line x1="100.0" y1="157.0" x2="116.0" y2="157.0" stroke="#d946ef" stroke-width="2.5" />
<text class="label" x="122.0" y="161.0">RLOC L=4096</text>
<text class="label" x="480.0" y="522.0" text-anchor="middle">Keys (N)</text>
<text class="label" transform="translate(20,270.0) rotate(-90)" text-anchor="middle">bits/key</text>
</svg>