<svg xmlns="http://www.w3.org/2000/svg" width="960.0" height="540.0" viewBox="0 0 960.0 540.0">
<style>text{font-family:Menlo,Monaco,monospace;font-size:12px;fill:#222} .axis{stroke:#333;stroke-width:1} .grid{stroke:#ddd;stroke-width:1} .label{font-size:11px;fill:#444}</style>
<text x="480.0" y="26" text-anchor="middle">Build Time (ns/op)</text>
<line class="axis" x1="90.0" y1="465.0" x2="920.0" y2="465.0" />
<line class="axis" x1="90.0" y1="55.0" x2="90.0" y2="465.0" />
<line class="grid" x1="90.0" y1="465.00" x2="920.0" y2="465.00" />
<text class="label" x="82.0" y="469.00" text-anchor="end">10^5</text>
<line class="grid" x1="90.0" y1="396.67" x2="920.0" y2="396.67" />
<text class="label" x="82.0" y="400.67" text-anchor="end">10^6</text>
<line class="grid" x1="90.0" y1="328.33" x2="920.0" y2="328.33" />
<text class="label" x="82.0" y="332.33" text-anchor="end">10^7</text>
<line class="grid" x1="90.0" y1="260.00" x2="920.0" y2="260.00" />
<text class="label" x="82.0" y="264.00" text-anchor="end">10^8</text>
<line class="grid" x1="90.0" y1="191.67" x2="920.0" y2="191.67" />
<text class="label" x="82.0" y="195.67" text-anchor="end">10^9</text>
<line class="grid" x1="90.0" y1="123.33" x2="920.0" y2="123.33" />
<text class="label" x="82.0" y="127.33" text-anchor="end">10^10</text>
<line class="grid" x1="90.0" y1="55.00" x2="920.0" y2="55.00" />
<text class="label" x="82.0" y="59.00" text-anchor="end">10^11</text>
<line class="grid" x1="90.00" y1="55.0" x2="90.00" y2="465.0" />
<text class="label" x="90.00" y="485.0" text-anchor="middle">32</text>
<line class="grid" x1="281.54" y1="55.0" x2="281.54" y2="465.0" />
<text class="label" x="281.54" y="485.0" text-anchor="middle">256</text>
<line class="grid" x1="409.23" y1="55.0" x2="409.23" y2="465.0" />
<text class="label" x="409.23" y="485.0" text-anchor="middle">1,024</text>
<line class="grid" x1="600.77" y1="55.0" x2="600.77" y2="465.0" />
<text class="label" x="600.77" y="485.0" text-anchor="middle">8,192</text>
<line class="grid" x1="728.46" y1="55.0" x2="728.46" y2="465.0" />
<text class="label" x="728.46" y="485.0" text-anchor="middle">32,768</text>
<line class="grid" x1="920.00" y1="55.0" x2="920.00" y2="465.0" />
<text class="label" x="920.00" y="485.0" text-anchor="middle">262,144</text>
<polyline fill="none" stroke="#2a7fff" stroke-width="2.5" points="90.00,437.84 281.54,372.17 409.23,323.00 600.77,263.56 728.46,218.63 920.00,152.90" />
<circle cx="90.00" cy="437.84" r="3.5" fill="#2a7fff" />
<circle cx="281.54" cy="372.17" r="3.5" fill="#2a7fff" />
<circle cx="409.23" cy="323.00" r="3.5" fill="#2a7fff" />
<circle cx="600.77" cy="263.56" r="3.5" fill="#2a7fff" />
<circle cx="728.46" cy="218.63" r="3.5" fill="#2a7fff" />
<circle cx="920.00" cy="152.90" r="3.5" fill="#2a7fff" />
<line x1="100.0" y1="67.0" x2="116.0" y2="67.0" stroke="#2a7fff" stroke-width="2.5" />
<text class="label" x="122.0" y="71.0">RLOC KeySize=64</text>
<polyline fill="none" stroke="#e4572e" stroke-width="2.5" points="90.00,432.06 281.54,372.66 409.23,323.62 600.77,258.59 728.46,208.58 920.00,99.65" />
<circle cx="90.00" cy="432.06" r="3.5" fill="#e4572e" />
<circle cx="281.54" cy="372.66" r="3.5" fill="#e4572e" />
<circle cx="409.23" cy="323.62" r="3.5" fill="#e4572e" />
<circle cx="600.77" cy="258.59" r="3.5" fill="#e4572e" />
<circle cx="728.46" cy="208.58" r="3.5" fill="#e4572e" />
<circle cx="920.00" cy="99.65" r="3.5" fill="#e4572e" />
<line x1="100.0" y1="85.0" x2="116.0" y2="85.0" stroke="#e4572e" stroke-width="2.5" />
<text class="label" x="122.0" y="89.0">RLOC KeySize=128</text>
<polyline fill="none" stroke="#22a06b" stroke-width="2.5" points="90.00,432.82 281.54,368.63 409.23,322.91 600.77,254.59 728.46,205.87 920.00,102.06" />
<circle cx="90.00" cy="432.82" r="3.5" fill="#22a06b" />
<circle cx="281.54" cy="368.63" r="3.5" fill="#22a06b" />
<circle cx="409.23" cy="322.91" r="3.5" fill="#22a06b" />
<circle cx="600.77" cy="254.59" r="3.5" fill="#22a06b" />
<circle cx="728.46" cy="205.87" r="3.5" fill="#22a06b" />
<circle cx="920.00" cy="102.06" r="3.5" fill="#22a06b" />
<line x1="100.0" y1="103.0" x2="116.0" y2="103.0" stroke="#22a06b" stroke-width="2.5" />
<text class="label" x="122.0" y="107.0">RLOC KeySize=256</text>
<polyline fill="none" stroke="#7c3aed" stroke-width="2.5" points="90.00,438.24 281.54,372.86 409.23,324.45 600.77,258.59 728.46,205.83 920.00,99.72" />
<circle cx="90.00" cy="438.24" r="3.5" fill="#7c3aed" />
<circle cx="281.54" cy="372.86" r="3.5" fill="#7c3aed" />
<circle cx="409.23" cy="324.45" r="3.5" fill="#7c3aed" />
<circle cx="600.77" cy="258.59" r="3.5" fill="#7c3aed" />
<circle cx="728.46" cy="205.83" r="3.5" fill="#7c3aed" />
<circle cx="920.00" cy="99.72" r="3.5" fill="#7c3aed" />
<line x1="100.0" y1="121.0" x2="116.0" y2="121.0" stroke="#7c3aed" stroke-width="2.5" />
<text class="label" x="122.0" y="125.0">RLOC KeySize=512</text>
<polyline fill="none" stroke="#a16207" stroke-width="2.5" points="90.00,432.31 281.54,362.58 409.23,312.82 600.77,248.35 728.46,186.77 920.00,94.26" />
<circle cx="90.00" cy="432.31" r="3.5" fill="#a16207" />
<circle cx="281.54" cy="362.58" r="3.5" fill="#a16207" />
<circle cx="409.23" cy="312.82" r="3.5" fill="#a16207" />
<circle cx="600.77" cy="248.35" r="3.5" fill="#a16207" />
<circle cx="728.46" cy="186.77" r="3.5" fill="#a16207" />
<circle cx="920.00" cy="94.26" r="3.5" fill="#a16207" />
<line x1="100.0" y1="139.0" x2="116.0" y2="139.0" stroke="#a16207" stroke-width="2.5" />
<text class="label" x="122.0" y="143.0">RLOC KeySize=1024</text>
<polyline fill="none" stroke="#d946ef" stroke-width="2.5" points="90.00,419.83 281.54,357.72 409.23,313.65 600.77,241.19 728.46,179.51 920.00,93.46" />
<circle cx="90.00" cy="419.83" r="3.5" fill="#d946ef" />
<circle cx="281.54" cy="357.72" r="3.5" fill="#d946ef" />
<circle cx="409.23" cy="313.65" r="3.5" fill="#d946ef" />
<circle cx="600.77" cy="241.19" r="3.5" fill="#d946ef" />
<circle cx="728.46" cy="179.51" r="3.5" fill="#d946ef" />
<circle cx="920.00" cy="93.46" r="3.5" fill="#d946ef" />
<line x1="100.0" y1="157.0" x2="116.0" y2="157.0" stroke="#d946ef" stroke-width="2.5" />
<text class="label" x="122.0" y="161.0">RLOC KeySize=4096</text>
<polyline fill="none" stroke="#0ea5e9" stroke-width="2.5" points="90.00,425.98 281.54,358.96 409.23,310.26 600.77,254.67 728.46,211.37 920.00,141.35" />
<circle cx="90.00" cy="425.98" r="3.5" fill="#0ea5e9" />
<circle cx="281.54" cy="358.96" r="3.5" fill="#0ea5e9" />
<circle cx="409.23" cy="310.26" r="3.5" fill="#0ea5e9" />
<circle cx="600.77" cy="254.67" r="3.5" fill="#0ea5e9" />
<circle cx="728.46" cy="211.37" r="3.5" fill="#0ea5e9" />
<circle cx="920.00" cy="141.35" r="3.5" fill="#0ea5e9" />
<line x1="100.0" y1="175.0" x2="116.0" y2="175.0" stroke="#0ea5e9" stroke-width="2.5" />
<text class="label" x="122.0" y="179.0">LERLOC (Fast) KeySize=64</text>
<polyline fill="none" stroke="#2a7fff" stroke-width="2.5" points="90.00,421.09 281.54,358.98 409.23,314.95 600.77,252.90 728.46,205.93 920.00,93.41" />
<circle cx="90.00" cy="421.09" r="3.5" fill="#2a7fff" />
<circle cx="281.54" cy="358.98" r="3.5" fill="#2a7fff" />
<circle cx="409.23" cy="314.95" r="3.5" fill="#2a7fff" />
<circle cx="600.77" cy="252.90" r="3.5" fill="#2a7fff" />
<circle cx="728.46" cy="205.93" r="3.5" fill="#2a7fff" />
<circle cx="920.00" cy="93.41" r="3.5" fill="#2a7fff" />
<line x1="100.0" y1="193.0" x2="116.0" y2="193.0" stroke="#2a7fff" stroke-width="2.5" />
<text class="label" x="122.0" y="197.0">LERLOC (Fast) KeySize=128</text>
<polyline fill="none" stroke="#e4572e" stroke-width="2.5" points="90.00,420.81 281.54,361.08 409.23,314.99 600.77,247.52 728.46,200.30 920.00,99.19" />
<circle cx="90.00" cy="420.81" r="3.5" fill="#e4572e" />
<circle cx="281.54" cy="361.08" r="3.5" fill="#e4572e" />
<circle cx="409.23" cy="314.99" r="3.5" fill="#e4572e" />
<circle cx="600.77" cy="247.52" r="3.5" fill="#e4572e" />
<circle cx="728.46" cy="200.30" r="3.5" fill="#e4572e" />
<circle cx="920.00" cy="99.19" r="3.5" fill="#e4572e" />
<line x1="100.0" y1="211.0" x2="116.0" y2="211.0" stroke="#e4572e" stroke-width="2.5" />
<text class="label" x="122.0" y="215.0">LERLOC (Fast) KeySize=256</text>
<polyline fill="none" stroke="#22a06b" stroke-width="2.5" points="90.00,424.90 281.54,360.56 409.23,315.27 600.77,247.66 728.46,198.72 920.00,92.21" />
<circle cx="90.00" cy="424.90" r="3.5" fill="#22a06b" />
<circle cx="281.54" cy="360.56" r="3.5" fill="#22a06b" />
<circle cx="409.23" cy="315.27" r="3.5" fill="#22a06b" />
<circle cx="600.77" cy="247.66" r="3.5" fill="#22a06b" />
<circle cx="728.46" cy="198.72" r="3.5" fill="#22a06b" />
<circle cx="920.00" cy="92.21" r="3.5" fill="#22a06b" />
<line x1="100.0" y1="229.0" x2="116.0" y2="229.0" stroke="#22a06b" stroke-width="2.5" />
<text class="label" x="122.0" y="233.0">LERLOC (Fast) KeySize=512</text>
<polyline fill="none" stroke="#7c3aed" stroke-width="2.5" points="90.00,410.16 281.54,352.47 409.23,304.51 600.77,237.17 728.46,180.81 920.00,91.15" />
<circle cx="90.00" cy="410.16" r="3.5" fill="#7c3aed" />
<circle cx="281.54" cy="352.47" r="3.5" fill="#7c3aed" />
<circle cx="409.23" cy="304.51" r="3.5" fill="#7c3aed" />
<circle cx="600.77" cy="237.17" r="3.5" fill="#7c3aed" />
<circle cx="728.46" cy="180.81" r="3.5" fill="#7c3aed" />
<circle cx="920.00" cy="91.15" r="3.5" fill="#7c3aed" />
<line x1="100.0" y1="247.0" x2="116.0" y2="247.0" stroke="#7c3aed" stroke-width="2.5" />
<text class="label" x="122.0" y="251.0">LERLOC (Fast) KeySize=1024</text>
<polyline fill="none" stroke="#a16207" stroke-width="2.5" points="90.00,413.07 281.54,347.55 409.23,305.20 600.77,226.75 728.46,181.45 920.00,87.42" />
<circle cx="90.00" cy="413.07" r="3.5" fill="#a16207" />
<circle cx="281.54" cy="347.55" r="3.5" fill="#a16207" />
<circle cx="409.23" cy="305.20" r="3.5" fill="#a16207" />
<circle cx="600.77" cy="226.75" r="3.5" fill="#a16207" />
<circle cx="728.46" cy="181.45" r="3.5" fill="#a16207" />
<circle cx="920.00" cy="87.42" r="3.5" fill="#a16207" />
<line x1="100.0" y1="265.0" x2="116.0" y2="265.0" stroke="#a16207" stroke-width="2.5" />
<text class="label" x="122.0" y="269.0">LERLOC (Fast) KeySize=4096</text>
<polyline fill="none" stroke="#d946ef" stroke-width="2.5" points="90.00,421.36 281.54,360.30 409.23,311.64 600.77,248.64 728.46,203.34 920.00,136.02" />
<circle cx="90.00" cy="421.36" r="3.5" fill="#d946ef" />
<circle cx="281.54" cy="360.30" r="3.5" fill="#d946ef" />
<circle cx="409.23" cy="311.64" r="3.5" fill="#d946ef" />
<circle cx="600.77" cy="248.64" r="3.5" fill="#d946ef" />
<circle cx="728.46" cy="203.34" r="3.5" fill="#d946ef" />
<circle cx="920.00" cy="136.02" r="3.5" fill="#d946ef" />
<line x1="100.0" y1="283.0" x2="116.0" y2="283.0" stroke="#d946ef" stroke-width="2.5" />
<text class="label" x="122.0" y="287.0">LERLOC (Compact) KeySize=64</text>
<polyline fill="none" stroke="#0ea5e9" stroke-width="2.5" points="90.00,412.56 281.54,358.61 409.23,311.26 600.77,248.08 728.46,185.22 920.00,89.31" />
<circle cx="90.00" cy="412.56" r="3.5" fill="#0ea5e9" />
<circle cx="281.54" cy="358.61" r="3.5" fill="#0ea5e9" />
<circle cx="409.23" cy="311.26" r="3.5" fill="#0ea5e9" />
<circle cx="600.77" cy="248.08" r="3.5" fill="#0ea5e9" />
<circle cx="728.46" cy="185.22" r="3.5" fill="#0ea5e9" />
<circle cx="920.00" cy="89.31" r="3.5" fill="#0ea5e9" />
<line x1="100.0" y1="301.0" x2="116.0" y2="301.0" stroke="#0ea5e9" stroke-width="2.5" />
<text class="label" x="122.0" y="305.0">LERLOC (Compact) KeySize=128</text>
<polyline fill="none" stroke="#2a7fff" stroke-width="2.5" points="90.00,415.51 281.54,356.31 409.23,313.26 600.77,244.61 728.46,192.33 920.00,95.49" />
<circle cx="90.00" cy="415.51" r="3.5" fill="#2a7fff" />
<circle cx="281.54" cy="356.31" r="3.5" fill="#2a7fff" />
<circle cx="409.23" cy="313.26" r="3.5" fill="#2a7fff" />
<circle cx="600.77" cy="244.61" r="3.5" fill="#2a7fff" />
<circle cx="728.46" cy="192.33" r="3.5" fill="#2a7fff" />
<circle cx="920.00" cy="95.49" r="3.5" fill="#2a7fff" />
<line x1="100.0" y1="319.0" x2="116.0" y2="319.0" stroke="#2a7fff" stroke-width="2.5" />
<text class="label" x="122.0" y="323.0">LERLOC (Compact) KeySize=256</text>
<polyline fill="none" stroke="#e4572e" stroke-width="2.5" points="90.00,428.47 281.54,366.25 409.23,320.34 600.77,252.43 728.46,199.65 920.00,104.81" />
<circle cx="90.00" cy="428.47" r="3.5" fill="#e4572e" />
<circle cx="281.54" cy="366.25" r="3.5" fill="#e4572e" />
<circle cx="409.23" cy="320.34" r="3.5" fill="#e4572e" />
<circle cx="600.77" cy="252.43" r="3.5" fill="#e4572e" />
<circle cx="728.46" cy="199.65" r="3.5" fill="#e4572e" />
<circle cx="920.00" cy="104.81" r="3.5" fill="#e4572e" />
<line x1="100.0" y1="337.0" x2="116.0" y2="337.0" stroke="#e4572e" stroke-width="2.5" />
<text class="label" x="122.0" y="341.0">LERLOC (Compact) KeySize=512</text>
<polyline fill="none" stroke="#22a06b" stroke-width="2.5" points="90.00,426.81 281.54,365.29 409.23,316.72 600.77,247.63 728.46,199.22 920.00,99.91" />
<circle cx="90.00" cy="426.81" r="3.5" fill="#22a06b" />
<circle cx="281.54" cy="365.29" r="3.5" fill="#22a06b" />
<circle cx="409.23" cy="316.72" r="3.5" fill="#22a06b" />
<circle cx="600.77" cy="247.63" r="3.5" fill="#22a06b" />
<circle cx="728.46" cy="199.22" r="3.5" fill="#22a06b" />
<circle cx="920.00" cy="99.91" r="3.5" fill="#22a06b" />
<line x1="100.0" y1="355.0" x2="116.0" y2="355.0" stroke="#22a06b" stroke-width="2.5" />
<text class="label" x="122.0" y="359.0">LERLOC (Compact) KeySize=1024</text>
<polyline fill="none" stroke="#7c3aed" stroke-width="2.5" points="90.00,416.13 281.54,353.35 409.23,308.68 600.77,237.64 728.46,183.64 920.00,94.46" />
<circle cx="90.00" cy="416.13" r="3.5" fill="#7c3aed" />
<circle cx="281.54" cy="353.35" r="3.5" fill="#7c3aed" />
<circle cx="409.23" cy="308.68" r="3.5" fill="#7c3aed" />
<circle cx="600.77" cy="237.64" r="3.5" fill="#7c3aed" />
<circle cx="728.46" cy="183.64" r="3.5" fill="#7c3aed" />
<circle cx="920.00" cy="94.46" r="3.5" fill="#7c3aed" />
<line x1="100.0" y1="373.0" x2="116.0" y2="373.0" stroke="#7c3aed" stroke-width="2.5" />
<text class="label" x="122.0" y="377.0">LERLOC (Compact) KeySize=4096</text>
<text class="label" x="480.0" y="522.0" text-anchor="middle">Keys (N)</text>
<text class="label" transform="translate(20,270.0) rotate(-90)" text-anchor="middle">ns/op</text>
</svg>