<svg xmlns="http://www.w3.org/2000/svg" width="960.0" height="540.0" viewBox="0 0 960.0 540.0">
<style>text{font-family:Menlo,Monaco,monospace;font-size:12px;fill:#222} .axis{stroke:#333;stroke-width:1} .grid{stroke:#ddd;stroke-width:1} .label{font-size:11px;fill:#444}</style>
<text x="480.0" y="26" text-anchor="middle">Build Time (ns/op)</text>
<line class="axis" x1="90.0" y1="465.0" x2="920.0" y2="465.0" />
<line class="axis" x1="90.0" y1="55.0" x2="90.0" y2="465.0" />
<line class="grid" x1="90.0" y1="465.00" x2="920.0" y2="465.00" />
<text class="label" x="82.0" y="469.00" text-anchor="end">10^5</text>
<line class="grid" x1="90.0" y1="396.67" x2="920.0" y2="396.67" />
<text class="label" x="82.0" y="400.67" text-anchor="end">10^6</text>
<line class="grid" x1="90.0" y1="328.33" x2="920.0" y2="328.33" />
<text class="label" x="82.0" y="332.33" text-anchor="end">10^7</text>
<line class="grid" x1="90.0" y1="260.00" x2="920.0" y2="260.00" />
<text class="label" x="82.0" y="264.00" text-anchor="end">10^8</text>
<line class="grid" x1="90.0" y1="191.67" x2="920.0" y2="191.67" />
<text class="label" x="82.0" y="195.67" text-anchor="end">10^9</text>
<line class="grid" x1="90.0" y1="123.33" x2="920.0" y2="123.33" />
<text class="label" x="82.0" y="127.33" text-anchor="end">10^10</text>
<line class="grid" x1="90.0" y1="55.00" x2="920.0" y2="55.00" />
<text class="label" x="82.0" y="59.00" text-anchor="end">10^11</text>
<line class="grid" x1="90.00" y1="55.0" x2="90.00" y2="465.0" />
<text class="label" x="90.00" y="485.0" text-anchor="middle">32</text>
<line class="grid" x1="281.54" y1="55.0" x2="281.54" y2="465.0" />
<text class="label" x="281.54" y="485.0" text-anchor="middle">256</text>
<line class="grid" x1="409.23" y1="55.0" x2="409.23" y2="465.0" />
<text class="label" x="409.23" y="485.0" text-anchor="middle">1,024</text>
<line class="grid" x1="600.77" y1="55.0" x2="600.77" y2="465.0" />
<text class="label" x="600.77" y="485.0" text-anchor="middle">8,192</text>
<line class="grid" x1="728.46" y1="55.0" x2="728.46" y2="465.0" />
<text class="label" x="728.46" y="485.0" text-anchor="middle">32,768</text>
<line class="grid" x1="920.00" y1="55.0" x2="920.00" y2="465.0" />
<text class="label" x="920.00" y="485.0" text-anchor="middle">262,144</text>
<polyline fill="none" stroke="#2a7fff" stroke-width="2.5" points="90.00,430.39 281.54,380.62 409.23,332.65 600.77,278.19 728.46,229.39 920.00,105.54" />
<circle cx="90.00" cy="430.39" r="3.5" fill="#2a7fff" />
<circle cx="281.54" cy="380.62" r="3.5" fill="#2a7fff" />
<circle cx="409.23" cy="332.65" r="3.5" fill="#2a7fff" />
<circle cx="600.77" cy="278.19" r="3.5" fill="#2a7fff" />
<circle cx="728.46" cy="229.39" r="3.5" fill="#2a7fff" />
<circle cx="920.00" cy="105.54" r="3.5" fill="#2a7fff" />
<line x1="100.0" y1="67.0" x2="116.0" y2="67.0" stroke="#2a7fff" stroke-width="2.5" />
<text class="label" x="122.0" y="71.0">RLOC KeySize=64</text>
<polyline fill="none" stroke="#e4572e" stroke-width="2.5" points="90.00,427.60 281.54,381.19 409.23,335.26 600.77,277.63 728.46,223.61 920.00,103.58" />
<circle cx="90.00" cy="427.60" r="3.5" fill="#e4572e" />
<circle cx="281.54" cy="381.19" r="3.5" fill="#e4572e" />
<circle cx="409.23" cy="335.26" r="3.5" fill="#e4572e" />
<circle cx="600.77" cy="277.63" r="3.5" fill="#e4572e" />
<circle cx="728.46" cy="223.61" r="3.5" fill="#e4572e" />
<circle cx="920.00" cy="103.58" r="3.5" fill="#e4572e" />
<line x1="100.0" y1="85.0" x2="116.0" y2="85.0" stroke="#e4572e" stroke-width="2.5" />
<text class="label" x="122.0" y="89.0">RLOC KeySize=128</text>
<polyline fill="none" stroke="#22a06b" stroke-width="2.5" points="90.00,430.81 281.54,386.33 409.23,336.44 600.77,269.48 728.46,211.24 920.00,106.84" />
<circle cx="90.00" cy="430.81" r="3.5" fill="#22a06b" />
<circle cx="281.54" cy="386.33" r="3.5" fill="#22a06b" />
<circle cx="409.23" cy="336.44" r="3.5" fill="#22a06b" />
<circle cx="600.77" cy="269.48" r="3.5" fill="#22a06b" />
<circle cx="728.46" cy="211.24" r="3.5" fill="#22a06b" />
<circle cx="920.00" cy="106.84" r="3.5" fill="#22a06b" />
<line x1="100.0" y1="103.0" x2="116.0" y2="103.0" stroke="#22a06b" stroke-width="2.5" />
<text class="label" x="122.0" y="107.0">RLOC KeySize=256</text>
<polyline fill="none" stroke="#7c3aed" stroke-width="2.5" points="90.00,432.72 281.54,373.18 409.23,323.35 600.77,264.91 728.46,216.81 920.00,104.97" />
<circle cx="90.00" cy="432.72" r="3.5" fill="#7c3aed" />
<circle cx="281.54" cy="373.18" r="3.5" fill="#7c3aed" />
<circle cx="409.23" cy="323.35" r="3.5" fill="#7c3aed" />
<circle cx="600.77" cy="264.91" r="3.5" fill="#7c3aed" />
<circle cx="728.46" cy="216.81" r="3.5" fill="#7c3aed" />
<circle cx="920.00" cy="104.97" r="3.5" fill="#7c3aed" />
<line x1="100.0" y1="121.0" x2="116.0" y2="121.0" stroke="#7c3aed" stroke-width="2.5" />
<text class="label" x="122.0" y="125.0">RLOC KeySize=512</text>
<polyline fill="none" stroke="#a16207" stroke-width="2.5" points="90.00,414.42 281.54,372.96 409.23,322.97 600.77,263.10 728.46,198.24 920.00,100.55" />
<circle cx="90.00" cy="414.42" r="3.5" fill="#a16207" />
<circle cx="281.54" cy="372.96" r="3.5" fill="#a16207" />
<circle cx="409.23" cy="322.97" r="3.5" fill="#a16207" />
<circle cx="600.77" cy="263.10" r="3.5" fill="#a16207" />
<circle cx="728.46" cy="198.24" r="3.5" fill="#a16207" />
<circle cx="920.00" cy="100.55" r="3.5" fill="#a16207" />
<line x1="100.0" y1="139.0" x2="116.0" y2="139.0" stroke="#a16207" stroke-width="2.5" />
<text class="label" x="122.0" y="143.0">RLOC KeySize=1024</text>
<polyline fill="none" stroke="#d946ef" stroke-width="2.5" points="90.00,404.03 281.54,354.75 409.23,307.62 600.77,243.66 728.46,198.53 920.00,88.42" />
<circle cx="90.00" cy="404.03" r="3.5" fill="#d946ef" />
<circle cx="281.54" cy="354.75" r="3.5" fill="#d946ef" />
<circle cx="409.23" cy="307.62" r="3.5" fill="#d946ef" />
<circle cx="600.77" cy="243.66" r="3.5" fill="#d946ef" />
<circle cx="728.46" cy="198.53" r="3.5" fill="#d946ef" />
<circle cx="920.00" cy="88.42" r="3.5" fill="#d946ef" />
<line x1="100.0" y1="157.0" x2="116.0" y2="157.0" stroke="#d946ef" stroke-width="2.5" />
<text class="label" x="122.0" y="161.0">RLOC KeySize=4096</text>
<text class="label" x="480.0" y="522.0" text-anchor="middle">Keys (N)</text>
<text class="label" transform="translate(20,270.0) rotate(-90)" text-anchor="middle">ns/op</text>
</svg>