<svg xmlns="http://www.w3.org/2000/svg" width="960.0" height="540.0" viewBox="0 0 960.0 540.0">
<style>text{font-family:Menlo,Monaco,monospace;font-size:12px;fill:#222} .axis{stroke:#333;stroke-width:1} .grid{stroke:#ddd;stroke-width:1} .label{font-size:11px;fill:#444}</style>
<text x="480.0" y="26" text-anchor="middle">RLOC vs LERLOC Memory (KeySize=64)</text>
<line class="axis" x1="90.0" y1="465.0" x2="920.0" y2="465.0" />
<line class="axis" x1="90.0" y1="55.0" x2="90.0" y2="465.0" />
<line class="grid" x1="90.0" y1="465.00" x2="920.0" y2="465.00" />
<text class="label" x="82.0" y="469.00" text-anchor="end">0.00</text>
<line class="grid" x1="90.0" y1="383.00" x2="920.0" y2="383.00" />
<text class="label" x="82.0" y="387.00" text-anchor="end">53.90</text>
<line class="grid" x1="90.0" y1="301.00" x2="920.0" y2="301.00" />
<text class="label" x="82.0" y="305.00" text-anchor="end">107.80</text>
<line class="grid" x1="90.0" y1="219.00" x2="920.0" y2="219.00" />
<text class="label" x="82.0" y="223.00" text-anchor="end">161.70</text>
<line class="grid" x1="90.0" y1="137.00" x2="920.0" y2="137.00" />
<text class="label" x="82.0" y="141.00" text-anchor="end">215.60</text>
<line class="grid" x1="90.0" y1="55.00" x2="920.0" y2="55.00" />
<text class="label" x="82.0" y="59.00" text-anchor="end">269.50</text>
<line class="grid" x1="90.00" y1="55.0" x2="90.00" y2="465.0" />
<text class="label" x="90.00" y="485.0" text-anchor="middle">32</text>
<line class="grid" x1="281.54" y1="55.0" x2="281.54" y2="465.0" />
<text class="label" x="281.54" y="485.0" text-anchor="middle">256</text>
<line class="grid" x1="409.23" y1="55.0" x2="409.23" y2="465.0" />
<text class="label" x="409.23" y="485.0" text-anchor="middle">1,024</text>
<line class="grid" x1="600.77" y1="55.0" x2="600.77" y2="465.0" />
<text class="label" x="600.77" y="485.0" text-anchor="middle">8,192</text>
<line class="grid" x1="728.46" y1="55.0" x2="728.46" y2="465.0" />
<text class="label" x="728.46" y="485.0" text-anchor="middle">32,768</text>
<line class="grid" x1="920.00" y1="55.0" x2="920.00" y2="465.0" />
<text class="label" x="920.00" y="485.0" text-anchor="middle">262,144</text>
<polyline fill="none" stroke="#2a7fff" stroke-width="2.5" points="90.00,92.27 281.54,240.30 409.23,254.45 600.77,265.55 728.46,266.92 920.00,258.55" />
<circle cx="90.00" cy="92.27" r="3.5" fill="#2a7fff" />
<circle cx="281.54" cy="240.30" r="3.5" fill="#2a7fff" />
<circle cx="409.23" cy="254.45" r="3.5" fill="#2a7fff" />
<circle cx="600.77" cy="265.55" r="3.5" fill="#2a7fff" />
<circle cx="728.46" cy="266.92" r="3.5" fill="#2a7fff" />
<circle cx="920.00" cy="258.55" r="3.5" fill="#2a7fff" />
<line x1="100.0" y1="67.0" x2="116.0" y2="67.0" stroke="#2a7fff" stroke-width="2.5" />
<text class="label" x="122.0" y="71.0">LERLOC (Fast)</text>
<polyline fill="none" stroke="#e4572e" stroke-width="2.5" points="90.00,119.96 281.54,290.35 409.23,305.72 600.77,309.52 728.46,310.74 920.00,307.54" />
<circle cx="90.00" cy="119.96" r="3.5" fill="#e4572e" />
<circle cx="281.54" cy="290.35" r="3.5" fill="#e4572e" />
<circle cx="409.23" cy="305.72" r="3.5" fill="#e4572e" />
<circle cx="600.77" cy="309.52" r="3.5" fill="#e4572e" />
<circle cx="728.46" cy="310.74" r="3.5" fill="#e4572e" />
<circle cx="920.00" cy="307.54" r="3.5" fill="#e4572e" />
<line x1="100.0" y1="85.0" x2="116.0" y2="85.0" stroke="#e4572e" stroke-width="2.5" />
<text class="label" x="122.0" y="89.0">LERLOC (Compact)</text>
<text class="label" x="480.0" y="522.0" text-anchor="middle">Keys (N)</text>
<text class="label" transform="translate(20,270.0) rotate(-90)" text-anchor="middle">bits/key</text>
</svg>