<svg xmlns="http://www.w3.org/2000/svg" width="960.0" height="540.0" viewBox="0 0 960.0 540.0">
<style>text{font-family:Menlo,Monaco,monospace;font-size:12px;fill:#222} .axis{stroke:#333;stroke-width:1} .grid{stroke:#ddd;stroke-width:1} .label{font-size:11px;fill:#444}</style>
<text x="480.0" y="26" text-anchor="middle">LERLOC Memory Efficiency Breakdown (KeySize=64)</text>
<line class="axis" x1="90.0" y1="465.0" x2="780.0" y2="465.0" />
<line class="axis" x1="90.0" y1="55.0" x2="90.0" y2="465.0" />
<line class="grid" x1="90.0" y1="465.00" x2="780.0" y2="465.00" />
<text class="label" x="82.0" y="469.00" text-anchor="end">0</text>
<line class="grid" x1="90.0" y1="383.00" x2="780.0" y2="383.00" />
<text class="label" x="82.0" y="387.00" text-anchor="end">51</text>
<line class="grid" x1="90.0" y1="301.00" x2="780.0" y2="301.00" />
<text class="label" x="82.0" y="305.00" text-anchor="end">101</text>
<line class="grid" x1="90.0" y1="219.00" x2="780.0" y2="219.00" />
<text class="label" x="82.0" y="223.00" text-anchor="end">152</text>
<line class="grid" x1="90.0" y1="137.00" x2="780.0" y2="137.00" />
<text class="label" x="82.0" y="141.00" text-anchor="end">203</text>
<line class="grid" x1="90.0" y1="55.00" x2="780.0" y2="55.00" />
<text class="label" x="82.0" y="59.00" text-anchor="end">254</text>
<line class="grid" x1="90.00" y1="55.0" x2="90.00" y2="465.0" />
<text class="label" x="90.00" y="485.0" text-anchor="middle">32</text>
<line class="grid" x1="249.23" y1="55.0" x2="249.23" y2="465.0" />
<text class="label" x="249.23" y="485.0" text-anchor="middle">256</text>
<line class="grid" x1="355.38" y1="55.0" x2="355.38" y2="465.0" />
<text class="label" x="355.38" y="485.0" text-anchor="middle">1,024</text>
<line class="grid" x1="514.62" y1="55.0" x2="514.62" y2="465.0" />
<text class="label" x="514.62" y="485.0" text-anchor="middle">8,192</text>
<line class="grid" x1="620.77" y1="55.0" x2="620.77" y2="465.0" />
<text class="label" x="620.77" y="485.0" text-anchor="middle">32,768</text>
<line class="grid" x1="780.00" y1="55.0" x2="780.00" y2="465.0" />
<text class="label" x="780.00" y="485.0" text-anchor="middle">262,144</text>
<polygon fill="#d946ef" fill-opacity="0.8" points="90.00,92.27 249.23,236.85 355.38,257.56 514.62,271.43 620.77,271.31 780.00,259.82 780.00,259.82 620.77,271.34 514.62,271.55 355.38,258.47 249.23,240.48 90.00,121.38" />
<polygon fill="#a16207" fill-opacity="0.8" points="90.00,121.38 249.23,240.48 355.38,258.47 514.62,271.55 620.77,271.34 780.00,259.82 780.00,338.45 620.77,349.87 514.62,350.44 355.38,337.78 249.23,321.99 90.00,223.66" />
<polygon fill="#7c3aed" fill-opacity="0.8" points="90.00,223.66 249.23,321.99 355.38,337.78 514.62,350.44 620.77,349.87 780.00,338.45 780.00,345.31 620.77,354.74 514.62,354.16 355.38,342.21 249.23,328.76 90.00,253.57" />
<polygon fill="#22a06b" fill-opacity="0.8" points="90.00,253.57 249.23,328.76 355.38,342.21 514.62,354.16 620.77,354.74 780.00,345.31 780.00,352.09 620.77,361.51 514.62,360.95 355.38,349.13 249.23,336.29 90.00,270.15" />
<polygon fill="#e4572e" fill-opacity="0.8" points="90.00,270.15 249.23,336.29 355.38,349.13 514.62,360.95 620.77,361.51 780.00,352.09 780.00,465.00 620.77,464.98 514.62,464.91 355.38,464.29 249.23,462.17 90.00,442.36" />
<polygon fill="#2a7fff" fill-opacity="0.8" points="90.00,442.36 249.23,462.17 355.38,464.29 514.62,464.91 620.77,464.98 780.00,465.00 780.00,465.00 90.00,465.00" />
<rect x="790.0" y="59.0" width="12" height="12" fill="#d946ef" />
<text class="label" x="808.0" y="69.0">Other</text>
<rect x="790.0" y="79.0" width="12" height="12" fill="#a16207" />
<text class="label" x="808.0" y="89.0">MMPH_Buckets</text>
<rect x="790.0" y="99.0" width="12" height="12" fill="#7c3aed" />
<text class="label" x="808.0" y="109.0">MMPH_Trie</text>
<rect x="790.0" y="119.0" width="12" height="12" fill="#22a06b" />
<text class="label" x="808.0" y="129.0">Leaf_BitVector</text>
<rect x="790.0" y="139.0" width="12" height="12" fill="#e4572e" />
<text class="label" x="808.0" y="149.0">HZFastTrie</text>
<rect x="790.0" y="159.0" width="12" height="12" fill="#2a7fff" />
<text class="label" x="808.0" y="169.0">Top_Level_Header</text>
<text class="label" x="480.0" y="522.0" text-anchor="middle">Keys (N)</text>
<text class="label" transform="translate(20,270.0) rotate(-90)" text-anchor="middle">bits/key</text>
</svg>