<svg xmlns="http://www.w3.org/2000/svg" width="960.0" height="540.0" viewBox="0 0 960.0 540.0">
<style>text{font-family:Menlo,Monaco,monospace;font-size:12px;fill:#222} .axis{stroke:#333;stroke-width:1} .grid{stroke:#ddd;stroke-width:1} .label{font-size:11px;fill:#444}</style>
<text x="480.0" y="26" text-anchor="middle">LERLOC (Compact) Memory Efficiency Breakdown</text>
<line class="axis" x1="90.0" y1="465.0" x2="780.0" y2="465.0" />
<line class="axis" x1="90.0" y1="55.0" x2="90.0" y2="465.0" />
<line class="grid" x1="90.0" y1="465.00" x2="780.0" y2="465.00" />
<text class="label" x="82.0" y="469.00" text-anchor="end">0</text>
<line class="grid" x1="90.0" y1="383.00" x2="780.0" y2="383.00" />
<text class="label" x="82.0" y="387.00" text-anchor="end">54</text>
<line class="grid" x1="90.0" y1="301.00" x2="780.0" y2="301.00" />
<text class="label" x="82.0" y="305.00" text-anchor="end">109</text>
<line class="grid" x1="90.0" y1="219.00" x2="780.0" y2="219.00" />
<text class="label" x="82.0" y="223.00" text-anchor="end">163</text>
<line class="grid" x1="90.0" y1="137.00" x2="780.0" y2="137.00" />
<text class="label" x="82.0" y="141.00" text-anchor="end">218</text>
<line class="grid" x1="90.0" y1="55.00" x2="780.0" y2="55.00" />
<text class="label" x="82.0" y="59.00" text-anchor="end">272</text>
<line class="grid" x1="90.00" y1="55.0" x2="90.00" y2="465.0" />
<text class="label" x="90.00" y="485.0" text-anchor="middle">32</text>
<line class="grid" x1="249.23" y1="55.0" x2="249.23" y2="465.0" />
<text class="label" x="249.23" y="485.0" text-anchor="middle">256</text>
<line class="grid" x1="355.38" y1="55.0" x2="355.38" y2="465.0" />
<text class="label" x="355.38" y="485.0" text-anchor="middle">1,024</text>
<line class="grid" x1="514.62" y1="55.0" x2="514.62" y2="465.0" />
<text class="label" x="514.62" y="485.0" text-anchor="middle">8,192</text>
<line class="grid" x1="620.77" y1="55.0" x2="620.77" y2="465.0" />
<text class="label" x="620.77" y="485.0" text-anchor="middle">32,768</text>
<line class="grid" x1="780.00" y1="55.0" x2="780.00" y2="465.0" />
<text class="label" x="780.00" y="485.0" text-anchor="middle">262,144</text>
<polygon fill="#a16207" fill-opacity="0.8" points="90.00,92.27 249.23,312.04 355.38,324.13 514.62,331.58 620.77,327.64 780.00,323.49 780.00,396.84 620.77,400.91 514.62,404.78 355.38,397.59 249.23,387.18 90.00,192.14" />
<polygon fill="#7c3aed" fill-opacity="0.8" points="90.00,192.14 249.23,387.18 355.38,397.59 514.62,404.78 620.77,400.91 780.00,396.84 780.00,401.97 620.77,405.52 514.62,407.85 355.38,401.07 249.23,393.58 90.00,219.28" />
<polygon fill="#22a06b" fill-opacity="0.8" points="90.00,219.28 249.23,393.58 355.38,401.07 514.62,407.85 620.77,405.52 780.00,401.97 780.00,408.29 620.77,411.83 514.62,414.18 355.38,407.63 249.23,400.60 90.00,234.73" />
<polygon fill="#e4572e" fill-opacity="0.8" points="90.00,234.73 249.23,400.60 355.38,407.63 514.62,414.18 620.77,411.83 780.00,408.29 780.00,464.99 620.77,464.95 514.62,464.80 355.38,463.40 249.23,458.59 90.00,413.75" />
<polygon fill="#2a7fff" fill-opacity="0.8" points="90.00,413.75 249.23,458.59 355.38,463.40 514.62,464.80 620.77,464.95 780.00,464.99 780.00,465.00 90.00,465.00" />
<rect x="790.0" y="59.0" width="12" height="12" fill="#a16207" />
<text class="label" x="808.0" y="69.0">MMPH_Buckets</text>
<rect x="790.0" y="79.0" width="12" height="12" fill="#7c3aed" />
<text class="label" x="808.0" y="89.0">MMPH_Trie</text>
<rect x="790.0" y="99.0" width="12" height="12" fill="#22a06b" />
<text class="label" x="808.0" y="109.0">Leaf_BitVector</text>
<rect x="790.0" y="119.0" width="12" height="12" fill="#e4572e" />
<text class="label" x="808.0" y="129.0">HZFastTrie</text>
<rect x="790.0" y="139.0" width="12" height="12" fill="#2a7fff" />
<text class="label" x="808.0" y="149.0">Other</text>
<text class="label" x="480.0" y="522.0" text-anchor="middle">Keys (N)</text>
<text class="label" transform="translate(20,270.0) rotate(-90)" text-anchor="middle">bits/key</text>
</svg>