<svg xmlns="http://www.w3.org/2000/svg" width="960.0" height="540.0" viewBox="0 0 960.0 540.0">
<style>text{font-family:Menlo,Monaco,monospace;font-size:12px;fill:#222} .axis{stroke:#333;stroke-width:1} .grid{stroke:#ddd;stroke-width:1} .label{font-size:11px;fill:#444}</style>
<text x="480.0" y="26" text-anchor="middle">LERLOC Memory Efficiency Breakdown (KeySize=64)</text>
<line class="axis" x1="90.0" y1="465.0" x2="780.0" y2="465.0" />
<line class="axis" x1="90.0" y1="55.0" x2="90.0" y2="465.0" />
<line class="grid" x1="90.0" y1="465.00" x2="780.0" y2="465.00" />
<text class="label" x="82.0" y="469.00" text-anchor="end">0</text>
<line class="grid" x1="90.0" y1="383.00" x2="780.0" y2="383.00" />
<text class="label" x="82.0" y="387.00" text-anchor="end">55</text>
<line class="grid" x1="90.0" y1="301.00" x2="780.0" y2="301.00" />
<text class="label" x="82.0" y="305.00" text-anchor="end">110</text>
<line class="grid" x1="90.0" y1="219.00" x2="780.0" y2="219.00" />
<text class="label" x="82.0" y="223.00" text-anchor="end">165</text>
<line class="grid" x1="90.0" y1="137.00" x2="780.0" y2="137.00" />
<text class="label" x="82.0" y="141.00" text-anchor="end">220</text>
<line class="grid" x1="90.0" y1="55.00" x2="780.0" y2="55.00" />
<text class="label" x="82.0" y="59.00" text-anchor="end">274</text>
<line class="grid" x1="90.00" y1="55.0" x2="90.00" y2="465.0" />
<text class="label" x="90.00" y="485.0" text-anchor="middle">32</text>
<line class="grid" x1="249.23" y1="55.0" x2="249.23" y2="465.0" />
<text class="label" x="249.23" y="485.0" text-anchor="middle">256</text>
<line class="grid" x1="355.38" y1="55.0" x2="355.38" y2="465.0" />
<text class="label" x="355.38" y="485.0" text-anchor="middle">1,024</text>
<line class="grid" x1="514.62" y1="55.0" x2="514.62" y2="465.0" />
<text class="label" x="514.62" y="485.0" text-anchor="middle">8,192</text>
<line class="grid" x1="620.77" y1="55.0" x2="620.77" y2="465.0" />
<text class="label" x="620.77" y="485.0" text-anchor="middle">32,768</text>
<line class="grid" x1="780.00" y1="55.0" x2="780.00" y2="465.0" />
<text class="label" x="780.00" y="485.0" text-anchor="middle">262,144</text>
<polygon fill="#d946ef" fill-opacity="0.8" points="90.00,92.27 249.23,265.52 355.38,272.59 514.62,286.47 620.77,285.95 780.00,275.48 780.00,275.48 620.77,285.95 514.62,286.47 355.38,272.59 249.23,265.52 90.00,92.27" />
<polygon fill="#a16207" fill-opacity="0.8" points="90.00,92.27 249.23,265.52 355.38,272.59 514.62,286.47 620.77,285.95 780.00,275.48 780.00,348.18 620.77,358.62 514.62,359.19 355.38,346.24 249.23,341.19 90.00,185.27" />
<polygon fill="#7c3aed" fill-opacity="0.8" points="90.00,185.27 249.23,341.19 355.38,346.24 514.62,359.19 620.77,358.62 780.00,348.18 780.00,354.51 620.77,363.14 514.62,362.58 355.38,350.32 249.23,347.45 90.00,212.90" />
<polygon fill="#22a06b" fill-opacity="0.8" points="90.00,212.90 249.23,347.45 355.38,350.32 514.62,362.58 620.77,363.14 780.00,354.51 780.00,360.78 620.77,369.40 514.62,368.86 355.38,356.82 249.23,354.40 90.00,228.22" />
<polygon fill="#e4572e" fill-opacity="0.8" points="90.00,228.22 249.23,354.40 355.38,356.82 514.62,368.86 620.77,369.40 780.00,360.78 780.00,465.00 620.77,464.98 514.62,464.92 355.38,464.35 249.23,462.39 90.00,444.09" />
<polygon fill="#2a7fff" fill-opacity="0.8" points="90.00,444.09 249.23,462.39 355.38,464.35 514.62,464.92 620.77,464.98 780.00,465.00 780.00,465.00 90.00,465.00" />
<rect x="790.0" y="59.0" width="12" height="12" fill="#d946ef" />
<text class="label" x="808.0" y="69.0">Other</text>
<rect x="790.0" y="79.0" width="12" height="12" fill="#a16207" />
<text class="label" x="808.0" y="89.0">MMPH_Buckets</text>
<rect x="790.0" y="99.0" width="12" height="12" fill="#7c3aed" />
<text class="label" x="808.0" y="109.0">MMPH_Trie</text>
<rect x="790.0" y="119.0" width="12" height="12" fill="#22a06b" />
<text class="label" x="808.0" y="129.0">Leaf_BitVector</text>
<rect x="790.0" y="139.0" width="12" height="12" fill="#e4572e" />
<text class="label" x="808.0" y="149.0">HZFastTrie</text>
<rect x="790.0" y="159.0" width="12" height="12" fill="#2a7fff" />
<text class="label" x="808.0" y="169.0">Top_Level_Header</text>
<text class="label" x="480.0" y="522.0" text-anchor="middle">Keys (N)</text>
<text class="label" transform="translate(20,270.0) rotate(-90)" text-anchor="middle">bits/key</text>
</svg>