<svg xmlns="http://www.w3.org/2000/svg" width="960.0" height="540.0" viewBox="0 0 960.0 540.0">
<style>text{font-family:Menlo,Monaco,monospace;font-size:12px;fill:#222} .axis{stroke:#333;stroke-width:1} .grid{stroke:#ddd;stroke-width:1} .label{font-size:11px;fill:#444}</style>
<text x="480.0" y="26" text-anchor="middle">LERLOC Memory Efficiency Breakdown</text>
<line class="axis" x1="90.0" y1="465.0" x2="780.0" y2="465.0" />
<line class="axis" x1="90.0" y1="55.0" x2="90.0" y2="465.0" />
<line class="grid" x1="90.0" y1="465.00" x2="780.0" y2="465.00" />
<text class="label" x="82.0" y="469.00" text-anchor="end">0</text>
<line class="grid" x1="90.0" y1="383.00" x2="780.0" y2="383.00" />
<text class="label" x="82.0" y="387.00" text-anchor="end">55</text>
<line class="grid" x1="90.0" y1="301.00" x2="780.0" y2="301.00" />
<text class="label" x="82.0" y="305.00" text-anchor="end">110</text>
<line class="grid" x1="90.0" y1="219.00" x2="780.0" y2="219.00" />
<text class="label" x="82.0" y="223.00" text-anchor="end">165</text>
<line class="grid" x1="90.0" y1="137.00" x2="780.0" y2="137.00" />
<text class="label" x="82.0" y="141.00" text-anchor="end">220</text>
<line class="grid" x1="90.0" y1="55.00" x2="780.0" y2="55.00" />
<text class="label" x="82.0" y="59.00" text-anchor="end">275</text>
<line class="grid" x1="90.00" y1="55.0" x2="90.00" y2="465.0" />
<text class="label" x="90.00" y="485.0" text-anchor="middle">32</text>
<line class="grid" x1="249.23" y1="55.0" x2="249.23" y2="465.0" />
<text class="label" x="249.23" y="485.0" text-anchor="middle">256</text>
<line class="grid" x1="355.38" y1="55.0" x2="355.38" y2="465.0" />
<text class="label" x="355.38" y="485.0" text-anchor="middle">1,024</text>
<line class="grid" x1="514.62" y1="55.0" x2="514.62" y2="465.0" />
<text class="label" x="514.62" y="485.0" text-anchor="middle">8,192</text>
<line class="grid" x1="620.77" y1="55.0" x2="620.77" y2="465.0" />
<text class="label" x="620.77" y="485.0" text-anchor="middle">32,768</text>
<line class="grid" x1="780.00" y1="55.0" x2="780.00" y2="465.0" />
<text class="label" x="780.00" y="485.0" text-anchor="middle">262,144</text>
<polygon fill="#a16207" fill-opacity="0.8" points="90.00,92.27 249.23,243.84 355.38,265.69 514.62,279.10 620.77,278.64 780.00,270.09 780.00,342.70 620.77,351.26 514.62,351.74 355.38,338.50 249.23,318.00 90.00,185.17" />
<polygon fill="#7c3aed" fill-opacity="0.8" points="90.00,185.17 249.23,318.00 355.38,338.50 514.62,351.74 620.77,351.26 780.00,342.70 780.00,347.16 620.77,355.76 514.62,355.07 355.38,342.76 249.23,324.25 90.00,212.78" />
<polygon fill="#22a06b" fill-opacity="0.8" points="90.00,212.78 249.23,324.25 355.38,342.76 514.62,355.07 620.77,355.76 780.00,347.16 780.00,353.42 620.77,362.02 514.62,361.33 355.38,349.15 249.23,331.20 90.00,228.08" />
<polygon fill="#e4572e" fill-opacity="0.8" points="90.00,228.08 249.23,331.20 355.38,349.15 514.62,361.33 620.77,362.02 780.00,353.42 780.00,457.58 620.77,457.50 514.62,457.33 355.38,455.11 249.23,447.84 90.00,381.43" />
<polygon fill="#2a7fff" fill-opacity="0.8" points="90.00,381.43 249.23,447.84 355.38,455.11 514.62,457.33 620.77,457.50 780.00,457.58 780.00,465.00 90.00,465.00" />
<rect x="790.0" y="59.0" width="12" height="12" fill="#a16207" />
<text class="label" x="808.0" y="69.0">MMPH_Buckets</text>
<rect x="790.0" y="79.0" width="12" height="12" fill="#7c3aed" />
<text class="label" x="808.0" y="89.0">MMPH_Trie</text>
<rect x="790.0" y="99.0" width="12" height="12" fill="#22a06b" />
<text class="label" x="808.0" y="109.0">Leaf_BitVector</text>
<rect x="790.0" y="119.0" width="12" height="12" fill="#e4572e" />
<text class="label" x="808.0" y="129.0">HZFastTrie</text>
<rect x="790.0" y="139.0" width="12" height="12" fill="#2a7fff" />
<text class="label" x="808.0" y="149.0">Other</text>
<text class="label" x="480.0" y="522.0" text-anchor="middle">Keys (N)</text>
<text class="label" transform="translate(20,270.0) rotate(-90)" text-anchor="middle">bits/key</text>
</svg>