<svg xmlns="http://www.w3.org/2000/svg" width="960.0" height="540.0" viewBox="0 0 960.0 540.0">
<style>text{font-family:Menlo,Monaco,monospace;font-size:12px;fill:#222} .axis{stroke:#333;stroke-width:1} .grid{stroke:#ddd;stroke-width:1} .label{font-size:11px;fill:#444}</style>
<text x="480.0" y="26" text-anchor="middle">LERLOC Memory Usage Breakdown</text>
<line class="axis" x1="90.0" y1="465.0" x2="780.0" y2="465.0" />
<line class="axis" x1="90.0" y1="55.0" x2="90.0" y2="465.0" />
<line class="grid" x1="90.0" y1="465.00" x2="780.0" y2="465.00" />
<text class="label" x="82.0" y="469.00" text-anchor="end">0</text>
<line class="grid" x1="90.0" y1="383.00" x2="780.0" y2="383.00" />
<text class="label" x="82.0" y="387.00" text-anchor="end">941,511</text>
<line class="grid" x1="90.0" y1="301.00" x2="780.0" y2="301.00" />
<text class="label" x="82.0" y="305.00" text-anchor="end">1,883,022</text>
<line class="grid" x1="90.0" y1="219.00" x2="780.0" y2="219.00" />
<text class="label" x="82.0" y="223.00" text-anchor="end">2,824,533</text>
<line class="grid" x1="90.0" y1="137.00" x2="780.0" y2="137.00" />
<text class="label" x="82.0" y="141.00" text-anchor="end">3,766,044</text>
<line class="grid" x1="90.0" y1="55.00" x2="780.0" y2="55.00" />
<text class="label" x="82.0" y="59.00" text-anchor="end">4,707,554</text>
<line class="grid" x1="90.00" y1="55.0" x2="90.00" y2="465.0" />
<text class="label" x="90.00" y="485.0" text-anchor="middle">32</text>
<line class="grid" x1="249.23" y1="55.0" x2="249.23" y2="465.0" />
<text class="label" x="249.23" y="485.0" text-anchor="middle">256</text>
<line class="grid" x1="355.38" y1="55.0" x2="355.38" y2="465.0" />
<text class="label" x="355.38" y="485.0" text-anchor="middle">1,024</text>
<line class="grid" x1="514.62" y1="55.0" x2="514.62" y2="465.0" />
<text class="label" x="514.62" y="485.0" text-anchor="middle">8,192</text>
<line class="grid" x1="620.77" y1="55.0" x2="620.77" y2="465.0" />
<text class="label" x="620.77" y="485.0" text-anchor="middle">32,768</text>
<line class="grid" x1="780.00" y1="55.0" x2="780.00" y2="465.0" />
<text class="label" x="780.00" y="485.0" text-anchor="middle">262,144</text>
<polygon fill="#a16207" fill-opacity="0.8" points="90.00,464.91 249.23,464.59 355.38,463.51 514.62,453.89 620.77,420.45 780.00,92.27 780.00,231.13 620.77,437.81 514.62,458.23 355.38,464.06 249.23,464.73 90.00,464.93" />
<polygon fill="#7c3aed" fill-opacity="0.8" points="90.00,464.93 249.23,464.73 355.38,464.06 514.62,458.23 620.77,437.81 780.00,231.13 780.00,239.66 620.77,438.89 514.62,458.43 355.38,464.09 249.23,464.74 90.00,464.94" />
<polygon fill="#22a06b" fill-opacity="0.8" points="90.00,464.94 249.23,464.74 355.38,464.09 514.62,458.43 620.77,438.89 780.00,239.66 780.00,251.63 620.77,440.39 514.62,458.80 355.38,464.13 249.23,464.75 90.00,464.94" />
<polygon fill="#e4572e" fill-opacity="0.8" points="90.00,464.94 249.23,464.75 355.38,464.13 514.62,458.80 620.77,440.39 780.00,251.63 780.00,450.80 620.77,463.21 514.62,464.54 355.38,464.93 249.23,464.97 90.00,464.98" />
<polygon fill="#2a7fff" fill-opacity="0.8" points="90.00,464.98 249.23,464.97 355.38,464.93 514.62,464.54 620.77,463.21 780.00,450.80 780.00,465.00 90.00,465.00" />
<rect x="790.0" y="59.0" width="12" height="12" fill="#a16207" />
<text class="label" x="808.0" y="69.0">MMPH_Buckets</text>
<rect x="790.0" y="79.0" width="12" height="12" fill="#7c3aed" />
<text class="label" x="808.0" y="89.0">MMPH_Trie</text>
<rect x="790.0" y="99.0" width="12" height="12" fill="#22a06b" />
<text class="label" x="808.0" y="109.0">Leaf_BitVector</text>
<rect x="790.0" y="119.0" width="12" height="12" fill="#e4572e" />
<text class="label" x="808.0" y="129.0">HZFastTrie</text>
<rect x="790.0" y="139.0" width="12" height="12" fill="#2a7fff" />
<text class="label" x="808.0" y="149.0">Other</text>
<text class="label" x="480.0" y="522.0" text-anchor="middle">Keys (N)</text>
<text class="label" transform="translate(20,270.0) rotate(-90)" text-anchor="middle">Bytes</text>
</svg>