<svg xmlns="http://www.w3.org/2000/svg" width="960.0" height="540.0" viewBox="0 0 960.0 540.0">
<style>text{font-family:Menlo,Monaco,monospace;font-size:12px;fill:#222} .axis{stroke:#333;stroke-width:1} .grid{stroke:#ddd;stroke-width:1} .label{font-size:11px;fill:#444}</style>
<text x="480.0" y="26" text-anchor="middle">LERLOC Memory Efficiency Breakdown (KeySize=64)</text>
<line class="axis" x1="90.0" y1="465.0" x2="780.0" y2="465.0" />
<line class="axis" x1="90.0" y1="55.0" x2="90.0" y2="465.0" />
<line class="grid" x1="90.0" y1="465.00" x2="780.0" y2="465.00" />
<text class="label" x="82.0" y="469.00" text-anchor="end">0</text>
<line class="grid" x1="90.0" y1="383.00" x2="780.0" y2="383.00" />
<text class="label" x="82.0" y="387.00" text-anchor="end">54</text>
<line class="grid" x1="90.0" y1="301.00" x2="780.0" y2="301.00" />
<text class="label" x="82.0" y="305.00" text-anchor="end">108</text>
<line class="grid" x1="90.0" y1="219.00" x2="780.0" y2="219.00" />
<text class="label" x="82.0" y="223.00" text-anchor="end">161</text>
<line class="grid" x1="90.0" y1="137.00" x2="780.0" y2="137.00" />
<text class="label" x="82.0" y="141.00" text-anchor="end">215</text>
<line class="grid" x1="90.0" y1="55.00" x2="780.0" y2="55.00" />
<text class="label" x="82.0" y="59.00" text-anchor="end">269</text>
<line class="grid" x1="90.00" y1="55.0" x2="90.00" y2="465.0" />
<text class="label" x="90.00" y="485.0" text-anchor="middle">32</text>
<line class="grid" x1="249.23" y1="55.0" x2="249.23" y2="465.0" />
<text class="label" x="249.23" y="485.0" text-anchor="middle">256</text>
<line class="grid" x1="355.38" y1="55.0" x2="355.38" y2="465.0" />
<text class="label" x="355.38" y="485.0" text-anchor="middle">1,024</text>
<line class="grid" x1="514.62" y1="55.0" x2="514.62" y2="465.0" />
<text class="label" x="514.62" y="485.0" text-anchor="middle">8,192</text>
<line class="grid" x1="620.77" y1="55.0" x2="620.77" y2="465.0" />
<text class="label" x="620.77" y="485.0" text-anchor="middle">32,768</text>
<line class="grid" x1="780.00" y1="55.0" x2="780.00" y2="465.0" />
<text class="label" x="780.00" y="485.0" text-anchor="middle">262,144</text>
<polygon fill="#d946ef" fill-opacity="0.8" points="90.00,92.27 249.23,254.96 355.38,268.27 514.62,282.82 620.77,282.66 780.00,271.50 780.00,271.50 620.77,282.66 514.62,282.82 355.38,268.27 249.23,254.96 90.00,92.27" />
<polygon fill="#a16207" fill-opacity="0.8" points="90.00,92.27 249.23,254.96 355.38,268.27 514.62,282.82 620.77,282.66 780.00,271.50 780.00,345.74 620.77,356.55 514.62,357.35 355.38,345.30 249.23,332.47 90.00,188.69" />
<polygon fill="#7c3aed" fill-opacity="0.8" points="90.00,188.69 249.23,332.47 355.38,345.30 514.62,357.35 620.77,356.55 780.00,345.74 780.00,352.20 620.77,361.17 514.62,360.79 355.38,349.65 249.23,338.85 90.00,216.90" />
<polygon fill="#22a06b" fill-opacity="0.8" points="90.00,216.90 249.23,338.85 355.38,349.65 514.62,360.79 620.77,361.17 780.00,352.20 780.00,358.59 620.77,367.56 514.62,367.19 355.38,356.29 249.23,345.95 90.00,232.52" />
<polygon fill="#e4572e" fill-opacity="0.8" points="90.00,232.52 249.23,345.95 355.38,356.29 514.62,367.19 620.77,367.56 780.00,358.59 780.00,465.00 620.77,464.98 514.62,464.92 355.38,464.33 249.23,462.33 90.00,443.66" />
<polygon fill="#2a7fff" fill-opacity="0.8" points="90.00,443.66 249.23,462.33 355.38,464.33 514.62,464.92 620.77,464.98 780.00,465.00 780.00,465.00 90.00,465.00" />
<rect x="790.0" y="59.0" width="12" height="12" fill="#d946ef" />
<text class="label" x="808.0" y="69.0">Other</text>
<rect x="790.0" y="79.0" width="12" height="12" fill="#a16207" />
<text class="label" x="808.0" y="89.0">MMPH_Buckets</text>
<rect x="790.0" y="99.0" width="12" height="12" fill="#7c3aed" />
<text class="label" x="808.0" y="109.0">MMPH_Trie</text>
<rect x="790.0" y="119.0" width="12" height="12" fill="#22a06b" />
<text class="label" x="808.0" y="129.0">Leaf_BitVector</text>
<rect x="790.0" y="139.0" width="12" height="12" fill="#e4572e" />
<text class="label" x="808.0" y="149.0">HZFastTrie</text>
<rect x="790.0" y="159.0" width="12" height="12" fill="#2a7fff" />
<text class="label" x="808.0" y="169.0">Top_Level_Header</text>
<text class="label" x="480.0" y="522.0" text-anchor="middle">Keys (N)</text>
<text class="label" transform="translate(20,270.0) rotate(-90)" text-anchor="middle">bits/key</text>
</svg>