<svg xmlns="http://www.w3.org/2000/svg" width="960.0" height="540.0" viewBox="0 0 960.0 540.0">
<style>text{font-family:Menlo,Monaco,monospace;font-size:12px;fill:#222} .axis{stroke:#333;stroke-width:1} .grid{stroke:#ddd;stroke-width:1} .label{font-size:11px;fill:#444}</style>
<text x="480.0" y="26" text-anchor="middle">MMPH Memory Usage Breakdown</text>
<line class="axis" x1="90.0" y1="465.0" x2="780.0" y2="465.0" />
<line class="axis" x1="90.0" y1="55.0" x2="90.0" y2="465.0" />
<line class="grid" x1="90.0" y1="465.00" x2="780.0" y2="465.00" />
<text class="label" x="82.0" y="469.00" text-anchor="end">0</text>
<line class="grid" x1="90.0" y1="383.00" x2="780.0" y2="383.00" />
<text class="label" x="82.0" y="387.00" text-anchor="end">4,049,110</text>
<line class="grid" x1="90.0" y1="301.00" x2="780.0" y2="301.00" />
<text class="label" x="82.0" y="305.00" text-anchor="end">8,098,219</text>
<line class="grid" x1="90.0" y1="219.00" x2="780.0" y2="219.00" />
<text class="label" x="82.0" y="223.00" text-anchor="end">12,147,329</text>
<line class="grid" x1="90.0" y1="137.00" x2="780.0" y2="137.00" />
<text class="label" x="82.0" y="141.00" text-anchor="end">16,196,439</text>
<line class="grid" x1="90.0" y1="55.00" x2="780.0" y2="55.00" />
<text class="label" x="82.0" y="59.00" text-anchor="end">20,245,548</text>
<line class="grid" x1="90.00" y1="55.0" x2="90.00" y2="465.0" />
<text class="label" x="90.00" y="485.0" text-anchor="middle">32</text>
<line class="grid" x1="205.00" y1="55.0" x2="205.00" y2="465.0" />
<text class="label" x="205.00" y="485.0" text-anchor="middle">256</text>
<line class="grid" x1="281.67" y1="55.0" x2="281.67" y2="465.0" />
<text class="label" x="281.67" y="485.0" text-anchor="middle">1,024</text>
<line class="grid" x1="396.67" y1="55.0" x2="396.67" y2="465.0" />
<text class="label" x="396.67" y="485.0" text-anchor="middle">8,192</text>
<line class="grid" x1="473.33" y1="55.0" x2="473.33" y2="465.0" />
<text class="label" x="473.33" y="485.0" text-anchor="middle">32,768</text>
<line class="grid" x1="588.33" y1="55.0" x2="588.33" y2="465.0" />
<text class="label" x="588.33" y="485.0" text-anchor="middle">262,144</text>
<line class="grid" x1="665.00" y1="55.0" x2="665.00" y2="465.0" />
<text class="label" x="665.00" y="485.0" text-anchor="middle">1.0e+06</text>
<line class="grid" x1="780.00" y1="55.0" x2="780.00" y2="465.0" />
<text class="label" x="780.00" y="485.0" text-anchor="middle">8.4e+06</text>
<polygon fill="#a16207" fill-opacity="0.8" points="90.00,464.99 205.00,464.99 281.67,464.95 396.67,464.63 473.33,463.54 588.33,453.34 665.00,418.39 780.00,92.27 780.00,405.99 665.00,457.62 588.33,463.15 473.33,464.77 396.67,464.94 281.67,464.99 205.00,465.00 90.00,465.00" />
<polygon fill="#7c3aed" fill-opacity="0.8" points="90.00,465.00 205.00,465.00 281.67,464.99 396.67,464.94 473.33,464.77 588.33,463.15 665.00,457.62 780.00,405.99 780.00,433.15 665.00,461.02 588.33,464.00 473.33,464.87 396.67,464.97 281.67,464.99 205.00,465.00 90.00,465.00" />
<polygon fill="#22a06b" fill-opacity="0.8" points="90.00,465.00 205.00,465.00 281.67,464.99 396.67,464.97 473.33,464.87 588.33,464.00 665.00,461.02 780.00,433.15 780.00,433.15 665.00,461.02 588.33,464.00 473.33,464.87 396.67,464.97 281.67,464.99 205.00,465.00 90.00,465.00" />
<polygon fill="#e4572e" fill-opacity="0.8" points="90.00,465.00 205.00,465.00 281.67,464.99 396.67,464.97 473.33,464.87 588.33,464.00 665.00,461.02 780.00,433.15 780.00,433.15 665.00,461.02 588.33,464.00 473.33,464.87 396.67,464.97 281.67,464.99 205.00,465.00 90.00,465.00" />
<polygon fill="#2a7fff" fill-opacity="0.8" points="90.00,465.00 205.00,465.00 281.67,464.99 396.67,464.97 473.33,464.87 588.33,464.00 665.00,461.02 780.00,433.15 780.00,465.00 90.00,465.00" />
<rect x="790.0" y="59.0" width="12" height="12" fill="#a16207" />
<text class="label" x="808.0" y="69.0">MMPH_Buckets</text>
<rect x="790.0" y="79.0" width="12" height="12" fill="#7c3aed" />
<text class="label" x="808.0" y="89.0">MMPH_Trie</text>
<rect x="790.0" y="99.0" width="12" height="12" fill="#22a06b" />
<text class="label" x="808.0" y="109.0">Leaf_BitVector</text>
<rect x="790.0" y="119.0" width="12" height="12" fill="#e4572e" />
<text class="label" x="808.0" y="129.0">HZFastTrie</text>
<rect x="790.0" y="139.0" width="12" height="12" fill="#2a7fff" />
<text class="label" x="808.0" y="149.0">Other</text>
<text class="label" x="480.0" y="522.0" text-anchor="middle">Keys (N)</text>
<text class="label" transform="translate(20,270.0) rotate(-90)" text-anchor="middle">Bytes</text>
</svg>