<svg xmlns="http://www.w3.org/2000/svg" width="960.0" height="540.0" viewBox="0 0 960.0 540.0">
<style>text{font-family:Menlo,Monaco,monospace;font-size:12px;fill:#222} .axis{stroke:#333;stroke-width:1} .grid{stroke:#ddd;stroke-width:1} .label{font-size:11px;fill:#444}</style>
<text x="480.0" y="26" text-anchor="middle">MMPH Memory Efficiency Breakdown</text>
<line class="axis" x1="90.0" y1="465.0" x2="780.0" y2="465.0" />
<line class="axis" x1="90.0" y1="55.0" x2="90.0" y2="465.0" />
<line class="grid" x1="90.0" y1="465.00" x2="780.0" y2="465.00" />
<text class="label" x="82.0" y="469.00" text-anchor="end">0.0</text>
<line class="grid" x1="90.0" y1="383.00" x2="780.0" y2="383.00" />
<text class="label" x="82.0" y="387.00" text-anchor="end">14.6</text>
<line class="grid" x1="90.0" y1="301.00" x2="780.0" y2="301.00" />
<text class="label" x="82.0" y="305.00" text-anchor="end">29.1</text>
<line class="grid" x1="90.0" y1="219.00" x2="780.0" y2="219.00" />
<text class="label" x="82.0" y="223.00" text-anchor="end">43.7</text>
<line class="grid" x1="90.0" y1="137.00" x2="780.0" y2="137.00" />
<text class="label" x="82.0" y="141.00" text-anchor="end">58.3</text>
<line class="grid" x1="90.0" y1="55.00" x2="780.0" y2="55.00" />
<text class="label" x="82.0" y="59.00" text-anchor="end">72.9</text>
<line class="grid" x1="90.00" y1="55.0" x2="90.00" y2="465.0" />
<text class="label" x="90.00" y="485.0" text-anchor="middle">32</text>
<line class="grid" x1="205.00" y1="55.0" x2="205.00" y2="465.0" />
<text class="label" x="205.00" y="485.0" text-anchor="middle">256</text>
<line class="grid" x1="281.67" y1="55.0" x2="281.67" y2="465.0" />
<text class="label" x="281.67" y="485.0" text-anchor="middle">1,024</text>
<line class="grid" x1="396.67" y1="55.0" x2="396.67" y2="465.0" />
<text class="label" x="396.67" y="485.0" text-anchor="middle">8,192</text>
<line class="grid" x1="473.33" y1="55.0" x2="473.33" y2="465.0" />
<text class="label" x="473.33" y="485.0" text-anchor="middle">32,768</text>
<line class="grid" x1="588.33" y1="55.0" x2="588.33" y2="465.0" />
<text class="label" x="588.33" y="485.0" text-anchor="middle">262,144</text>
<line class="grid" x1="665.00" y1="55.0" x2="665.00" y2="465.0" />
<text class="label" x="665.00" y="485.0" text-anchor="middle">1.0e+06</text>
<line class="grid" x1="780.00" y1="55.0" x2="780.00" y2="465.0" />
<text class="label" x="780.00" y="485.0" text-anchor="middle">8.4e+06</text>
<polygon fill="#a16207" fill-opacity="0.8" points="90.00,92.27 205.00,359.34 281.67,372.35 396.67,375.38 473.33,376.29 588.33,376.12 665.00,376.08 780.00,376.13 780.00,459.21 665.00,459.21 588.33,459.18 473.33,459.06 396.67,458.10 281.67,455.15 205.00,442.50 90.00,284.97" />
<polygon fill="#7c3aed" fill-opacity="0.8" points="90.00,284.97 205.00,442.50 281.67,455.15 396.67,458.10 473.33,459.06 588.33,459.18 665.00,459.21 780.00,459.21 780.00,465.00 665.00,465.00 588.33,464.99 473.33,464.93 396.67,464.74 281.67,462.89 205.00,456.56 90.00,397.49" />
<polygon fill="#22a06b" fill-opacity="0.8" points="90.00,397.49 205.00,456.56 281.67,462.89 396.67,464.74 473.33,464.93 588.33,464.99 665.00,465.00 780.00,465.00 780.00,465.00 665.00,465.00 588.33,464.99 473.33,464.93 396.67,464.74 281.67,462.89 205.00,456.56 90.00,397.49" />
<polygon fill="#e4572e" fill-opacity="0.8" points="90.00,397.49 205.00,456.56 281.67,462.89 396.67,464.74 473.33,464.93 588.33,464.99 665.00,465.00 780.00,465.00 780.00,465.00 665.00,465.00 588.33,464.99 473.33,464.93 396.67,464.74 281.67,462.89 205.00,456.56 90.00,397.49" />
<polygon fill="#2a7fff" fill-opacity="0.8" points="90.00,397.49 205.00,456.56 281.67,462.89 396.67,464.74 473.33,464.93 588.33,464.99 665.00,465.00 780.00,465.00 780.00,465.00 90.00,465.00" />
<rect x="790.0" y="59.0" width="12" height="12" fill="#a16207" />
<text class="label" x="808.0" y="69.0">MMPH_Buckets</text>
<rect x="790.0" y="79.0" width="12" height="12" fill="#7c3aed" />
<text class="label" x="808.0" y="89.0">MMPH_Trie</text>
<rect x="790.0" y="99.0" width="12" height="12" fill="#22a06b" />
<text class="label" x="808.0" y="109.0">Leaf_BitVector</text>
<rect x="790.0" y="119.0" width="12" height="12" fill="#e4572e" />
<text class="label" x="808.0" y="129.0">HZFastTrie</text>
<rect x="790.0" y="139.0" width="12" height="12" fill="#2a7fff" />
<text class="label" x="808.0" y="149.0">Other</text>
<text class="label" x="480.0" y="522.0" text-anchor="middle">Keys (N)</text>
<text class="label" transform="translate(20,270.0) rotate(-90)" text-anchor="middle">bits/key</text>
</svg>