<svg xmlns="http://www.w3.org/2000/svg" width="960.0" height="540.0" viewBox="0 0 960.0 540.0">
<style>text{font-family:Menlo,Monaco,monospace;font-size:12px;fill:#222} .axis{stroke:#333;stroke-width:1} .grid{stroke:#ddd;stroke-width:1} .label{font-size:11px;fill:#444}</style>
<text x="480.0" y="26" text-anchor="middle">String Length Distribution in Boundary Set P
N=100000, L=256, |P|=431329 (|P|/N=4.31)</text>
<line class="axis" x1="90.0" y1="465.0" x2="920.0" y2="465.0" />
<line class="axis" x1="90.0" y1="55.0" x2="90.0" y2="465.0" />
<line class="grid" x1="90.0" y1="465.00" x2="920.0" y2="465.00" />
<text class="label" x="82.0" y="469.00" text-anchor="end">0</text>
<line class="grid" x1="90.0" y1="383.00" x2="920.0" y2="383.00" />
<text class="label" x="82.0" y="387.00" text-anchor="end">22,000</text>
<line class="grid" x1="90.0" y1="301.00" x2="920.0" y2="301.00" />
<text class="label" x="82.0" y="305.00" text-anchor="end">44,000</text>
<line class="grid" x1="90.0" y1="219.00" x2="920.0" y2="219.00" />
<text class="label" x="82.0" y="223.00" text-anchor="end">66,000</text>
<line class="grid" x1="90.0" y1="137.00" x2="920.0" y2="137.00" />
<text class="label" x="82.0" y="141.00" text-anchor="end">88,000</text>
<line class="grid" x1="90.0" y1="55.00" x2="920.0" y2="55.00" />
<text class="label" x="82.0" y="59.00" text-anchor="end">110,000</text>
<rect x="90.00" y="465.00" width="11.72" height="0.00" fill="#2a7fff" />
<rect x="92.91" y="465.00" width="11.72" height="0.00" fill="#2a7fff" />
<rect x="95.81" y="464.99" width="11.72" height="0.01" fill="#2a7fff" />
<rect x="98.72" y="464.99" width="11.72" height="0.01" fill="#2a7fff" />
<rect x="101.63" y="464.97" width="11.72" height="0.03" fill="#2a7fff" />
<rect x="104.53" y="464.94" width="11.72" height="0.06" fill="#2a7fff" />
<rect x="107.44" y="464.88" width="11.72" height="0.12" fill="#2a7fff" />
<rect x="110.35" y="464.76" width="11.72" height="0.24" fill="#2a7fff" />
<rect x="113.25" y="464.52" width="11.72" height="0.48" fill="#2a7fff" />
<rect x="116.16" y="464.05" width="11.72" height="0.95" fill="#2a7fff" />
<rect x="119.07" y="463.09" width="11.72" height="1.91" fill="#2a7fff" />
<rect x="121.97" y="461.18" width="11.72" height="3.82" fill="#2a7fff" />
<rect x="124.88" y="457.37" width="11.72" height="7.63" fill="#2a7fff" />
<rect x="127.79" y="449.73" width="11.72" height="15.27" fill="#2a7fff" />
<rect x="130.69" y="434.47" width="11.72" height="30.53" fill="#2a7fff" />
<rect x="133.60" y="405.56" width="11.72" height="59.44" fill="#2a7fff" />
<rect x="136.51" y="371.85" width="11.72" height="93.15" fill="#2a7fff" />
<rect x="139.41" y="366.22" width="11.72" height="98.78" fill="#2a7fff" />
<rect x="142.32" y="389.44" width="11.72" height="75.56" fill="#2a7fff" />
<rect x="145.23" y="417.90" width="11.72" height="47.10" fill="#2a7fff" />
<rect x="148.13" y="438.78" width="11.72" height="26.22" fill="#2a7fff" />
<rect x="151.04" y="451.25" width="11.72" height="13.75" fill="#2a7fff" />
<rect x="153.95" y="458.01" width="11.72" height="6.99" fill="#2a7fff" />
<rect x="156.85" y="461.42" width="11.72" height="3.58" fill="#2a7fff" />
<rect x="159.76" y="463.15" width="11.72" height="1.85" fill="#2a7fff" />
<rect x="162.67" y="464.02" width="11.72" height="0.98" fill="#2a7fff" />
<rect x="165.57" y="464.50" width="11.72" height="0.50" fill="#2a7fff" />
<rect x="168.48" y="464.77" width="11.72" height="0.23" fill="#2a7fff" />
<rect x="171.39" y="464.85" width="11.72" height="0.15" fill="#2a7fff" />
<rect x="174.29" y="464.92" width="11.72" height="0.08" fill="#2a7fff" />
<rect x="177.20" y="464.95" width="11.72" height="0.05" fill="#2a7fff" />
<rect x="180.11" y="464.99" width="11.72" height="0.01" fill="#2a7fff" />
<rect x="183.01" y="464.99" width="11.72" height="0.01" fill="#2a7fff" />
<rect x="773.05" y="465.00" width="11.72" height="0.00" fill="#2a7fff" />
<rect x="790.49" y="464.99" width="11.72" height="0.01" fill="#2a7fff" />
<rect x="793.40" y="464.97" width="11.72" height="0.03" fill="#2a7fff" />
<rect x="796.31" y="464.97" width="11.72" height="0.03" fill="#2a7fff" />
<rect x="799.21" y="464.94" width="11.72" height="0.06" fill="#2a7fff" />
<rect x="802.12" y="464.86" width="11.72" height="0.14" fill="#2a7fff" />
<rect x="805.03" y="464.63" width="11.72" height="0.37" fill="#2a7fff" />
<rect x="807.93" y="464.24" width="11.72" height="0.76" fill="#2a7fff" />
<rect x="810.84" y="463.47" width="11.72" height="1.53" fill="#2a7fff" />
<rect x="813.75" y="462.03" width="11.72" height="2.97" fill="#2a7fff" />
<rect x="816.65" y="459.32" width="11.72" height="5.68" fill="#2a7fff" />
<rect x="819.56" y="453.57" width="11.72" height="11.43" fill="#2a7fff" />
<rect x="822.47" y="441.26" width="11.72" height="23.74" fill="#2a7fff" />
<rect x="825.37" y="418.14" width="11.72" height="46.86" fill="#2a7fff" />
<rect x="828.28" y="372.46" width="11.72" height="92.54" fill="#2a7fff" />
<rect x="831.19" y="278.43" width="11.72" height="186.57" fill="#2a7fff" />
<rect x="834.09" y="92.27" width="11.72" height="372.73" fill="#2a7fff" />
<rect x="837.00" y="92.27" width="11.72" height="372.73" fill="#2a7fff" />
<text class="label" x="90.00" y="485.0" text-anchor="middle">0</text>
<text class="label" x="162.67" y="485.0" text-anchor="middle">25</text>
<text class="label" x="235.33" y="485.0" text-anchor="middle">50</text>
<text class="label" x="308.00" y="485.0" text-anchor="middle">75</text>
<text class="label" x="380.66" y="485.0" text-anchor="middle">100</text>
<text class="label" x="453.33" y="485.0" text-anchor="middle">125</text>
<text class="label" x="525.99" y="485.0" text-anchor="middle">150</text>
<text class="label" x="598.66" y="485.0" text-anchor="middle">175</text>
<text class="label" x="671.32" y="485.0" text-anchor="middle">200</text>
<text class="label" x="743.99" y="485.0" text-anchor="middle">225</text>
<text class="label" x="816.65" y="485.0" text-anchor="middle">250</text>
<text class="label" x="480.0" y="522.0" text-anchor="middle">Bit Length</text>
<text class="label" transform="translate(20,270.0) rotate(-90)" text-anchor="middle">Frequency</text>
</svg>