<svg xmlns="http://www.w3.org/2000/svg" width="960.0" height="540.0" viewBox="0 0 960.0 540.0">
<style>text{font-family:Menlo,Monaco,monospace;font-size:12px;fill:#222} .axis{stroke:#333;stroke-width:1} .grid{stroke:#ddd;stroke-width:1} .label{font-size:11px;fill:#444}</style>
<text x="480.0" y="26" text-anchor="middle">Query Time vs Number of Keys</text>
<line class="axis" x1="90.0" y1="465.0" x2="920.0" y2="465.0" />
<line class="axis" x1="90.0" y1="55.0" x2="90.0" y2="465.0" />
<line class="grid" x1="90.0" y1="465.00" x2="920.0" y2="465.00" />
<text class="label" x="82.0" y="469.00" text-anchor="end">10^2</text>
<line class="grid" x1="90.0" y1="55.00" x2="920.0" y2="55.00" />
<text class="label" x="82.0" y="59.00" text-anchor="end">10^3</text>
<line class="grid" x1="90.00" y1="55.0" x2="90.00" y2="465.0" />
<text class="label" x="90.00" y="485.0" text-anchor="middle">32</text>
<line class="grid" x1="339.00" y1="55.0" x2="339.00" y2="465.0" />
<text class="label" x="339.00" y="485.0" text-anchor="middle">256</text>
<line class="grid" x1="505.00" y1="55.0" x2="505.00" y2="465.0" />
<text class="label" x="505.00" y="485.0" text-anchor="middle">1,024</text>
<line class="grid" x1="754.00" y1="55.0" x2="754.00" y2="465.0" />
<text class="label" x="754.00" y="485.0" text-anchor="middle">8,192</text>
<line class="grid" x1="920.00" y1="55.0" x2="920.00" y2="465.0" />
<text class="label" x="920.00" y="485.0" text-anchor="middle">32,768</text>
<polyline fill="none" stroke="#2a7fff" stroke-width="2.5" points="90.00,271.71 339.00,245.17 505.00,231.22 754.00,181.51 920.00,155.97" />
<circle cx="90.00" cy="271.71" r="3.5" fill="#2a7fff" />
<circle cx="339.00" cy="245.17" r="3.5" fill="#2a7fff" />
<circle cx="505.00" cy="231.22" r="3.5" fill="#2a7fff" />
<circle cx="754.00" cy="181.51" r="3.5" fill="#2a7fff" />
<circle cx="920.00" cy="155.97" r="3.5" fill="#2a7fff" />
<line x1="100.0" y1="67.0" x2="116.0" y2="67.0" stroke="#2a7fff" stroke-width="2.5" />
<text class="label" x="122.0" y="71.0">COMPACT_LERLOC (Compact) KeySize=64</text>
<polyline fill="none" stroke="#e4572e" stroke-width="2.5" points="90.00,257.17 339.00,242.08 505.00,221.75 754.00,172.06 920.00,147.90" />
<circle cx="90.00" cy="257.17" r="3.5" fill="#e4572e" />
<circle cx="339.00" cy="242.08" r="3.5" fill="#e4572e" />
<circle cx="505.00" cy="221.75" r="3.5" fill="#e4572e" />
<circle cx="754.00" cy="172.06" r="3.5" fill="#e4572e" />
<circle cx="920.00" cy="147.90" r="3.5" fill="#e4572e" />
<line x1="100.0" y1="85.0" x2="116.0" y2="85.0" stroke="#e4572e" stroke-width="2.5" />
<text class="label" x="122.0" y="89.0">COMPACT_LERLOC (Compact) KeySize=128</text>
<polyline fill="none" stroke="#22a06b" stroke-width="2.5" points="90.00,246.52 339.00,240.51 505.00,217.93 754.00,165.15 920.00,135.97" />
<circle cx="90.00" cy="246.52" r="3.5" fill="#22a06b" />
<circle cx="339.00" cy="240.51" r="3.5" fill="#22a06b" />
<circle cx="505.00" cy="217.93" r="3.5" fill="#22a06b" />
<circle cx="754.00" cy="165.15" r="3.5" fill="#22a06b" />
<circle cx="920.00" cy="135.97" r="3.5" fill="#22a06b" />
<line x1="100.0" y1="103.0" x2="116.0" y2="103.0" stroke="#22a06b" stroke-width="2.5" />
<text class="label" x="122.0" y="107.0">COMPACT_LERLOC (Compact) KeySize=256</text>
<text class="label" x="480.0" y="522.0" text-anchor="middle">Keys (N)</text>
<text class="label" transform="translate(20,270.0) rotate(-90)" text-anchor="middle">ns/op</text>
</svg>