<svg xmlns="http://www.w3.org/2000/svg" width="960.0" height="540.0" viewBox="0 0 960.0 540.0">
<style>text{font-family:Menlo,Monaco,monospace;font-size:12px;fill:#222} .axis{stroke:#333;stroke-width:1} .grid{stroke:#ddd;stroke-width:1} .label{font-size:11px;fill:#444}</style>
<text x="480.0" y="26" text-anchor="middle">Query Time vs Number of Keys</text>
<line class="axis" x1="90.0" y1="465.0" x2="920.0" y2="465.0" />
<line class="axis" x1="90.0" y1="55.0" x2="90.0" y2="465.0" />
<line class="grid" x1="90.0" y1="465.00" x2="920.0" y2="465.00" />
<text class="label" x="82.0" y="469.00" text-anchor="end">10^2</text>
<line class="grid" x1="90.0" y1="260.00" x2="920.0" y2="260.00" />
<text class="label" x="82.0" y="264.00" text-anchor="end">10^3</text>
<line class="grid" x1="90.0" y1="55.00" x2="920.0" y2="55.00" />
<text class="label" x="82.0" y="59.00" text-anchor="end">10^4</text>
<line class="grid" x1="90.00" y1="55.0" x2="90.00" y2="465.0" />
<text class="label" x="90.00" y="485.0" text-anchor="middle">32</text>
<line class="grid" x1="281.54" y1="55.0" x2="281.54" y2="465.0" />
<text class="label" x="281.54" y="485.0" text-anchor="middle">256</text>
<line class="grid" x1="409.23" y1="55.0" x2="409.23" y2="465.0" />
<text class="label" x="409.23" y="485.0" text-anchor="middle">1,024</text>
<line class="grid" x1="600.77" y1="55.0" x2="600.77" y2="465.0" />
<text class="label" x="600.77" y="485.0" text-anchor="middle">8,192</text>
<line class="grid" x1="728.46" y1="55.0" x2="728.46" y2="465.0" />
<text class="label" x="728.46" y="485.0" text-anchor="middle">32,768</text>
<line class="grid" x1="920.00" y1="55.0" x2="920.00" y2="465.0" />
<text class="label" x="920.00" y="485.0" text-anchor="middle">262,144</text>
<polyline fill="none" stroke="#2a7fff" stroke-width="2.5" points="90.00,227.23 281.54,255.66 409.23,222.14 600.77,192.93 728.46,205.18 920.00,188.32" />
<circle cx="90.00" cy="227.23" r="3.5" fill="#2a7fff" />
<circle cx="281.54" cy="255.66" r="3.5" fill="#2a7fff" />
<circle cx="409.23" cy="222.14" r="3.5" fill="#2a7fff" />
<circle cx="600.77" cy="192.93" r="3.5" fill="#2a7fff" />
<circle cx="728.46" cy="205.18" r="3.5" fill="#2a7fff" />
<circle cx="920.00" cy="188.32" r="3.5" fill="#2a7fff" />
<line x1="100.0" y1="67.0" x2="116.0" y2="67.0" stroke="#2a7fff" stroke-width="2.5" />
<text class="label" x="122.0" y="71.0">RLOC KeySize=64</text>
<polyline fill="none" stroke="#e4572e" stroke-width="2.5" points="90.00,274.73 281.54,251.51 409.23,201.74 600.77,177.22 728.46,164.93 920.00,173.50" />
<circle cx="90.00" cy="274.73" r="3.5" fill="#e4572e" />
<circle cx="281.54" cy="251.51" r="3.5" fill="#e4572e" />
<circle cx="409.23" cy="201.74" r="3.5" fill="#e4572e" />
<circle cx="600.77" cy="177.22" r="3.5" fill="#e4572e" />
<circle cx="728.46" cy="164.93" r="3.5" fill="#e4572e" />
<circle cx="920.00" cy="173.50" r="3.5" fill="#e4572e" />
<line x1="100.0" y1="85.0" x2="116.0" y2="85.0" stroke="#e4572e" stroke-width="2.5" />
<text class="label" x="122.0" y="89.0">RLOC KeySize=128</text>
<polyline fill="none" stroke="#22a06b" stroke-width="2.5" points="90.00,249.67 281.54,236.16 409.23,207.87 600.77,192.43 728.46,186.27 920.00,166.26" />
<circle cx="90.00" cy="249.67" r="3.5" fill="#22a06b" />
<circle cx="281.54" cy="236.16" r="3.5" fill="#22a06b" />
<circle cx="409.23" cy="207.87" r="3.5" fill="#22a06b" />
<circle cx="600.77" cy="192.43" r="3.5" fill="#22a06b" />
<circle cx="728.46" cy="186.27" r="3.5" fill="#22a06b" />
<circle cx="920.00" cy="166.26" r="3.5" fill="#22a06b" />
<line x1="100.0" y1="103.0" x2="116.0" y2="103.0" stroke="#22a06b" stroke-width="2.5" />
<text class="label" x="122.0" y="107.0">RLOC KeySize=256</text>
<polyline fill="none" stroke="#7c3aed" stroke-width="2.5" points="90.00,196.79 281.54,228.28 409.23,185.61" />
<circle cx="90.00" cy="196.79" r="3.5" fill="#7c3aed" />
<circle cx="281.54" cy="228.28" r="3.5" fill="#7c3aed" />
<circle cx="409.23" cy="185.61" r="3.5" fill="#7c3aed" />
<line x1="100.0" y1="121.0" x2="116.0" y2="121.0" stroke="#7c3aed" stroke-width="2.5" />
<text class="label" x="122.0" y="125.0">RLOC KeySize=512</text>
<text class="label" x="480.0" y="522.0" text-anchor="middle">Keys (N)</text>
<text class="label" transform="translate(20,270.0) rotate(-90)" text-anchor="middle">ns/op</text>
</svg>