<svg xmlns="http://www.w3.org/2000/svg" width="960.0" height="540.0" viewBox="0 0 960.0 540.0">
<style>text{font-family:Menlo,Monaco,monospace;font-size:12px;fill:#222} .axis{stroke:#333;stroke-width:1} .grid{stroke:#ddd;stroke-width:1} .label{font-size:11px;fill:#444}</style>
<text x="480.0" y="26" text-anchor="middle">Query Time vs Number of Keys</text>
<line class="axis" x1="90.0" y1="465.0" x2="920.0" y2="465.0" />
<line class="axis" x1="90.0" y1="55.0" x2="90.0" y2="465.0" />
<line class="grid" x1="90.0" y1="465.00" x2="920.0" y2="465.00" />
<text class="label" x="82.0" y="469.00" text-anchor="end">10^2</text>
<line class="grid" x1="90.0" y1="260.00" x2="920.0" y2="260.00" />
<text class="label" x="82.0" y="264.00" text-anchor="end">10^3</text>
<line class="grid" x1="90.0" y1="55.00" x2="920.0" y2="55.00" />
<text class="label" x="82.0" y="59.00" text-anchor="end">10^4</text>
<line class="grid" x1="90.00" y1="55.0" x2="90.00" y2="465.0" />
<text class="label" x="90.00" y="485.0" text-anchor="middle">32</text>
<line class="grid" x1="281.54" y1="55.0" x2="281.54" y2="465.0" />
<text class="label" x="281.54" y="485.0" text-anchor="middle">256</text>
<line class="grid" x1="409.23" y1="55.0" x2="409.23" y2="465.0" />
<text class="label" x="409.23" y="485.0" text-anchor="middle">1,024</text>
<line class="grid" x1="600.77" y1="55.0" x2="600.77" y2="465.0" />
<text class="label" x="600.77" y="485.0" text-anchor="middle">8,192</text>
<line class="grid" x1="728.46" y1="55.0" x2="728.46" y2="465.0" />
<text class="label" x="728.46" y="485.0" text-anchor="middle">32,768</text>
<line class="grid" x1="920.00" y1="55.0" x2="920.00" y2="465.0" />
<text class="label" x="920.00" y="485.0" text-anchor="middle">262,144</text>
<polyline fill="none" stroke="#2a7fff" stroke-width="2.5" points="90.00,267.03 281.54,236.23 409.23,200.50 600.77,193.95 728.46,182.32 920.00,162.31" />
<circle cx="90.00" cy="267.03" r="3.5" fill="#2a7fff" />
<circle cx="281.54" cy="236.23" r="3.5" fill="#2a7fff" />
<circle cx="409.23" cy="200.50" r="3.5" fill="#2a7fff" />
<circle cx="600.77" cy="193.95" r="3.5" fill="#2a7fff" />
<circle cx="728.46" cy="182.32" r="3.5" fill="#2a7fff" />
<circle cx="920.00" cy="162.31" r="3.5" fill="#2a7fff" />
<line x1="100.0" y1="67.0" x2="116.0" y2="67.0" stroke="#2a7fff" stroke-width="2.5" />
<text class="label" x="122.0" y="71.0">RLOC KeySize=64</text>
<polyline fill="none" stroke="#e4572e" stroke-width="2.5" points="90.00,259.29 281.54,220.35 409.23,179.86 600.77,174.15 728.46,149.44 920.00,213.13" />
<circle cx="90.00" cy="259.29" r="3.5" fill="#e4572e" />
<circle cx="281.54" cy="220.35" r="3.5" fill="#e4572e" />
<circle cx="409.23" cy="179.86" r="3.5" fill="#e4572e" />
<circle cx="600.77" cy="174.15" r="3.5" fill="#e4572e" />
<circle cx="728.46" cy="149.44" r="3.5" fill="#e4572e" />
<circle cx="920.00" cy="213.13" r="3.5" fill="#e4572e" />
<line x1="100.0" y1="85.0" x2="116.0" y2="85.0" stroke="#e4572e" stroke-width="2.5" />
<text class="label" x="122.0" y="89.0">RLOC KeySize=128</text>
<polyline fill="none" stroke="#22a06b" stroke-width="2.5" points="90.00,291.79 281.54,254.39 409.23,216.83 600.77,206.20 728.46,195.31 920.00,201.32" />
<circle cx="90.00" cy="291.79" r="3.5" fill="#22a06b" />
<circle cx="281.54" cy="254.39" r="3.5" fill="#22a06b" />
<circle cx="409.23" cy="216.83" r="3.5" fill="#22a06b" />
<circle cx="600.77" cy="206.20" r="3.5" fill="#22a06b" />
<circle cx="728.46" cy="195.31" r="3.5" fill="#22a06b" />
<circle cx="920.00" cy="201.32" r="3.5" fill="#22a06b" />
<line x1="100.0" y1="103.0" x2="116.0" y2="103.0" stroke="#22a06b" stroke-width="2.5" />
<text class="label" x="122.0" y="107.0">RLOC KeySize=256</text>
<polyline fill="none" stroke="#7c3aed" stroke-width="2.5" points="90.00,292.52 281.54,241.71 409.23,211.61 600.77,201.97 728.46,200.63 920.00,185.96" />
<circle cx="90.00" cy="292.52" r="3.5" fill="#7c3aed" />
<circle cx="281.54" cy="241.71" r="3.5" fill="#7c3aed" />
<circle cx="409.23" cy="211.61" r="3.5" fill="#7c3aed" />
<circle cx="600.77" cy="201.97" r="3.5" fill="#7c3aed" />
<circle cx="728.46" cy="200.63" r="3.5" fill="#7c3aed" />
<circle cx="920.00" cy="185.96" r="3.5" fill="#7c3aed" />
<line x1="100.0" y1="121.0" x2="116.0" y2="121.0" stroke="#7c3aed" stroke-width="2.5" />
<text class="label" x="122.0" y="125.0">RLOC KeySize=512</text>
<polyline fill="none" stroke="#a16207" stroke-width="2.5" points="90.00,269.57 281.54,251.03 409.23,208.02 600.77,190.53 728.46,185.00 920.00,181.87" />
<circle cx="90.00" cy="269.57" r="3.5" fill="#a16207" />
<circle cx="281.54" cy="251.03" r="3.5" fill="#a16207" />
<circle cx="409.23" cy="208.02" r="3.5" fill="#a16207" />
<circle cx="600.77" cy="190.53" r="3.5" fill="#a16207" />
<circle cx="728.46" cy="185.00" r="3.5" fill="#a16207" />
<circle cx="920.00" cy="181.87" r="3.5" fill="#a16207" />
<line x1="100.0" y1="139.0" x2="116.0" y2="139.0" stroke="#a16207" stroke-width="2.5" />
<text class="label" x="122.0" y="143.0">RLOC KeySize=1024</text>
<polyline fill="none" stroke="#d946ef" stroke-width="2.5" points="90.00,237.61 281.54,197.62 409.23,191.11 600.77,155.20 728.46,145.66 920.00,150.08" />
<circle cx="90.00" cy="237.61" r="3.5" fill="#d946ef" />
<circle cx="281.54" cy="197.62" r="3.5" fill="#d946ef" />
<circle cx="409.23" cy="191.11" r="3.5" fill="#d946ef" />
<circle cx="600.77" cy="155.20" r="3.5" fill="#d946ef" />
<circle cx="728.46" cy="145.66" r="3.5" fill="#d946ef" />
<circle cx="920.00" cy="150.08" r="3.5" fill="#d946ef" />
<line x1="100.0" y1="157.0" x2="116.0" y2="157.0" stroke="#d946ef" stroke-width="2.5" />
<text class="label" x="122.0" y="161.0">RLOC KeySize=4096</text>
<polyline fill="none" stroke="#0ea5e9" stroke-width="2.5" points="90.00,287.13 281.54,232.89 409.23,209.62 600.77,209.67 728.46,206.49 920.00,199.14" />
<circle cx="90.00" cy="287.13" r="3.5" fill="#0ea5e9" />
<circle cx="281.54" cy="232.89" r="3.5" fill="#0ea5e9" />
<circle cx="409.23" cy="209.62" r="3.5" fill="#0ea5e9" />
<circle cx="600.77" cy="209.67" r="3.5" fill="#0ea5e9" />
<circle cx="728.46" cy="206.49" r="3.5" fill="#0ea5e9" />
<circle cx="920.00" cy="199.14" r="3.5" fill="#0ea5e9" />
<line x1="100.0" y1="175.0" x2="116.0" y2="175.0" stroke="#0ea5e9" stroke-width="2.5" />
<text class="label" x="122.0" y="179.0">LERLOC (Fast) KeySize=64</text>
<polyline fill="none" stroke="#2a7fff" stroke-width="2.5" points="90.00,278.67 281.54,237.26 409.23,209.52 600.77,200.59 728.46,195.53 920.00,186.58" />
<circle cx="90.00" cy="278.67" r="3.5" fill="#2a7fff" />
<circle cx="281.54" cy="237.26" r="3.5" fill="#2a7fff" />
<circle cx="409.23" cy="209.52" r="3.5" fill="#2a7fff" />
<circle cx="600.77" cy="200.59" r="3.5" fill="#2a7fff" />
<circle cx="728.46" cy="195.53" r="3.5" fill="#2a7fff" />
<circle cx="920.00" cy="186.58" r="3.5" fill="#2a7fff" />
<line x1="100.0" y1="193.0" x2="116.0" y2="193.0" stroke="#2a7fff" stroke-width="2.5" />
<text class="label" x="122.0" y="197.0">LERLOC (Fast) KeySize=128</text>
<polyline fill="none" stroke="#e4572e" stroke-width="2.5" points="90.00,267.80 281.54,219.84 409.23,201.55 600.77,197.80 728.46,187.05 920.00,162.28" />
<circle cx="90.00" cy="267.80" r="3.5" fill="#e4572e" />
<circle cx="281.54" cy="219.84" r="3.5" fill="#e4572e" />
<circle cx="409.23" cy="201.55" r="3.5" fill="#e4572e" />
<circle cx="600.77" cy="197.80" r="3.5" fill="#e4572e" />
<circle cx="728.46" cy="187.05" r="3.5" fill="#e4572e" />
<circle cx="920.00" cy="162.28" r="3.5" fill="#e4572e" />
<line x1="100.0" y1="211.0" x2="116.0" y2="211.0" stroke="#e4572e" stroke-width="2.5" />
<text class="label" x="122.0" y="215.0">LERLOC (Fast) KeySize=256</text>
<polyline fill="none" stroke="#22a06b" stroke-width="2.5" points="90.00,248.18 281.54,218.38 409.23,194.67 600.77,188.40 728.46,178.85 920.00,158.41" />
<circle cx="90.00" cy="248.18" r="3.5" fill="#22a06b" />
<circle cx="281.54" cy="218.38" r="3.5" fill="#22a06b" />
<circle cx="409.23" cy="194.67" r="3.5" fill="#22a06b" />
<circle cx="600.77" cy="188.40" r="3.5" fill="#22a06b" />
<circle cx="728.46" cy="178.85" r="3.5" fill="#22a06b" />
<circle cx="920.00" cy="158.41" r="3.5" fill="#22a06b" />
<line x1="100.0" y1="229.0" x2="116.0" y2="229.0" stroke="#22a06b" stroke-width="2.5" />
<text class="label" x="122.0" y="233.0">LERLOC (Fast) KeySize=512</text>
<polyline fill="none" stroke="#7c3aed" stroke-width="2.5" points="90.00,246.48 281.54,207.77 409.23,196.18 600.77,185.00 728.46,173.91 920.00,154.14" />
<circle cx="90.00" cy="246.48" r="3.5" fill="#7c3aed" />
<circle cx="281.54" cy="207.77" r="3.5" fill="#7c3aed" />
<circle cx="409.23" cy="196.18" r="3.5" fill="#7c3aed" />
<circle cx="600.77" cy="185.00" r="3.5" fill="#7c3aed" />
<circle cx="728.46" cy="173.91" r="3.5" fill="#7c3aed" />
<circle cx="920.00" cy="154.14" r="3.5" fill="#7c3aed" />
<line x1="100.0" y1="247.0" x2="116.0" y2="247.0" stroke="#7c3aed" stroke-width="2.5" />
<text class="label" x="122.0" y="251.0">LERLOC (Fast) KeySize=1024</text>
<polyline fill="none" stroke="#a16207" stroke-width="2.5" points="90.00,248.65 281.54,209.37 409.23,198.69 600.77,185.54 728.46,168.11 920.00,148.67" />
<circle cx="90.00" cy="248.65" r="3.5" fill="#a16207" />
<circle cx="281.54" cy="209.37" r="3.5" fill="#a16207" />
<circle cx="409.23" cy="198.69" r="3.5" fill="#a16207" />
<circle cx="600.77" cy="185.54" r="3.5" fill="#a16207" />
<circle cx="728.46" cy="168.11" r="3.5" fill="#a16207" />
<circle cx="920.00" cy="148.67" r="3.5" fill="#a16207" />
<line x1="100.0" y1="265.0" x2="116.0" y2="265.0" stroke="#a16207" stroke-width="2.5" />
<text class="label" x="122.0" y="269.0">LERLOC (Fast) KeySize=4096</text>
<polyline fill="none" stroke="#d946ef" stroke-width="2.5" points="90.00,238.44 281.54,207.62 409.23,184.77 600.77,183.89 728.46,184.42 920.00,181.50" />
<circle cx="90.00" cy="238.44" r="3.5" fill="#d946ef" />
<circle cx="281.54" cy="207.62" r="3.5" fill="#d946ef" />
<circle cx="409.23" cy="184.77" r="3.5" fill="#d946ef" />
<circle cx="600.77" cy="183.89" r="3.5" fill="#d946ef" />
<circle cx="728.46" cy="184.42" r="3.5" fill="#d946ef" />
<circle cx="920.00" cy="181.50" r="3.5" fill="#d946ef" />
<line x1="100.0" y1="283.0" x2="116.0" y2="283.0" stroke="#d946ef" stroke-width="2.5" />
<text class="label" x="122.0" y="287.0">LERLOC (Compact) KeySize=64</text>
<polyline fill="none" stroke="#0ea5e9" stroke-width="2.5" points="90.00,243.47 281.54,204.51 409.23,177.61 600.77,178.39 728.46,168.62 920.00,162.82" />
<circle cx="90.00" cy="243.47" r="3.5" fill="#0ea5e9" />
<circle cx="281.54" cy="204.51" r="3.5" fill="#0ea5e9" />
<circle cx="409.23" cy="177.61" r="3.5" fill="#0ea5e9" />
<circle cx="600.77" cy="178.39" r="3.5" fill="#0ea5e9" />
<circle cx="728.46" cy="168.62" r="3.5" fill="#0ea5e9" />
<circle cx="920.00" cy="162.82" r="3.5" fill="#0ea5e9" />
<line x1="100.0" y1="301.0" x2="116.0" y2="301.0" stroke="#0ea5e9" stroke-width="2.5" />
<text class="label" x="122.0" y="305.0">LERLOC (Compact) KeySize=128</text>
<polyline fill="none" stroke="#2a7fff" stroke-width="2.5" points="90.00,219.44 281.54,186.55 409.23,170.42 600.77,157.31 728.46,162.07 920.00,139.89" />
<circle cx="90.00" cy="219.44" r="3.5" fill="#2a7fff" />
<circle cx="281.54" cy="186.55" r="3.5" fill="#2a7fff" />
<circle cx="409.23" cy="170.42" r="3.5" fill="#2a7fff" />
<circle cx="600.77" cy="157.31" r="3.5" fill="#2a7fff" />
<circle cx="728.46" cy="162.07" r="3.5" fill="#2a7fff" />
<circle cx="920.00" cy="139.89" r="3.5" fill="#2a7fff" />
<line x1="100.0" y1="319.0" x2="116.0" y2="319.0" stroke="#2a7fff" stroke-width="2.5" />
<text class="label" x="122.0" y="323.0">LERLOC (Compact) KeySize=256</text>
<polyline fill="none" stroke="#e4572e" stroke-width="2.5" points="90.00,199.00 281.54,178.17 409.23,150.71 600.77,151.84 728.46,140.44 920.00,133.97" />
<circle cx="90.00" cy="199.00" r="3.5" fill="#e4572e" />
<circle cx="281.54" cy="178.17" r="3.5" fill="#e4572e" />
<circle cx="409.23" cy="150.71" r="3.5" fill="#e4572e" />
<circle cx="600.77" cy="151.84" r="3.5" fill="#e4572e" />
<circle cx="728.46" cy="140.44" r="3.5" fill="#e4572e" />
<circle cx="920.00" cy="133.97" r="3.5" fill="#e4572e" />
<line x1="100.0" y1="337.0" x2="116.0" y2="337.0" stroke="#e4572e" stroke-width="2.5" />
<text class="label" x="122.0" y="341.0">LERLOC (Compact) KeySize=512</text>
<polyline fill="none" stroke="#22a06b" stroke-width="2.5" points="90.00,188.36 281.54,151.89 409.23,139.29 600.77,140.96 728.46,131.05 920.00,116.37" />
<circle cx="90.00" cy="188.36" r="3.5" fill="#22a06b" />
<circle cx="281.54" cy="151.89" r="3.5" fill="#22a06b" />
<circle cx="409.23" cy="139.29" r="3.5" fill="#22a06b" />
<circle cx="600.77" cy="140.96" r="3.5" fill="#22a06b" />
<circle cx="728.46" cy="131.05" r="3.5" fill="#22a06b" />
<circle cx="920.00" cy="116.37" r="3.5" fill="#22a06b" />
<line x1="100.0" y1="355.0" x2="116.0" y2="355.0" stroke="#22a06b" stroke-width="2.5" />
<text class="label" x="122.0" y="359.0">LERLOC (Compact) KeySize=1024</text>
<polyline fill="none" stroke="#7c3aed" stroke-width="2.5" points="90.00,162.91 281.54,134.29 409.23,116.75 600.77,113.89 728.46,106.69 920.00,112.37" />
<circle cx="90.00" cy="162.91" r="3.5" fill="#7c3aed" />
<circle cx="281.54" cy="134.29" r="3.5" fill="#7c3aed" />
<circle cx="409.23" cy="116.75" r="3.5" fill="#7c3aed" />
<circle cx="600.77" cy="113.89" r="3.5" fill="#7c3aed" />
<circle cx="728.46" cy="106.69" r="3.5" fill="#7c3aed" />
<circle cx="920.00" cy="112.37" r="3.5" fill="#7c3aed" />
<line x1="100.0" y1="373.0" x2="116.0" y2="373.0" stroke="#7c3aed" stroke-width="2.5" />
<text class="label" x="122.0" y="377.0">LERLOC (Compact) KeySize=4096</text>
<text class="label" x="480.0" y="522.0" text-anchor="middle">Keys (N)</text>
<text class="label" transform="translate(20,270.0) rotate(-90)" text-anchor="middle">ns/op</text>
</svg>