<svg xmlns="http://www.w3.org/2000/svg" width="960.0" height="540.0" viewBox="0 0 960.0 540.0">
<style>text{font-family:Menlo,Monaco,monospace;font-size:12px;fill:#222} .axis{stroke:#333;stroke-width:1} .grid{stroke:#ddd;stroke-width:1} .label{font-size:11px;fill:#444}</style>
<text x="480.0" y="26" text-anchor="middle">Query Time vs Key Length</text>
<line class="axis" x1="90.0" y1="465.0" x2="920.0" y2="465.0" />
<line class="axis" x1="90.0" y1="55.0" x2="90.0" y2="465.0" />
<line class="grid" x1="90.0" y1="465.00" x2="920.0" y2="465.00" />
<text class="label" x="82.0" y="469.00" text-anchor="end">0.00</text>
<line class="grid" x1="90.0" y1="383.00" x2="920.0" y2="383.00" />
<text class="label" x="82.0" y="387.00" text-anchor="end">630.52</text>
<line class="grid" x1="90.0" y1="301.00" x2="920.0" y2="301.00" />
<text class="label" x="82.0" y="305.00" text-anchor="end">1261.04</text>
<line class="grid" x1="90.0" y1="219.00" x2="920.0" y2="219.00" />
<text class="label" x="82.0" y="223.00" text-anchor="end">1891.56</text>
<line class="grid" x1="90.0" y1="137.00" x2="920.0" y2="137.00" />
<text class="label" x="82.0" y="141.00" text-anchor="end">2522.08</text>
<line class="grid" x1="90.0" y1="55.00" x2="920.0" y2="55.00" />
<text class="label" x="82.0" y="59.00" text-anchor="end">3152.60</text>
<line class="grid" x1="90.00" y1="55.0" x2="90.00" y2="465.0" />
<text class="label" x="90.00" y="485.0" text-anchor="middle">64</text>
<line class="grid" x1="366.67" y1="55.0" x2="366.67" y2="465.0" />
<text class="label" x="366.67" y="485.0" text-anchor="middle">128</text>
<line class="grid" x1="643.33" y1="55.0" x2="643.33" y2="465.0" />
<text class="label" x="643.33" y="485.0" text-anchor="middle">256</text>
<line class="grid" x1="920.00" y1="55.0" x2="920.00" y2="465.0" />
<text class="label" x="920.00" y="485.0" text-anchor="middle">512</text>
<polyline fill="none" stroke="#2a7fff" stroke-width="2.5" points="90.00,266.02 366.67,214.78 643.33,231.43 920.00,165.10" />
<circle cx="90.00" cy="266.02" r="3.5" fill="#2a7fff" />
<circle cx="366.67" cy="214.78" r="3.5" fill="#2a7fff" />
<circle cx="643.33" cy="231.43" r="3.5" fill="#2a7fff" />
<circle cx="920.00" cy="165.10" r="3.5" fill="#2a7fff" />
<line x1="100.0" y1="67.0" x2="116.0" y2="67.0" stroke="#2a7fff" stroke-width="2.5" />
<text class="label" x="122.0" y="71.0">RLOC N=1024</text>
<polyline fill="none" stroke="#e4572e" stroke-width="2.5" points="90.00,188.77 366.67,135.45 643.33,187.21" />
<circle cx="90.00" cy="188.77" r="3.5" fill="#e4572e" />
<circle cx="366.67" cy="135.45" r="3.5" fill="#e4572e" />
<circle cx="643.33" cy="187.21" r="3.5" fill="#e4572e" />
<line x1="100.0" y1="85.0" x2="116.0" y2="85.0" stroke="#e4572e" stroke-width="2.5" />
<text class="label" x="122.0" y="89.0">RLOC N=8192</text>
<polyline fill="none" stroke="#22a06b" stroke-width="2.5" points="90.00,174.08 366.67,121.40 643.33,92.27" />
<circle cx="90.00" cy="174.08" r="3.5" fill="#22a06b" />
<circle cx="366.67" cy="121.40" r="3.5" fill="#22a06b" />
<circle cx="643.33" cy="92.27" r="3.5" fill="#22a06b" />
<line x1="100.0" y1="103.0" x2="116.0" y2="103.0" stroke="#22a06b" stroke-width="2.5" />
<text class="label" x="122.0" y="107.0">RLOC N=262144</text>
<text class="label" x="480.0" y="522.0" text-anchor="middle">Key Length (L, bits)</text>
<text class="label" transform="translate(20,270.0) rotate(-90)" text-anchor="middle">ns/op</text>
</svg>